<?xml version="1.0" encoding="utf-8"?>
<!-- Generator: Adobe Illustrator 24.3.0, SVG Export Plug-In . SVG Version: 6.00 Build 0)  -->
<svg version="1.1" id="Слой_1" xmlns="http://www.w3.org/2000/svg" xmlns:xlink="http://www.w3.org/1999/xlink" x="0px" y="0px"
	 viewBox="0 0 1000 1000" style="enable-background:new 0 0 1000 1000;" xml:space="preserve">
<style type="text/css">
	.st0{fill:none;stroke:#000000;stroke-width:0.6;stroke-linecap:round;stroke-linejoin:round;}
	.st1{fill:none;stroke:#000000;stroke-linecap:round;stroke-linejoin:round;}
</style>
<path class="st0" d="M707.04,263.05h-19.95"/>
<path class="st0" d="M741.07,263.05h-19.95"/>
<path class="st0" d="M775.11,263.05h-19.95"/>
<path class="st0" d="M809.14,263.05h-19.95"/>
<path class="st0" d="M640.14,263.05h-19.95"/>
<path class="st0" d="M606.11,263.05h-19.95"/>
<path class="st0" d="M572.08,263.05h-19.95"/>
<path class="st0" d="M538.04,263.05h-19.95"/>
<path class="st0" d="M663.62,185.59v19.95"/>
<path class="st0" d="M663.62,219.62v19.95"/>
<path class="st0" d="M663.62,286.52v19.95"/>
<path class="st0" d="M663.62,320.55v19.95"/>
<path class="st0" d="M663.62,354.58v19.95"/>
<path class="st0" d="M663.62,388.62v19.95"/>
<path class="st0" d="M663.62,151.56v19.95"/>
<path class="st0" d="M663.62,117.52v19.95"/>
<path class="st0" d="M536.87,232.53C738.72,27.16,677.7,352.24,792.71,378.05"/>
<path d="M663.61,270c3.84,0,6.96-3.12,6.96-6.96c0-3.84-3.12-6.96-6.96-6.96c-3.84,0-6.96,3.12-6.96,6.96
	C656.66,266.89,659.77,270,663.61,270z"/>
<path d="M552.84,335.24c-0.59,0-1.16-0.23-1.58-0.65c-0.42-0.42-0.65-0.98-0.65-1.58v-23.21c0-0.59,0.23-1.16,0.65-1.57
	c0.42-0.42,0.99-0.65,1.58-0.65c0.59,0,1.16,0.23,1.57,0.65s0.65,0.98,0.65,1.57v23.21c0,0.59-0.23,1.16-0.65,1.58
	S553.43,335.24,552.84,335.24z"/>
<path d="M564.47,323.67h-23.34c-0.59-0.01-1.15-0.25-1.56-0.66c-0.41-0.42-0.65-0.98-0.66-1.56c0-0.59,0.23-1.16,0.65-1.58
	c0.42-0.42,0.98-0.65,1.57-0.65h23.25c0.59,0,1.16,0.23,1.58,0.65c0.42,0.42,0.65,0.98,0.65,1.58c0,0.57-0.22,1.13-0.62,1.54
	C565.59,323.4,565.04,323.64,564.47,323.67z"/>
<path d="M896.12,300.46c5.41,0,9.8-4.39,9.8-9.8s-4.39-9.8-9.8-9.8c-5.41,0-9.8,4.39-9.8,9.8S890.71,300.46,896.12,300.46z"/>
<path d="M523.31,508.02c-2.2,0-4.36-0.65-6.19-1.88c-1.83-1.23-3.26-2.97-4.1-5c-0.84-2.04-1.06-4.28-0.63-6.44
	c0.43-2.16,1.5-4.14,3.06-5.7c1.56-1.55,3.55-2.61,5.71-3.04c2.16-0.43,4.4-0.2,6.44,0.65c2.03,0.85,3.77,2.28,4.99,4.12
	c1.22,1.84,1.86,3.99,1.85,6.2c-0.01,2.94-1.19,5.77-3.28,7.84C529.09,506.85,526.26,508.02,523.31,508.02z M523.31,490.2
	c-1.32,0-2.61,0.39-3.71,1.13c-1.1,0.73-1.95,1.78-2.46,3c-0.51,1.22-0.64,2.56-0.38,3.86c0.26,1.3,0.89,2.49,1.83,3.42
	s2.12,1.57,3.42,1.83c1.3,0.26,2.64,0.13,3.86-0.38c1.22-0.51,2.26-1.36,3-2.46c0.73-1.1,1.13-2.39,1.13-3.71
	c-0.01-1.76-0.72-3.45-1.97-4.7c-1.25-1.24-2.94-1.94-4.71-1.94V490.2z"/>
<path d="M149.17,410.03c-2.2,0-4.36-0.65-6.19-1.88c-1.83-1.23-3.26-2.97-4.1-5c-0.84-2.04-1.06-4.28-0.63-6.44
	c0.43-2.16,1.5-4.15,3.06-5.7c1.56-1.56,3.55-2.61,5.71-3.04c2.16-0.42,4.4-0.2,6.44,0.65c2.03,0.85,3.77,2.28,4.99,4.12
	c1.22,1.84,1.86,4,1.85,6.2c-0.01,2.95-1.19,5.77-3.28,7.84C154.94,408.86,152.12,410.03,149.17,410.03z M149.17,392.21
	c-1.32,0-2.61,0.39-3.71,1.13c-1.1,0.73-1.95,1.78-2.46,3c-0.51,1.22-0.64,2.56-0.38,3.86c0.26,1.3,0.89,2.49,1.83,3.42
	c0.93,0.93,2.12,1.57,3.42,1.83c1.29,0.26,2.64,0.13,3.86-0.38c1.22-0.51,2.26-1.36,3-2.46c0.73-1.1,1.13-2.39,1.13-3.71
	c-0.01-1.76-0.72-3.45-1.97-4.69c-1.25-1.24-2.94-1.94-4.71-1.94V392.21z"/>
<path d="M104.63,214.05c-2.2,0-4.36-0.65-6.19-1.88c-1.83-1.23-3.26-2.97-4.1-5c-0.84-2.04-1.06-4.28-0.63-6.44
	c0.43-2.16,1.5-4.15,3.06-5.7c1.56-1.56,3.55-2.61,5.71-3.04c2.16-0.42,4.4-0.2,6.44,0.65c2.03,0.85,3.77,2.28,4.99,4.12
	c1.22,1.84,1.86,3.99,1.86,6.2c-0.01,2.95-1.19,5.77-3.28,7.84C110.4,212.88,107.58,214.05,104.63,214.05z M104.63,196.23
	c-1.32,0-2.61,0.39-3.71,1.13c-1.1,0.73-1.96,1.78-2.46,3c-0.51,1.22-0.64,2.56-0.38,3.86c0.26,1.3,0.89,2.49,1.83,3.42
	c0.93,0.93,2.12,1.57,3.42,1.83c1.3,0.26,2.64,0.13,3.86-0.38c1.22-0.51,2.26-1.36,3-2.46c0.73-1.1,1.13-2.39,1.13-3.71
	c-0.01-1.76-0.72-3.45-1.97-4.7c-1.25-1.24-2.94-1.94-4.71-1.94V196.23z"/>
<path d="M389.69,338.76c-2.2,0-4.36-0.65-6.19-1.88c-1.83-1.23-3.26-2.97-4.1-5c-0.84-2.04-1.06-4.28-0.63-6.44
	c0.43-2.16,1.5-4.15,3.06-5.7c1.56-1.56,3.55-2.61,5.71-3.04c2.16-0.42,4.4-0.2,6.44,0.65c2.03,0.85,3.77,2.28,4.99,4.12
	c1.22,1.84,1.86,4,1.85,6.2c-0.01,2.95-1.19,5.77-3.28,7.84C395.46,337.6,392.64,338.76,389.69,338.76z M389.69,320.95
	c-1.32,0-2.61,0.39-3.71,1.13c-1.1,0.73-1.95,1.78-2.46,3c-0.51,1.22-0.64,2.56-0.38,3.86c0.26,1.3,0.89,2.49,1.83,3.42
	c0.93,0.93,2.12,1.57,3.42,1.83c1.3,0.26,2.64,0.13,3.86-0.38c1.22-0.51,2.26-1.36,3-2.46c0.73-1.1,1.13-2.39,1.13-3.71
	c-0.01-1.76-0.72-3.45-1.97-4.7c-1.25-1.24-2.94-1.94-4.71-1.94V320.95z"/>
<path d="M959.81,427.85c-2.2,0-4.36-0.65-6.19-1.88c-1.83-1.22-3.26-2.97-4.1-5c-0.84-2.04-1.06-4.28-0.63-6.44
	c0.43-2.16,1.5-4.14,3.06-5.7c1.56-1.55,3.55-2.61,5.71-3.04c2.16-0.42,4.4-0.2,6.44,0.65c2.03,0.85,3.77,2.28,4.99,4.12
	c1.22,1.84,1.86,3.99,1.85,6.2c-0.01,2.95-1.19,5.77-3.28,7.84C965.58,426.68,962.76,427.85,959.81,427.85z M959.81,410.03
	c-1.32,0-2.61,0.39-3.71,1.13c-1.1,0.73-1.95,1.78-2.46,3c-0.51,1.22-0.64,2.56-0.38,3.86c0.26,1.3,0.89,2.49,1.83,3.42
	c0.94,0.93,2.13,1.57,3.42,1.83c1.29,0.26,2.64,0.13,3.86-0.38c1.22-0.51,2.26-1.36,3-2.46c0.73-1.1,1.13-2.39,1.13-3.71
	c-0.01-1.76-0.72-3.45-1.97-4.69c-1.25-1.24-2.94-1.94-4.71-1.94V410.03z"/>
<path d="M330.14,540.13c-0.59,0-1.16-0.23-1.57-0.65c-0.42-0.42-0.65-0.98-0.65-1.58V514.7c0-0.59,0.23-1.16,0.65-1.57
	c0.42-0.42,0.98-0.65,1.57-0.65c0.59,0,1.16,0.23,1.58,0.65c0.42,0.42,0.65,0.98,0.65,1.57v23.21c0,0.59-0.23,1.16-0.65,1.58
	C331.3,539.9,330.73,540.13,330.14,540.13z"/>
<path d="M341.77,528.55h-23.34c-0.59-0.01-1.15-0.25-1.56-0.66c-0.42-0.42-0.65-0.98-0.67-1.56c0-0.59,0.24-1.16,0.65-1.58
	c0.42-0.42,0.99-0.65,1.58-0.65h23.25c0.59,0,1.16,0.23,1.57,0.65s0.65,0.98,0.65,1.58c0,0.57-0.22,1.13-0.62,1.54
	C342.89,528.29,342.34,528.53,341.77,528.55z"/>
<path d="M45.08,798.47c-0.59,0-1.16-0.23-1.57-0.65c-0.42-0.42-0.65-0.98-0.65-1.57v-23.21c0-0.59,0.23-1.16,0.65-1.57
	c0.42-0.42,0.98-0.65,1.57-0.65c0.59,0,1.16,0.23,1.57,0.65c0.42,0.42,0.65,0.98,0.65,1.57v23.21c0,0.59-0.23,1.16-0.65,1.57
	C46.24,798.23,45.67,798.47,45.08,798.47z"/>
<path d="M56.7,786.89H33.37c-0.59-0.01-1.15-0.25-1.56-0.66c-0.42-0.42-0.65-0.98-0.66-1.56c0-0.59,0.23-1.16,0.65-1.58
	c0.42-0.42,0.98-0.65,1.57-0.65h23.25c0.59,0,1.16,0.23,1.57,0.65c0.42,0.42,0.65,0.99,0.65,1.58c0,0.58-0.22,1.13-0.62,1.54
	C57.82,786.62,57.28,786.87,56.7,786.89z"/>
<path d="M36.17,148.17c-0.59,0-1.16-0.23-1.57-0.65c-0.42-0.42-0.65-0.98-0.65-1.57v-23.21c0-0.59,0.23-1.16,0.65-1.57
	c0.42-0.42,0.98-0.65,1.57-0.65s1.16,0.23,1.57,0.65c0.42,0.42,0.65,0.98,0.65,1.57v23.21c0,0.59-0.23,1.16-0.65,1.57
	C37.33,147.94,36.76,148.17,36.17,148.17z"/>
<path d="M47.8,136.6H24.46c-0.59-0.01-1.15-0.25-1.56-0.66c-0.42-0.42-0.65-0.98-0.66-1.56c0-0.59,0.23-1.16,0.65-1.57
	c0.42-0.42,0.98-0.65,1.57-0.65h23.25c0.59,0,1.16,0.23,1.57,0.65c0.42,0.42,0.65,0.98,0.65,1.57c0,0.58-0.22,1.13-0.62,1.54
	C48.91,136.33,48.37,136.57,47.8,136.6z"/>
<path d="M918.08,157.08c-0.59,0-1.16-0.23-1.57-0.65c-0.42-0.42-0.65-0.98-0.65-1.57v-23.21c0-0.59,0.23-1.16,0.65-1.57
	c0.42-0.42,0.98-0.65,1.57-0.65c0.59,0,1.16,0.23,1.58,0.65c0.42,0.42,0.65,0.98,0.65,1.57v23.21c0,0.59-0.23,1.16-0.65,1.57
	C919.24,156.85,918.67,157.08,918.08,157.08z"/>
<path d="M929.7,145.5h-23.34c-0.59-0.01-1.15-0.25-1.56-0.66c-0.42-0.42-0.65-0.97-0.67-1.56c0-0.59,0.24-1.16,0.65-1.57
	c0.42-0.42,0.99-0.65,1.58-0.65h23.25c0.59,0,1.16,0.23,1.57,0.65s0.65,0.98,0.65,1.57c0,0.58-0.22,1.13-0.62,1.54
	C930.82,145.24,930.28,145.48,929.7,145.5z"/>
<path d="M370.54,157.93c5.41,0,9.8-4.39,9.8-9.8s-4.39-9.8-9.8-9.8s-9.8,4.39-9.8,9.8S365.13,157.93,370.54,157.93z"/>
<path d="M262.12,166.54c-20.33,4.31-40.45,9.52-60.85,13.5c-0.44,0.09-0.86,0.2-1.24,0.34c-0.67,0.24-2.49,0.75-4.1,1.1
	c-19.86,4.44-38.36,19.56-32.99,41.05c4.8,19.21,26.44,27.88,45.19,22.89c0.07-0.02,0.13-0.04,0.2-0.06
	c0.11-0.03,0.45,1.2,0.76,2.75c2.58,13.06,4.89,26.21,8.19,39.08c2.29,8.95,16.91,5.92,14.61-3.06
	c-3.96-15.47-6.43-31.38-9.78-46.99c-2.99-13.97-6.07-27.92-8.94-41.91c-0.32-1.56,0.73-3.09,2.34-3.44
	c6.81-1.46,13.6-3.02,20.39-4.59c1.61-0.37,3.16,0.59,3.48,2.15c5.93,29.33,12.73,58.5,18.87,87.78c1.9,9.07,16.51,6.01,14.61-3.07
	c-6.16-29.38-12.99-58.63-18.93-88.05c-0.31-1.56,0.74-3.11,2.35-3.47c2.93-0.66,5.86-1.3,8.79-1.93
	C274.49,178.6,271.54,164.54,262.12,166.54z M205.37,231.31c-0.06,0.01-0.13,0.03-0.19,0.04c-11.48,3.05-22.69-0.34-27.45-11.28
	c-5.16-11.86,6.75-19.85,17.46-23.41c1.56-0.52,3.11,0.4,3.43,1.96c2.04,9.96,4.18,19.9,6.34,29.84
	C205.29,230.01,205.48,231.29,205.37,231.31z"/>
<path class="st1" d="M532.36,881.67l49.55-390.97l244.56,339.52L532.36,881.67z"/>
<path class="st1" d="M532.36,881.67l-147.4-70.3L581.91,490.7"/>
<path d="M855.72,736.11c-0.59,0-1.16-0.23-1.57-0.65c-0.42-0.42-0.65-0.98-0.65-1.57v-23.21c0-0.59,0.23-1.16,0.65-1.57
	c0.42-0.42,0.98-0.65,1.57-0.65c0.59,0,1.16,0.23,1.58,0.65c0.42,0.42,0.65,0.98,0.65,1.57v23.21c0,0.59-0.23,1.16-0.65,1.57
	C856.88,735.88,856.31,736.11,855.72,736.11z"/>
<path d="M867.35,724.53h-23.34c-0.59-0.01-1.15-0.25-1.56-0.66c-0.42-0.42-0.65-0.98-0.67-1.56c0-0.59,0.24-1.16,0.65-1.58
	c0.42-0.42,0.99-0.65,1.58-0.65h23.25c0.59,0,1.16,0.23,1.57,0.65c0.42,0.42,0.65,0.99,0.65,1.58c0,0.58-0.22,1.13-0.62,1.54
	C868.46,724.27,867.92,724.51,867.35,724.53z"/>
<path d="M441.8,665.69c5.41,0,9.8-4.39,9.8-9.8c0-5.41-4.39-9.8-9.8-9.8c-5.41,0-9.8,4.39-9.8,9.8
	C432.01,661.31,436.39,665.69,441.8,665.69z"/>
<path d="M700.14,567.7c5.41,0,9.8-4.39,9.8-9.8c0-5.41-4.39-9.8-9.8-9.8c-5.41,0-9.8,4.39-9.8,9.8
	C690.34,563.32,694.73,567.7,700.14,567.7z"/>
<path d="M985.2,754.77c5.41,0,9.8-4.39,9.8-9.8c0-5.41-4.39-9.8-9.8-9.8c-5.41,0-9.8,4.39-9.8,9.8
	C975.4,750.39,979.79,754.77,985.2,754.77z"/>
<path d="M40.94,345c5.41,0,9.8-4.39,9.8-9.8c0-5.41-4.39-9.8-9.8-9.8s-9.8,4.39-9.8,9.8C31.14,340.61,35.53,345,40.94,345z"/>
<path d="M69.66,586.57l50.47,87.41c0.88,1.52,2.58,2.36,4.31,2.13c1.74-0.23,3.16-1.48,3.62-3.17L165,535.06
	c0.45-1.69-0.16-3.49-1.55-4.55c-1.39-1.07-3.28-1.19-4.8-0.31l-87.41,50.47C69.17,581.85,68.46,584.5,69.66,586.57z M153.93,542.91
	L122.4,660.6l-43.08-74.61L153.93,542.91z"/>
<path d="M143.81,792.57l94.65-353.24c0.45-1.69-0.16-3.49-1.55-4.55c-1.39-1.07-3.28-1.19-4.8-0.31L8.17,563.76
	c-2.07,1.2-2.78,3.84-1.58,5.91l129.29,223.94c0.88,1.52,2.58,2.36,4.31,2.13S143.35,794.26,143.81,792.57z M122.45,753.04
	l12.25-7.07c2.07-1.2,2.78-3.84,1.58-5.91c-1.2-2.07-3.84-2.78-5.91-1.59l-12.25,7.07l-4.91-8.5l4.25-2.45
	c2.07-1.2,2.78-3.84,1.58-5.91c-1.2-2.07-3.84-2.78-5.91-1.58l-4.25,2.45l-4.91-8.5l12.25-7.07c2.07-1.2,2.78-3.84,1.59-5.91
	c-1.2-2.07-3.84-2.78-5.91-1.59l-12.25,7.07l-4.91-8.5l4.25-2.45c2.07-1.2,2.78-3.84,1.58-5.91c-1.2-2.07-3.84-2.78-5.91-1.59
	l-4.25,2.45l-4.91-8.5l12.25-7.07c2.07-1.2,2.78-3.84,1.58-5.91c-1.2-2.07-3.84-2.78-5.91-1.59l-12.25,7.07l-4.91-8.5l4.25-2.45
	c2.07-1.2,2.78-3.84,1.58-5.91c-1.2-2.07-3.84-2.78-5.91-1.59l-4.25,2.45l-4.91-8.5L79.28,650c2.07-1.2,2.78-3.84,1.58-5.91
	c-1.2-2.07-3.84-2.78-5.91-1.58l-12.25,7.07l-4.91-8.5l4.25-2.45c2.07-1.2,2.78-3.84,1.58-5.91c-1.2-2.07-3.84-2.78-5.91-1.59
	l-4.25,2.45l-4.91-8.5L60.81,618c2.07-1.2,2.78-3.84,1.58-5.91c-1.2-2.07-3.84-2.78-5.91-1.58l-12.25,7.07l-4.91-8.5l4.25-2.45
	c2.07-1.2,2.78-3.84,1.58-5.91c-1.2-2.07-3.84-2.78-5.91-1.58L35,601.58l-4.91-8.5l12.25-7.07c2.07-1.2,2.78-3.84,1.58-5.91
	c-1.2-2.07-3.84-2.78-5.91-1.58l-12.25,7.07l-9.52-16.5l211.14-121.9l-89.24,333.05L122.45,753.04z"/>
<path d="M291.7,775.26c-2.2,0-4.36-0.65-6.19-1.88c-1.83-1.23-3.26-2.97-4.1-5c-0.84-2.04-1.06-4.28-0.63-6.44
	c0.43-2.16,1.5-4.14,3.06-5.7c1.56-1.55,3.55-2.61,5.71-3.04c2.16-0.43,4.4-0.2,6.44,0.65c2.03,0.85,3.77,2.28,4.99,4.12
	s1.86,3.99,1.85,6.2c-0.01,2.94-1.19,5.77-3.28,7.84C297.47,774.1,294.65,775.26,291.7,775.26z M291.7,757.45
	c-1.32,0-2.61,0.39-3.71,1.13c-1.1,0.73-1.95,1.78-2.46,3c-0.51,1.22-0.64,2.56-0.38,3.86s0.89,2.49,1.83,3.42
	c0.94,0.93,2.13,1.57,3.42,1.83c1.29,0.26,2.64,0.13,3.86-0.38c1.22-0.51,2.26-1.36,3-2.46c0.73-1.1,1.13-2.39,1.13-3.71
	c-0.01-1.76-0.72-3.45-1.97-4.7c-1.25-1.24-2.94-1.94-4.71-1.94V757.45z"/>
<path d="M824.86,518.95c-1.81,0.29-3.17,1.86-3.2,3.67l-1.68,105.01l-14.37-32.12c-0.5-1.11-1.5-1.89-2.7-2.13
	c-1.2-0.24-2.47,0.1-3.36,0.94l-14.41,13.48c-1.47,1.37-1.6,3.62-0.29,5.13l1.17,1.31c1.28,1.47,3.49,1.74,5.08,0.6l7.25-5.23
	L822.42,661c0.74,1.58,2.47,2.41,4.2,2.04c1.72-0.36,2.98-1.86,3.01-3.6l2.3-124.38L919,520.99c2.06-0.33,3.46-2.25,3.14-4.29
	l-1.53-9.45c-0.33-2.04-2.27-3.42-4.33-3.08L824.86,518.95z M875.02,554.38l-21.77,7.42l-0.19,2.55c1.64-0.61,3.03-1,4.19-1.19
	c2.25-0.37,4.27,0.28,6.06,1.94c2.8,2.57,7.51,11,14.06,25.31c-2.52,4.85-4.29,8.04-5.27,9.56c-1.63,2.47-3.04,4.13-4.22,4.98
	c-0.91,0.68-1.97,1.11-3.22,1.31c-0.94,0.15-2.6-0.12-4.92-0.82c-1.58-0.46-2.93-0.59-4.09-0.4c-2.2,0.36-3.91,1.33-5.11,2.95
	c-1.2,1.62-1.63,3.5-1.28,5.64c0.33,2.02,1.27,3.58,2.78,4.63c1.52,1.05,3.4,1.38,5.63,1.02c2.15-0.35,4.1-1.13,5.85-2.32
	c1.75-1.2,3.8-3.46,6.19-6.83c2.39-3.37,5.6-8.64,9.61-15.78c2.89,5.72,5.3,9.85,7.14,12.36c1.85,2.51,3.77,4.22,5.78,5.13
	c2.01,0.92,4.37,1.15,7.09,0.7c2.64-0.43,5.16-1.84,7.57-4.26c3.16-3.13,6.12-8.14,8.86-14.99l-2.59-1
	c-1.93,4.27-3.43,6.98-4.51,8.14c-0.71,0.73-1.63,1.17-2.73,1.35c-1.32,0.22-2.74-0.39-4.28-1.83c-2.62-2.43-6.78-9.65-12.45-21.71
	c2.33-6.18,4.46-10.33,6.41-12.42c1.42-1.53,3.02-2.46,4.82-2.75c0.69-0.11,1.96-0.04,3.82,0.21c1.86,0.24,3.5,0.26,4.87,0.04
	c1.88-0.3,3.33-1.21,4.39-2.72c1.05-1.51,1.42-3.29,1.09-5.34c-0.35-2.17-1.27-3.8-2.74-4.88c-1.47-1.08-3.4-1.42-5.75-1.04
	c-2.1,0.34-3.97,1.16-5.67,2.45c-1.7,1.29-3.74,3.84-6.07,7.6c-1.74,2.8-4.2,7.6-7.4,14.4C884.09,566.52,880.1,560.02,875.02,554.38
	z"/>
</svg>
