<?xml version="1.0" encoding="utf-8"?>
<!-- Generator: Adobe Illustrator 24.3.0, SVG Export Plug-In . SVG Version: 6.00 Build 0)  -->
<svg version="1.1" id="Слой_1" xmlns="http://www.w3.org/2000/svg" xmlns:xlink="http://www.w3.org/1999/xlink" x="0px" y="0px"
	 viewBox="0 0 1000 1000" style="enable-background:new 0 0 1000 1000;" xml:space="preserve">
<style type="text/css">
	.st0{fill:#FFFFFF;stroke:#000000;}
	.st1{fill:#231F20;stroke:#000000;}
	.st2{stroke:#000000;stroke-width:0.5;}
	.st3{fill:#FFFFFF;}
	.st4{stroke:#000000;}
	.st5{fill:#231F20;}
	.st6{fill:none;stroke:#000000;}
</style>
<path class="st0" d="M992.72,500.54c0,97.56-28.93,192.92-83.13,274.04c-54.2,81.12-131.24,144.34-221.37,181.67
	c-90.13,37.33-189.31,47.1-284.99,28.07c-95.68-19.03-183.57-66.01-252.56-134.99C81.69,780.35,34.71,692.46,15.68,596.77
	c-19.03-95.68-9.26-194.86,28.07-284.99C81.08,221.65,144.3,144.61,225.42,90.41C306.54,36.21,401.9,7.28,499.46,7.28
	c64.82-0.17,129.04,12.48,188.96,37.2c59.92,24.73,114.36,61.06,160.2,106.89c45.84,45.84,82.16,100.28,106.89,160.2
	C980.24,371.5,992.89,435.72,992.72,500.54z"/>
<path class="st1" d="M499.46,996c-131.4,0-257.42-52.2-350.34-145.12C56.2,757.97,4,631.94,4,500.54
	c-0.01-98,29.05-193.81,83.49-275.3c54.44-81.49,131.83-145.01,222.37-182.51C400.41,5.22,500.04-4.6,596.16,14.52
	s184.41,66.31,253.71,135.61c69.3,69.3,116.49,157.59,135.61,253.71c19.12,96.12,9.3,195.75-28.21,286.3
	c-37.51,90.54-101.02,167.93-182.52,222.37C693.27,966.95,597.46,996,499.46,996z M499.46,9.48c-97.12,0-192.07,28.8-272.82,82.76
	C145.88,146.2,82.94,222.89,45.77,312.62C8.61,402.35-1.12,501.09,17.83,596.34C36.78,691.6,83.55,779.1,152.22,847.78
	c68.68,68.68,156.18,115.45,251.43,134.39c95.26,18.95,193.99,9.22,283.72-27.95c89.73-37.17,166.42-100.11,220.38-180.86
	c53.96-80.76,82.76-175.7,82.76-272.82c-0.19-130.18-51.98-254.98-144.03-347.03C754.43,61.46,629.64,9.66,499.46,9.48z"/>
<path class="st2" d="M583.54,826.69c-0.5-0.01-0.97-0.18-1.36-0.48c-0.45-0.36-0.74-0.89-0.81-1.46c-0.07-0.58,0.1-1.15,0.46-1.61
	c1.07-2.35,2-4.77,2.77-7.24c7.07-20.02,25.64-72.67,67.18-64.85c2.68-9.97,15.81-51.86,50.67-67.14
	c22.44-9.88,49.18-6.45,79.47,10.19c2.19-13.61,13.44-66.7,57.43-98.84c34.25-24.98,79.96-31.79,136.11-20.15
	c0.28,0.06,0.55,0.17,0.79,0.33c0.24,0.16,0.44,0.37,0.6,0.61c0.16,0.24,0.27,0.51,0.32,0.79c0.06,0.28,0.05,0.57,0,0.86
	c-0.14,0.57-0.49,1.06-0.98,1.38c-0.49,0.32-1.08,0.44-1.66,0.33c-54.67-11.37-99.23-4.83-132.43,19.41
	c-48.96,35.74-56.07,98.35-56.11,98.97c-0.04,0.37-0.17,0.72-0.38,1.02c-0.21,0.31-0.48,0.56-0.81,0.73
	c-0.33,0.17-0.69,0.26-1.05,0.26s-0.73-0.09-1.05-0.26c-30.16-17.21-56.51-21.12-78.33-11.55c-36.84,16.16-48.56,65.86-48.65,66.21
	c-0.13,0.56-0.48,1.05-0.97,1.36c-0.5,0.31-1.09,0.42-1.67,0.31c-39.25-9.18-56.73,40.39-64.15,61.47
	c-0.81,2.98-1.99,5.84-3.51,8.52c-0.23,0.28-0.51,0.5-0.84,0.65C584.26,826.65,583.9,826.71,583.54,826.69z"/>
<path class="st3" d="M597.42,890.62H401.5l51.33-299.14h93.26L597.42,890.62z"/>
<path class="st4" d="M597.42,892.81H401.5c-0.32,0.01-0.63-0.06-0.93-0.19c-0.29-0.13-0.55-0.33-0.75-0.57
	c-0.21-0.24-0.36-0.53-0.44-0.84c-0.08-0.31-0.09-0.63-0.03-0.94l51.33-299.14c0.08-0.51,0.34-0.98,0.74-1.32
	c0.39-0.34,0.89-0.52,1.41-0.53h93.26c0.52,0,1.02,0.19,1.41,0.53s0.65,0.8,0.74,1.32l51.33,299.14c0.06,0.31,0.05,0.64-0.03,0.94
	c-0.08,0.31-0.23,0.6-0.44,0.84c-0.21,0.24-0.46,0.44-0.75,0.57C598.05,892.75,597.73,892.82,597.42,892.81z M404.22,888.42h190.65
	l-50.58-294.75h-89.57L404.22,888.42z"/>
<path class="st3" d="M548.81,638.98H447.65l-12.16-48.61h125.49L548.81,638.98z"/>
<path class="st4" d="M548.81,641.05H447.82c-0.49,0-0.97-0.17-1.36-0.47c-0.39-0.3-0.67-0.72-0.79-1.2l-12.08-48.47
	c-0.09-0.32-0.1-0.65-0.03-0.97c0.07-0.32,0.21-0.62,0.43-0.87c0.19-0.27,0.45-0.5,0.75-0.65c0.3-0.15,0.63-0.23,0.96-0.23h125.23
	c0.34,0,0.67,0.08,0.97,0.23c0.3,0.15,0.55,0.38,0.75,0.65c0.21,0.25,0.36,0.55,0.43,0.87c0.08,0.32,0.08,0.65,0.01,0.97
	l-12.16,48.65c-0.15,0.44-0.44,0.81-0.82,1.08C549.72,640.9,549.27,641.05,548.81,641.05z M449.36,636.66h97.74l11.06-43.91H438.3
	L449.36,636.66z"/>
<path class="st0" d="M384.82,438.63c0,0-53.04,33.15-71.48,88.43c-18.44,55.28,23.58,162.02,23.58,162.02l96.6-104.59L384.82,438.63
	z"/>
<path class="st5" d="M337,691.28h-0.4c-0.36-0.06-0.7-0.21-0.99-0.44c-0.28-0.23-0.5-0.53-0.64-0.87
	c-1.76-4.39-42.06-108.19-23.62-163.56c18.44-55.37,71.83-89.22,72.36-89.57c0.3-0.14,0.63-0.21,0.97-0.21
	c0.33,0,0.66,0.07,0.97,0.21c0.31,0.13,0.58,0.32,0.81,0.56c0.23,0.24,0.4,0.53,0.51,0.84l48.52,145.73
	c0.13,0.37,0.16,0.77,0.08,1.16c-0.08,0.39-0.26,0.74-0.52,1.04l-96.6,104.59C338.05,691.1,337.53,691.29,337,691.28z
	 M383.72,442.06c-10.41,7.16-52.69,38.42-68.19,85.66c-16.16,48.3,15.46,138.88,22.26,157.28l93.22-100.99L383.72,442.06z"/>
<path class="st3" d="M614.1,438.63c0,0,53.04,33.15,71.48,88.43c18.44,55.28-23.58,162.02-23.58,162.02l-96.6-104.59L614.1,438.63z"
	/>
<path class="st1" d="M661.92,691.28c-0.31,0.01-0.61-0.06-0.89-0.18c-0.28-0.12-0.53-0.3-0.74-0.53l-96.6-104.59
	c-0.26-0.29-0.44-0.65-0.52-1.04c-0.08-0.39-0.05-0.79,0.08-1.16l48.61-145.82c0.11-0.31,0.28-0.6,0.51-0.85
	c0.23-0.24,0.5-0.43,0.81-0.56c0.3-0.14,0.63-0.21,0.97-0.21c0.33,0,0.66,0.07,0.97,0.21c0.53,0.35,53.92,34.2,72.36,89.57
	c18.44,55.37-21.95,159.17-23.62,163.56c-0.13,0.34-0.35,0.64-0.64,0.87c-0.28,0.23-0.63,0.38-0.99,0.44L661.92,691.28z M568,583.97
	l93.22,100.99c6.8-18.4,38.42-108.8,22.26-157.28c-15.72-47.25-57.78-78.51-68.19-85.66L568,583.97z"/>
<path class="st0" d="M506.45,98.2L506.45,98.2C537.83,122.42,621.3,201,621.3,352.49c0,99.86-16.13,189.35-41.47,251.35
	c-0.61,0.24-1.35,0.53-2.23,0.85c-3.17,1.15-8.1,2.72-14.91,4.31c-13.62,3.17-34.78,6.41-64.47,6.41c-29.68,0-50.85-3.24-64.47-6.41
	c-6.81-1.59-11.74-3.16-14.91-4.31c-0.88-0.32-1.62-0.6-2.23-0.85c-25.38-62.04-41.47-151.49-41.47-251.35
	c0-151.35,83.47-230.07,114.85-254.28l0.01,0c2.35-1.82,5.25-2.81,8.22-2.81C501.21,95.39,504.1,96.38,506.45,98.2z"/>
<path class="st3" d="M485.98,92.99c-39.66,31.6-70.69,72.71-90.19,119.52h204.87c-19.5-46.81-50.53-87.92-90.19-119.52
	c-3.51-2.71-7.82-4.18-12.25-4.18C493.8,88.81,489.49,90.28,485.98,92.99z"/>
<path class="st6" d="M600.66,214.7H395.79c-0.36,0-0.71-0.09-1.03-0.26c-0.32-0.17-0.59-0.42-0.79-0.72c-0.2-0.3-0.32-0.64-0.36-1
	c-0.04-0.36,0.02-0.72,0.15-1.05c19.58-47.19,50.84-88.62,90.85-120.4c3.9-3.01,8.68-4.65,13.61-4.65s9.71,1.63,13.61,4.65
	c40,31.78,71.27,73.21,90.84,120.4c0.14,0.33,0.19,0.69,0.15,1.05c-0.04,0.36-0.16,0.7-0.36,1c-0.2,0.3-0.47,0.54-0.79,0.72
	C601.38,214.61,601.02,214.7,600.66,214.7z M399.13,210.31h198.2c-19.35-45.24-49.65-84.95-88.17-115.56
	c-3.14-2.44-7-3.77-10.98-3.77c-3.98,0-7.84,1.33-10.98,3.77C448.71,125.36,418.44,165.08,399.13,210.31z"/>
<path class="st3" d="M503.32,406.23c43.67,0,79.08-35.4,79.08-79.08c0-43.67-35.4-79.08-79.08-79.08
	c-43.67,0-79.08,35.4-79.08,79.08C424.24,370.82,459.65,406.23,503.32,406.23z"/>
<path class="st5" d="M503.32,408.34c-16.08,0.01-31.79-4.75-45.17-13.68s-23.8-21.62-29.95-36.46c-6.16-14.85-7.77-31.19-4.64-46.96
	c3.13-15.77,10.87-30.25,22.23-41.62c11.36-11.37,25.85-19.11,41.61-22.25c15.77-3.14,32.11-1.53,46.96,4.62
	c14.85,6.15,27.55,16.57,36.48,29.93c8.93,13.37,13.7,29.08,13.7,45.16c-0.02,21.54-8.59,42.19-23.81,57.43
	C545.51,399.73,524.86,408.3,503.32,408.34z M503.32,250.27c-15.21-0.01-30.08,4.49-42.73,12.94c-12.65,8.44-22.51,20.45-28.33,34.5
	c-5.82,14.05-7.35,29.51-4.39,44.43c2.97,14.92,10.29,28.62,21.04,39.38c10.75,10.76,24.46,18.08,39.38,21.04
	c14.92,2.97,30.38,1.44,44.43-4.39c14.05-5.82,26.06-15.69,34.5-28.33c8.44-12.65,12.95-27.52,12.94-42.73
	c-0.02-20.37-8.13-39.9-22.53-54.31C543.22,258.39,523.69,250.29,503.32,250.27z"/>
<path class="st5" d="M503.32,375.93c26.94,0,48.78-21.84,48.78-48.78c0-26.94-21.84-48.78-48.78-48.78s-48.78,21.84-48.78,48.78
	C454.54,354.09,476.38,375.93,503.32,375.93z"/>
<path class="st5" d="M503.32,378.13c-10.08,0-19.94-2.99-28.32-8.59c-8.38-5.6-14.92-13.56-18.78-22.88
	c-3.86-9.31-4.87-19.56-2.9-29.45c1.97-9.89,6.82-18.97,13.95-26.1c7.13-7.13,16.21-11.99,26.1-13.95
	c9.89-1.97,20.14-0.96,29.45,2.9c9.32,3.86,17.28,10.39,22.88,18.78c5.6,8.38,8.59,18.24,8.59,28.32c0,13.52-5.37,26.49-14.93,36.05
	C529.81,372.76,516.84,378.13,503.32,378.13z M503.32,280.56c-9.21,0-18.22,2.73-25.88,7.85c-7.66,5.12-13.63,12.4-17.16,20.91
	c-3.53,8.51-4.45,17.88-2.65,26.92c1.8,9.04,6.23,17.34,12.75,23.85c6.52,6.52,14.82,10.95,23.85,12.75
	c9.04,1.8,18.4,0.87,26.92-2.65c8.51-3.53,15.79-9.5,20.91-17.16c5.12-7.66,7.85-16.67,7.85-25.88
	c-0.01-12.35-4.92-24.19-13.66-32.93C527.52,285.49,515.67,280.58,503.32,280.56z"/>
<path class="st3" d="M542.01,324.91c-0.52,0.01-1.03-0.18-1.42-0.52c-0.4-0.34-0.66-0.81-0.73-1.33
	c-5.01-34.16-35.13-32.67-36.4-32.58c-0.57,0.03-1.13-0.17-1.57-0.55c-0.43-0.38-0.71-0.9-0.76-1.47c-0.02-0.29,0.01-0.57,0.1-0.85
	c0.09-0.27,0.23-0.53,0.42-0.74c0.19-0.22,0.42-0.39,0.68-0.52c0.26-0.13,0.54-0.2,0.82-0.22c0.35,0,35.43-1.93,41.01,36.31
	c0.08,0.57-0.08,1.15-0.42,1.61c-0.35,0.46-0.86,0.77-1.42,0.85H542.01z"/>
<path class="st3" d="M486.29,295.1c-0.33-0.01-0.65-0.08-0.95-0.23c-0.3-0.14-0.56-0.35-0.76-0.61c-0.35-0.46-0.51-1.04-0.44-1.62
	c0.07-0.58,0.37-1.1,0.83-1.46c2.67-1.96,5.77-3.26,9.05-3.78c0.58-0.06,1.16,0.11,1.62,0.47c0.46,0.36,0.76,0.89,0.84,1.47
	c0.04,0.28,0.02,0.57-0.06,0.85c-0.08,0.27-0.2,0.53-0.38,0.76c-0.18,0.22-0.39,0.41-0.64,0.55c-0.25,0.14-0.52,0.23-0.81,0.26
	c-2.51,0.4-4.89,1.39-6.94,2.9C487.25,294.95,486.77,295.1,486.29,295.1z"/>
<path class="st3" d="M575.33,587.61h-0.7c-0.54-0.19-0.99-0.59-1.25-1.1c-0.25-0.52-0.3-1.12-0.11-1.66
	c13.65-43.4,24.69-87.58,33.06-132.29c0.05-0.29,0.16-0.56,0.32-0.81c0.16-0.25,0.36-0.46,0.6-0.63c0.24-0.17,0.51-0.29,0.8-0.35
	c0.29-0.06,0.58-0.07,0.87-0.02c0.29,0.05,0.56,0.16,0.81,0.32c0.25,0.16,0.46,0.36,0.63,0.6c0.17,0.24,0.29,0.51,0.35,0.8
	c0.06,0.29,0.07,0.58,0.02,0.87c-8.37,44.92-19.47,89.29-33.24,132.86c-0.16,0.43-0.46,0.81-0.84,1.06
	C576.25,587.52,575.79,587.64,575.33,587.61z"/>
<path class="st2" d="M510.74,710.51c-0.55-0.01-1.07-0.22-1.47-0.59c-0.4-0.37-0.64-0.88-0.68-1.43l-4.39-56.11
	c-0.02-0.29,0.01-0.57,0.1-0.85c0.09-0.27,0.23-0.53,0.42-0.74c0.19-0.22,0.42-0.39,0.68-0.52c0.26-0.13,0.54-0.2,0.82-0.22
	c0.29-0.02,0.57,0.01,0.85,0.1c0.27,0.09,0.53,0.23,0.74,0.42c0.22,0.19,0.39,0.42,0.52,0.68c0.13,0.26,0.2,0.54,0.22,0.83
	l4.39,56.07c0.02,0.29-0.01,0.58-0.1,0.85c-0.09,0.28-0.23,0.53-0.42,0.75c-0.19,0.22-0.42,0.4-0.68,0.53
	c-0.26,0.13-0.54,0.21-0.83,0.23H510.74z"/>
<path class="st2" d="M465.52,743.26h-0.31c-0.58-0.08-1.1-0.38-1.45-0.84c-0.35-0.46-0.51-1.04-0.43-1.62l7.64-59.14
	c0.08-0.58,0.38-1.11,0.84-1.47c0.46-0.36,1.05-0.52,1.64-0.44c0.58,0.08,1.11,0.38,1.47,0.85c0.36,0.46,0.52,1.05,0.44,1.64
	l-7.64,59.14c-0.08,0.53-0.34,1.01-0.74,1.36C466.57,743.08,466.05,743.27,465.52,743.26z"/>
<path class="st2" d="M538.01,755.82c-0.52,0.01-1.03-0.18-1.42-0.52c-0.4-0.34-0.66-0.81-0.73-1.33l-7.99-48.3
	c-0.09-0.58,0.05-1.16,0.38-1.64c0.34-0.48,0.84-0.8,1.42-0.91c0.58-0.09,1.16,0.05,1.64,0.38c0.48,0.34,0.8,0.84,0.91,1.42
	l7.99,48.3c0.09,0.57-0.05,1.15-0.39,1.62c-0.34,0.47-0.84,0.79-1.41,0.88L538.01,755.82z"/>
<path class="st2" d="M277.42,355.91c-0.58-0.01-1.13-0.25-1.54-0.66c-0.41-0.41-0.64-0.96-0.66-1.54v-14.01
	c0-0.58,0.23-1.14,0.64-1.55c0.41-0.41,0.97-0.64,1.55-0.64c0.58,0,1.14,0.23,1.55,0.64c0.41,0.41,0.64,0.97,0.64,1.55v14.01
	c0,0.58-0.23,1.14-0.64,1.55C278.56,355.68,278,355.91,277.42,355.91z"/>
<path class="st2" d="M277.42,385.15c-0.58,0-1.14-0.23-1.55-0.64c-0.41-0.41-0.64-0.97-0.64-1.55v-14.14c0-0.58,0.23-1.14,0.64-1.55
	c0.41-0.41,0.97-0.64,1.55-0.64c0.58,0,1.14,0.23,1.55,0.64c0.41,0.41,0.64,0.97,0.64,1.55v14.01c0.02,0.3-0.03,0.6-0.13,0.88
	c-0.1,0.28-0.26,0.54-0.47,0.76c-0.21,0.22-0.45,0.39-0.73,0.51C278.02,385.09,277.72,385.15,277.42,385.15z"/>
<path class="st2" d="M299.06,363.51h-14.01c-0.58,0-1.14-0.23-1.55-0.64c-0.41-0.41-0.64-0.97-0.64-1.55c0-0.58,0.23-1.14,0.64-1.55
	c0.41-0.41,0.97-0.64,1.55-0.64h14.01c0.58,0,1.14,0.23,1.55,0.64c0.41,0.41,0.64,0.97,0.64,1.55c0,0.58-0.23,1.14-0.64,1.55
	C300.2,363.27,299.64,363.51,299.06,363.51z"/>
<path class="st2" d="M269.82,363.51h-14.05c-0.58,0-1.14-0.23-1.55-0.64c-0.41-0.41-0.64-0.97-0.64-1.55
	c0.01-0.58,0.25-1.13,0.66-1.54c0.41-0.41,0.96-0.64,1.54-0.65h14.05c0.58,0.01,1.13,0.25,1.54,0.65c0.41,0.41,0.64,0.96,0.66,1.54
	c0,0.58-0.23,1.14-0.64,1.55C270.96,363.27,270.4,363.51,269.82,363.51z"/>
<path class="st2" d="M142.14,413.78c-0.58,0-1.14-0.23-1.55-0.64c-0.41-0.41-0.64-0.97-0.64-1.55v-14.01c0-0.58,0.23-1.14,0.64-1.55
	c0.41-0.41,0.97-0.64,1.55-0.64s1.14,0.23,1.55,0.64c0.41,0.41,0.64,0.97,0.64,1.55v14.01c0,0.58-0.23,1.14-0.64,1.55
	C143.28,413.55,142.72,413.78,142.14,413.78z"/>
<path class="st2" d="M142.14,443.07c-0.58,0-1.14-0.23-1.55-0.64c-0.41-0.41-0.64-0.97-0.64-1.55v-14.01c0-0.58,0.23-1.14,0.64-1.55
	c0.41-0.41,0.97-0.64,1.55-0.64s1.14,0.23,1.55,0.64c0.41,0.41,0.64,0.97,0.64,1.55v14.01c0,0.58-0.23,1.14-0.64,1.55
	C143.28,442.84,142.72,443.07,142.14,443.07z"/>
<path class="st2" d="M163.78,421.51h-14.01c-0.58,0-1.14-0.23-1.55-0.64c-0.41-0.41-0.64-0.97-0.64-1.55c0-0.58,0.23-1.14,0.64-1.55
	c0.41-0.41,0.97-0.64,1.55-0.64h14.01c0.58,0,1.14,0.23,1.55,0.64c0.41,0.41,0.64,0.97,0.64,1.55c0,0.58-0.23,1.14-0.64,1.55
	C164.92,421.28,164.36,421.51,163.78,421.51z"/>
<path class="st2" d="M134.5,421.51h-14.01c-0.58,0-1.14-0.23-1.55-0.64c-0.41-0.41-0.64-0.97-0.64-1.55c0-0.58,0.23-1.14,0.64-1.55
	c0.41-0.41,0.97-0.64,1.55-0.64h14.01c0.58,0,1.14,0.23,1.55,0.64c0.41,0.41,0.64,0.97,0.64,1.55c0,0.58-0.23,1.14-0.64,1.55
	C135.64,421.28,135.08,421.51,134.5,421.51z"/>
<path class="st2" d="M710.79,317.23c-0.58,0-1.14-0.23-1.55-0.64c-0.41-0.41-0.64-0.97-0.64-1.55v-14.01c0-0.58,0.23-1.14,0.64-1.55
	c0.41-0.41,0.97-0.64,1.55-0.64s1.14,0.23,1.55,0.64c0.41,0.41,0.64,0.97,0.64,1.55v14.01c0,0.58-0.23,1.14-0.64,1.55
	C711.93,317,711.37,317.23,710.79,317.23z"/>
<path class="st2" d="M710.79,346.47c-0.58,0-1.14-0.23-1.55-0.64c-0.41-0.41-0.64-0.97-0.64-1.55v-14.01
	c0.01-0.58,0.25-1.13,0.66-1.54c0.41-0.41,0.96-0.65,1.54-0.66c0.58,0,1.14,0.23,1.55,0.64c0.41,0.41,0.64,0.97,0.64,1.55v14.01
	c0,0.58-0.23,1.14-0.64,1.55C711.93,346.24,711.37,346.47,710.79,346.47z"/>
<path class="st2" d="M732.43,324.91h-14.01c-0.58,0-1.14-0.23-1.55-0.64c-0.41-0.41-0.64-0.97-0.64-1.55c0-0.58,0.23-1.14,0.64-1.55
	c0.41-0.41,0.97-0.64,1.55-0.64h14.01c0.58,0,1.14,0.23,1.55,0.64c0.41,0.41,0.64,0.97,0.64,1.55c0,0.58-0.23,1.14-0.64,1.55
	C733.57,324.68,733.02,324.91,732.43,324.91z"/>
<path class="st2" d="M703.19,324.91h-14.01c-0.58,0-1.14-0.23-1.55-0.64c-0.41-0.41-0.64-0.97-0.64-1.55c0-0.58,0.23-1.14,0.64-1.55
	c0.41-0.41,0.97-0.64,1.55-0.64h14.01c0.58,0,1.14,0.23,1.55,0.64c0.41,0.41,0.64,0.97,0.64,1.55c-0.01,0.58-0.25,1.13-0.66,1.54
	C704.32,324.67,703.77,324.9,703.19,324.91z"/>
<path class="st2" d="M869.16,399.16c-0.58,0-1.14-0.23-1.55-0.64c-0.41-0.41-0.64-0.97-0.64-1.55v-14.01c0-0.58,0.23-1.14,0.64-1.55
	c0.41-0.41,0.97-0.64,1.55-0.64c0.58,0,1.14,0.23,1.55,0.64c0.41,0.41,0.64,0.97,0.64,1.55v14.01c0,0.58-0.23,1.14-0.64,1.55
	C870.3,398.93,869.74,399.16,869.16,399.16z"/>
<path class="st2" d="M869.16,428.4c-0.58,0-1.14-0.23-1.55-0.64c-0.41-0.41-0.64-0.97-0.64-1.55V412.2c0-0.58,0.23-1.14,0.64-1.55
	c0.41-0.41,0.97-0.64,1.55-0.64c0.58,0.01,1.13,0.25,1.54,0.65c0.41,0.41,0.64,0.96,0.66,1.54v14.01c0,0.58-0.23,1.14-0.64,1.55
	C870.3,428.17,869.74,428.4,869.16,428.4z"/>
<path class="st2" d="M890.76,406.8h-14.01c-0.58-0.01-1.13-0.25-1.54-0.65c-0.41-0.41-0.64-0.96-0.66-1.54
	c0-0.58,0.23-1.14,0.64-1.55c0.41-0.41,0.97-0.64,1.55-0.64h14.01c0.58,0,1.14,0.23,1.55,0.64c0.41,0.41,0.64,0.97,0.64,1.55
	c0,0.58-0.23,1.14-0.64,1.55C891.9,406.57,891.35,406.8,890.76,406.8z"/>
<path class="st2" d="M861.52,406.8h-14.01c-0.58,0-1.14-0.23-1.55-0.64c-0.41-0.41-0.64-0.97-0.64-1.55c0-0.58,0.23-1.14,0.64-1.55
	c0.41-0.41,0.97-0.64,1.55-0.64h14.01c0.58,0,1.14,0.23,1.55,0.64c0.41,0.41,0.64,0.97,0.64,1.55c0,0.58-0.23,1.14-0.64,1.55
	C862.66,406.57,862.1,406.8,861.52,406.8z"/>
<path class="st2" d="M768.7,184.76c-0.58,0-1.14-0.23-1.55-0.64c-0.41-0.41-0.64-0.97-0.64-1.55v-14.01c0-0.58,0.23-1.14,0.64-1.55
	c0.41-0.41,0.97-0.64,1.55-0.64c0.58,0,1.14,0.23,1.55,0.64c0.41,0.41,0.64,0.97,0.64,1.55v14.01c0,0.58-0.23,1.14-0.64,1.55
	C769.84,184.53,769.28,184.76,768.7,184.76z"/>
<path class="st2" d="M768.7,214.04c-0.58,0-1.14-0.23-1.55-0.64c-0.41-0.41-0.64-0.97-0.64-1.55v-14.01c0-0.58,0.23-1.14,0.64-1.55
	c0.41-0.41,0.97-0.64,1.55-0.64c0.58,0,1.14,0.23,1.55,0.64c0.41,0.41,0.64,0.97,0.64,1.55v14.01c0,0.58-0.23,1.14-0.64,1.55
	C769.84,213.81,769.28,214.04,768.7,214.04z"/>
<path class="st2" d="M790.35,192.4h-14.01c-0.58,0-1.14-0.23-1.55-0.64c-0.41-0.41-0.64-0.97-0.64-1.55s0.23-1.14,0.64-1.55
	c0.41-0.41,0.97-0.64,1.55-0.64h14.01c0.58,0,1.14,0.23,1.55,0.64c0.41,0.41,0.64,0.97,0.64,1.55s-0.23,1.14-0.64,1.55
	C791.49,192.17,790.93,192.4,790.35,192.4z"/>
<path class="st2" d="M761.06,192.4h-14.01c-0.58,0-1.14-0.23-1.55-0.64c-0.41-0.41-0.64-0.97-0.64-1.55s0.23-1.14,0.64-1.55
	c0.41-0.41,0.97-0.64,1.55-0.64h14.01c0.58,0,1.14,0.23,1.55,0.64c0.41,0.41,0.64,0.97,0.64,1.55s-0.23,1.14-0.64,1.55
	C762.2,192.17,761.64,192.4,761.06,192.4z"/>
<path class="st2" d="M398.82,876.87h-0.35c-0.58-0.07-1.1-0.36-1.46-0.81c-0.36-0.45-0.53-1.03-0.47-1.61
	c0-0.92,10.19-89.26-30.21-126.37c-16.42-15.1-39.21-19.8-67.75-13.96c-0.31,0.08-0.64,0.08-0.95,0c-0.31-0.08-0.6-0.23-0.85-0.44
	c-0.26-0.19-0.46-0.43-0.61-0.72c-0.14-0.28-0.22-0.59-0.23-0.91c0-0.83-2.81-83.42-54.93-118.24
	c-30.47-20.37-71.83-20.9-122.94-1.45c-0.37,0.13-0.77,0.16-1.15,0.09c-0.39-0.07-0.75-0.24-1.04-0.49c-0.3-0.26-0.52-0.6-0.65-0.98
	c-0.13-0.38-0.16-0.78-0.09-1.17c0-0.35,7.82-36.36-12.03-55.5c-13.79-13.17-37.67-15.59-70.95-6.85c-0.28,0.08-0.57,0.1-0.86,0.06
	c-0.29-0.04-0.57-0.13-0.82-0.28c-0.25-0.15-0.47-0.35-0.64-0.58c-0.17-0.23-0.29-0.5-0.36-0.78c-0.15-0.56-0.07-1.15,0.22-1.66
	c0.29-0.5,0.76-0.87,1.32-1.02c34.86-9.13,60.15-6.45,75.17,7.99c17.56,17.12,15.5,45.4,13.96,55.72
	c50.85-18.62,92.21-17.56,123.34,3.29c28.28,18.97,42.24,51.07,48.96,74.64c4.12,14.5,6.72,29.39,7.77,44.43
	c28.85-5.36,52.07,0,69.11,15.54c42.02,38.64,32.05,126.37,31.61,130.05c-0.05,0.53-0.3,1.02-0.68,1.38
	C399.86,876.65,399.35,876.86,398.82,876.87z"/>
<path class="st3" d="M832.32,864.58c-95.29,87.13-220.95,133.42-350,128.93c-129.04-4.49-251.18-59.4-340.19-152.94
	c3.2-1.67,6.5-3.2,9.88-4.39c86.89-35.13,134.14,37.28,134.14,37.28S308.81,753.8,446.77,753.8c137.96,0,170.05,94.14,170.05,94.14
	s28.32-57.08,90.67-52.95c62.35,4.13,71.79,82.02,71.79,82.02C795.99,869.46,814,865.24,832.32,864.58z"/>
<path class="st2" d="M499.46,996c-67.15,0.29-133.65-13.21-195.38-39.64c-61.73-26.43-117.38-65.25-163.52-114.04
	c-0.24-0.25-0.41-0.55-0.51-0.88c-0.1-0.33-0.12-0.67-0.06-1.01c0.04-0.34,0.17-0.66,0.37-0.93c0.2-0.28,0.46-0.5,0.77-0.65
	c3.27-1.72,6.63-3.28,10.05-4.65c45.75-18.57,80.53-7.24,101.65,5.53c12.39,7.56,23.34,17.27,32.32,28.67
	c6.1-22.39,39.21-116.75,161.62-116.75c120.97,0,161.93,72.84,170.36,91.37c7.99-13.17,37.28-53.57,90.49-50.19
	c56.42,3.56,70.82,66.52,73.37,81.01c16.27-6.79,33.62-10.6,51.24-11.24c0.45,0,0.88,0.12,1.26,0.36c0.37,0.24,0.67,0.59,0.85,1
	c0.17,0.41,0.21,0.87,0.11,1.31c-0.09,0.44-0.32,0.84-0.64,1.15C742.49,949.92,623.19,996.15,499.46,996z M145.78,841.18
	c88.07,91.49,208.15,145.3,335.05,150.15c126.9,4.85,250.73-39.65,345.52-124.16c-15.85,1.2-31.38,5.14-45.88,11.64
	c-0.31,0.16-0.66,0.25-1.01,0.25c-0.35,0-0.7-0.08-1.01-0.25c-0.31-0.17-0.57-0.41-0.77-0.7c-0.2-0.29-0.33-0.62-0.38-0.97
	c-2.07-13.53-6.23-26.65-12.34-38.9c-13.17-25.77-32.4-39.52-57.39-41.19c-60.2-3.78-88.3,51.2-88.56,51.72
	c-0.2,0.38-0.5,0.7-0.88,0.92c-0.37,0.22-0.8,0.33-1.23,0.31c-0.44-0.02-0.85-0.18-1.2-0.45c-0.35-0.27-0.6-0.63-0.73-1.05
	c-0.35-0.92-33.37-92.65-167.99-92.65S288.7,872.48,288.31,873.76c-0.08,0.43-0.29,0.83-0.6,1.14c-0.31,0.31-0.7,0.52-1.13,0.61
	c-0.43,0.08-0.87,0.04-1.28-0.13c-0.4-0.17-0.75-0.46-0.99-0.82c-9.1-12.6-20.64-23.23-33.94-31.26
	c-29.42-17.56-62.22-19.49-97.52-5.18C150.52,838.98,148.2,840.04,145.78,841.18z"/>
<path class="st2" d="M668.94,888.42c-0.31,0-0.62-0.06-0.9-0.19c-0.28-0.13-0.53-0.32-0.73-0.55
	c-28.28-31.22-52.69-39.03-68.45-40.09c-9.42-0.86-18.9,0.93-27.35,5.18c-0.49,0.25-1.06,0.3-1.59,0.15
	c-0.53-0.15-0.98-0.5-1.27-0.97c-0.29-0.47-0.39-1.03-0.28-1.57c0.11-0.54,0.41-1.02,0.85-1.35c0.44-0.26,44.83-26.74,101.34,35.7
	c0.27,0.32,0.45,0.71,0.51,1.13s0,0.84-0.17,1.23c-0.17,0.39-0.44,0.72-0.79,0.95C669.77,888.27,669.36,888.41,668.94,888.42z"/>
<path class="st2" d="M768.79,784.93c-0.55,0-1.09-0.21-1.49-0.58c-0.41-0.37-0.66-0.89-0.7-1.44c0-1.76-2.9-42.68,26.34-71.13
	c21.52-20.99,54.53-29.37,98.09-24.85c0.29,0.03,0.57,0.11,0.82,0.25c0.26,0.14,0.48,0.32,0.67,0.55c0.18,0.22,0.32,0.48,0.4,0.76
	c0.08,0.28,0.11,0.57,0.08,0.86c-0.03,0.29-0.11,0.57-0.25,0.82c-0.14,0.25-0.32,0.48-0.55,0.66c-0.22,0.18-0.48,0.32-0.76,0.4
	c-0.28,0.08-0.57,0.11-0.86,0.08c-42.2-4.39-74.03,3.6-94.58,23.62c-27.75,27.05-25.03,67.27-24.98,67.66
	c0.02,0.29-0.01,0.58-0.1,0.85c-0.09,0.28-0.23,0.53-0.42,0.75c-0.19,0.22-0.42,0.4-0.68,0.53c-0.26,0.13-0.54,0.21-0.83,0.23
	L768.79,784.93z"/>
<path class="st4" d="M255.77,250.79c-11.98,0-23.7-3.55-33.66-10.21c-9.96-6.66-17.73-16.12-22.32-27.19
	c-4.59-11.07-5.79-23.26-3.45-35.01c2.34-11.75,8.11-22.55,16.58-31.02c8.47-8.48,19.27-14.25,31.02-16.58
	c11.75-2.34,23.94-1.14,35.01,3.45c11.07,4.59,20.54,12.35,27.19,22.32c6.66,9.96,10.21,21.68,10.21,33.66
	c-0.01,16.07-6.4,31.47-17.76,42.83C287.24,244.39,271.84,250.78,255.77,250.79z M255.77,134c-11.12,0-21.98,3.3-31.22,9.47
	c-9.24,6.18-16.45,14.95-20.7,25.22c-4.25,10.27-5.37,21.57-3.2,32.47c2.17,10.9,7.52,20.92,15.38,28.78
	c7.86,7.86,17.87,13.21,28.78,15.38c10.9,2.17,22.2,1.06,32.47-3.2c10.27-4.25,19.05-11.46,25.22-20.7
	c6.18-9.24,9.47-20.11,9.47-31.22c-0.01-14.9-5.94-29.19-16.47-39.73C284.96,139.94,270.67,134.01,255.77,134z"/>
<path class="st2" d="M183.63,700.32c-0.41,0-0.82-0.11-1.16-0.33c-0.35-0.22-0.63-0.53-0.81-0.9
	C128.97,589.32,51.82,623.7,51.07,624.05c-0.53,0.25-1.14,0.28-1.69,0.08c-0.55-0.2-1-0.61-1.25-1.14
	c-0.25-0.53-0.28-1.14-0.08-1.69c0.2-0.55,0.61-1,1.14-1.25c0.79-0.35,81.71-36.71,136.42,77.1c0.13,0.26,0.2,0.54,0.22,0.83
	c0.02,0.29-0.02,0.58-0.11,0.85c-0.09,0.27-0.24,0.53-0.43,0.74c-0.19,0.22-0.42,0.39-0.68,0.52
	C184.3,700.26,183.97,700.33,183.63,700.32z"/>
</svg>
