<?xml version="1.0" encoding="utf-8"?>
<!-- Generator: Adobe Illustrator 24.3.0, SVG Export Plug-In . SVG Version: 6.00 Build 0)  -->
<svg version="1.1" id="Слой_1" xmlns="http://www.w3.org/2000/svg" xmlns:xlink="http://www.w3.org/1999/xlink" x="0px" y="0px"
	 viewBox="0 0 1000 1000" style="enable-background:new 0 0 1000 1000;" xml:space="preserve">
<style type="text/css">
	.st0{fill:#FFFFFF;}
</style>
<path class="st0" d="M552.51,390.12h-57.88v18.58h57.88V390.12z"/>
<path d="M552.51,410.17h-57.88c-0.39,0-0.77-0.16-1.04-0.43c-0.28-0.28-0.43-0.65-0.43-1.04v-18.58c0-0.39,0.16-0.77,0.43-1.04
	c0.28-0.28,0.65-0.43,1.04-0.43h57.88c0.39,0.01,0.76,0.17,1.04,0.44c0.28,0.28,0.43,0.65,0.44,1.04v18.58
	c0,0.39-0.16,0.77-0.43,1.04C553.28,410.02,552.9,410.17,552.51,410.17z M496.1,407.22h54.93V391.6H496.1V407.22z"/>
<path class="st0" d="M265.36,494.31h-76.11v298.91h76.11V494.31z"/>
<path d="M265.36,794.7h-76.11c-0.39,0-0.77-0.16-1.04-0.43c-0.28-0.28-0.43-0.65-0.43-1.04V494.31c0-0.39,0.16-0.77,0.43-1.04
	c0.28-0.28,0.65-0.43,1.04-0.43h76.11c0.39,0,0.77,0.16,1.04,0.43c0.28,0.28,0.43,0.65,0.43,1.04v298.91c0,0.39-0.16,0.77-0.43,1.04
	C266.13,794.54,265.75,794.7,265.36,794.7z M190.73,791.74h73.15V495.79h-73.15V791.74z"/>
<path class="st0" d="M168.67,431.02H45.43v60.84H25.14v301.15h71V535.54h72.53V431.02z"/>
<path d="M96.14,794.49H25.26c-0.39,0-0.77-0.16-1.04-0.43c-0.28-0.28-0.43-0.65-0.43-1.04V491.77c0-0.39,0.16-0.77,0.43-1.04
	c0.28-0.28,0.65-0.43,1.04-0.43h18.81v-59.36c0-0.39,0.16-0.77,0.43-1.04c0.28-0.28,0.65-0.43,1.04-0.43h123.12
	c0.39,0,0.77,0.16,1.04,0.43c0.28,0.28,0.43,0.65,0.43,1.04v104.55c0,0.39-0.16,0.77-0.43,1.04c-0.28,0.28-0.65,0.43-1.04,0.43
	H97.61v256.05c0,0.39-0.16,0.77-0.43,1.04C96.9,794.33,96.53,794.49,96.14,794.49z M26.61,791.54h67.93V535.48
	c0-0.39,0.16-0.77,0.43-1.04c0.28-0.28,0.65-0.43,1.04-0.43h71.18V432.5H46.9v59.36c0,0.39-0.16,0.77-0.43,1.04
	c-0.28,0.28-0.65,0.43-1.04,0.43H26.61V791.54z"/>
<path class="st0" d="M782.66,563.33l195.01,29.8V792.8H782.66V563.33z"/>
<path d="M977.67,794.28H782.75c-0.39,0-0.77-0.16-1.04-0.43c-0.28-0.28-0.43-0.65-0.43-1.04V563.33c0-0.21,0.05-0.42,0.13-0.61
	c0.09-0.19,0.21-0.37,0.37-0.51c0.17-0.14,0.36-0.24,0.57-0.29c0.21-0.06,0.43-0.07,0.64-0.03l194.92,29.77
	c0.35,0.06,0.66,0.24,0.89,0.51c0.22,0.27,0.35,0.61,0.35,0.96v199.67c0,0.39-0.16,0.77-0.43,1.04
	C978.44,794.13,978.06,794.28,977.67,794.28z M784.14,791.33H976.1V594.55l-191.96-29.36V791.33z"/>
<path class="st0" d="M590.11,408.55H460.43v384.46h129.68V408.55z"/>
<path d="M590.08,794.49H460.43c-0.39,0-0.77-0.16-1.04-0.43c-0.28-0.28-0.43-0.65-0.43-1.04V408.49c0-0.39,0.16-0.77,0.43-1.04
	c0.28-0.28,0.65-0.43,1.04-0.43h129.65c0.39,0,0.77,0.16,1.04,0.43c0.28,0.28,0.43,0.65,0.43,1.04v384.52
	c0,0.39-0.16,0.77-0.43,1.04C590.85,794.33,590.47,794.49,590.08,794.49z M461.9,791.53h126.7V410.02H461.9V791.53z"/>
<path class="st0" d="M663.73,356.31h-73.66v436.91h73.66V356.31z"/>
<path d="M663.76,794.7h-73.68c-0.39,0-0.77-0.16-1.04-0.43c-0.28-0.28-0.43-0.65-0.43-1.04V356.3c0-0.39,0.16-0.77,0.43-1.04
	c0.28-0.28,0.65-0.43,1.04-0.43h73.68c0.39,0,0.77,0.16,1.04,0.43c0.28,0.28,0.43,0.65,0.43,1.04v436.91c0,0.39-0.16,0.77-0.43,1.04
	C664.53,794.54,664.15,794.7,663.76,794.7z M591.55,791.74h70.88V357.78h-70.88V791.74z"/>
<path class="st0" d="M392.47,360.97v-68.78h-15.06v-55.17h-21.59v-65.5h-11.96v65.5h-21.62v55.17h-15.06v68.78h-13.5v430.51
	l112.28,0.18V360.97H392.47z"/>
<path d="M405.97,793.13l-112.23-0.21c-0.39,0-0.77-0.16-1.04-0.43c-0.28-0.28-0.43-0.65-0.43-1.04V360.97
	c0.01-0.39,0.17-0.76,0.44-1.04c0.28-0.28,0.65-0.43,1.04-0.44h12.02v-67.31c0.01-0.39,0.17-0.76,0.44-1.04
	c0.27-0.28,0.65-0.43,1.04-0.44h13.58v-53.69c0-0.39,0.16-0.77,0.43-1.04c0.28-0.28,0.65-0.43,1.04-0.43h20.14v-64.03
	c0-0.39,0.16-0.77,0.43-1.04c0.28-0.28,0.65-0.43,1.04-0.43h11.96c0.39,0,0.77,0.16,1.04,0.43c0.28,0.28,0.43,0.65,0.43,1.04v64.03
	h20.11c0.39,0,0.77,0.16,1.04,0.43c0.28,0.28,0.43,0.65,0.43,1.04v53.69h13.58c0.39,0,0.77,0.16,1.04,0.43
	c0.28,0.28,0.43,0.65,0.43,1.04v67.31h12.02c0.39,0.01,0.76,0.16,1.04,0.44c0.27,0.28,0.43,0.65,0.44,1.04v430.68
	c0,0.2-0.03,0.4-0.11,0.58c-0.08,0.18-0.19,0.35-0.33,0.49c-0.14,0.14-0.32,0.25-0.5,0.32
	C406.37,793.11,406.17,793.14,405.97,793.13z M295.16,790l109.27,0.18V362.45h-12.02c-0.39,0-0.77-0.16-1.04-0.43
	c-0.28-0.28-0.43-0.65-0.43-1.04v-67.31h-13.58c-0.39,0-0.77-0.16-1.04-0.43c-0.28-0.28-0.43-0.65-0.43-1.04V238.5h-20.11
	c-0.39,0-0.77-0.16-1.04-0.43c-0.28-0.28-0.43-0.65-0.43-1.04v-64.03h-9.01v64.03c0,0.39-0.16,0.77-0.43,1.04
	c-0.28,0.28-0.65,0.43-1.04,0.43h-20.14v53.69c0,0.39-0.16,0.77-0.43,1.04c-0.28,0.28-0.65,0.43-1.04,0.43H308.6v67.31
	c0,0.39-0.16,0.77-0.43,1.04c-0.28,0.28-0.65,0.43-1.04,0.43H295.1L295.16,790z"/>
<path d="M211.7,279.22H96.14c-0.39,0-0.77-0.16-1.04-0.43c-0.28-0.28-0.43-0.65-0.43-1.04v-16.1c0-0.39,0.16-0.77,0.43-1.04
	c0.28-0.28,0.65-0.43,1.04-0.43H211.7c0.39,0.01,0.76,0.17,1.04,0.44c0.28,0.28,0.43,0.65,0.44,1.04v16.1
	c-0.01,0.39-0.17,0.76-0.44,1.04S212.09,279.22,211.7,279.22z M97.61,276.27h112.61v-13.14H97.61V276.27z"/>
<path class="st0" d="M211.7,277.75H74.55v513.52H211.7V277.75z"/>
<path d="M211.7,792.75H74.55c-0.39,0-0.77-0.16-1.04-0.43c-0.28-0.28-0.43-0.65-0.43-1.04V277.75c0-0.39,0.16-0.77,0.43-1.04
	c0.28-0.28,0.65-0.43,1.04-0.43H211.7c0.39,0,0.77,0.16,1.04,0.43c0.28,0.28,0.43,0.65,0.43,1.04v513.52
	c-0.01,0.39-0.17,0.76-0.44,1.04C212.46,792.58,212.09,792.74,211.7,792.75z M76.02,789.79h134.2V279.22H76.02V789.79z"/>
<path d="M211.7,277.75h-22.44v513.52h22.44V277.75z"/>
<path d="M211.7,277.75v513.52h-22.45V277.75H211.7z M211.7,274.79h-22.45c-0.78,0-1.53,0.31-2.09,0.86
	c-0.55,0.55-0.86,1.31-0.86,2.09v513.52c0,0.78,0.31,1.53,0.86,2.09c0.55,0.55,1.31,0.86,2.09,0.86h22.45
	c0.78,0,1.53-0.31,2.09-0.86c0.55-0.55,0.86-1.31,0.86-2.09V277.75c0-0.78-0.31-1.53-0.86-2.09S212.48,274.79,211.7,274.79z"/>
<path d="M189.25,314.78H74.55c-0.39,0-0.77-0.16-1.04-0.43c-0.28-0.28-0.43-0.65-0.43-1.04v-14.41c0-0.39,0.16-0.77,0.43-1.04
	c0.28-0.28,0.65-0.43,1.04-0.43h114.71c0.39,0,0.77,0.16,1.04,0.43c0.28,0.28,0.43,0.65,0.43,1.04v14.41c0,0.39-0.16,0.77-0.43,1.04
	C190.02,314.63,189.65,314.78,189.25,314.78z M76.02,311.83h111.75v-11.46H76.02V311.83z"/>
<path d="M189.25,360.03H74.55c-0.39,0-0.77-0.16-1.04-0.43c-0.28-0.28-0.43-0.65-0.43-1.04v-14.38c0-0.39,0.16-0.77,0.43-1.04
	c0.28-0.28,0.65-0.43,1.04-0.43h114.71c0.39,0,0.77,0.16,1.04,0.43c0.28,0.28,0.43,0.65,0.43,1.04v14.38c0,0.39-0.16,0.77-0.43,1.04
	C190.02,359.87,189.65,360.03,189.25,360.03z M76.02,357.07h111.75v-11.43H76.02V357.07z"/>
<path d="M189.25,405.27H74.55c-0.39,0-0.77-0.16-1.04-0.43c-0.28-0.28-0.43-0.65-0.43-1.04v-14.38c0-0.39,0.16-0.77,0.43-1.04
	c0.28-0.28,0.65-0.43,1.04-0.43h114.71c0.39,0,0.77,0.16,1.04,0.43c0.28,0.28,0.43,0.65,0.43,1.04v14.38c0,0.39-0.16,0.77-0.43,1.04
	C190.02,405.11,189.65,405.27,189.25,405.27z M76.02,402.32h111.75v-11.55H76.02V402.32z"/>
<path d="M189.25,450.54H74.55c-0.39,0-0.77-0.16-1.04-0.43c-0.28-0.28-0.43-0.65-0.43-1.04v-14.41c0-0.39,0.16-0.77,0.43-1.04
	c0.28-0.28,0.65-0.43,1.04-0.43h114.71c0.39,0,0.77,0.16,1.04,0.43c0.28,0.28,0.43,0.65,0.43,1.04v14.41c0,0.39-0.16,0.77-0.43,1.04
	C190.02,450.39,189.65,450.54,189.25,450.54z M76.02,447.59h111.75v-11.46H76.02V447.59z"/>
<path d="M189.25,495.79H74.55c-0.39,0-0.77-0.16-1.04-0.43c-0.28-0.28-0.43-0.65-0.43-1.04v-14.38c0-0.39,0.16-0.77,0.43-1.04
	c0.28-0.28,0.65-0.43,1.04-0.43h114.71c0.39,0,0.77,0.16,1.04,0.43c0.28,0.28,0.43,0.65,0.43,1.04v14.38c0,0.39-0.16,0.77-0.43,1.04
	C190.02,495.63,189.65,495.79,189.25,495.79z M76.02,492.84h111.75v-11.43H76.02V492.84z"/>
<path d="M189.25,541.04H74.55c-0.39,0-0.77-0.16-1.04-0.43c-0.28-0.28-0.43-0.65-0.43-1.04v-14.38c0-0.39,0.16-0.77,0.43-1.04
	c0.28-0.28,0.65-0.43,1.04-0.43h114.71c0.39,0,0.77,0.16,1.04,0.43c0.28,0.28,0.43,0.65,0.43,1.04v14.38c0,0.39-0.16,0.77-0.43,1.04
	C190.02,540.88,189.65,541.04,189.25,541.04z M76.02,538.08h111.75v-11.46H76.02V538.08z"/>
<path d="M189.25,586.31H74.55c-0.39,0-0.77-0.16-1.04-0.43c-0.28-0.28-0.43-0.65-0.43-1.04v-14.41c0-0.39,0.16-0.77,0.43-1.04
	c0.28-0.28,0.65-0.43,1.04-0.43h114.71c0.39,0,0.77,0.16,1.04,0.43c0.28,0.28,0.43,0.65,0.43,1.04v14.41c0,0.39-0.16,0.77-0.43,1.04
	C190.02,586.15,189.65,586.31,189.25,586.31z M76.02,583.36h111.75V571.9H76.02V583.36z"/>
<path d="M189.25,631.55H74.55c-0.39,0-0.77-0.16-1.04-0.43c-0.28-0.28-0.43-0.65-0.43-1.04v-14.38c0-0.39,0.16-0.77,0.43-1.04
	c0.28-0.28,0.65-0.43,1.04-0.43h114.71c0.39,0,0.77,0.16,1.04,0.43c0.28,0.28,0.43,0.65,0.43,1.04v14.29
	c0.01,0.2-0.02,0.4-0.09,0.59c-0.07,0.19-0.18,0.36-0.31,0.51c-0.14,0.15-0.3,0.26-0.49,0.34S189.46,631.55,189.25,631.55z
	 M76.02,628.6h111.75v-11.43H76.02V628.6z"/>
<path d="M189.25,676.8H74.55c-0.39,0-0.77-0.16-1.04-0.43c-0.28-0.28-0.43-0.65-0.43-1.04v-14.38c0-0.39,0.16-0.77,0.43-1.04
	c0.28-0.28,0.65-0.43,1.04-0.43h114.71c0.39,0,0.77,0.16,1.04,0.43c0.28,0.28,0.43,0.65,0.43,1.04v14.38c0,0.39-0.16,0.77-0.43,1.04
	C190.02,676.64,189.65,676.8,189.25,676.8z M76.02,673.84h111.75v-11.37H76.02V673.84z"/>
<path d="M189.25,722.07H74.55c-0.39,0-0.77-0.16-1.04-0.43c-0.28-0.28-0.43-0.65-0.43-1.04v-14.41c0-0.39,0.16-0.77,0.43-1.04
	c0.28-0.28,0.65-0.43,1.04-0.43h114.71c0.39,0,0.77,0.16,1.04,0.43c0.28,0.28,0.43,0.65,0.43,1.04v14.41c0,0.39-0.16,0.77-0.43,1.04
	C190.02,721.92,189.65,722.07,189.25,722.07z M76.02,719.12h111.75v-11.46H76.02V719.12z"/>
<path d="M189.25,767.32H74.55c-0.39,0-0.77-0.16-1.04-0.43c-0.28-0.28-0.43-0.65-0.43-1.04v-14.38c0-0.39,0.16-0.77,0.43-1.04
	c0.28-0.28,0.65-0.43,1.04-0.43h114.71c0.39,0,0.77,0.16,1.04,0.43c0.28,0.28,0.43,0.65,0.43,1.04v14.38c0,0.39-0.16,0.77-0.43,1.04
	C190.02,767.16,189.65,767.32,189.25,767.32z M76.02,764.37h111.75v-11.43H76.02V764.37z"/>
<path class="st0" d="M488.22,618.35H257.45v8.51h230.77V618.35z"/>
<path d="M488.19,628.33H257.45c-0.39,0-0.77-0.16-1.04-0.43c-0.28-0.28-0.43-0.65-0.43-1.04v-8.51c0-0.39,0.16-0.77,0.43-1.04
	c0.28-0.28,0.65-0.43,1.04-0.43h230.74c0.39,0,0.77,0.16,1.04,0.43c0.28,0.28,0.43,0.65,0.43,1.04v8.51c0,0.39-0.16,0.77-0.43,1.04
	C488.96,628.18,488.58,628.33,488.19,628.33z M258.89,625.38h227.82v-5.55H258.92L258.89,625.38z"/>
<path d="M504.79,630.55H240.85v160.69h263.94V630.55z"/>
<path d="M504.79,630.55v160.72H240.85V630.55H504.79z M504.79,627.6H240.85c-0.78,0-1.53,0.31-2.09,0.87s-0.86,1.31-0.86,2.09
	v160.72c0,0.78,0.31,1.53,0.86,2.09c0.55,0.55,1.31,0.86,2.09,0.86h263.94c0.78,0,1.53-0.31,2.09-0.86
	c0.55-0.55,0.86-1.31,0.86-2.09V630.55c0-0.78-0.31-1.53-0.86-2.09S505.57,627.6,504.79,627.6z"/>
<path class="st0" d="M504.79,654.56H240.85V669h263.94V654.56z"/>
<path d="M504.79,670.48H240.85c-0.39,0-0.77-0.16-1.04-0.43c-0.28-0.28-0.43-0.65-0.43-1.04v-14.44c0-0.39,0.16-0.77,0.43-1.04
	c0.28-0.28,0.65-0.43,1.04-0.43h263.94c0.39,0,0.77,0.16,1.04,0.43c0.28,0.28,0.43,0.65,0.43,1.04V669c0,0.39-0.16,0.77-0.43,1.04
	C505.55,670.32,505.18,670.48,504.79,670.48z M242.33,667.53h260.99v-11.49H242.33V667.53z"/>
<path d="M260.78,670.48c-0.39,0-0.77-0.16-1.04-0.43c-0.28-0.28-0.43-0.65-0.43-1.04v-14.44c0-0.39,0.16-0.77,0.43-1.04
	c0.28-0.28,0.65-0.43,1.04-0.43c0.39,0,0.77,0.16,1.04,0.43c0.28,0.28,0.43,0.65,0.43,1.04V669c0,0.39-0.16,0.77-0.43,1.04
	C261.55,670.32,261.18,670.48,260.78,670.48z"/>
<path d="M282.96,654.56h-2.95V669h2.95V654.56z"/>
<path d="M303.61,654.56h-2.95V669h2.95V654.56z"/>
<path d="M324.25,654.56h-2.95V669h2.95V654.56z"/>
<path d="M344.89,654.56h-2.95V669h2.95V654.56z"/>
<path d="M365.57,654.56h-2.95V669h2.95V654.56z"/>
<path d="M386.21,654.56h-2.95V669h2.95V654.56z"/>
<path d="M406.85,654.56h-2.95V669h2.95V654.56z"/>
<path d="M427.5,654.56h-2.95V669h2.95V654.56z"/>
<path d="M448.14,654.56h-2.95V669h2.95V654.56z"/>
<path d="M468.78,654.56h-2.95V669h2.95V654.56z"/>
<path d="M489.43,654.56h-2.95V669h2.95V654.56z"/>
<path class="st0" d="M504.79,687.31H240.85v14.44h263.94V687.31z"/>
<path d="M504.79,703.23H240.85c-0.39,0-0.77-0.16-1.04-0.43c-0.28-0.28-0.43-0.65-0.43-1.04v-14.44c0-0.39,0.16-0.77,0.43-1.04
	c0.28-0.28,0.65-0.43,1.04-0.43h263.94c0.39,0,0.77,0.16,1.04,0.43c0.28,0.28,0.43,0.65,0.43,1.04v14.44c0,0.39-0.16,0.77-0.43,1.04
	C505.55,703.07,505.18,703.23,504.79,703.23z M242.33,700.28h260.99v-11.49H242.33V700.28z"/>
<path d="M260.78,703.23c-0.39,0-0.77-0.16-1.04-0.43c-0.28-0.28-0.43-0.65-0.43-1.04v-14.44c0-0.39,0.16-0.77,0.43-1.04
	c0.28-0.28,0.65-0.43,1.04-0.43c0.39,0,0.77,0.16,1.04,0.43c0.28,0.28,0.43,0.65,0.43,1.04v14.44c0,0.39-0.16,0.77-0.43,1.04
	C261.55,703.07,261.18,703.23,260.78,703.23z"/>
<path d="M282.96,687.31h-2.95v14.44h2.95V687.31z"/>
<path d="M303.61,687.31h-2.95v14.44h2.95V687.31z"/>
<path d="M324.25,687.31h-2.95v14.44h2.95V687.31z"/>
<path d="M344.89,687.31h-2.95v14.44h2.95V687.31z"/>
<path d="M365.57,687.31h-2.95v14.44h2.95V687.31z"/>
<path d="M386.21,687.31h-2.95v14.44h2.95V687.31z"/>
<path d="M406.85,687.31h-2.95v14.44h2.95V687.31z"/>
<path d="M427.5,687.31h-2.95v14.44h2.95V687.31z"/>
<path d="M448.14,687.31h-2.95v14.44h2.95V687.31z"/>
<path d="M468.78,687.31h-2.95v14.44h2.95V687.31z"/>
<path d="M489.43,687.31h-2.95v14.44h2.95V687.31z"/>
<path class="st0" d="M504.79,720.07H240.85v14.44h263.94V720.07z"/>
<path d="M504.79,735.98H240.85c-0.39,0-0.77-0.16-1.04-0.43c-0.28-0.28-0.43-0.65-0.43-1.04v-14.44c0-0.39,0.16-0.77,0.43-1.04
	c0.28-0.28,0.65-0.43,1.04-0.43h263.94c0.39,0,0.77,0.16,1.04,0.43c0.28,0.28,0.43,0.65,0.43,1.04v14.44c0,0.39-0.16,0.77-0.43,1.04
	C505.55,735.83,505.18,735.98,504.79,735.98z M242.33,733.03h260.99v-11.49H242.33V733.03z"/>
<path d="M260.78,735.98c-0.39,0-0.77-0.16-1.04-0.43c-0.28-0.28-0.43-0.65-0.43-1.04v-14.44c0-0.39,0.16-0.77,0.43-1.04
	c0.28-0.28,0.65-0.43,1.04-0.43c0.39,0,0.77,0.16,1.04,0.43c0.28,0.28,0.43,0.65,0.43,1.04v14.44c0,0.39-0.16,0.77-0.43,1.04
	C261.55,735.83,261.18,735.98,260.78,735.98z"/>
<path d="M282.96,720.07h-2.95v14.44h2.95V720.07z"/>
<path d="M303.61,720.07h-2.95v14.44h2.95V720.07z"/>
<path d="M324.25,720.07h-2.95v14.44h2.95V720.07z"/>
<path d="M344.89,720.07h-2.95v14.44h2.95V720.07z"/>
<path d="M365.57,720.07h-2.95v14.44h2.95V720.07z"/>
<path d="M386.21,720.07h-2.95v14.44h2.95V720.07z"/>
<path d="M406.85,720.07h-2.95v14.44h2.95V720.07z"/>
<path d="M427.5,720.07h-2.95v14.44h2.95V720.07z"/>
<path d="M448.14,720.07h-2.95v14.44h2.95V720.07z"/>
<path d="M468.78,720.07h-2.95v14.44h2.95V720.07z"/>
<path d="M489.43,720.07h-2.95v14.44h2.95V720.07z"/>
<path class="st0" d="M504.79,752.82H240.85v14.44h263.94V752.82z"/>
<path d="M504.79,768.8H240.85c-0.39,0-0.77-0.16-1.04-0.43c-0.28-0.28-0.43-0.65-0.43-1.04v-14.44c0-0.39,0.16-0.77,0.43-1.04
	c0.28-0.28,0.65-0.43,1.04-0.43h263.94c0.39,0,0.77,0.16,1.04,0.43c0.28,0.28,0.43,0.65,0.43,1.04v14.44c0,0.39-0.16,0.77-0.43,1.04
	C505.55,768.64,505.18,768.8,504.79,768.8z M242.33,765.84h260.99v-11.49H242.33V765.84z"/>
<path d="M260.78,768.8c-0.39,0-0.77-0.16-1.04-0.43c-0.28-0.28-0.43-0.65-0.43-1.04v-14.44c0-0.39,0.16-0.77,0.43-1.04
	c0.28-0.28,0.65-0.43,1.04-0.43c0.39,0,0.77,0.16,1.04,0.43c0.28,0.28,0.43,0.65,0.43,1.04v14.44c0,0.39-0.16,0.77-0.43,1.04
	C261.55,768.64,261.18,768.8,260.78,768.8z"/>
<path d="M282.96,752.82h-2.95v14.44h2.95V752.82z"/>
<path d="M303.61,752.82h-2.95v14.44h2.95V752.82z"/>
<path d="M324.25,752.82h-2.95v14.44h2.95V752.82z"/>
<path d="M344.89,752.82h-2.95v14.44h2.95V752.82z"/>
<path d="M365.57,752.82h-2.95v14.44h2.95V752.82z"/>
<path d="M386.21,752.82h-2.95v14.44h2.95V752.82z"/>
<path d="M406.85,752.82h-2.95v14.44h2.95V752.82z"/>
<path d="M427.5,752.82h-2.95v14.44h2.95V752.82z"/>
<path d="M448.14,752.82h-2.95v14.44h2.95V752.82z"/>
<path d="M468.78,752.82h-2.95v14.44h2.95V752.82z"/>
<path d="M489.43,752.82h-2.95v14.44h2.95V752.82z"/>
<path class="st0" d="M930.03,340.86H808.8v450.41h121.23V340.86z"/>
<path d="M930.03,792.75H808.8c-0.39,0-0.77-0.16-1.04-0.43c-0.28-0.28-0.43-0.65-0.43-1.04V340.86c0-0.39,0.16-0.77,0.43-1.04
	c0.28-0.28,0.65-0.43,1.04-0.43h121.23c0.39,0,0.77,0.16,1.05,0.43c0.27,0.28,0.43,0.65,0.43,1.04v450.41
	c0,0.39-0.16,0.77-0.43,1.04C930.8,792.59,930.42,792.75,930.03,792.75z M810.28,789.79h118.28V342.33H810.28V789.79z"/>
<path class="st0" d="M910.87,342.25H828v368.93h82.87V342.25z"/>
<path d="M910.84,712.68H828c-0.39,0-0.77-0.16-1.04-0.43c-0.28-0.28-0.43-0.65-0.43-1.04V342.25c0-0.39,0.16-0.77,0.43-1.04
	c0.28-0.28,0.65-0.43,1.04-0.43h82.84c0.39,0,0.76,0.16,1.05,0.43c0.27,0.28,0.43,0.65,0.43,1.04v368.9c0.01,0.2-0.02,0.4-0.09,0.58
	c-0.07,0.19-0.18,0.36-0.32,0.5c-0.14,0.14-0.3,0.26-0.49,0.33C911.23,712.64,911.04,712.68,910.84,712.68z M829.48,709.73h79.89
	v-366h-79.89V709.73z"/>
<path class="st0" d="M828,340.86h-19.2v450.41H828V340.86z"/>
<path d="M828,792.75h-19.2c-0.39,0-0.77-0.16-1.04-0.43c-0.28-0.28-0.43-0.65-0.43-1.04V340.86c0-0.39,0.16-0.77,0.43-1.04
	c0.28-0.28,0.65-0.43,1.04-0.43H828c0.39,0,0.77,0.16,1.04,0.43c0.28,0.28,0.43,0.65,0.43,1.04v450.41
	c-0.01,0.39-0.17,0.76-0.44,1.04C828.76,792.58,828.39,792.74,828,792.75z M810.28,789.79h16.24V342.33h-16.24V789.79z"/>
<path class="st0" d="M930.03,340.86h-19.19v450.41h19.19V340.86z"/>
<path d="M930.03,792.75h-19.19c-0.39-0.01-0.76-0.17-1.04-0.44c-0.27-0.27-0.43-0.65-0.44-1.04V340.86c0-0.39,0.15-0.77,0.43-1.04
	c0.27-0.28,0.65-0.43,1.05-0.43h19.19c0.39,0,0.77,0.16,1.05,0.43c0.27,0.28,0.43,0.65,0.43,1.04v450.41c0,0.39-0.16,0.77-0.43,1.04
	C930.8,792.59,930.42,792.75,930.03,792.75z M912.31,789.79h16.25V342.33h-16.25V789.79z"/>
<path d="M910.84,362.45H828c-0.39,0-0.77-0.16-1.04-0.43c-0.28-0.28-0.43-0.65-0.43-1.04c0-0.39,0.16-0.77,0.43-1.04
	c0.28-0.28,0.65-0.43,1.04-0.43h82.84c0.39,0,0.76,0.16,1.05,0.43c0.27,0.28,0.43,0.65,0.43,1.04c0,0.39-0.15,0.77-0.43,1.04
	C911.6,362.29,911.23,362.45,910.84,362.45z"/>
<path d="M910.84,379.96H828c-0.39,0-0.77-0.16-1.04-0.43c-0.28-0.28-0.43-0.65-0.43-1.04c0-0.39,0.16-0.77,0.43-1.04
	c0.28-0.28,0.65-0.43,1.04-0.43h82.84c0.39,0,0.76,0.16,1.05,0.43c0.27,0.28,0.43,0.65,0.43,1.04c0,0.39-0.15,0.77-0.43,1.04
	C911.6,379.81,911.23,379.96,910.84,379.96z"/>
<path d="M910.84,397.47H828c-0.39,0-0.77-0.16-1.04-0.43c-0.28-0.28-0.43-0.65-0.43-1.04c0-0.39,0.16-0.77,0.43-1.04
	c0.28-0.28,0.65-0.43,1.04-0.43h82.84c0.39,0,0.76,0.16,1.05,0.43c0.27,0.28,0.43,0.65,0.43,1.04c0,0.39-0.15,0.77-0.43,1.04
	C911.6,397.32,911.23,397.47,910.84,397.47z"/>
<path d="M910.84,414.99H828c-0.39,0-0.77-0.16-1.04-0.43c-0.28-0.28-0.43-0.65-0.43-1.04s0.16-0.77,0.43-1.04
	c0.28-0.28,0.65-0.43,1.04-0.43h82.84c0.39,0,0.76,0.16,1.05,0.43c0.27,0.28,0.43,0.65,0.43,1.04s-0.15,0.77-0.43,1.04
	C911.6,414.83,911.23,414.99,910.84,414.99z"/>
<path d="M910.84,432.5H828c-0.39,0-0.77-0.16-1.04-0.43c-0.28-0.28-0.43-0.65-0.43-1.04c0-0.39,0.16-0.77,0.43-1.04
	c0.28-0.28,0.65-0.43,1.04-0.43h82.84c0.39,0,0.76,0.16,1.05,0.43c0.27,0.28,0.43,0.65,0.43,1.04c0,0.39-0.15,0.77-0.43,1.04
	C911.6,432.34,911.23,432.5,910.84,432.5z"/>
<path d="M910.84,450.01H828c-0.39,0-0.77-0.16-1.04-0.43c-0.28-0.28-0.43-0.65-0.43-1.04c0-0.39,0.16-0.77,0.43-1.04
	c0.28-0.28,0.65-0.43,1.04-0.43h82.84c0.39,0,0.76,0.16,1.05,0.43c0.27,0.28,0.43,0.65,0.43,1.04c0,0.39-0.15,0.77-0.43,1.04
	C911.6,449.86,911.23,450.01,910.84,450.01z"/>
<path d="M910.84,467.56H828c-0.39,0-0.77-0.16-1.04-0.43c-0.28-0.28-0.43-0.65-0.43-1.04s0.16-0.77,0.43-1.04
	c0.28-0.28,0.65-0.43,1.04-0.43h82.84c0.39,0,0.76,0.16,1.05,0.43c0.27,0.28,0.43,0.65,0.43,1.04s-0.15,0.77-0.43,1.04
	C911.6,467.4,911.23,467.56,910.84,467.56z"/>
<path d="M910.84,485.01H828c-0.39,0-0.77-0.16-1.04-0.43c-0.28-0.28-0.43-0.65-0.43-1.04c0-0.39,0.16-0.77,0.43-1.04
	c0.28-0.28,0.65-0.43,1.04-0.43h82.84c0.39,0,0.76,0.16,1.05,0.43c0.27,0.28,0.43,0.65,0.43,1.04c0,0.39-0.15,0.77-0.43,1.04
	C911.6,484.85,911.23,485.01,910.84,485.01z"/>
<path d="M910.84,502.52H828c-0.39,0-0.77-0.16-1.04-0.43c-0.28-0.28-0.43-0.65-0.43-1.04c0-0.39,0.16-0.77,0.43-1.04
	c0.28-0.28,0.65-0.43,1.04-0.43h82.84c0.39,0,0.76,0.16,1.05,0.43c0.27,0.28,0.43,0.65,0.43,1.04c0,0.39-0.15,0.77-0.43,1.04
	C911.6,502.37,911.23,502.52,910.84,502.52z"/>
<path d="M910.84,520.04H828c-0.39,0-0.77-0.16-1.04-0.43c-0.28-0.28-0.43-0.65-0.43-1.04c0-0.39,0.16-0.77,0.43-1.04
	c0.28-0.28,0.65-0.43,1.04-0.43h82.84c0.39,0,0.76,0.16,1.05,0.43c0.27,0.28,0.43,0.65,0.43,1.04c0,0.39-0.15,0.77-0.43,1.04
	C911.6,519.88,911.23,520.04,910.84,520.04z"/>
<path d="M910.84,537.55H828c-0.39,0-0.77-0.16-1.04-0.43c-0.28-0.28-0.43-0.65-0.43-1.04s0.16-0.77,0.43-1.04
	c0.28-0.28,0.65-0.43,1.04-0.43h82.84c0.39,0,0.76,0.16,1.05,0.43c0.27,0.28,0.43,0.65,0.43,1.04s-0.15,0.77-0.43,1.04
	C911.6,537.39,911.23,537.55,910.84,537.55z"/>
<path d="M910.84,555.06H828c-0.39,0-0.77-0.16-1.04-0.43c-0.28-0.28-0.43-0.65-0.43-1.04c0-0.39,0.16-0.77,0.43-1.04
	c0.28-0.28,0.65-0.43,1.04-0.43h82.84c0.39,0,0.76,0.16,1.05,0.43c0.27,0.28,0.43,0.65,0.43,1.04c0,0.39-0.15,0.77-0.43,1.04
	C911.6,554.91,911.23,555.06,910.84,555.06z"/>
<path d="M910.84,572.55H828c-0.39,0-0.77-0.16-1.04-0.43c-0.28-0.28-0.43-0.65-0.43-1.04c0-0.39,0.16-0.77,0.43-1.04
	c0.28-0.28,0.65-0.43,1.04-0.43h82.84c0.39,0,0.76,0.16,1.05,0.43c0.27,0.28,0.43,0.65,0.43,1.04c0,0.39-0.15,0.77-0.43,1.04
	C911.6,572.39,911.23,572.55,910.84,572.55z"/>
<path d="M910.84,590.06H828c-0.39,0-0.77-0.16-1.04-0.43c-0.28-0.28-0.43-0.65-0.43-1.04s0.16-0.77,0.43-1.04
	c0.28-0.28,0.65-0.43,1.04-0.43h82.84c0.39,0,0.76,0.16,1.05,0.43c0.27,0.28,0.43,0.65,0.43,1.04s-0.15,0.77-0.43,1.04
	C911.6,589.9,911.23,590.06,910.84,590.06z"/>
<path d="M910.84,607.57H828c-0.39,0-0.77-0.16-1.04-0.43c-0.28-0.28-0.43-0.65-0.43-1.04c0-0.39,0.16-0.77,0.43-1.04
	c0.28-0.28,0.65-0.43,1.04-0.43h82.84c0.39,0,0.76,0.16,1.05,0.43c0.27,0.28,0.43,0.65,0.43,1.04c0,0.39-0.15,0.77-0.43,1.04
	C911.6,607.42,911.23,607.57,910.84,607.57z"/>
<path d="M910.84,625.09H828c-0.39,0-0.77-0.16-1.04-0.43c-0.28-0.28-0.43-0.65-0.43-1.04s0.16-0.77,0.43-1.04
	c0.28-0.28,0.65-0.43,1.04-0.43h82.84c0.39,0,0.76,0.16,1.05,0.43c0.27,0.28,0.43,0.65,0.43,1.04s-0.15,0.77-0.43,1.04
	C911.6,624.93,911.23,625.09,910.84,625.09z"/>
<path d="M910.84,642.6H828c-0.39,0-0.77-0.16-1.04-0.43c-0.28-0.28-0.43-0.65-0.43-1.04c0-0.39,0.16-0.77,0.43-1.04
	c0.28-0.28,0.65-0.43,1.04-0.43h82.84c0.39,0,0.76,0.16,1.05,0.43c0.27,0.28,0.43,0.65,0.43,1.04c0,0.39-0.15,0.77-0.43,1.04
	C911.6,642.44,911.23,642.6,910.84,642.6z"/>
<path d="M910.84,660.11H828c-0.39,0-0.77-0.16-1.04-0.43c-0.28-0.28-0.43-0.65-0.43-1.04s0.16-0.77,0.43-1.04
	c0.28-0.28,0.65-0.43,1.04-0.43h82.84c0.39,0,0.76,0.16,1.05,0.43c0.27,0.28,0.43,0.65,0.43,1.04s-0.15,0.77-0.43,1.04
	C911.6,659.96,911.23,660.11,910.84,660.11z"/>
<path d="M910.84,677.6H828c-0.39,0-0.77-0.16-1.04-0.43c-0.28-0.28-0.43-0.65-0.43-1.04c0-0.39,0.16-0.77,0.43-1.04
	c0.28-0.28,0.65-0.43,1.04-0.43h82.84c0.39,0,0.76,0.16,1.05,0.43c0.27,0.28,0.43,0.65,0.43,1.04c0,0.39-0.15,0.77-0.43,1.04
	C911.6,677.44,911.23,677.6,910.84,677.6z"/>
<path d="M910.84,695.11H828c-0.39,0-0.77-0.16-1.04-0.43c-0.28-0.28-0.43-0.65-0.43-1.04c0-0.39,0.16-0.77,0.43-1.04
	c0.28-0.28,0.65-0.43,1.04-0.43h82.84c0.39,0,0.76,0.16,1.05,0.43c0.27,0.28,0.43,0.65,0.43,1.04c0,0.39-0.15,0.77-0.43,1.04
	C911.6,694.95,911.23,695.11,910.84,695.11z"/>
<path d="M910.84,712.68H828c-0.39,0-0.77-0.16-1.04-0.43c-0.28-0.28-0.43-0.65-0.43-1.04s0.16-0.77,0.43-1.04
	c0.28-0.28,0.65-0.43,1.04-0.43h82.84c0.39,0,0.76,0.16,1.05,0.43c0.27,0.28,0.43,0.65,0.43,1.04s-0.15,0.77-0.43,1.04
	C911.6,712.53,911.23,712.68,910.84,712.68z"/>
<path class="st0" d="M828,340.86h-19.2v450.41H828V340.86z"/>
<path d="M828,792.75h-19.2c-0.39,0-0.77-0.16-1.04-0.43c-0.28-0.28-0.43-0.65-0.43-1.04V340.86c0-0.39,0.16-0.77,0.43-1.04
	c0.28-0.28,0.65-0.43,1.04-0.43H828c0.39,0,0.77,0.16,1.04,0.43c0.28,0.28,0.43,0.65,0.43,1.04v450.41
	c-0.01,0.39-0.17,0.76-0.44,1.04C828.76,792.58,828.39,792.74,828,792.75z M810.28,789.79h16.24V342.33h-16.24V789.79z"/>
<path d="M910.87,711.15H828v80.09h82.87V711.15z"/>
<path class="st0" d="M603.13,507.34h-57.29v283.9h57.29V507.34z"/>
<path d="M603.13,792.75h-57.29c-0.39-0.01-0.76-0.16-1.04-0.44c-0.28-0.28-0.43-0.65-0.44-1.04V507.34c0-0.39,0.16-0.77,0.43-1.04
	c0.28-0.28,0.65-0.43,1.04-0.43h57.29c0.39,0,0.77,0.16,1.04,0.43c0.28,0.28,0.43,0.65,0.43,1.04v283.93c0,0.39-0.16,0.77-0.43,1.04
	C603.9,792.59,603.52,792.75,603.13,792.75z M547.32,789.79h54.34V508.9h-54.4L547.32,789.79z"/>
<path class="st0" d="M545.84,507.34h-10.87v283.9h10.87V507.34z"/>
<path d="M545.84,792.75h-10.87c-0.39,0-0.77-0.16-1.04-0.43c-0.28-0.28-0.43-0.65-0.43-1.04V507.34c0-0.39,0.16-0.77,0.43-1.04
	c0.28-0.28,0.65-0.43,1.04-0.43h10.87c0.39,0,0.77,0.16,1.04,0.43c0.28,0.28,0.43,0.65,0.43,1.04v283.93c0,0.39-0.16,0.77-0.43,1.04
	C546.6,792.59,546.23,792.75,545.84,792.75z M536.45,789.79h7.86V508.9h-7.91L536.45,789.79z"/>
<path class="st0" d="M614,507.34h-10.87v283.9H614V507.34z"/>
<path d="M614.03,792.75h-10.9c-0.39-0.01-0.76-0.16-1.04-0.44c-0.28-0.28-0.43-0.65-0.44-1.04V507.34c0-0.39,0.16-0.77,0.43-1.04
	c0.28-0.28,0.65-0.43,1.04-0.43h10.9c0.39,0,0.77,0.16,1.04,0.43c0.28,0.28,0.43,0.65,0.43,1.04v283.93
	c-0.01,0.39-0.17,0.76-0.44,1.04C614.79,792.58,614.42,792.74,614.03,792.75z M604.61,789.79h7.94V508.9h-7.94V789.79z"/>
<path d="M558.89,739.03c-0.39,0-0.77-0.16-1.04-0.43c-0.28-0.28-0.43-0.65-0.43-1.04V507.34c0-0.39,0.16-0.77,0.43-1.04
	c0.28-0.28,0.65-0.43,1.04-0.43c0.39,0,0.77,0.16,1.04,0.43c0.28,0.28,0.43,0.65,0.43,1.04v230.21c0,0.39-0.16,0.77-0.43,1.04
	C559.66,738.87,559.28,739.03,558.89,739.03z"/>
<path d="M574.48,739.03c-0.39,0-0.77-0.16-1.04-0.43c-0.28-0.28-0.43-0.65-0.43-1.04V507.34c0-0.39,0.16-0.77,0.43-1.04
	c0.28-0.28,0.65-0.43,1.04-0.43s0.77,0.16,1.04,0.43c0.28,0.28,0.43,0.65,0.43,1.04v230.21c0,0.39-0.16,0.77-0.43,1.04
	C575.25,738.87,574.88,739.03,574.48,739.03z"/>
<path d="M590.08,739.03c-0.39,0-0.77-0.16-1.04-0.43c-0.28-0.28-0.43-0.65-0.43-1.04V507.34c0-0.39,0.16-0.77,0.43-1.04
	c0.28-0.28,0.65-0.43,1.04-0.43c0.39,0,0.77,0.16,1.04,0.43c0.28,0.28,0.43,0.65,0.43,1.04v230.21c0,0.39-0.16,0.77-0.43,1.04
	C590.85,738.87,590.47,739.03,590.08,739.03z"/>
<path d="M603.13,566.43h-57.29v10.16h57.29V566.43z"/>
<path d="M603.13,621.78h-57.29v10.16h57.29V621.78z"/>
<path d="M603.13,677.12h-57.29v10.16h57.29V677.12z"/>
<path d="M603.13,732.47h-57.29v10.16h57.29V732.47z"/>
<path class="st0" d="M767.54,403.29h-126.4v10.81h126.4V403.29z"/>
<path d="M767.54,415.61h-126.4c-0.39-0.01-0.76-0.17-1.04-0.44c-0.28-0.27-0.43-0.65-0.44-1.04v-10.84
	c0.01-0.39,0.17-0.76,0.44-1.04c0.28-0.28,0.65-0.43,1.04-0.44h126.4c0.39,0,0.77,0.16,1.04,0.43c0.28,0.28,0.43,0.65,0.43,1.04
	v10.84c0,0.39-0.16,0.77-0.43,1.04C768.31,415.45,767.94,415.61,767.54,415.61z M642.62,412.65h123.45v-7.89H642.62V412.65z"/>
<path class="st0" d="M757.35,414.1H651.36v10.4h105.99V414.1z"/>
<path d="M757.35,425.97h-106c-0.39,0-0.77-0.16-1.04-0.43c-0.28-0.28-0.43-0.65-0.43-1.04v-10.37c0-0.39,0.16-0.77,0.43-1.04
	c0.28-0.28,0.65-0.43,1.04-0.43h106c0.39,0,0.77,0.16,1.04,0.43c0.28,0.28,0.43,0.65,0.43,1.04v10.37c0,0.39-0.16,0.77-0.43,1.04
	C758.12,425.82,757.75,425.97,757.35,425.97z M652.84,423.02h103.04v-7.41H652.84V423.02z"/>
<path d="M757.35,414.1H651.36v10.4h105.99V414.1z"/>
<path class="st0" d="M757.35,424.5H651.36v29.15h105.99V424.5z"/>
<path d="M757.35,455.12h-106c-0.39,0-0.77-0.16-1.04-0.43c-0.28-0.28-0.43-0.65-0.43-1.04V424.5c0-0.39,0.16-0.77,0.43-1.04
	c0.28-0.28,0.65-0.43,1.04-0.43h106c0.39,0,0.77,0.16,1.04,0.43c0.28,0.28,0.43,0.65,0.43,1.04v29.15c0,0.39-0.16,0.77-0.43,1.04
	C758.12,454.97,757.75,455.12,757.35,455.12z M652.84,452.17h103.04v-26.2H652.84V452.17z"/>
<path class="st0" d="M757.35,424.5H651.36v29.15h105.99V424.5z"/>
<path d="M757.35,455.12h-106c-0.39,0-0.77-0.16-1.04-0.43c-0.28-0.28-0.43-0.65-0.43-1.04V424.5c0-0.39,0.16-0.77,0.43-1.04
	c0.28-0.28,0.65-0.43,1.04-0.43h106c0.39,0,0.77,0.16,1.04,0.43c0.28,0.28,0.43,0.65,0.43,1.04v29.15c0,0.39-0.16,0.77-0.43,1.04
	C758.12,454.97,757.75,455.12,757.35,455.12z M652.84,452.17h103.04v-26.2H652.84V452.17z"/>
<path d="M677.2,455.12c-0.39,0-0.77-0.16-1.04-0.43c-0.28-0.28-0.43-0.65-0.43-1.04V424.5c0.01-0.39,0.17-0.76,0.44-1.04
	c0.27-0.28,0.65-0.43,1.04-0.44c0.39,0,0.77,0.16,1.04,0.43c0.28,0.28,0.43,0.65,0.43,1.04v29.15c0,0.39-0.16,0.77-0.43,1.04
	C677.97,454.97,677.59,455.12,677.2,455.12z"/>
<path d="M704.34,455.12c-0.39,0-0.77-0.16-1.04-0.43c-0.28-0.28-0.43-0.65-0.43-1.04V424.5c0.01-0.39,0.17-0.76,0.44-1.04
	s0.65-0.43,1.04-0.44c0.39,0,0.77,0.16,1.04,0.43c0.28,0.28,0.43,0.65,0.43,1.04v29.15c0,0.39-0.16,0.77-0.43,1.04
	C705.11,454.97,704.73,455.12,704.34,455.12z"/>
<path d="M731.4,455.12c-0.39,0-0.77-0.16-1.04-0.43c-0.28-0.28-0.43-0.65-0.43-1.04V424.5c0-0.39,0.16-0.77,0.43-1.04
	c0.28-0.28,0.65-0.43,1.04-0.43c0.39,0.01,0.76,0.17,1.04,0.44c0.27,0.28,0.43,0.65,0.44,1.04v29.15c0,0.39-0.15,0.77-0.43,1.04
	C732.16,454.97,731.79,455.12,731.4,455.12z"/>
<path class="st0" d="M767.54,451.52h-126.4v10.81h126.4V451.52z"/>
<path d="M767.54,463.83h-126.4c-0.39-0.01-0.76-0.17-1.04-0.44c-0.28-0.28-0.43-0.65-0.44-1.04v-10.84
	c0.01-0.39,0.17-0.76,0.44-1.04c0.28-0.28,0.65-0.43,1.04-0.44h126.4c0.39,0,0.77,0.16,1.04,0.43c0.28,0.28,0.43,0.65,0.43,1.04
	v10.84c0,0.39-0.16,0.77-0.43,1.04C768.31,463.68,767.94,463.83,767.54,463.83z M642.62,460.88h123.45V453H642.62V460.88z"/>
<path class="st0" d="M757.35,462.36H651.36v10.4h105.99V462.36z"/>
<path d="M757.35,474.2h-106c-0.39,0-0.77-0.16-1.04-0.43c-0.28-0.28-0.43-0.65-0.43-1.04v-10.37c0-0.39,0.16-0.77,0.43-1.04
	c0.28-0.28,0.65-0.43,1.04-0.43h106c0.39,0,0.77,0.16,1.04,0.43c0.28,0.28,0.43,0.65,0.43,1.04v10.37c0,0.39-0.16,0.77-0.43,1.04
	C758.12,474.05,757.75,474.2,757.35,474.2z M652.84,471.25h103.04v-7.41H652.84V471.25z"/>
<path d="M757.35,462.36H651.36v10.4h105.99V462.36z"/>
<path class="st0" d="M757.35,472.72H651.36v29.15h105.99V472.72z"/>
<path d="M757.35,503.35h-106c-0.39,0-0.77-0.16-1.04-0.43c-0.28-0.28-0.43-0.65-0.43-1.04v-29.15c0-0.39,0.16-0.77,0.43-1.04
	c0.28-0.28,0.65-0.43,1.04-0.43h106c0.39,0,0.77,0.16,1.04,0.43c0.28,0.28,0.43,0.65,0.43,1.04v29.15c0,0.39-0.16,0.77-0.43,1.04
	C758.12,503.19,757.75,503.35,757.35,503.35z M652.84,500.4h103.04v-26.2H652.84V500.4z"/>
<path class="st0" d="M757.35,472.72H651.36v29.15h105.99V472.72z"/>
<path d="M757.35,503.35h-106c-0.39,0-0.77-0.16-1.04-0.43c-0.28-0.28-0.43-0.65-0.43-1.04v-29.15c0-0.39,0.16-0.77,0.43-1.04
	c0.28-0.28,0.65-0.43,1.04-0.43h106c0.39,0,0.77,0.16,1.04,0.43c0.28,0.28,0.43,0.65,0.43,1.04v29.15c0,0.39-0.16,0.77-0.43,1.04
	C758.12,503.19,757.75,503.35,757.35,503.35z M652.84,500.4h103.04v-26.2H652.84V500.4z"/>
<path d="M677.2,503.35c-0.39,0-0.77-0.16-1.04-0.43c-0.28-0.28-0.43-0.65-0.43-1.04v-29.15c0.01-0.39,0.17-0.76,0.44-1.04
	c0.27-0.28,0.65-0.43,1.04-0.44c0.39,0,0.77,0.16,1.04,0.43c0.28,0.28,0.43,0.65,0.43,1.04v29.15c0,0.39-0.16,0.77-0.43,1.04
	C677.97,503.19,677.59,503.35,677.2,503.35z"/>
<path d="M704.34,503.35c-0.39,0-0.77-0.16-1.04-0.43c-0.28-0.28-0.43-0.65-0.43-1.04v-29.15c0.01-0.39,0.17-0.76,0.44-1.04
	c0.28-0.28,0.65-0.43,1.04-0.44c0.39,0,0.77,0.16,1.04,0.43c0.28,0.28,0.43,0.65,0.43,1.04v29.15c0,0.39-0.16,0.77-0.43,1.04
	C705.11,503.19,704.73,503.35,704.34,503.35z"/>
<path d="M731.4,503.35c-0.39,0-0.77-0.16-1.04-0.43c-0.28-0.28-0.43-0.65-0.43-1.04v-29.15c0-0.39,0.16-0.77,0.43-1.04
	c0.28-0.28,0.65-0.43,1.04-0.43c0.39,0.01,0.76,0.17,1.04,0.44c0.27,0.27,0.43,0.65,0.44,1.04v29.15c0,0.39-0.15,0.77-0.43,1.04
	C732.16,503.19,731.79,503.35,731.4,503.35z"/>
<path class="st0" d="M767.54,499.75h-126.4v10.81h126.4V499.75z"/>
<path d="M767.54,512.06h-126.4c-0.39-0.01-0.76-0.17-1.04-0.44c-0.28-0.28-0.43-0.65-0.44-1.04v-10.84
	c0.01-0.39,0.17-0.76,0.44-1.04c0.28-0.28,0.65-0.43,1.04-0.44h126.4c0.39,0,0.77,0.16,1.04,0.43c0.28,0.28,0.43,0.65,0.43,1.04
	v10.84c0,0.39-0.16,0.77-0.43,1.04C768.31,511.91,767.94,512.06,767.54,512.06z M642.62,509.11h123.45v-7.89H642.62V509.11z"/>
<path class="st0" d="M757.35,510.59H651.36v10.4h105.99V510.59z"/>
<path d="M757.35,522.43h-106c-0.39,0-0.77-0.16-1.04-0.43c-0.28-0.28-0.43-0.65-0.43-1.04v-10.37c0-0.39,0.16-0.77,0.43-1.04
	c0.28-0.28,0.65-0.43,1.04-0.43h106c0.39,0,0.77,0.16,1.04,0.43c0.28,0.28,0.43,0.65,0.43,1.04v10.37c0,0.39-0.16,0.77-0.43,1.04
	C758.12,522.27,757.75,522.43,757.35,522.43z M652.84,519.48h103.04v-7.41H652.84V519.48z"/>
<path d="M757.35,510.59H651.36v10.4h105.99V510.59z"/>
<path class="st0" d="M757.35,520.95H651.36v29.15h105.99V520.95z"/>
<path d="M757.35,551.58h-106c-0.39,0-0.77-0.16-1.04-0.43c-0.28-0.28-0.43-0.65-0.43-1.04v-29.15c0-0.39,0.16-0.77,0.43-1.04
	c0.28-0.28,0.65-0.43,1.04-0.43h106c0.39,0,0.77,0.16,1.04,0.43c0.28,0.28,0.43,0.65,0.43,1.04v29.3c-0.04,0.37-0.21,0.7-0.48,0.95
	C758.08,551.44,757.72,551.58,757.35,551.58z M652.84,548.62h103.04v-26.2H652.84V548.62z"/>
<path class="st0" d="M757.35,520.95H651.36v29.15h105.99V520.95z"/>
<path d="M757.35,551.58h-106c-0.39,0-0.77-0.16-1.04-0.43c-0.28-0.28-0.43-0.65-0.43-1.04v-29.15c0-0.39,0.16-0.77,0.43-1.04
	c0.28-0.28,0.65-0.43,1.04-0.43h106c0.39,0,0.77,0.16,1.04,0.43c0.28,0.28,0.43,0.65,0.43,1.04v29.3c-0.04,0.37-0.21,0.7-0.48,0.95
	C758.08,551.44,757.72,551.58,757.35,551.58z M652.84,548.62h103.04v-26.2H652.84V548.62z"/>
<path d="M677.2,551.58c-0.39,0-0.77-0.16-1.04-0.43c-0.28-0.28-0.43-0.65-0.43-1.04v-29.15c0.01-0.39,0.17-0.76,0.44-1.04
	c0.27-0.28,0.65-0.43,1.04-0.44c0.39,0,0.77,0.16,1.04,0.43c0.28,0.28,0.43,0.65,0.43,1.04v29.3c-0.04,0.37-0.21,0.7-0.48,0.95
	C677.92,551.44,677.57,551.58,677.2,551.58z"/>
<path d="M704.34,551.58c-0.39,0-0.77-0.16-1.04-0.43c-0.28-0.28-0.43-0.65-0.43-1.04v-29.15c0.01-0.39,0.17-0.76,0.44-1.04
	c0.28-0.28,0.65-0.43,1.04-0.44c0.39,0,0.77,0.16,1.04,0.43c0.28,0.28,0.43,0.65,0.43,1.04v29.3c-0.04,0.37-0.21,0.7-0.48,0.95
	C705.06,551.44,704.71,551.58,704.34,551.58z"/>
<path d="M731.4,551.58c-0.39,0-0.77-0.16-1.04-0.43c-0.28-0.28-0.43-0.65-0.43-1.04v-29.15c0-0.39,0.16-0.77,0.43-1.04
	c0.28-0.28,0.65-0.43,1.04-0.43c0.39,0.01,0.76,0.16,1.04,0.44c0.27,0.28,0.43,0.65,0.44,1.04v29.3c-0.04,0.37-0.21,0.7-0.48,0.95
	C732.12,551.44,731.76,551.58,731.4,551.58z"/>
<path class="st0" d="M767.54,547.98h-126.4v10.81h126.4V547.98z"/>
<path d="M767.54,560.29h-126.4c-0.39-0.01-0.76-0.17-1.04-0.44c-0.28-0.28-0.43-0.65-0.44-1.04v-10.81c0-0.39,0.16-0.77,0.43-1.04
	c0.28-0.28,0.65-0.43,1.04-0.43h126.4c0.39,0,0.77,0.16,1.04,0.43c0.28,0.28,0.43,0.65,0.43,1.04v10.81c0,0.39-0.16,0.77-0.43,1.04
	C768.31,560.14,767.94,560.29,767.54,560.29z M642.62,557.34h123.45v-7.86H642.62V557.34z"/>
<path class="st0" d="M757.35,558.81H651.36v10.4h105.99V558.81z"/>
<path d="M757.35,570.66h-106c-0.39,0-0.77-0.16-1.04-0.43c-0.28-0.28-0.43-0.65-0.43-1.04v-10.37c0-0.39,0.16-0.77,0.43-1.04
	c0.28-0.28,0.65-0.43,1.04-0.43h106c0.39,0,0.77,0.16,1.04,0.43c0.28,0.28,0.43,0.65,0.43,1.04v10.37c0,0.39-0.16,0.77-0.43,1.04
	C758.12,570.5,757.75,570.66,757.35,570.66z M652.84,567.7h103.04v-7.41H652.84V567.7z"/>
<path d="M757.35,558.81H651.36v10.4h105.99V558.81z"/>
<path class="st0" d="M757.35,569.18H651.36v29.15h105.99V569.18z"/>
<path d="M757.35,599.81h-106c-0.39,0-0.77-0.16-1.04-0.43c-0.28-0.28-0.43-0.65-0.43-1.04v-29.15c0-0.39,0.16-0.77,0.43-1.04
	c0.28-0.28,0.65-0.43,1.04-0.43h106c0.39,0,0.77,0.16,1.04,0.43c0.28,0.28,0.43,0.65,0.43,1.04v29.15c0,0.39-0.16,0.77-0.43,1.04
	C758.12,599.65,757.75,599.81,757.35,599.81z M652.84,596.85h103.04v-26.2H652.84V596.85z"/>
<path class="st0" d="M757.35,569.18H651.36v29.15h105.99V569.18z"/>
<path d="M757.35,599.81h-106c-0.39,0-0.77-0.16-1.04-0.43c-0.28-0.28-0.43-0.65-0.43-1.04v-29.15c0-0.39,0.16-0.77,0.43-1.04
	c0.28-0.28,0.65-0.43,1.04-0.43h106c0.39,0,0.77,0.16,1.04,0.43c0.28,0.28,0.43,0.65,0.43,1.04v29.15c0,0.39-0.16,0.77-0.43,1.04
	C758.12,599.65,757.75,599.81,757.35,599.81z M652.84,596.85h103.04v-26.2H652.84V596.85z"/>
<path d="M677.2,599.81c-0.39,0-0.77-0.16-1.04-0.43c-0.28-0.28-0.43-0.65-0.43-1.04v-29.15c0.01-0.39,0.17-0.76,0.44-1.04
	c0.27-0.28,0.65-0.43,1.04-0.44c0.39,0,0.77,0.16,1.04,0.43c0.28,0.28,0.43,0.65,0.43,1.04v29.15c0,0.39-0.16,0.77-0.43,1.04
	C677.97,599.65,677.59,599.81,677.2,599.81z"/>
<path d="M704.34,599.81c-0.39,0-0.77-0.16-1.04-0.43c-0.28-0.28-0.43-0.65-0.43-1.04v-29.15c0.01-0.39,0.17-0.76,0.44-1.04
	c0.28-0.28,0.65-0.43,1.04-0.44c0.39,0,0.77,0.16,1.04,0.43c0.28,0.28,0.43,0.65,0.43,1.04v29.15c0,0.39-0.16,0.77-0.43,1.04
	C705.11,599.65,704.73,599.81,704.34,599.81z"/>
<path d="M731.4,599.81c-0.39,0-0.77-0.16-1.04-0.43c-0.28-0.28-0.43-0.65-0.43-1.04v-29.15c0-0.39,0.16-0.77,0.43-1.04
	c0.28-0.28,0.65-0.43,1.04-0.43c0.39,0.01,0.76,0.17,1.04,0.44c0.27,0.28,0.43,0.65,0.44,1.04v29.15c0,0.39-0.15,0.77-0.43,1.04
	C732.16,599.65,731.79,599.81,731.4,599.81z"/>
<path class="st0" d="M767.54,596.23h-126.4v10.81h126.4V596.23z"/>
<path d="M767.54,608.52h-126.4c-0.39-0.01-0.76-0.17-1.04-0.44c-0.28-0.28-0.43-0.65-0.44-1.04v-10.81c0-0.39,0.16-0.77,0.43-1.04
	c0.28-0.28,0.65-0.43,1.04-0.43h126.4c0.39,0,0.77,0.16,1.04,0.43c0.28,0.28,0.43,0.65,0.43,1.04v10.81c0,0.39-0.16,0.77-0.43,1.04
	C768.31,608.36,767.94,608.52,767.54,608.52z M642.62,605.57h123.45v-7.86H642.62V605.57z"/>
<path class="st0" d="M757.35,607.04H651.36v10.4h105.99V607.04z"/>
<path d="M757.35,618.88h-106c-0.39,0-0.77-0.16-1.04-0.43c-0.28-0.28-0.43-0.65-0.43-1.04v-10.37c0-0.39,0.16-0.77,0.43-1.04
	c0.28-0.28,0.65-0.43,1.04-0.43h106c0.39,0,0.77,0.16,1.04,0.43c0.28,0.28,0.43,0.65,0.43,1.04v10.37c0,0.39-0.16,0.77-0.43,1.04
	C758.12,618.73,757.75,618.88,757.35,618.88z M652.84,615.93h103.04v-7.41H652.84V615.93z"/>
<path d="M757.35,607.04H651.36v10.4h105.99V607.04z"/>
<path class="st0" d="M757.35,617.41H651.36v29.15h105.99V617.41z"/>
<path d="M757.35,648.03h-106c-0.39,0-0.77-0.16-1.04-0.43c-0.28-0.28-0.43-0.65-0.43-1.04v-29.15c0-0.39,0.16-0.77,0.43-1.04
	c0.28-0.28,0.65-0.43,1.04-0.43h106c0.39,0,0.77,0.16,1.04,0.43c0.28,0.28,0.43,0.65,0.43,1.04v29.15c0,0.39-0.16,0.77-0.43,1.04
	C758.12,647.88,757.75,648.03,757.35,648.03z M652.84,645.08h103.04v-26.2H652.84V645.08z"/>
<path class="st0" d="M757.35,617.41H651.36v29.15h105.99V617.41z"/>
<path d="M757.35,648.03h-106c-0.39,0-0.77-0.16-1.04-0.43c-0.28-0.28-0.43-0.65-0.43-1.04v-29.15c0-0.39,0.16-0.77,0.43-1.04
	c0.28-0.28,0.65-0.43,1.04-0.43h106c0.39,0,0.77,0.16,1.04,0.43c0.28,0.28,0.43,0.65,0.43,1.04v29.15c0,0.39-0.16,0.77-0.43,1.04
	C758.12,647.88,757.75,648.03,757.35,648.03z M652.84,645.08h103.04v-26.2H652.84V645.08z"/>
<path d="M677.2,648.03c-0.39,0-0.77-0.16-1.04-0.43c-0.28-0.28-0.43-0.65-0.43-1.04v-29.15c0.01-0.39,0.17-0.76,0.44-1.04
	c0.27-0.27,0.65-0.43,1.04-0.44c0.39,0,0.77,0.16,1.04,0.43c0.28,0.28,0.43,0.65,0.43,1.04v29.15c0,0.39-0.16,0.77-0.43,1.04
	C677.97,647.88,677.59,648.03,677.2,648.03z"/>
<path d="M704.34,648.03c-0.39,0-0.77-0.16-1.04-0.43c-0.28-0.28-0.43-0.65-0.43-1.04v-29.15c0.01-0.39,0.17-0.76,0.44-1.04
	c0.28-0.27,0.65-0.43,1.04-0.44c0.39,0,0.77,0.16,1.04,0.43c0.28,0.28,0.43,0.65,0.43,1.04v29.15c0,0.39-0.16,0.77-0.43,1.04
	C705.11,647.88,704.73,648.03,704.34,648.03z"/>
<path d="M731.4,648.03c-0.39,0-0.77-0.16-1.04-0.43c-0.28-0.28-0.43-0.65-0.43-1.04v-29.15c0-0.39,0.16-0.77,0.43-1.04
	c0.28-0.28,0.65-0.43,1.04-0.43c0.39,0.01,0.76,0.17,1.04,0.44c0.27,0.28,0.43,0.65,0.44,1.04v29.15c0,0.39-0.15,0.77-0.43,1.04
	C732.16,647.88,731.79,648.03,731.4,648.03z"/>
<path class="st0" d="M767.54,644.46h-126.4v10.81h126.4V644.46z"/>
<path d="M767.54,656.74h-126.4c-0.39-0.01-0.76-0.16-1.04-0.44c-0.28-0.28-0.43-0.65-0.44-1.04v-10.81c0-0.39,0.16-0.77,0.43-1.04
	c0.28-0.28,0.65-0.43,1.04-0.43h126.4c0.39,0,0.77,0.16,1.04,0.43c0.28,0.28,0.43,0.65,0.43,1.04v10.81c0,0.39-0.16,0.77-0.43,1.04
	C768.31,656.59,767.94,656.74,767.54,656.74z M642.62,653.79h123.45v-7.86H642.62V653.79z"/>
<path class="st0" d="M757.35,655.27H651.36v10.4h105.99V655.27z"/>
<path d="M757.35,667.11h-106c-0.39,0-0.77-0.16-1.04-0.43c-0.28-0.28-0.43-0.65-0.43-1.04v-10.37c0-0.39,0.16-0.77,0.43-1.04
	c0.28-0.28,0.65-0.43,1.04-0.43h106c0.39,0,0.77,0.16,1.04,0.43c0.28,0.28,0.43,0.65,0.43,1.04v10.37c0,0.39-0.16,0.77-0.43,1.04
	C758.12,666.96,757.75,667.11,757.35,667.11z M652.84,664.16h103.04v-7.41H652.84V664.16z"/>
<path d="M757.35,655.27H651.36v10.4h105.99V655.27z"/>
<path class="st0" d="M757.35,665.64H651.36v29.15h105.99V665.64z"/>
<path d="M757.35,696.26h-106c-0.39,0-0.77-0.16-1.04-0.43c-0.28-0.28-0.43-0.65-0.43-1.04v-29.15c0-0.39,0.16-0.77,0.43-1.04
	c0.28-0.28,0.65-0.43,1.04-0.43h106c0.39,0,0.77,0.16,1.04,0.43c0.28,0.28,0.43,0.65,0.43,1.04v29.15c0,0.39-0.16,0.77-0.43,1.04
	C758.12,696.11,757.75,696.26,757.35,696.26z M652.84,693.31h103.04v-26.2H652.84V693.31z"/>
<path class="st0" d="M757.35,665.64H651.36v29.15h105.99V665.64z"/>
<path d="M757.35,696.26h-106c-0.39,0-0.77-0.16-1.04-0.43c-0.28-0.28-0.43-0.65-0.43-1.04v-29.15c0-0.39,0.16-0.77,0.43-1.04
	c0.28-0.28,0.65-0.43,1.04-0.43h106c0.39,0,0.77,0.16,1.04,0.43c0.28,0.28,0.43,0.65,0.43,1.04v29.15c0,0.39-0.16,0.77-0.43,1.04
	C758.12,696.11,757.75,696.26,757.35,696.26z M652.84,693.31h103.04v-26.2H652.84V693.31z"/>
<path d="M677.2,696.26c-0.39,0-0.77-0.16-1.04-0.43c-0.28-0.28-0.43-0.65-0.43-1.04v-29.15c0.01-0.39,0.17-0.76,0.44-1.04
	c0.27-0.28,0.65-0.43,1.04-0.44c0.39,0,0.77,0.16,1.04,0.43c0.28,0.28,0.43,0.65,0.43,1.04v29.15c0,0.39-0.16,0.77-0.43,1.04
	C677.97,696.11,677.59,696.26,677.2,696.26z"/>
<path d="M704.34,696.26c-0.39,0-0.77-0.16-1.04-0.43c-0.28-0.28-0.43-0.65-0.43-1.04v-29.15c0.01-0.39,0.17-0.76,0.44-1.04
	s0.65-0.43,1.04-0.44c0.39,0,0.77,0.16,1.04,0.43c0.28,0.28,0.43,0.65,0.43,1.04v29.15c0,0.39-0.16,0.77-0.43,1.04
	C705.11,696.11,704.73,696.26,704.34,696.26z"/>
<path d="M731.4,696.26c-0.39,0-0.77-0.16-1.04-0.43c-0.28-0.28-0.43-0.65-0.43-1.04v-29.15c0-0.39,0.16-0.77,0.43-1.04
	c0.28-0.28,0.65-0.43,1.04-0.43c0.39,0.01,0.76,0.17,1.04,0.44c0.27,0.28,0.43,0.65,0.44,1.04v29.15c0,0.39-0.15,0.77-0.43,1.04
	C732.16,696.11,731.79,696.26,731.4,696.26z"/>
<path class="st0" d="M767.54,692.69h-126.4v10.81h126.4V692.69z"/>
<path d="M767.54,704.97h-126.4c-0.39-0.01-0.76-0.17-1.04-0.44c-0.28-0.27-0.43-0.65-0.44-1.04v-10.81c0-0.39,0.16-0.77,0.43-1.04
	c0.28-0.28,0.65-0.43,1.04-0.43h126.4c0.39,0,0.77,0.16,1.04,0.43c0.28,0.28,0.43,0.65,0.43,1.04v10.81c0,0.39-0.16,0.77-0.43,1.04
	C768.31,704.82,767.94,704.97,767.54,704.97z M642.62,702.02h123.45v-7.86H642.62V702.02z"/>
<path class="st0" d="M757.35,703.5H651.36v10.4h105.99V703.5z"/>
<path d="M757.35,715.34h-106c-0.39,0-0.77-0.16-1.04-0.43c-0.28-0.28-0.43-0.65-0.43-1.04V703.5c0-0.39,0.16-0.77,0.43-1.04
	c0.28-0.28,0.65-0.43,1.04-0.43h106c0.39,0,0.77,0.16,1.04,0.43c0.28,0.28,0.43,0.65,0.43,1.04v10.37c0,0.39-0.16,0.77-0.43,1.04
	C758.12,715.19,757.75,715.34,757.35,715.34z M652.84,712.39h103.04v-7.41H652.84V712.39z"/>
<path d="M757.35,703.5H651.36v10.4h105.99V703.5z"/>
<path class="st0" d="M757.35,713.86H651.36v29.15h105.99V713.86z"/>
<path d="M757.35,744.49h-106c-0.39,0-0.77-0.16-1.04-0.43c-0.28-0.28-0.43-0.65-0.43-1.04v-29.15c0-0.39,0.16-0.77,0.43-1.04
	c0.28-0.28,0.65-0.43,1.04-0.43h106c0.39,0,0.77,0.16,1.04,0.43c0.28,0.28,0.43,0.65,0.43,1.04v29.15c0,0.39-0.16,0.77-0.43,1.04
	C758.12,744.33,757.75,744.49,757.35,744.49z M652.84,741.54h103.04v-26.2H652.84V741.54z"/>
<path class="st0" d="M757.35,713.86H651.36v29.15h105.99V713.86z"/>
<path d="M757.35,744.49h-106c-0.39,0-0.77-0.16-1.04-0.43c-0.28-0.28-0.43-0.65-0.43-1.04v-29.15c0-0.39,0.16-0.77,0.43-1.04
	c0.28-0.28,0.65-0.43,1.04-0.43h106c0.39,0,0.77,0.16,1.04,0.43c0.28,0.28,0.43,0.65,0.43,1.04v29.15c0,0.39-0.16,0.77-0.43,1.04
	C758.12,744.33,757.75,744.49,757.35,744.49z M652.84,741.54h103.04v-26.2H652.84V741.54z"/>
<path d="M677.2,744.49c-0.39,0-0.77-0.16-1.04-0.43c-0.28-0.28-0.43-0.65-0.43-1.04v-29.15c0.01-0.39,0.17-0.76,0.44-1.04
	c0.27-0.28,0.65-0.43,1.04-0.44c0.39,0,0.77,0.16,1.04,0.43c0.28,0.28,0.43,0.65,0.43,1.04v29.15c0,0.39-0.16,0.77-0.43,1.04
	C677.97,744.33,677.59,744.49,677.2,744.49z"/>
<path d="M704.34,744.49c-0.39,0-0.77-0.16-1.04-0.43c-0.28-0.28-0.43-0.65-0.43-1.04v-29.15c0.01-0.39,0.17-0.76,0.44-1.04
	c0.28-0.28,0.65-0.43,1.04-0.44c0.39,0,0.77,0.16,1.04,0.43c0.28,0.28,0.43,0.65,0.43,1.04v29.15c0,0.39-0.16,0.77-0.43,1.04
	C705.11,744.33,704.73,744.49,704.34,744.49z"/>
<path d="M731.4,744.49c-0.39,0-0.77-0.16-1.04-0.43c-0.28-0.28-0.43-0.65-0.43-1.04v-29.15c0-0.39,0.16-0.77,0.43-1.04
	c0.28-0.28,0.65-0.43,1.04-0.43c0.39,0.01,0.76,0.17,1.04,0.44c0.27,0.27,0.43,0.65,0.44,1.04v29.15c0,0.39-0.15,0.77-0.43,1.04
	C732.16,744.33,731.79,744.49,731.4,744.49z"/>
<path class="st0" d="M767.54,740.92h-126.4v10.81h126.4V740.92z"/>
<path d="M767.54,753.2h-126.4c-0.39-0.01-0.76-0.17-1.04-0.44c-0.28-0.28-0.43-0.65-0.44-1.04v-10.81c0-0.39,0.16-0.77,0.43-1.04
	c0.28-0.28,0.65-0.43,1.04-0.43h126.4c0.39,0,0.77,0.16,1.04,0.43c0.28,0.28,0.43,0.65,0.43,1.04v10.81c0,0.39-0.16,0.77-0.43,1.04
	C768.31,753.05,767.94,753.2,767.54,753.2z M642.62,750.25h123.45v-7.86H642.62V750.25z"/>
<path class="st0" d="M757.35,751.72H651.36v10.4h105.99V751.72z"/>
<path d="M757.35,763.6h-106c-0.39,0-0.77-0.16-1.04-0.43c-0.28-0.28-0.43-0.65-0.43-1.04v-10.4c0-0.39,0.16-0.77,0.43-1.04
	c0.28-0.28,0.65-0.43,1.04-0.43h106c0.39,0,0.77,0.16,1.04,0.43c0.28,0.28,0.43,0.65,0.43,1.04v10.4c0,0.39-0.16,0.77-0.43,1.04
	C758.12,763.44,757.75,763.6,757.35,763.6z M652.84,760.64h103.04v-7.44H652.84V760.64z"/>
<path d="M757.35,751.72H651.36v10.4h105.99V751.72z"/>
<path class="st0" d="M757.35,762.09H651.36v29.15h105.99V762.09z"/>
<path d="M757.35,792.75h-106c-0.39,0-0.77-0.16-1.04-0.43c-0.28-0.28-0.43-0.65-0.43-1.04v-29.15c0-0.39,0.16-0.77,0.43-1.04
	c0.28-0.28,0.65-0.43,1.04-0.43h106c0.39,0,0.77,0.16,1.04,0.43c0.28,0.28,0.43,0.65,0.43,1.04v29.15c0,0.39-0.16,0.77-0.43,1.04
	C758.12,792.59,757.75,792.75,757.35,792.75z M652.84,789.79h103.04v-26.2H652.84V789.79z"/>
<path class="st0" d="M757.35,762.09H651.36v29.15h105.99V762.09z"/>
<path d="M757.35,792.75h-106c-0.39,0-0.77-0.16-1.04-0.43c-0.28-0.28-0.43-0.65-0.43-1.04v-29.15c0-0.39,0.16-0.77,0.43-1.04
	c0.28-0.28,0.65-0.43,1.04-0.43h106c0.39,0,0.77,0.16,1.04,0.43c0.28,0.28,0.43,0.65,0.43,1.04v29.15c0,0.39-0.16,0.77-0.43,1.04
	C758.12,792.59,757.75,792.75,757.35,792.75z M652.84,789.79h103.04v-26.2H652.84V789.79z"/>
<path d="M677.2,792.75c-0.39-0.01-0.76-0.17-1.04-0.44c-0.28-0.28-0.43-0.65-0.44-1.04v-29.15c0-0.39,0.16-0.77,0.43-1.04
	c0.28-0.28,0.65-0.43,1.04-0.43c0.39,0,0.77,0.16,1.04,0.43c0.28,0.28,0.43,0.65,0.43,1.04v29.15c0,0.39-0.16,0.77-0.43,1.04
	C677.97,792.59,677.59,792.75,677.2,792.75z"/>
<path d="M704.34,792.75c-0.39-0.01-0.76-0.17-1.04-0.44c-0.28-0.28-0.43-0.65-0.44-1.04v-29.15c0-0.39,0.16-0.77,0.43-1.04
	c0.28-0.28,0.65-0.43,1.04-0.43c0.39,0,0.77,0.16,1.04,0.43c0.28,0.28,0.43,0.65,0.43,1.04v29.15c0,0.39-0.16,0.77-0.43,1.04
	C705.11,792.59,704.73,792.75,704.34,792.75z"/>
<path d="M731.4,792.75c-0.39,0-0.77-0.16-1.04-0.43c-0.28-0.28-0.43-0.65-0.43-1.04v-29.15c0-0.39,0.16-0.77,0.43-1.04
	c0.28-0.28,0.65-0.43,1.04-0.43c0.39,0,0.77,0.16,1.04,0.43c0.28,0.28,0.43,0.65,0.43,1.04v29.15c-0.01,0.39-0.17,0.76-0.44,1.04
	C732.16,792.58,731.79,792.74,731.4,792.75z"/>
<path d="M266.34,794.7c-148.73,0-261.58,0-265-0.41c-0.39-0.04-0.74-0.23-0.99-0.52s-0.37-0.68-0.34-1.07
	c0.04-0.39,0.24-0.75,0.54-1c0.3-0.25,0.69-0.38,1.08-0.35c9.83,0.92,987.03,0,996.89,0c0.39,0,0.77,0.16,1.05,0.43
	c0.27,0.28,0.43,0.65,0.43,1.04c0,0.39-0.16,0.77-0.43,1.04c-0.27,0.28-0.66,0.43-1.05,0.43C972,794.31,552.69,794.7,266.34,794.7z"
	/>
<path class="st0" d="M260.84,477.04h-33.52v17.28h33.52V477.04z"/>
<path d="M260.78,495.79h-33.46c-0.39,0-0.77-0.16-1.04-0.43c-0.28-0.28-0.43-0.65-0.43-1.04v-17.28c0-0.39,0.16-0.77,0.43-1.04
	c0.28-0.28,0.65-0.43,1.04-0.43h33.46c0.39,0,0.77,0.16,1.04,0.43c0.28,0.28,0.43,0.65,0.43,1.04v17.28c0,0.39-0.16,0.77-0.43,1.04
	C261.55,495.63,261.17,495.79,260.78,495.79z M228.74,492.84h30.57v-14.32H228.8L228.74,492.84z"/>
</svg>
