<?xml version="1.0" encoding="utf-8"?>
<!-- Generator: Adobe Illustrator 24.3.0, SVG Export Plug-In . SVG Version: 6.00 Build 0)  -->
<svg version="1.1" id="Слой_1" xmlns="http://www.w3.org/2000/svg" xmlns:xlink="http://www.w3.org/1999/xlink" x="0px" y="0px"
	 viewBox="0 0 1000 1000" style="enable-background:new 0 0 1000 1000;" xml:space="preserve">
<style type="text/css">
	.st0{fill:#FFFFFF;}
	.st1{fill:#FFFFFF;filter:url(#Adobe_OpacityMaskFilter);}
	.st2{mask:url(#path-31-inside-1_745_2474_1_);stroke:#000000;stroke-width:2;}
</style>
<path d="M173.52,517.77c-27.64,0.03-54.37-9.88-75.32-27.91c-20.95-18.03-34.72-42.99-38.8-70.33c-4.08-27.34,1.8-55.23,16.56-78.6
	c14.77-23.37,37.44-40.65,63.88-48.69c29.24-8.91,60.82-5.84,87.8,8.53c26.98,14.37,47.15,38.87,56.07,68.1
	c5.25,17.23,6.39,35.44,3.33,53.19c-3.06,17.75-10.23,34.53-20.95,49.01c-10.71,14.48-24.67,26.24-40.75,34.35
	C209.28,513.53,191.53,517.76,173.52,517.77z M173.52,290.35c-16.13-0.02-32.07,3.44-46.74,10.14
	c-14.67,6.7-27.72,16.49-38.26,28.69c-10.54,12.21-18.33,26.54-22.82,42.03c-4.5,15.49-5.6,31.76-3.23,47.71
	c2.37,15.95,8.14,31.21,16.94,44.72s20.41,24.97,34.04,33.6c13.63,8.62,28.96,14.2,44.94,16.36c15.98,2.16,32.24,0.84,47.67-3.86
	c14.09-4.29,27.19-11.31,38.56-20.67c11.37-9.35,20.79-20.86,27.71-33.85s11.22-27.23,12.64-41.88c1.42-14.66-0.06-29.45-4.36-43.53
	c-7.02-22.95-21.2-43.04-40.47-57.35C220.86,298.17,197.52,290.42,173.52,290.35z"/>
<path d="M71.24,478.67c-37.65,0-61.53-8.78-66.33-24.76c-5.56-18.16,14.47-42.26,54.9-66.17c0.36-0.21,0.8-0.27,1.21-0.17
	c0.41,0.11,0.76,0.37,0.97,0.74s0.27,0.8,0.17,1.21c-0.11,0.41-0.37,0.76-0.74,0.97c-38.5,22.74-58.5,46.12-53.51,62.51
	c4.99,16.39,34.75,24.64,79.28,22.11c34.81-2.54,69.2-9.11,102.5-19.58c33.47-9.93,65.67-23.71,95.96-41.06
	c38.47-22.74,58.47-46.12,53.48-62.51c-4.99-16.39-34.74-24.64-79.28-22.11c-0.21,0.02-0.42-0.01-0.61-0.07
	c-0.2-0.07-0.38-0.17-0.53-0.31c-0.15-0.14-0.28-0.31-0.36-0.5c-0.09-0.19-0.13-0.39-0.14-0.6c-0.01-0.21,0.02-0.42,0.08-0.61
	c0.07-0.2,0.17-0.38,0.31-0.53s0.31-0.28,0.49-0.37c0.19-0.09,0.39-0.14,0.6-0.16c46.87-2.72,76.91,6.13,82.47,24.29
	c5.56,18.16-14.5,42.26-54.9,66.14c-30.52,17.39-62.95,31.17-96.65,41.06c-33.53,10.55-68.17,17.18-103.22,19.74
	C81.73,478.51,76.36,478.67,71.24,478.67z"/>
<path d="M96.04,341.68c-0.36-0.01-0.7-0.13-0.98-0.35c-0.33-0.26-0.54-0.64-0.58-1.05c-0.05-0.41,0.07-0.83,0.33-1.16
	c3.24-4.06,7.02-7.66,11.24-10.68c0.34-0.24,0.76-0.34,1.18-0.27c0.41,0.07,0.78,0.29,1.04,0.62c0.12,0.17,0.21,0.36,0.25,0.56
	c0.05,0.2,0.05,0.41,0.02,0.62c-0.04,0.21-0.11,0.4-0.22,0.58c-0.11,0.18-0.26,0.33-0.43,0.45c-3.98,2.86-7.55,6.25-10.61,10.08
	c-0.15,0.19-0.33,0.34-0.55,0.44C96.51,341.63,96.28,341.68,96.04,341.68z"/>
<path d="M96.23,367.04h-0.38c-0.2-0.05-0.39-0.14-0.56-0.27c-0.17-0.13-0.31-0.28-0.41-0.46c-0.11-0.18-0.18-0.38-0.2-0.58
	c-0.03-0.21-0.02-0.42,0.04-0.62c1.18-4.44,3.2-8.62,5.97-12.29c0.26-0.33,0.64-0.55,1.06-0.61c0.42-0.06,0.84,0.05,1.18,0.29
	c0.33,0.26,0.55,0.63,0.6,1.05c0.05,0.41-0.06,0.83-0.31,1.16c-2.52,3.34-4.36,7.14-5.43,11.18c-0.1,0.33-0.3,0.62-0.58,0.83
	C96.92,366.94,96.58,367.05,96.23,367.04z"/>
<path d="M78.29,380.18c-0.17,0.03-0.34,0.03-0.51,0c-0.39-0.14-0.72-0.43-0.9-0.81c-0.18-0.38-0.21-0.81-0.08-1.21l2.84-8.34
	c0.14-0.4,0.43-0.72,0.81-0.91c0.38-0.18,0.82-0.21,1.21-0.07c0.4,0.14,0.72,0.43,0.91,0.81c0.18,0.38,0.21,0.82,0.07,1.21
	l-2.84,8.34c-0.13,0.29-0.34,0.54-0.61,0.72C78.92,380.09,78.61,380.18,78.29,380.18z"/>
<path class="st0" d="M909.95,794.86c46.67,0,84.5-37.83,84.5-84.49c0-46.66-37.83-84.49-84.5-84.49
	c-46.66,0-84.49,37.83-84.49,84.49C825.46,757.03,863.29,794.86,909.95,794.86z"/>
<path d="M909.96,796.44c-17.04,0.01-33.68-5.04-47.85-14.5c-14.16-9.46-25.2-22.91-31.71-38.64c-6.52-15.73-8.22-33.05-4.89-49.75
	c3.33-16.7,11.53-32.04,23.58-44.08c12.05-12.04,27.4-20.23,44.11-23.54c16.7-3.31,34.01-1.59,49.74,4.94
	c15.73,6.53,29.16,17.58,38.6,31.76c9.44,14.17,14.47,30.83,14.45,47.86c-0.06,22.79-9.15,44.63-25.27,60.74
	C954.6,787.34,932.75,796.4,909.96,796.44z M909.96,627.45c-16.4-0.01-32.42,4.85-46.06,13.95c-13.64,9.1-24.27,22.04-30.56,37.18
	c-6.28,15.14-7.94,31.81-4.75,47.89c3.18,16.08,11.07,30.86,22.65,42.46c11.58,11.6,26.35,19.51,42.42,22.73
	c16.08,3.22,32.75,1.59,47.9-4.66c15.16-6.25,28.12-16.86,37.24-30.48c9.13-13.62,14.02-29.64,14.04-46.03
	c0.01-22-8.71-43.1-24.26-58.67C953.04,636.25,931.95,627.48,909.96,627.45z"/>
<path d="M979.1,710.87c-0.26,0-0.52-0.07-0.75-0.19c-0.19-0.1-0.35-0.23-0.48-0.39c-0.13-0.16-0.23-0.35-0.29-0.55
	c-0.06-0.2-0.08-0.41-0.05-0.62c0.03-0.21,0.08-0.41,0.19-0.59c1.78-3.41,2.16-7.37,1.07-11.06c-0.06-0.21-0.08-0.42-0.06-0.64
	c0.02-0.22,0.08-0.42,0.19-0.62c0.1-0.19,0.25-0.36,0.41-0.5c0.17-0.14,0.36-0.24,0.57-0.3c0.2-0.06,0.42-0.08,0.63-0.06
	c0.22,0.02,0.43,0.09,0.62,0.19c0.19,0.1,0.36,0.24,0.5,0.41c0.14,0.17,0.24,0.36,0.3,0.57c1.36,4.5,0.89,9.36-1.32,13.52
	c-0.15,0.27-0.37,0.49-0.64,0.63C979.71,710.83,979.4,710.89,979.1,710.87z"/>
<path d="M978.12,732.92h-0.5c-0.2-0.06-0.38-0.17-0.54-0.3c-0.15-0.14-0.28-0.3-0.37-0.49c-0.09-0.19-0.14-0.39-0.15-0.59
	c-0.02-0.21,0.02-0.41,0.08-0.61c1.05-3.11,1.67-6.35,1.83-9.63c0.01-0.21,0.05-0.41,0.14-0.6c0.09-0.19,0.22-0.36,0.37-0.5
	c0.16-0.14,0.34-0.24,0.54-0.31c0.19-0.07,0.41-0.09,0.62-0.07c0.2,0.01,0.41,0.06,0.59,0.14c0.19,0.09,0.36,0.21,0.49,0.36
	c0.14,0.15,0.25,0.33,0.31,0.53c0.07,0.19,0.1,0.4,0.08,0.61c-0.19,3.57-0.85,7.1-1.99,10.49c-0.13,0.3-0.34,0.55-0.61,0.73
	C978.76,732.84,978.45,732.93,978.12,732.92z"/>
<path d="M961.06,741.82c-0.29,0.01-0.57-0.07-0.82-0.22c-0.36-0.22-0.61-0.56-0.71-0.96c-0.1-0.4-0.03-0.83,0.18-1.18
	c1.89-3.18,3.5-6.52,4.79-9.98c0.08-0.19,0.19-0.37,0.32-0.53c0.14-0.15,0.31-0.27,0.5-0.36c0.19-0.09,0.39-0.13,0.6-0.14
	c0.2-0.01,0.41,0.03,0.6,0.11c0.4,0.14,0.72,0.44,0.9,0.81c0.18,0.38,0.19,0.81,0.06,1.21c-1.37,3.64-3.06,7.15-5.06,10.49
	c-0.14,0.23-0.34,0.43-0.57,0.56C961.61,741.76,961.33,741.83,961.06,741.82z"/>
<path d="M245.48,192.48l5.34,21.32l21.35,5.34l-21.35,5.37l-5.34,21.32l-5.37-21.32l-21.32-5.37l21.32-5.34L245.48,192.48z"/>
<path d="M795.08,407.26l5.34,21.32l21.35,5.34l-21.35,5.37l-5.34,21.32l-5.37-21.32l-21.32-5.37l21.32-5.34L795.08,407.26z"/>
<path d="M725.59,255.65l5.34,21.32l21.35,5.34l-21.35,5.37L725.59,309l-5.37-21.32l-21.32-5.37l21.32-5.34L725.59,255.65z"/>
<path d="M676.79,729.44l3.16,12.62l12.63,3.16l-12.63,3.18l-3.16,12.62l-3.18-12.62L661,745.23l12.62-3.16L676.79,729.44z"/>
<path d="M310.39,622.05l3.16,12.62l12.63,3.16l-12.63,3.18l-3.16,12.62l-3.18-12.62l-12.62-3.18l12.62-3.16L310.39,622.05z"/>
<path d="M285.12,533.61l4.42,17.67l17.69,4.42l-17.69,4.45l-4.42,17.67l-4.45-17.67l-17.66-4.45l17.66-4.42L285.12,533.61z"/>
<path d="M785.19,764.75l4.23,16.84l16.84,4.23l-16.84,4.2l-4.23,16.84l-4.2-16.84l-16.84-4.2l16.84-4.23L785.19,764.75z"/>
<path d="M868.33,277.98l2.08,8.4l8.44,2.12l-8.44,2.12l-2.08,8.4l-2.12-8.4l-8.43-2.12l8.43-2.12L868.33,277.98z"/>
<path d="M164.8,708.72l2.08,8.43l8.43,2.12l-8.43,2.09l-2.08,8.43l-2.12-8.43l-8.43-2.09l8.43-2.12L164.8,708.72z"/>
<path d="M223.02,634.68l2.08,8.43l8.43,2.12l-8.43,2.08l-2.08,8.43l-2.12-8.43l-8.43-2.08l8.43-2.12L223.02,634.68z"/>
<path d="M488.35,243.01l2.08,8.43l8.43,2.12l-8.43,2.08l-2.08,8.43l-2.12-8.43l-8.43-2.08l8.43-2.12L488.35,243.01z"/>
<path d="M892.65,520.97l2.09,8.43l8.43,2.12l-8.43,2.09l-2.09,8.43l-2.11-8.43l-8.44-2.09l8.44-2.12L892.65,520.97z"/>
<path d="M128.86,255.84l2.12,8.43l8.4,2.12l-8.4,2.08l-2.12,8.43l-2.12-8.43l-8.4-2.08l8.4-2.12L128.86,255.84z"/>
<path d="M342.07,277.38l2.46,9.85l9.82,2.46l-9.82,2.46l-2.46,9.85l-2.49-9.85l-9.82-2.46l9.82-2.46L342.07,277.38z"/>
<path d="M818.55,579.09l2.5,9.82l9.82,2.49l-9.82,2.46l-2.5,9.82l-2.46-9.82l-9.82-2.46l9.82-2.49L818.55,579.09z"/>
<path class="st0" d="M282.15,794.86c20.32,0,36.8-16.48,36.8-36.8s-16.48-36.8-36.8-36.8c-20.32,0-36.8,16.48-36.8,36.8
	S261.82,794.86,282.15,794.86z"/>
<path d="M282.15,796.43c-7.59,0.01-15.02-2.24-21.33-6.45c-6.32-4.21-11.24-10.2-14.15-17.22c-2.91-7.01-3.67-14.73-2.2-22.18
	c1.48-7.45,5.13-14.29,10.5-19.66c5.37-5.37,12.2-9.03,19.65-10.51s15.16-0.73,22.18,2.18c7.01,2.9,13.01,7.82,17.23,14.13
	c4.22,6.31,6.47,13.73,6.47,21.32c-0.01,10.17-4.05,19.92-11.24,27.12C302.07,792.37,292.32,796.42,282.15,796.43z M282.15,722.87
	c-6.97-0.01-13.78,2.06-19.58,5.92c-5.8,3.87-10.31,9.37-12.98,15.8c-2.67,6.44-3.37,13.52-2.01,20.36
	c1.36,6.83,4.71,13.11,9.64,18.04c4.93,4.93,11.21,8.28,18.04,9.64c6.83,1.36,13.92,0.66,20.36-2.01
	c6.44-2.67,11.94-7.19,15.8-12.98c3.87-5.8,5.93-12.61,5.92-19.58c-0.02-9.33-3.73-18.27-10.32-24.86
	C300.42,726.6,291.48,722.89,282.15,722.87z"/>
<path d="M945.78,389.26c-7.59,0.01-15.02-2.24-21.33-6.45c-6.31-4.21-11.24-10.21-14.14-17.22c-2.91-7.01-3.68-14.73-2.2-22.18
	c1.48-7.45,5.13-14.29,10.5-19.66c5.36-5.37,12.2-9.03,19.65-10.51c7.44-1.48,15.16-0.73,22.18,2.18c7.01,2.9,13,7.82,17.22,14.13
	s6.48,13.73,6.48,21.32c-0.01,10.17-4.05,19.92-11.24,27.12C965.7,385.19,955.95,389.24,945.78,389.26z M945.78,315.69
	c-6.97-0.01-13.78,2.05-19.57,5.92c-5.8,3.87-10.31,9.37-12.99,15.8c-2.67,6.44-3.37,13.52-2.01,20.36
	c1.35,6.83,4.71,13.11,9.64,18.04c4.93,4.93,11.2,8.28,18.04,9.64c6.83,1.36,13.92,0.66,20.35-2.01
	c6.44-2.67,11.94-7.19,15.81-12.98c3.86-5.8,5.93-12.61,5.92-19.58c-0.02-9.33-3.73-18.27-10.32-24.86
	C964.05,319.42,955.1,315.71,945.78,315.69z"/>
<path class="st0" d="M531.05,694.31c98.16,0,177.73-79.57,177.73-177.73s-79.57-177.73-177.73-177.73
	c-98.16,0-177.73,79.57-177.73,177.73S432.89,694.31,531.05,694.31z"/>
<path d="M531.05,338.82c35.16,0,69.53,10.42,98.76,29.96c29.23,19.53,52.02,47.29,65.47,79.78c13.45,32.48,16.97,68.22,10.12,102.7
	c-6.86,34.48-23.79,66.16-48.65,91.01s-56.53,41.79-91.01,48.65s-70.22,3.34-102.7-10.12s-60.24-36.24-79.78-65.47
	c-19.53-29.23-29.96-63.6-29.96-98.76c0-23.34,4.59-46.46,13.52-68.03c8.93-21.57,22.02-41.17,38.53-57.67s36.1-29.6,57.67-38.53
	C484.59,343.41,507.7,338.82,531.05,338.82z M531.05,336.21c-35.67-0.01-70.55,10.57-100.22,30.38
	c-29.67,19.82-52.79,47.98-66.44,80.94s-17.23,69.22-10.28,104.22s24.13,67.13,49.36,92.36c25.22,25.23,57.36,42.41,92.35,49.37
	c34.99,6.96,71.26,3.39,104.22-10.26c32.96-13.65,61.13-36.77,80.95-66.43c19.82-29.66,30.4-64.54,30.4-100.21
	c-0.05-47.82-19.06-93.66-52.87-127.48C624.71,355.28,578.87,336.26,531.05,336.21z"/>
<defs>
	<filter id="Adobe_OpacityMaskFilter" filterUnits="userSpaceOnUse" x="497.36" y="383.5" width="212.65" height="185.04">
		<feColorMatrix  type="matrix" values="1 0 0 0 0  0 1 0 0 0  0 0 1 0 0  0 0 0 1 0"/>
	</filter>
</defs>
<mask maskUnits="userSpaceOnUse" x="497.36" y="383.5" width="212.65" height="185.04" id="path-31-inside-1_745_2474_1_">
	<path class="st1" d="M664.31,398.96c-1.31,0.51-2.74,0.6-4.11,0.26l2.38-2.18c-3.22-3.54-6.57-6.95-10.08-10.22
		c0.09,1.32,0.5,2.59,1.2,3.71c0.7,1.12,1.67,2.04,2.82,2.69c-3.76,0.2-6.69-2.04-9.99-2.87c-3.91-0.97-7.86-1.72-11.86-2.24
		l5.89,4.25c-1.1,0.42-2.22,0.78-3.36,1.06c-1.12-2.38-2.53-0.43-3.82-0.52c-2.87-0.17-6.09,3.24-8.3-0.29
		c-1.03,0.14-2.05,0.36-3.04,0.66c-2.74,0.86-5.34,2.08-7.75,3.65c-2.67,2.12-3.5,2.38-5.57-0.8l2.73-0.92v-1.12l-5.54-1.18
		c-0.22,1.31-0.3,2.64-0.23,3.96c0.23,0.84,0.61,1.63,1.12,2.33c-1.63,0.16-3.25,0.41-4.85,0.75c-1.53,0.54-3.02,1.16-4.48,1.87
		l1.35,2.87l-7.38-1.21l-0.26,0.69l2.87,1.84c-4.22,1.26-6.86-0.95-6.86-5.25l-3.62-1.92c1.29-0.15,2.6,0.01,3.82,0.46
		c3.99,0.86,8.01,1.87,11.91-0.14c2.04-1.03,1.92-2.47,0-3.45c-2.36-1.29-4.84-2.34-7.41-3.16c-4.51-1.29-9.1-2.18-13.75-3.24
		l0.75-1.18c-2.12-0.6-4.28-1.05-6.46-1.35c-1.32,0.17-2.6,0.59-3.76,1.23l1.12-2.44c-2.15,1-3.88,2.58-5.17,2.27
		c-2.87-0.63-5.05,1.58-8.01,1c-1.66-0.32-3.88,2.18-5.17,2.87c-1.35,0.17-2.69,0.47-3.99,0.89c-1.18,0.77-2.3,1.63-3.33,2.58
		l4.54-1.09c-2.04,2.53-4.25,5.51-6.72,8.24c-1.69,1.87-3.5,4.31-5.74,4.91c-3.02,0.88-5.8,2.47-8.1,4.62
		c-0.42,0.46-0.74,1-0.94,1.59c-0.21,0.59-0.3,1.21-0.26,1.83c0.3,1.88,0.83,3.73,1.58,5.48c0.39,0.97,1.14,1.75,2.09,2.18
		c0.95,0.43,2.03,0.47,3.02,0.12c1.78-0.89,4.02-3.01,5.08-2.53c1.61,0.75,2.38,3.3,3.47,5.08c0.23,0.37,0.4,0.77,0.6,1.15
		c1.01,2.12,0.89,7.03,4.82,1.95c3.19,0.69,3.19-1.92,3.39-3.7c0.05-0.91,0.34-1.78,0.85-2.53c0.5-0.75,1.2-1.36,2.02-1.75
		c0.46-0.16,0.86-0.45,1.15-0.84s0.46-0.85,0.49-1.33c0.03-0.48-0.08-0.97-0.32-1.39c-0.24-0.42-0.6-0.76-1.03-0.98
		c-2.44-1.75-2.73-3.36-0.63-5.74c1.12-1.21,2.87-1.84,4.05-2.87c1.18-1.03,1.92-2.61,3.13-3.59c1.41-1.2,3.04-2.12,4.79-2.7
		c1-0.29,2.35,0.66,3.82,1.15c-2.87,2.27-5.08,3.96-7.23,5.74c-1.21,0.98-2.61,6.8-1.52,7.44c2.01,1.23,4.28,1.98,6.63,2.18
		c2.12-0.26,4.22-0.7,6.26-1.32c1.04,0.04,2.07,0.25,3.04,0.63v1.29l-5.51,0.49c-1.45,0.09-2.9,0.26-4.33,0.52
		c-1.95,0.43-2.21,1.75-0.83,3.01c1.38,1.26,1.23,2.87-0.26,4.1c-3.7-3.01-4.51-2.87-5.4,1.98c-0.1,1.09-0.1,2.18,0,3.27
		c-1.52,0.63-3.36,2.12-4.31,1.69c-3.87-1.87-6.43,1.58-9.88,1.84c-1.06-2.7-2.87-1.03-4.79-1c-1.19-0.14-2.3-0.68-3.16-1.52
		c-0.49-0.4-0.83-1.87-0.52-2.21c0.75-0.77,1.24-1.76,1.42-2.82s0.03-2.15-0.42-3.13c-4.68,2.56-4.65,2.56-3.56,7.32
		c0.15,0.95,0.22,1.91,0.2,2.87l-6.95,2.87c-2.24,2.21-3.82,3.82-5.43,5.37c-0.57,0.55-1.41,0.92-1.78,1.58
		c-0.26,0.64-0.65,1.22-1.14,1.71c-0.49,0.49-1.08,0.86-1.73,1.11c-0.65,0.25-1.33,0.37-2.03,0.34c-0.69-0.03-1.37-0.19-1.99-0.49
		c0,0.98,0.23,1.89,0.34,2.87l-6.17-0.29c1.77,2.23,3.69,4.34,5.74,6.32c2.47,2.87,0.46,5.74,0,8.61
		c-5.17,0.4-10.33-2.01-15.33,1.03c2.87,5.74-1.92,11.77,1.49,17.43l3.39-0.4l2.04,2.7c5.17-1.23,10.19-1.98,11.74-6.46
		c0-1.72-0.4-2.87,0-3.65c1.21-1.64,2.87-2.87,4.16-4.54c0.89-1.03,2.38-2.24,2.33-3.3c-0.17-3.33,1.81-3.13,3.67-2.41
		c0.77,0.42,1.66,0.57,2.53,0.42c0.87-0.15,1.66-0.59,2.24-1.25c1.15-0.92,2.37-1.76,3.65-2.5c0.89,1.12,1.75,2.3,2.87,3.42
		c1.51,2.03,3.23,3.89,5.14,5.54c3.36,2.44,7.35,4.25,5.91,9.67l2.35-3.27l-1.12-3.9l3.88,1.67c0-0.63,0-1.06-0.26-1.18
		c-2.27-1.49-3.62-4.19-6.6-4.85c-0.8-0.17-1.55-1.12-2.1-1.87c-0.55-0.75-1.46-2.53-2.35-3.65c-2.27-2.87-1.87-4.22,1.23-5.05
		c0.27,0.7,0.62,1.37,1.06,1.98c0.34,0.37,1.41,0.34,1.49,0.69c0.83,3.1,3.47,4.02,5.74,5.45c1.46,0.89,3.44,2.64,3.44,3.99
		c0,6.29,4.48,10.11,6.66,15.04c0.99-1.38,1.84-2.87,2.53-4.42c0.25-0.96,0.15-1.98-0.29-2.87c-0.75-1.41-1.59-2.78-2.53-4.08
		c1.41,0,2.73,0.57,3.22,0c2.44-2.18,2.35-2.24,4.45-1.03c-0.17,2.3-0.32,4.22-0.43,5.94c0.95,1.41,1.64,3.53,3.01,4.16
		c1.38,0.63,3.1,3.7,6,1.15c0.92-0.8,3.96,0.8,6.03,1.32c0,0,0.23,0,0.32,0l5.25-2.41c-1.09,4.82-1.92,8.61-2.87,12.46
		c-0.55,2.47-1.49,4.33-4.59,4.42c-1.21,0-2.38,1.32-2.87,1.67l4.82,5.08l-2.35,1.84l0.32,0.92l4.62-1.38
		c0.63,1.12,1.55,2.53,2.27,4.02c1.23,2.5,2.41,5.05,3.56,7.64c0.92,2.07,1.75,4.16,2.56,6.29c0.42,1.58,0.93,3.13,1.52,4.65
		c0.93,1.67,1.96,3.27,3.1,4.79c3.16,4.59,3.07,10.08,3.99,15.27c0.32,1.84,1.12,2.5,2.87,1.66c2.87-1.52,6.09-2.87,8.9-4.74
		c2.81-1.87,5.57-4.68,8.61-6.52c2.89-1.45,5.44-3.51,7.46-6.03c0.55-0.75,0.95-1.58,1.44-2.38c0.43-0.84,0.93-1.63,1.49-2.38
		c3.59-3.93,2.87-7.41-1.92-9.76c-0.95-0.6-1.67-1.52-2.04-2.58c-0.3-1.39-0.45-2.8-0.46-4.22c-1.33,1.44-2.53,3-3.59,4.65
		c-1.38,2.73-3.59,1.06-5.37,1.41c-0.2-1.12-0.37-2.24-0.6-3.36c-0.23-1.12-0.32-1.46-0.66-3.1l-1.26,2.87l-5.45-11.71
		c2.87-3.24,3.5-3.19,5.57,0.78c0.29,0.57,0.55,1.18,0.78,1.78c0.37,1.12,0.98,2.14,1.79,3c0.81,0.86,1.79,1.53,2.89,1.96
		c1.09,0.43,2.27,0.62,3.45,0.56c1.18-0.07,2.32-0.39,3.36-0.95c1.52,3.79,1.84,4.28,6.14,4.54c4.31,0.26,8.87,0,12.8,0l7.26,8.27
		l-2.07,0.86l4.77,4.13c1.03-1.23,2.04-2.5,2.47-2.87c1.12,5.97,2.04,12.95,3.76,19.72c1.5,6.9,3.68,13.63,6.52,20.1
		c4.12-4.86,6.18-11.13,5.74-17.48c-0.26-1.56-0.06-3.17,0.57-4.62c1.55-2.27,4.05-3.88,5.51-6.17c2.27-3.56,6.77-5.37,7.64-10.02
		c0-0.6,1.38-1.18,2.21-1.38c2.33-0.6,4.68-1,7.12-1.52c0.3,1.77,0.87,3.48,1.69,5.08c1.44,1.88,2.65,3.94,3.59,6.11
		c0.76-6.67,1.14-13.38,1.15-20.1C709.01,473.22,693.1,431.38,664.31,398.96z"/>
</mask>
<path class="st2" d="M664.31,398.96c-1.31,0.51-2.74,0.6-4.11,0.26l2.38-2.18c-3.22-3.54-6.57-6.95-10.08-10.22
	c0.09,1.32,0.5,2.59,1.2,3.71c0.7,1.12,1.67,2.04,2.82,2.69c-3.76,0.2-6.69-2.04-9.99-2.87c-3.91-0.97-7.86-1.72-11.86-2.24
	l5.89,4.25c-1.1,0.42-2.22,0.78-3.36,1.06c-1.12-2.38-2.53-0.43-3.82-0.52c-2.87-0.17-6.09,3.24-8.3-0.29
	c-1.03,0.14-2.05,0.36-3.04,0.66c-2.74,0.86-5.34,2.08-7.75,3.65c-2.67,2.12-3.5,2.38-5.57-0.8l2.73-0.92v-1.12l-5.54-1.18
	c-0.22,1.31-0.3,2.64-0.23,3.96c0.23,0.84,0.61,1.63,1.12,2.33c-1.63,0.16-3.25,0.41-4.85,0.75c-1.53,0.54-3.02,1.16-4.48,1.87
	l1.35,2.87l-7.38-1.21l-0.26,0.69l2.87,1.84c-4.22,1.26-6.86-0.95-6.86-5.25l-3.62-1.92c1.29-0.15,2.6,0.01,3.82,0.46
	c3.99,0.86,8.01,1.87,11.91-0.14c2.04-1.03,1.92-2.47,0-3.45c-2.36-1.29-4.84-2.34-7.41-3.16c-4.51-1.29-9.1-2.18-13.75-3.24
	l0.75-1.18c-2.12-0.6-4.28-1.05-6.46-1.35c-1.32,0.17-2.6,0.59-3.76,1.23l1.12-2.44c-2.15,1-3.88,2.58-5.17,2.27
	c-2.87-0.63-5.05,1.58-8.01,1c-1.66-0.32-3.88,2.18-5.17,2.87c-1.35,0.17-2.69,0.47-3.99,0.89c-1.18,0.77-2.3,1.63-3.33,2.58
	l4.54-1.09c-2.04,2.53-4.25,5.51-6.72,8.24c-1.69,1.87-3.5,4.31-5.74,4.91c-3.02,0.88-5.8,2.47-8.1,4.62
	c-0.42,0.46-0.74,1-0.94,1.59c-0.21,0.59-0.3,1.21-0.26,1.83c0.3,1.88,0.83,3.73,1.58,5.48c0.39,0.97,1.14,1.75,2.09,2.18
	c0.95,0.43,2.03,0.47,3.02,0.12c1.78-0.89,4.02-3.01,5.08-2.53c1.61,0.75,2.38,3.3,3.47,5.08c0.23,0.37,0.4,0.77,0.6,1.15
	c1.01,2.12,0.89,7.03,4.82,1.95c3.19,0.69,3.19-1.92,3.39-3.7c0.05-0.91,0.34-1.78,0.85-2.53c0.5-0.75,1.2-1.36,2.02-1.75
	c0.46-0.16,0.86-0.45,1.15-0.84s0.46-0.85,0.49-1.33c0.03-0.48-0.08-0.97-0.32-1.39c-0.24-0.42-0.6-0.76-1.03-0.98
	c-2.44-1.75-2.73-3.36-0.63-5.74c1.12-1.21,2.87-1.84,4.05-2.87c1.18-1.03,1.92-2.61,3.13-3.59c1.41-1.2,3.04-2.12,4.79-2.7
	c1-0.29,2.35,0.66,3.82,1.15c-2.87,2.27-5.08,3.96-7.23,5.74c-1.21,0.98-2.61,6.8-1.52,7.44c2.01,1.23,4.28,1.98,6.63,2.18
	c2.12-0.26,4.22-0.7,6.26-1.32c1.04,0.04,2.07,0.25,3.04,0.63v1.29l-5.51,0.49c-1.45,0.09-2.9,0.26-4.33,0.52
	c-1.95,0.43-2.21,1.75-0.83,3.01c1.38,1.26,1.23,2.87-0.26,4.1c-3.7-3.01-4.51-2.87-5.4,1.98c-0.1,1.09-0.1,2.18,0,3.27
	c-1.52,0.63-3.36,2.12-4.31,1.69c-3.87-1.87-6.43,1.58-9.88,1.84c-1.06-2.7-2.87-1.03-4.79-1c-1.19-0.14-2.3-0.68-3.16-1.52
	c-0.49-0.4-0.83-1.87-0.52-2.21c0.75-0.77,1.24-1.76,1.42-2.82s0.03-2.15-0.42-3.13c-4.68,2.56-4.65,2.56-3.56,7.32
	c0.15,0.95,0.22,1.91,0.2,2.87l-6.95,2.87c-2.24,2.21-3.82,3.82-5.43,5.37c-0.57,0.55-1.41,0.92-1.78,1.58
	c-0.26,0.64-0.65,1.22-1.14,1.71c-0.49,0.49-1.08,0.86-1.73,1.11c-0.65,0.25-1.33,0.37-2.03,0.34c-0.69-0.03-1.37-0.19-1.99-0.49
	c0,0.98,0.23,1.89,0.34,2.87l-6.17-0.29c1.77,2.23,3.69,4.34,5.74,6.32c2.47,2.87,0.46,5.74,0,8.61c-5.17,0.4-10.33-2.01-15.33,1.03
	c2.87,5.74-1.92,11.77,1.49,17.43l3.39-0.4l2.04,2.7c5.17-1.23,10.19-1.98,11.74-6.46c0-1.72-0.4-2.87,0-3.65
	c1.21-1.64,2.87-2.87,4.16-4.54c0.89-1.03,2.38-2.24,2.33-3.3c-0.17-3.33,1.81-3.13,3.67-2.41c0.77,0.42,1.66,0.57,2.53,0.42
	c0.87-0.15,1.66-0.59,2.24-1.25c1.15-0.92,2.37-1.76,3.65-2.5c0.89,1.12,1.75,2.3,2.87,3.42c1.51,2.03,3.23,3.89,5.14,5.54
	c3.36,2.44,7.35,4.25,5.91,9.67l2.35-3.27l-1.12-3.9l3.88,1.67c0-0.63,0-1.06-0.26-1.18c-2.27-1.49-3.62-4.19-6.6-4.85
	c-0.8-0.17-1.55-1.12-2.1-1.87c-0.55-0.75-1.46-2.53-2.35-3.65c-2.27-2.87-1.87-4.22,1.23-5.05c0.27,0.7,0.62,1.37,1.06,1.98
	c0.34,0.37,1.41,0.34,1.49,0.69c0.83,3.1,3.47,4.02,5.74,5.45c1.46,0.89,3.44,2.64,3.44,3.99c0,6.29,4.48,10.11,6.66,15.04
	c0.99-1.38,1.84-2.87,2.53-4.42c0.25-0.96,0.15-1.98-0.29-2.87c-0.75-1.41-1.59-2.78-2.53-4.08c1.41,0,2.73,0.57,3.22,0
	c2.44-2.18,2.35-2.24,4.45-1.03c-0.17,2.3-0.32,4.22-0.43,5.94c0.95,1.41,1.64,3.53,3.01,4.16c1.38,0.63,3.1,3.7,6,1.15
	c0.92-0.8,3.96,0.8,6.03,1.32c0,0,0.23,0,0.32,0l5.25-2.41c-1.09,4.82-1.92,8.61-2.87,12.46c-0.55,2.47-1.49,4.33-4.59,4.42
	c-1.21,0-2.38,1.32-2.87,1.67l4.82,5.08l-2.35,1.84l0.32,0.92l4.62-1.38c0.63,1.12,1.55,2.53,2.27,4.02
	c1.23,2.5,2.41,5.05,3.56,7.64c0.92,2.07,1.75,4.16,2.56,6.29c0.42,1.58,0.93,3.13,1.52,4.65c0.93,1.67,1.96,3.27,3.1,4.79
	c3.16,4.59,3.07,10.08,3.99,15.27c0.32,1.84,1.12,2.5,2.87,1.66c2.87-1.52,6.09-2.87,8.9-4.74c2.81-1.87,5.57-4.68,8.61-6.52
	c2.89-1.45,5.44-3.51,7.46-6.03c0.55-0.75,0.95-1.58,1.44-2.38c0.43-0.84,0.93-1.63,1.49-2.38c3.59-3.93,2.87-7.41-1.92-9.76
	c-0.95-0.6-1.67-1.52-2.04-2.58c-0.3-1.39-0.45-2.8-0.46-4.22c-1.33,1.44-2.53,3-3.59,4.65c-1.38,2.73-3.59,1.06-5.37,1.41
	c-0.2-1.12-0.37-2.24-0.6-3.36c-0.23-1.12-0.32-1.46-0.66-3.1l-1.26,2.87l-5.45-11.71c2.87-3.24,3.5-3.19,5.57,0.78
	c0.29,0.57,0.55,1.18,0.78,1.78c0.37,1.12,0.98,2.14,1.79,3c0.81,0.86,1.79,1.53,2.89,1.96c1.09,0.43,2.27,0.62,3.45,0.56
	c1.18-0.07,2.32-0.39,3.36-0.95c1.52,3.79,1.84,4.28,6.14,4.54c4.31,0.26,8.87,0,12.8,0l7.26,8.27l-2.07,0.86l4.77,4.13
	c1.03-1.23,2.04-2.5,2.47-2.87c1.12,5.97,2.04,12.95,3.76,19.72c1.5,6.9,3.68,13.63,6.52,20.1c4.12-4.86,6.18-11.13,5.74-17.48
	c-0.26-1.56-0.06-3.17,0.57-4.62c1.55-2.27,4.05-3.88,5.51-6.17c2.27-3.56,6.77-5.37,7.64-10.02c0-0.6,1.38-1.18,2.21-1.38
	c2.33-0.6,4.68-1,7.12-1.52c0.3,1.77,0.87,3.48,1.69,5.08c1.44,1.88,2.65,3.94,3.59,6.11c0.76-6.67,1.14-13.38,1.15-20.1
	C709.01,473.22,693.1,431.38,664.31,398.96z"/>
<path d="M417.83,653.69c0.56-1.11,0.91-2.32,1.03-3.56c-0.06-1.28,0.26-2.56,0.92-3.66c0.66-1.1,1.64-1.98,2.81-2.52
	c2.87-1.32,6.03-2.21,9.01-3.36c0.71-0.19,1.34-0.59,1.81-1.15c1.54-2.45,2.77-5.08,3.65-7.84c0.68-3.85,1.13-7.73,1.35-11.63
	c-0.02-0.44,0.07-0.87,0.26-1.26c1.52-1.98,3.3-3.85,4.68-5.94c1.83-2.15,3.13-4.71,3.79-7.46c0.08-0.74,0.01-1.5-0.2-2.22
	s-0.58-1.38-1.06-1.95c-0.48-0.57-1.08-1.04-1.75-1.37c-0.67-0.33-1.4-0.53-2.15-0.57c-0.52-0.14-0.96-0.48-1.23-0.95
	c-3.5-4.68-8.61-3.65-13.38-3.7c0.43-2.01-0.6-2.67-2.7-3.16c-2.41-0.29-4.67-1.3-6.49-2.9c-1.82-1.6-3.12-3.71-3.73-6.06
	c-1.46-5.74-4.33-7.44-10.42-7.78c-1.83-0.38-3.54-1.21-4.97-2.41c-1.17-0.94-2.23-2-3.19-3.16c-0.46-0.62-0.98-1.18-1.55-1.69
	c-1.69-1.15-2.87-3.65-5.17-3.16c-2.31,0.77-4.81,0.77-7.12,0c-2.18-0.95-4.31-2.01-6.86-3.22c-0.66,1.75-1.49,4.02-2.38,6.49
	c-1.61-2.56,0-5.05,0.4-7.69c-4.71,2.87-10.16,4.56-11.28,11.02l-0.32-0.17C371.99,603.16,391.51,631.97,417.83,653.69z"/>
<path d="M382.29,458.76c5.97,1.35,10.42-1.66,15.19-3.96c0.43-0.23,0.8-0.55,1.09-0.94c0.28-0.39,0.47-0.85,0.55-1.33
	c-0.07-0.57-0.26-1.12-0.55-1.61c-0.29-0.49-0.68-0.92-1.14-1.26c-1.34-0.55-2.75-0.89-4.19-1.03l1.84-1.21
	c-2.42-1.18-4.72-2.61-6.86-4.25c-1.03-0.95-0.69-3.24-1.49-4.62c-1.35-2.35-3.1-4.45-4.77-6.78c-1.61,2.24-2.04,6.29-5.94,5.31
	c-1.18-0.26-2.21-0.97-2.87-1.98c-10.98,21.2-17.54,44.4-19.29,68.21c0.62-0.64,1.31-1.2,2.07-1.66c4.88-2.87,5.17-3.65,3.9-9.27
	c-0.18-1.82-0.18-3.66,0-5.48l1.23,4.68c1.15-2.04,2.87-3.7,2.87-5.51c0.32-3.19,1.89-3.9,4.59-3.96c1.07-0.1,2.12-0.33,3.13-0.69
	l-0.89-0.4c0.17-1.58-0.23-4.02,0.6-4.59c3.41-2.01,6.92-3.84,10.54-5.45l-2.3,4.94l0.8,0.17l11.14-5.94l-0.49-0.86l-1.38,0.8
	l0.75-2.61c-0.24,0.01-0.48,0.08-0.68,0.2c-0.21,0.13-0.38,0.3-0.49,0.52c-2.01,2.87-3.1,3.22-6.11,1.06
	c-2.24-1.61-3.04-3.44-0.66-5.74c0.2-0.2-0.37-1.84-0.66-1.87c-1.25-0.14-2.52-0.04-3.73,0.29c-1.62,0.57-3.21,1.22-4.77,1.95
	C375.91,461.35,378.47,457.87,382.29,458.76z"/>
<path d="M535.99,579.59c0.83,1.38,1.13,3.01,0.83,4.59c-1.38,4.74-1.44,8.61,2.44,12.63c1.62,1.73,2.86,3.78,3.64,6.02
	c0.78,2.24,1.09,4.62,0.89,6.98c-0.03,0.65,0.14,1.29,0.49,1.84c1.55,2.12,0.6,3.65-0.43,5.74c-2.3,4.71-4.51,9.56-1.26,15.1
	c2.33,3.19,3.77,6.93,4.19,10.85c-0.11,4.12,1.35,8.13,4.08,11.22c1.92,1.9,3.06,4.45,3.19,7.15c-0.19,1.15,0.01,2.34,0.55,3.37
	c0.54,1.04,1.41,1.87,2.47,2.37c0.99-0.42,2-0.75,3.04-1c2.89-0.08,5.77-0.38,8.61-0.92c7.26-2.07,10.79-8.3,14.35-14.12
	c0.69-1.09,0.26-2.87,0.37-4.94c0.43-0.23,1.41-0.86,2.47-1.35c0.63-0.2,1.21-0.54,1.71-0.98c0.49-0.44,0.89-0.99,1.16-1.59
	c0.27-0.61,0.41-1.26,0.41-1.93c0-0.66-0.14-1.32-0.41-1.93c-0.32-1.12-0.83-2.21-1.12-3.33c-0.14-0.66-0.26-1.67,0-1.98
	c2.38-2.21,5.02-4.19,7.41-6.43c1.52-1.46,3.59-3.07,3.96-4.91c0.37-2.87,0.22-5.79-0.43-8.61c-0.32-1.89-1.58-3.65-1.92-5.54
	c-0.34-1.89,1.03-4.51-1.21-6.34c-0.26-0.23,0-1.38,0.2-1.84c3.59-4.97,6.52-10.85,11.14-14.58c6.11-4.97,9.16-11.48,12.52-18
	c0.7-1.98,1.11-4.05,1.23-6.14c-4.68,1.21-8.81,2.35-13.01,3.24c-0.45,0.03-0.89-0.06-1.3-0.25c-0.41-0.19-0.76-0.48-1.02-0.84
	c-0.69-1.18-0.6-2.87-1.44-3.9c-1.52-1.87-3.56-3.33-5.25-5.08c-0.96-0.91-1.73-2.02-2.24-3.24c-1.38-4.25-4.56-7.61-5.05-12.4
	c-0.32-2.87-3.04-5.74-4.39-8.61c-1.69-3.64-3.18-7.37-4.48-11.17c-0.95-2.87-2.53-2.55-4.74-1.95c-1.64,0.54-3.38,0.66-5.08,0.37
	c-3.32-0.96-6.59-2.09-9.79-3.39c-2.87-1.09-5.17,0.14-5.43,3.04c-0.2,2.12-1.09,3.27-3.1,1.78c-2.01-1.49-5.97-0.69-6.69-4.45
	c0-0.14-0.77,0-1.12-0.2c-3.04-1.32-7.18,0.37-8.9-2.87l2.27-6.72c-1.39-0.31-2.8-0.51-4.22-0.6c-3.67,0-7.38,0.26-11.02,0.75
	c-2.61,0.36-5.17,1.04-7.61,2.04c-3.87,1.58-7.64,2.87-11.11,0.2c-1.42,1.94-3.11,3.67-5.02,5.14c-1.11,0.55-2.04,1.39-2.68,2.45
	c-0.65,1.05-0.98,2.26-0.97,3.5c0,3.9-2.07,5.28-5.17,6.23c-0.79,0.23-1.49,0.72-1.98,1.38c-1.84,2.87-3.65,5.97-5.23,9.1
	c-1.09,2.18-3.13,4.05-1.09,7.26c1.04,2.36,1.12,5.04,0.23,7.46c-0.93,3.18-1.21,6.52-0.8,9.82c0,0.72,0.75,1.41,1.26,2.04
	c0.52,0.63,1.15,0.89,1.55,1.46c1.69,2.81,3.56,5.5,5.6,8.07c2.33,2.23,4.79,4.31,7.38,6.23c0.68,0.59,1.51,0.96,2.4,1.09
	c0.89,0.12,1.79-0.02,2.6-0.4c2.65-0.49,5.34-0.75,8.04-0.77c1.05-0.04,2.09-0.19,3.1-0.46c2.06-0.85,4.16-1.6,6.29-2.24
	c2.12-0.46,5.05-1.81,6.06,1.41c1,3.22,2.56,2.87,4.88,2.58c0.7-0.09,1.4,0.01,2.05,0.27C534.98,578.61,535.55,579.04,535.99,579.59
	z"/>
<path d="M401.49,394.89c0.63-0.19,1.23-0.47,1.78-0.83l5.23,3.65l-6.66-0.95l-0.17,0.98l6.4,2.41v3.16l-7.64,3.88l3.5,2.87
	c0,1.06-0.32,2.07,0,2.87c2.41,4.97,4.88,9.9,7.49,14.76c0.75,1.2,1.8,2.19,3.04,2.87c1.82,0.95,3.69,1.79,5.6,2.53
	c1.41,0.6,2.87,1.32,3.19-1.15c0.32-2.47,1.03-4.71,1.61-7.06c0-0.43,0.29-1.03,0.6-1.18c1.1-0.61,1.98-1.54,2.53-2.67
	c0.55-1.13,0.74-2.4,0.54-3.64c0-0.89,1.55-2.61,2.24-2.56c2.25,0.17,4.5-0.31,6.49-1.37c1.99-1.07,3.63-2.68,4.73-4.66
	c0.78-1.06,2.07-2.38,3.22-2.47c6.63-0.8,12.98-3.17,18.52-6.92l-8.12-0.83l2.21-2.67l6.43,2.73c0.34-1.18,0.19-2.45-0.41-3.53
	c-0.6-1.08-1.6-1.87-2.78-2.21c-2.87-1.09-3.04-2.58-1.61-4.51h7.44l-2.15-2.41l4.77-0.69l-2.12-2.21c3.73-2.53-1.15-3.79-0.86-5.74
	l4.62-0.29c-0.83-1.29-1.29-2.87-2.27-3.24c-1.5-0.38-3.05-0.5-4.59-0.34c4.28-6.43,11.48-8.61,18.26-11.68
	c-1.8-0.95-3.78-1.51-5.81-1.64c-2.03-0.13-4.06,0.18-5.96,0.89c-3.46,0.95-6.98,1.65-10.54,2.1l1.64-2.61
	c-1.38,0.17-2.87,0.34-4.13,0.46c-0.75,0-1.52,0-2.27,0v-1.32l8.35-1.41c-2.87-0.77-5.57-1.84-8.3-2.38
	C435.21,365.35,416.88,378.59,401.49,394.89z"/>
<path d="M378.9,424.63l-1.03,1.72c0.7,0.21,1.39,0.46,2.07,0.75L378.9,424.63z"/>
<path d="M382,423.65c0.25-1.21,0.18-2.47-0.2-3.65c-0.75,1.15-1.46,2.27-2.15,3.42L382,423.65z"/>
<path d="M605.6,636.69c-0.59,1.41-0.8,2.94-0.61,4.46c0.2,1.51,0.79,2.95,1.72,4.15c0.44,0.38,0.97,0.65,1.53,0.78
	c0.57,0.13,1.15,0.13,1.72-0.02c0.56-0.14,1.08-0.42,1.52-0.81c0.43-0.39,0.77-0.87,0.97-1.42c1.84-6.11,3.47-12.29,5.2-18.46
	c0-0.46,0-1.06,0.32-1.41c0.75-1.13,1.06-2.48,0.87-3.82c-0.19-1.34-0.85-2.56-1.88-3.44c-3.56,2.67-3.93,8.61-10.36,8.27
	c0,2.07,0,4.02,0,5.91C606.61,632.87,606.27,634.83,605.6,636.69z"/>
<path d="M519.79,440.76c0.29-0.78,1.03-1.92,0.78-2.27c-0.48-0.42-1.07-0.68-1.69-0.77c-2.5-3.42-4.68-6.4-6.98-9.59
	c1.89-3.33,1.81-4.59-0.69-6.23c-1.58-1.01-5.11,0.4-6.72,2.7c-0.72,1.03,0.34,3.01,3.13,5.74l-0.4,1.98c0.55,0,0.95,0,1.15,0.17
	c1,0.75,2.5,1.41,2.87,2.38c0.37,0.98-0.63,2.21-2.27,1.52c-0.38,0.3-0.66,0.71-0.8,1.18c0,1.18,0,2.35,0,3.85l2.64,0.77
	c-1.38,1.09-2.73,2.1-4.71,3.62l12.75-2.04C519.31,442.14,519.54,441.45,519.79,440.76z"/>
<path d="M628.45,376.66c-2.4,2.59-4.97,5.02-7.69,7.26c3.39,3.3,7.72,3.76,13.03,3.56c-1.46-1.03-2.67-1.52-3.22-2.38
	c-0.55-0.86-1-2.64-0.52-3.21c2.35-2.83,5.29-5.13,8.61-6.72l-3.39-2.56C632.63,373.19,630.23,374.61,628.45,376.66z"/>
<path d="M467.89,423.68c1.25,0.33,2.57,0.33,3.82,0c1.99-0.52,3.86-1.4,5.51-2.61c1.23-1.01,4.05-1.84,2.7-4.16
	c-1.33-1.72-2.91-3.24-4.68-4.51l-0.26,1.06l-9.73,2.33l-2.35-3.16l0.37,1.03l-4.25,2.47l0.43,0.55h4.56l-4.13,2.15l4.59,1.35
	l-2.33,1.69C464.16,422.56,466,423.28,467.89,423.68z"/>
<path d="M551.26,370.03c2.1-1.66,3.82-3.16,5.74-4.39c0.34-0.18,0.71-0.27,1.09-0.27c0.38,0,0.75,0.09,1.09,0.27
	c0.52,0.34,0.63,1.32,1.03,2.21h6.2v-1.15l-17.48-6.98l1.09,2.38l-10.42-0.92l-0.23,1.09c1.33,1.25,2.85,2.27,4.51,3.01
	c1.71,0.09,3.43-0.15,5.05-0.69v0.8l-3.96,1.43v0.55l3.13,0.29l-2.1,1.09L551.26,370.03z"/>
<path d="M505.07,434.93c1.46-0.92,1.72-2.18,0.23-2.87c-1.49-0.69-3.19-2.04-4.88,0c-0.89,1.06-2.01,1.92-3.24,3.13v5.02l-1.03,0.49
	c0.55,0.46,1.23,1.41,1.64,1.29c2.32-0.56,4.58-1.38,6.72-2.44c0.52-0.32,0-2.27,0.2-3.47
	C504.72,435.59,504.81,435.08,505.07,434.93z"/>
<path d="M355.7,536.39c-0.43-0.23-0.88-0.4-1.35-0.52c0,0.78,0.14,1.52,0.26,2.27c1.28,0.44,2.52,0.97,3.73,1.58
	c1.26,0.63,2.04,2.24,3.36,3.76l5.89-0.66C363.28,540.46,359.58,538.28,355.7,536.39z"/>
<path d="M378.84,547.15c0.26-2.87-4.88-4.68-9.53-3.42l2.47,2.87l-4.82-0.46C370.75,548.79,374.76,546.84,378.84,547.15z"/>
<path d="M571.56,359.89h-16.42c2.15,1.12,4.47,1.88,6.86,2.27c3.19,0.06,6.39-0.09,9.56-0.46V359.89z"/>
<path d="M680.85,574.57c0.92-0.37,2.18-2.15,1.95-2.87c-0.91-2.01-2.01-3.93-3.27-5.74l-0.98,0.43c0,1.98,0,3.93,0,5.88
	C678.55,574.22,679.07,575.26,680.85,574.57z"/>
<path d="M536.48,471.56l-2.12,0.86v5.48c3.65-0.17,1.98-3.1,2.7-4.68C537.22,472.85,536.7,472.17,536.48,471.56z"/>
<path d="M548.24,480.52h-5.74l-0.17,0.66l5.28,3.22C547.84,482.96,548.07,481.64,548.24,480.52z"/>
</svg>
