<?xml version="1.0" encoding="utf-8"?>
<!-- Generator: Adobe Illustrator 24.3.0, SVG Export Plug-In . SVG Version: 6.00 Build 0)  -->
<svg version="1.1" id="Слой_1" xmlns="http://www.w3.org/2000/svg" xmlns:xlink="http://www.w3.org/1999/xlink" x="0px" y="0px"
	 viewBox="0 0 1000 1000" style="enable-background:new 0 0 1000 1000;" xml:space="preserve">
<path d="M685.09,414.43c-4.82-46.55-16.78-92.48-17.08-139.26c-0.14-29.36,5.07-59.32,19.5-84.89
	c6.61-11.51,14.99-22.41,18.24-35.28c6.04-24.06-13.48-44.51-36.49-30.33c-7.94,5.47-14.54,12.66-19.3,21.04
	c-51.76,82-23.68,181.25-15.79,270.88C650.98,413.61,668.1,412.88,685.09,414.43z"/>
<path d="M681.49,508.94c-17.07-1.67-33.8-6.57-50.68-9.82c-6.5,31.72-20.25,61.39-45.16,84.31
	c-45.78,42.23-114.79,50.4-179.52,39.92c-41.91-6.91-83.21-18.39-125.49-22.26c-55.35-4.97-112.66,6.9-154.43,45.42
	c-13.6,12.66,4.95,34.57,18.73,37c9.03,1.62,17.92-2.8,25.62-7.83c80.41-52.33,178.57-12.66,265.36-4.06
	c65.57,6.53,130.7-2.55,181.49-47.89C652.61,592.44,672.63,552.46,681.49,508.94z"/>
<path d="M398.9,383.42c20.53-20.01,44.97-35.57,71.79-45.69c15.02-5.58,30.74-9.08,46.71-10.39c13.11-1.11,26.31-1.54,39.47-1.36
	c10.04,0.14,20.07,1.73,30.06,2.64c5,0.16,9.99,0.65,14.92,1.47c1.25,0.33,2.41,0.95,3.38,1.8s1.73,1.92,2.22,3.12
	c2.16,13.39,3.76,26.85,5.42,40.31c0.33,1.4,0.19,2.88-0.4,4.2c-0.7,0.79-1.59,1.39-2.58,1.76c-0.99,0.36-2.06,0.47-3.11,0.31
	c-9.15-0.55-18.24-1.78-27.21-3.68c-61.82-9.98-125.46,12.4-164.83,61.57c-8.7,11.22-15.51,23.79-20.14,37.21
	c-2.78,8.9-5.04,17.95-6.76,27.12c-4.07,17.21-3.41,34.94-2.97,52.45c0.14,10.17,2.33,20.54,2.95,30.88
	c0.18,2.87,1.69,6.26-1.41,9.25c-3.11,2.99-6.99,1.15-10.16,0.7c-11.56-1.56-23.05-3.6-34.52-6.09c-1.22-0.42-2.32-1.13-3.22-2.06
	c-0.9-0.93-1.56-2.06-1.93-3.3c-1.02-13.92-1.59-27.91-1.92-41.92c-0.47-9.25-0.33-18.51,0.44-27.74
	C340.44,465.74,362.97,418.91,398.9,383.42z"/>
<path d="M889.45,327.33c2.63,2.33,5.06,4.86,7.29,7.58c5.22,7.41,4.11,15.48-2.82,22.05c-9.77,9.15-20.79,16.85-32.74,22.88
	c-12.25,6.61-25.28,11.66-38.79,15.04c-9.19,2.13-18.32,4.53-27.66,5.98c-7.76,1.12-15.58,1.76-23.42,1.91
	c-9.41,0.34-18.85,0.5-28.28,0.13c-7.93-0.31-15.82-1.39-23.71-2.25c-5.14-0.57-10.19-1.49-15.33-1.95
	c-0.81,0.05-1.61-0.08-2.37-0.38c-0.75-0.3-1.43-0.75-1.99-1.33c-0.56-0.58-0.99-1.28-1.25-2.04c-0.27-0.76-0.36-1.57-0.29-2.38
	c-0.53-6.34-2.12-12.55-3.02-18.85c-1.07-7.12-2.01-14.26-2.74-21.39c0.15-1.52,0.88-2.91,2.03-3.91c1.15-0.99,2.65-1.51,4.17-1.43
	c28.54,3.79,57.25,7.37,86.19,3.86c23.84-2.29,46.69-10.63,66.4-24.22c4.66-4.06,9.92-7.38,15.59-9.84
	c10.39-3.4,16.52,3.13,23.04,9.91L889.45,327.33z"/>
<path d="M321.01,873.23c-6.16-7.58-9.29-17.97-6.35-26.16c2.95-8.19,8.91-14.81,13.91-21.88c26.02-36.57,27.59-85.1,21.63-129.58
	c-1.23-4.95-0.83-10.17,1.16-14.88c5.5-9.88,31.26,0.35,39.56,2.11c26.17,5.77,13.16,71.68,9.94,88.75
	c-6.29,33.24-18.89,64.97-37.14,93.46c-4.12,6.44-9.14,13.28-16.25,16.61C337.73,886.27,327.6,881.37,321.01,873.23z"/>
<path d="M746.55,340.47l0.37-7.98c0.75,0.28,1.44,0.72,2.01,1.28c0.57,0.56,1.02,1.24,1.31,1.99c0.29,0.75,0.42,1.55,0.38,2.35
	c-0.04,0.8-0.25,1.58-0.62,2.3C749.78,340.83,747.82,340.29,746.55,340.47z"/>
<path d="M688.47,272.36c-2.76-0.13-5.43-0.29-8.27-0.29c0.01-0.63,0.18-1.25,0.47-1.8c0.3-0.56,0.72-1.03,1.24-1.39
	c0.52-0.36,1.11-0.59,1.73-0.68c0.62-0.09,1.26-0.03,1.86,0.17C686.65,268.54,687.47,270.95,688.47,272.36z"/>
<path d="M323.37,780.49L220.34,673.37c-1.03-1.07-1.58-2.49-1.56-3.97c0.03-1.48,0.64-2.88,1.71-3.91c1.07-1.02,2.49-1.58,3.97-1.56
	c1.48,0.03,2.88,0.64,3.91,1.71L331.4,772.76c1.02,1.07,1.58,2.49,1.56,3.97c-0.03,1.48-0.64,2.88-1.71,3.91
	c-1.07,1.02-2.49,1.58-3.97,1.56C325.8,782.17,324.39,781.55,323.37,780.49z"/>
<path d="M298.63,830.77L170.65,697.7c-1.02-1.07-1.58-2.49-1.56-3.97c0.03-1.48,0.64-2.88,1.71-3.91c1.07-1.02,2.49-1.58,3.97-1.56
	c1.48,0.03,2.88,0.64,3.91,1.71l127.98,133.07c1.03,1.06,1.58,2.49,1.56,3.97c-0.03,1.48-0.64,2.88-1.71,3.91
	c-1.07,1.02-2.49,1.58-3.97,1.56C301.06,832.45,299.66,831.83,298.63,830.77z"/>
<path d="M338.96,722.03l-55.38-57.58c-1.02-1.06-1.58-2.49-1.56-3.97s0.64-2.88,1.71-3.91c1.07-1.02,2.49-1.58,3.97-1.56
	c1.48,0.03,2.88,0.64,3.91,1.71l55.38,57.58c1.02,1.07,1.58,2.49,1.56,3.97c-0.03,1.48-0.64,2.88-1.71,3.91
	c-1.07,1.02-2.49,1.58-3.97,1.56S339.98,723.1,338.96,722.03z"/>
<path d="M477.39,618.33l-84.38-87.73c-1.02-1.07-1.58-2.49-1.56-3.97c0.03-1.48,0.64-2.88,1.71-3.91c1.07-1.03,2.49-1.58,3.97-1.56
	c1.48,0.03,2.88,0.64,3.91,1.71l84.38,87.73c1.02,1.07,1.58,2.49,1.56,3.97c-0.03,1.48-0.64,2.88-1.71,3.91
	c-1.06,1.03-2.49,1.58-3.97,1.56C479.82,620.01,478.41,619.39,477.39,618.33z"/>
<path d="M582.41,571.81L442.78,426.63c-1.02-1.06-1.58-2.49-1.56-3.97c0.03-1.48,0.64-2.88,1.71-3.91c1.07-1.02,2.49-1.58,3.97-1.56
	c1.48,0.03,2.88,0.64,3.91,1.71l139.63,145.17c1.02,1.07,1.58,2.49,1.56,3.97c-0.03,1.48-0.64,2.88-1.71,3.91
	c-1.07,1.03-2.49,1.58-3.97,1.56C584.84,573.49,583.43,572.87,582.41,571.81z"/>
<path d="M606,526.07L489.4,404.84c-1.02-1.07-1.58-2.49-1.56-3.97c0.03-1.48,0.64-2.88,1.71-3.91c1.06-1.02,2.49-1.58,3.97-1.56
	c1.48,0.03,2.88,0.64,3.91,1.71l116.6,121.23c1.02,1.07,1.58,2.49,1.56,3.97c-0.03,1.48-0.64,2.88-1.71,3.91
	c-1.07,1.03-2.49,1.58-3.97,1.56C608.43,527.75,607.03,527.14,606,526.07z"/>
<path d="M742.24,344.62l-66.07-68.69c-1.02-1.07-1.58-2.49-1.56-3.97s0.64-2.88,1.71-3.91c1.07-1.02,2.49-1.58,3.97-1.56
	c1.48,0.03,2.88,0.64,3.91,1.71l66.07,68.69c1.02,1.07,1.58,2.49,1.56,3.97c-0.03,1.48-0.64,2.88-1.71,3.91
	c-1.07,1.03-2.49,1.58-3.97,1.56C744.67,346.3,743.26,345.69,742.24,344.62z"/>
<path d="M809.51,337.92l-124.17-129.1c-1.03-1.07-1.58-2.49-1.56-3.97c0.03-1.48,0.64-2.88,1.71-3.91c1.07-1.02,2.49-1.58,3.97-1.56
	c1.48,0.03,2.88,0.64,3.91,1.71l124.17,129.1c1.03,1.07,1.58,2.49,1.56,3.97c-0.03,1.48-0.64,2.88-1.71,3.91
	c-1.07,1.03-2.49,1.58-3.97,1.56C811.94,339.59,810.54,338.98,809.51,337.92z"/>
<path d="M844.24,304.51l-124.17-129.1c-1.02-1.07-1.58-2.49-1.56-3.97s0.64-2.88,1.71-3.91c1.07-1.02,2.49-1.58,3.97-1.56
	c1.48,0.03,2.88,0.64,3.91,1.71l124.17,129.1c1.02,1.07,1.58,2.49,1.56,3.97c-0.03,1.48-0.64,2.88-1.71,3.91
	c-1.07,1.03-2.49,1.58-3.97,1.56C846.67,306.19,845.27,305.57,844.24,304.51z"/>
<path d="M814.45,464.93c-0.24-7.86-0.85-15.68-1.67-23.5c-15.63-1.43-31.38-0.77-46.84,1.95l0.37,3.92
	c2.25,24.04,1.1,48.27-3.4,71.99c15.47,3.06,30.81,7.59,46.57,9.13C813.61,507.53,815.27,486.22,814.45,464.93z"/>
<path d="M707.61,499.49c-0.57-0.59-1-1.29-1.26-2.06c-0.26-0.77-0.35-1.6-0.25-2.41c0.16-1.47,0.9-2.81,2.05-3.73
	c1.15-0.92,2.62-1.35,4.09-1.19l63.87,7.13c0.73,0.08,1.43,0.31,2.08,0.66c0.64,0.35,1.21,0.83,1.66,1.4c0.46,0.57,0.8,1.23,1,1.93
	c0.2,0.7,0.27,1.44,0.18,2.17c-0.08,0.73-0.31,1.43-0.66,2.08c-0.35,0.64-0.83,1.21-1.4,1.66c-0.57,0.46-1.23,0.8-1.93,1
	c-0.7,0.2-1.44,0.27-2.17,0.18l-63.87-7.13C709.7,501.03,708.5,500.43,707.61,499.49z"/>
<path d="M732.69,458.3c-0.81-0.85-1.33-1.93-1.49-3.09c-0.16-1.16,0.05-2.35,0.61-3.38c0.55-1.03,1.42-1.87,2.47-2.38
	c1.05-0.51,2.24-0.68,3.4-0.48l63.27,11.32c0.73,0.12,1.42,0.38,2.05,0.77c0.63,0.39,1.17,0.9,1.6,1.5c0.43,0.6,0.74,1.28,0.91,1.99
	c0.17,0.72,0.19,1.46,0.07,2.19c-0.12,0.73-0.38,1.42-0.77,2.05c-0.39,0.63-0.9,1.17-1.5,1.6c-0.6,0.43-1.28,0.74-1.99,0.91
	c-0.72,0.17-1.46,0.19-2.19,0.07l-63.27-11.32C734.63,459.85,733.51,459.23,732.69,458.3z"/>
<path d="M535.25,604.63L408.92,473.28c-1.02-1.07-1.58-2.49-1.56-3.97c0.03-1.48,0.64-2.88,1.71-3.91c1.06-1.03,2.49-1.58,3.97-1.56
	c1.48,0.03,2.88,0.64,3.91,1.71l126.34,131.35c1.02,1.06,1.58,2.49,1.56,3.97s-0.64,2.88-1.71,3.91c-1.07,1.02-2.49,1.58-3.97,1.56
	S536.28,605.7,535.25,604.63z"/>
</svg>
