<?xml version="1.0" encoding="utf-8"?>
<!-- Generator: Adobe Illustrator 24.3.0, SVG Export Plug-In . SVG Version: 6.00 Build 0)  -->
<svg version="1.1" id="Слой_1" xmlns="http://www.w3.org/2000/svg" xmlns:xlink="http://www.w3.org/1999/xlink" x="0px" y="0px"
	 viewBox="0 0 1000 1000" style="enable-background:new 0 0 1000 1000;" xml:space="preserve">
<style type="text/css">
	.st0{fill:#FFFFFF;}
</style>
<path class="st0" d="M160.45,290.11h635.1c12.61,0,24.7,5.01,33.61,13.92c8.92,8.91,13.92,21.01,13.92,33.61v387.83H112.85V337.65
	c0-6.25,1.23-12.43,3.63-18.21c2.39-5.77,5.9-11.01,10.32-15.43c4.42-4.42,9.67-7.92,15.44-10.3
	C148.02,291.33,154.2,290.11,160.45,290.11z"/>
<path d="M843.06,726.96H112.85c-0.19,0-0.38-0.04-0.56-0.11c-0.18-0.07-0.34-0.18-0.47-0.32c-0.13-0.14-0.24-0.3-0.31-0.48
	c-0.07-0.18-0.1-0.37-0.1-0.56V337.65c0.03-12.99,5.2-25.45,14.4-34.63c9.19-9.18,21.65-14.34,34.65-14.35h635.1
	c12.99,0.02,25.45,5.19,34.64,14.37c9.19,9.19,14.36,21.64,14.37,34.64v387.8c0,0.2-0.04,0.39-0.11,0.57
	c-0.08,0.18-0.19,0.34-0.33,0.48c-0.14,0.14-0.31,0.25-0.49,0.32C843.45,726.92,843.26,726.96,843.06,726.96z M114.39,724.04h727.23
	V337.65c-0.02-12.22-4.88-23.93-13.52-32.56c-8.64-8.64-20.36-13.49-32.57-13.5h-635.1c-12.21,0.02-23.91,4.88-32.54,13.51
	c-8.63,8.64-13.48,20.34-13.49,32.55V724.04z"/>
<path d="M797.41,727.08H158.56c-0.43,0-0.83-0.17-1.13-0.47c-0.3-0.3-0.47-0.71-0.47-1.13V329.12c0-0.43,0.17-0.83,0.47-1.13
	c0.3-0.3,0.71-0.47,1.13-0.47h638.86c0.43,0,0.83,0.17,1.13,0.47c0.3,0.3,0.47,0.71,0.47,1.13v396.36c0,0.43-0.17,0.83-0.47,1.13
	C798.25,726.92,797.84,727.08,797.41,727.08z M160.16,723.88h635.65V330.72H160.16V723.88z"/>
<path d="M903.94,727.15H51.91c-0.35-0.1-0.66-0.31-0.87-0.6s-0.34-0.64-0.34-1c0-0.36,0.12-0.72,0.34-1.01
	c0.22-0.29,0.52-0.5,0.87-0.6h852.03c0.25-0.07,0.52-0.08,0.77-0.04c0.25,0.05,0.49,0.15,0.7,0.31c0.2,0.16,0.37,0.36,0.48,0.59
	c0.12,0.23,0.17,0.49,0.17,0.74c0,0.26-0.05,0.51-0.17,0.74c-0.11,0.23-0.28,0.43-0.48,0.59c-0.21,0.15-0.45,0.26-0.7,0.31
	C904.45,727.23,904.19,727.22,903.94,727.15z"/>
<path d="M355.6,679.61h-43.11c-0.43,0-0.83-0.17-1.13-0.47c-0.3-0.3-0.47-0.71-0.47-1.13s0.17-0.83,0.47-1.13
	c0.3-0.3,0.71-0.47,1.13-0.47H354v-47.47c0-0.43,0.17-0.83,0.47-1.13c0.3-0.3,0.71-0.47,1.13-0.47s0.83,0.17,1.13,0.47
	c0.3,0.3,0.47,0.71,0.47,1.13v49.08c-0.01,0.42-0.18,0.83-0.48,1.12S356.02,679.6,355.6,679.61z"/>
<path d="M677.9,727.09c-0.43,0-0.83-0.17-1.13-0.47c-0.3-0.3-0.47-0.71-0.47-1.13v-65.63h-62.32c-0.41,0-0.8-0.16-1.09-0.44
	c-0.29-0.28-0.47-0.66-0.48-1.07c-0.61-9.62-2.34-40.99,0.29-44.68c0.12-0.17,0.27-0.32,0.45-0.43c0.18-0.11,0.37-0.19,0.58-0.23
	c0.21-0.04,0.42-0.03,0.62,0.02c0.2,0.05,0.4,0.13,0.57,0.26c0.35,0.24,0.58,0.61,0.66,1.02c0.08,0.41-0.01,0.84-0.24,1.19
	c-1.32,2.34-0.93,22.45,0.19,41.15h62.39c0.43,0,0.83,0.17,1.13,0.47c0.3,0.3,0.47,0.71,0.47,1.13v67.36
	c-0.03,0.4-0.22,0.78-0.51,1.05C678.7,726.93,678.3,727.09,677.9,727.09z"/>
<path d="M394.38,712.33c-1.4,0.01-2.76-0.4-3.93-1.17c-1.17-0.77-2.07-1.87-2.61-3.16c-0.54-1.29-0.68-2.71-0.41-4.08
	c0.27-1.37,0.94-2.63,1.92-3.62c0.99-0.99,2.24-1.67,3.61-1.94c1.37-0.27,2.79-0.14,4.08,0.4c1.29,0.53,2.4,1.44,3.17,2.6
	c0.78,1.16,1.19,2.53,1.19,3.92c-0.01,1.86-0.75,3.65-2.06,4.97C398.03,711.56,396.24,712.31,394.38,712.33z M394.38,701.46
	c-0.76-0.01-1.51,0.21-2.15,0.64c-0.64,0.42-1.14,1.02-1.43,1.73c-0.3,0.7-0.37,1.48-0.23,2.23c0.15,0.75,0.52,1.44,1.05,1.98
	c0.54,0.54,1.23,0.91,1.98,1.05c0.75,0.15,1.53,0.07,2.23-0.23c0.71-0.3,1.31-0.79,1.73-1.43s0.64-1.39,0.64-2.15
	c-0.01-1.01-0.41-1.98-1.13-2.69C396.36,701.87,395.39,701.46,394.38,701.46z"/>
<path d="M463.95,735.94c-0.42-0.01-0.83-0.18-1.12-0.48c-0.3-0.3-0.47-0.7-0.48-1.12v-69.19c0.01-0.42,0.18-0.83,0.48-1.12
	c0.3-0.3,0.7-0.47,1.12-0.48c0.43,0,0.83,0.17,1.13,0.47c0.3,0.3,0.47,0.71,0.47,1.13v69.19c0,0.43-0.17,0.83-0.47,1.13
	C464.79,735.77,464.38,735.94,463.95,735.94z"/>
<path d="M595.88,727.08c-0.43,0-0.83-0.17-1.13-0.47c-0.3-0.3-0.47-0.71-0.47-1.13v-31.05h-15.2c-0.42-0.01-0.82-0.18-1.12-0.48
	c-0.15-0.15-0.28-0.33-0.36-0.53c-0.08-0.2-0.12-0.41-0.12-0.63c0.19-19.98,0.38-50.45,0-52.48c-0.07-0.2-0.1-0.4-0.08-0.61
	c0.01-0.21,0.07-0.41,0.17-0.59c0.1-0.18,0.23-0.34,0.39-0.48c0.16-0.13,0.35-0.22,0.55-0.28c0.42-0.12,0.86-0.08,1.25,0.13
	c0.38,0.2,0.67,0.55,0.81,0.96c0.45,1.41,0.32,28.55,0,51.77h15.17c0.43,0,0.83,0.17,1.13,0.47c0.3,0.3,0.47,0.71,0.47,1.13v32.65
	c0,0.4-0.14,0.78-0.41,1.08C596.65,726.86,596.28,727.04,595.88,727.08z"/>
<path d="M505.07,735.94c-0.42-0.02-0.82-0.2-1.12-0.5c-0.29-0.31-0.46-0.71-0.46-1.13c0.19-26.24,0.35-66.01,0-68.77
	c-0.08-0.35-0.04-0.72,0.11-1.04s0.41-0.59,0.73-0.75c0.19-0.1,0.39-0.16,0.6-0.18c0.21-0.02,0.42,0.01,0.62,0.07
	c0.2,0.07,0.39,0.17,0.54,0.31c0.16,0.14,0.29,0.31,0.38,0.5c0.22,0.42,0.67,1.31,0.19,69.89c-0.01,0.42-0.18,0.83-0.48,1.12
	C505.9,735.76,505.5,735.93,505.07,735.94z"/>
<path d="M394.38,701.9c-0.43,0-0.83-0.17-1.13-0.47c-0.3-0.3-0.47-0.71-0.47-1.13v-35.54c0-0.43,0.17-0.83,0.47-1.13
	c0.3-0.3,0.71-0.47,1.13-0.47c0.42,0.01,0.83,0.18,1.12,0.48s0.47,0.7,0.48,1.12v35.54c0,0.43-0.17,0.83-0.47,1.13
	C395.22,701.74,394.81,701.9,394.38,701.9z"/>
<path d="M535.61,702.45c-0.43,0-0.83-0.17-1.13-0.47c-0.3-0.3-0.47-0.71-0.47-1.13v-24.99c0-0.43,0.17-0.83,0.47-1.13
	c0.3-0.3,0.71-0.47,1.13-0.47c0.43,0,0.83,0.17,1.13,0.47c0.3,0.3,0.47,0.71,0.47,1.13v24.99c0,0.43-0.17,0.83-0.47,1.13
	C536.44,702.28,536.04,702.45,535.61,702.45z"/>
<path class="st0" d="M36.99,725.48h882.09c0,13.99-5.56,27.42-15.46,37.31c-9.89,9.89-23.31,15.45-37.31,15.45H89.79
	c-13.99,0-27.42-5.56-37.31-15.45c-9.9-9.9-15.45-23.32-15.45-37.31H36.99z"/>
<path d="M866.22,779.72H89.79c-14.38-0.01-28.17-5.73-38.34-15.9c-10.17-10.17-15.89-23.96-15.9-38.34c0-0.38,0.15-0.75,0.42-1.02
	c0.27-0.27,0.64-0.42,1.02-0.42h882.09c0.38,0,0.76,0.15,1.03,0.42c0.28,0.27,0.44,0.64,0.45,1.02c-0.02,14.4-5.76,28.2-15.94,38.37
	C894.43,774.02,880.61,779.73,866.22,779.72z M38.66,726.96c0.38,13.35,5.96,26.03,15.54,35.34c9.58,9.31,22.42,14.51,35.78,14.51
	h776.24c13.36,0.01,26.2-5.2,35.78-14.51c9.59-9.31,15.16-21.99,15.55-35.34H38.66z"/>
<path d="M549.5,725.48H406.47v13.18H549.5V725.48z"/>
<path d="M353.42,419.83c-0.43,0-0.83-0.17-1.13-0.47c-0.3-0.3-0.47-0.71-0.47-1.13v-58.76h-39.45c-0.43,0-0.83-0.17-1.13-0.47
	c-0.3-0.3-0.47-0.71-0.47-1.13c0-0.43,0.17-0.83,0.47-1.13c0.3-0.3,0.71-0.47,1.13-0.47h41.06c0.43,0,0.83,0.17,1.13,0.47
	c0.3,0.3,0.47,0.71,0.47,1.13v60.37c0,0.43-0.17,0.83-0.47,1.13C354.25,419.66,353.85,419.83,353.42,419.83z"/>
<path class="st0" d="M394.38,710.69c2.99,0,5.42-2.43,5.42-5.42c0-2.99-2.43-5.42-5.42-5.42c-2.99,0-5.42,2.43-5.42,5.42
	C388.96,708.27,391.39,710.69,394.38,710.69z"/>
<path d="M394.38,712.33c-1.4,0.01-2.76-0.4-3.93-1.17c-1.17-0.77-2.07-1.87-2.61-3.16c-0.54-1.29-0.68-2.71-0.41-4.08
	c0.27-1.37,0.94-2.63,1.92-3.62c0.99-0.99,2.24-1.67,3.61-1.94c1.37-0.27,2.79-0.14,4.08,0.4c1.29,0.53,2.4,1.44,3.17,2.6
	c0.78,1.16,1.19,2.53,1.19,3.92c-0.01,1.86-0.75,3.65-2.06,4.97C398.03,711.56,396.24,712.31,394.38,712.33z M394.38,701.46
	c-0.76-0.01-1.51,0.21-2.15,0.64c-0.64,0.42-1.14,1.02-1.43,1.73c-0.3,0.7-0.37,1.48-0.23,2.23c0.15,0.75,0.52,1.44,1.05,1.98
	c0.54,0.54,1.23,0.91,1.98,1.05c0.75,0.15,1.53,0.07,2.23-0.23c0.71-0.3,1.31-0.79,1.73-1.43s0.64-1.39,0.64-2.15
	c-0.01-1.01-0.41-1.98-1.13-2.69C396.36,701.87,395.39,701.46,394.38,701.46z"/>
<path class="st0" d="M312.49,683.43c2.99,0,5.42-2.43,5.42-5.42c0-2.99-2.43-5.42-5.42-5.42c-2.99,0-5.42,2.43-5.42,5.42
	C307.07,681,309.5,683.43,312.49,683.43z"/>
<path d="M312.49,685.03c-1.4,0.01-2.77-0.4-3.93-1.18c-1.17-0.77-2.08-1.87-2.61-3.17c-0.54-1.29-0.68-2.71-0.41-4.08
	c0.27-1.37,0.94-2.63,1.93-3.62c0.99-0.99,2.25-1.66,3.62-1.93c1.37-0.27,2.79-0.13,4.08,0.41c1.29,0.54,2.39,1.45,3.17,2.61
	c0.77,1.17,1.18,2.53,1.18,3.93c-0.01,1.86-0.75,3.64-2.07,4.96C316.13,684.28,314.35,685.02,312.49,685.03z M312.49,674.16
	c-0.53-0.05-1.07,0.01-1.58,0.18c-0.51,0.17-0.97,0.44-1.37,0.81c-0.39,0.36-0.71,0.8-0.93,1.29c-0.22,0.49-0.33,1.02-0.33,1.55
	c0,0.53,0.11,1.06,0.33,1.55c0.22,0.49,0.53,0.93,0.93,1.29c0.4,0.36,0.86,0.64,1.37,0.8c0.51,0.17,1.04,0.23,1.58,0.18
	c0.96-0.09,1.84-0.53,2.49-1.24c0.65-0.71,1.01-1.64,1.01-2.59c0-0.96-0.36-1.89-1.01-2.59
	C314.34,674.69,313.45,674.25,312.49,674.16z"/>
<path class="st0" d="M535.61,710.69c2.99,0,5.42-2.43,5.42-5.42c0-2.99-2.43-5.42-5.42-5.42s-5.42,2.43-5.42,5.42
	C530.19,708.27,532.62,710.69,535.61,710.69z"/>
<path d="M535.61,712.33c-1.4,0.01-2.76-0.4-3.93-1.17c-1.17-0.77-2.07-1.87-2.61-3.16c-0.54-1.29-0.68-2.71-0.41-4.08
	s0.94-2.63,1.92-3.62c0.98-0.99,2.24-1.67,3.61-1.94c1.37-0.27,2.79-0.14,4.08,0.4c1.29,0.53,2.4,1.44,3.17,2.6
	c0.78,1.16,1.19,2.53,1.19,3.92c-0.01,1.86-0.75,3.65-2.06,4.97C539.26,711.56,537.48,712.31,535.61,712.33z M535.61,701.46
	c-0.76-0.01-1.51,0.21-2.15,0.64s-1.14,1.02-1.43,1.73c-0.3,0.7-0.37,1.48-0.23,2.23c0.15,0.75,0.51,1.44,1.05,1.98
	c0.54,0.54,1.23,0.91,1.98,1.05c0.75,0.15,1.53,0.07,2.23-0.23c0.7-0.3,1.31-0.79,1.73-1.43c0.42-0.64,0.64-1.39,0.64-2.15
	c-0.01-1.01-0.41-1.98-1.13-2.69C537.59,701.87,536.62,701.46,535.61,701.46z"/>
<path class="st0" d="M307.04,363.28c2.99,0,5.42-2.43,5.42-5.42c0-2.99-2.43-5.42-5.42-5.42c-2.99,0-5.42,2.43-5.42,5.42
	C301.62,360.85,304.04,363.28,307.04,363.28z"/>
<path d="M307.04,364.88c-1.4,0-2.76-0.41-3.92-1.19c-1.16-0.78-2.07-1.88-2.6-3.17c-0.53-1.29-0.67-2.71-0.4-4.08
	c0.27-1.37,0.95-2.63,1.94-3.61c0.99-0.99,2.25-1.66,3.62-1.92c1.37-0.27,2.79-0.12,4.08,0.41s2.39,1.45,3.16,2.61
	c0.77,1.16,1.18,2.53,1.17,3.93c0,0.92-0.18,1.84-0.54,2.7c-0.36,0.85-0.88,1.63-1.53,2.28c-0.66,0.65-1.43,1.17-2.29,1.52
	C308.88,364.71,307.96,364.89,307.04,364.88z M307.04,354.01c-0.76,0-1.51,0.23-2.14,0.65c-0.63,0.42-1.13,1.02-1.42,1.73
	c-0.29,0.7-0.37,1.48-0.22,2.22c0.15,0.75,0.52,1.43,1.05,1.97c0.54,0.54,1.22,0.9,1.97,1.05c0.75,0.15,1.52,0.07,2.22-0.22
	c0.7-0.29,1.31-0.78,1.73-1.42c0.42-0.63,0.65-1.38,0.65-2.14c0-1.02-0.41-2-1.13-2.72C309.04,354.41,308.06,354.01,307.04,354.01z"
	/>
<path class="st0" d="M524.74,352.41c2.99,0,5.42-2.43,5.42-5.42c0-2.99-2.43-5.42-5.42-5.42c-2.99,0-5.42,2.43-5.42,5.42
	C519.32,349.98,521.74,352.41,524.74,352.41z"/>
<path d="M524.74,354.01c-1.39,0-2.75-0.41-3.9-1.18c-1.15-0.77-2.05-1.87-2.59-3.15c-0.53-1.28-0.67-2.7-0.4-4.06
	c0.27-1.36,0.94-2.61,1.92-3.6c0.98-0.98,2.23-1.65,3.6-1.92c1.36-0.27,2.77-0.13,4.06,0.4c1.28,0.53,2.38,1.43,3.15,2.59
	c0.77,1.16,1.18,2.51,1.18,3.9c0,1.86-0.74,3.65-2.06,4.97C528.39,353.27,526.6,354.01,524.74,354.01z M524.74,343.17
	c-0.75,0-1.49,0.22-2.12,0.64c-0.63,0.42-1.12,1.02-1.41,1.71c-0.29,0.7-0.36,1.46-0.22,2.21c0.15,0.74,0.51,1.42,1.04,1.95
	c0.53,0.53,1.21,0.9,1.95,1.04c0.74,0.15,1.51,0.07,2.21-0.22c0.7-0.29,1.29-0.78,1.71-1.41c0.42-0.63,0.64-1.37,0.64-2.12
	c-0.01-1.01-0.41-1.97-1.13-2.68c-0.71-0.71-1.68-1.11-2.69-1.11V343.17z"/>
<path d="M595.88,431.63c-0.43,0-0.83-0.17-1.13-0.47c-0.3-0.3-0.47-0.71-0.47-1.13v-57.35c0-0.43,0.17-0.83,0.47-1.13
	c0.3-0.3,0.71-0.47,1.13-0.47h61.65v-41.96c0-0.43,0.17-0.83,0.47-1.13c0.3-0.3,0.71-0.47,1.13-0.47s0.83,0.17,1.13,0.47
	c0.3,0.3,0.47,0.71,0.47,1.13v43.56c-0.01,0.42-0.18,0.83-0.48,1.12c-0.3,0.3-0.7,0.47-1.12,0.48h-61.65v55.75
	c0,0.43-0.17,0.83-0.47,1.13C596.72,431.46,596.31,431.63,595.88,431.63z"/>
<path d="M556.17,403.85c-0.43,0-0.83-0.17-1.13-0.47c-0.3-0.3-0.47-0.71-0.47-1.13v-73.13c0-0.43,0.17-0.83,0.47-1.13
	c0.3-0.3,0.71-0.47,1.13-0.47c0.43,0,0.83,0.17,1.13,0.47c0.3,0.3,0.47,0.71,0.47,1.13v73.13c0,0.43-0.17,0.83-0.47,1.13
	C557.01,403.69,556.6,403.85,556.17,403.85z"/>
<path d="M399.8,399.11c-0.43,0-0.83-0.17-1.13-0.47c-0.3-0.3-0.47-0.71-0.47-1.13v-46.77h-16.74c-0.43,0-0.83-0.17-1.13-0.47
	s-0.47-0.71-0.47-1.13v-20.02c0-0.43,0.17-0.83,0.47-1.13s0.71-0.47,1.13-0.47s0.83,0.17,1.13,0.47c0.3,0.3,0.47,0.71,0.47,1.13
	v18.41h16.74c0.43,0,0.83,0.17,1.13,0.47c0.3,0.3,0.47,0.71,0.47,1.13v48.37c0,0.21-0.04,0.42-0.12,0.61
	c-0.08,0.2-0.2,0.37-0.35,0.52c-0.15,0.15-0.33,0.27-0.52,0.35C400.22,399.07,400.01,399.11,399.8,399.11z"/>
<path d="M524.74,381.18c-0.43,0-0.83-0.17-1.13-0.47c-0.3-0.3-0.47-0.71-0.47-1.13V352.4c0-0.43,0.17-0.83,0.47-1.13
	c0.3-0.3,0.71-0.47,1.13-0.47c0.43,0,0.83,0.17,1.13,0.47c0.3,0.3,0.47,0.71,0.47,1.13v27.17c0,0.43-0.17,0.83-0.47,1.13
	C525.57,381.01,525.16,381.18,524.74,381.18z"/>
<path d="M449.65,383.81c-0.43,0-0.83-0.17-1.13-0.47s-0.47-0.71-0.47-1.13v-53.09c0-0.43,0.17-0.83,0.47-1.13s0.71-0.47,1.13-0.47
	c0.43,0,0.83,0.17,1.13,0.47c0.3,0.3,0.47,0.71,0.47,1.13v53.09c0,0.43-0.17,0.83-0.47,1.13
	C450.48,383.64,450.07,383.81,449.65,383.81z"/>
<path d="M495.1,370.66c-0.43,0-0.83-0.17-1.13-0.47c-0.3-0.3-0.47-0.71-0.47-1.13v-39.93c0-0.43,0.17-0.83,0.47-1.13
	c0.3-0.3,0.71-0.47,1.13-0.47s0.83,0.17,1.13,0.47s0.47,0.71,0.47,1.13v39.93c-0.01,0.42-0.18,0.83-0.48,1.12
	C495.93,370.48,495.52,370.65,495.1,370.66z"/>
<path class="st0" d="M478,692.83c91.41,0,165.51-74.1,165.51-165.51S569.41,361.8,478,361.8c-91.41,0-165.51,74.1-165.51,165.51
	S386.59,692.83,478,692.83z"/>
<path d="M478,694.27c-33.04,0.04-65.36-9.73-92.84-28.06c-27.49-18.33-48.92-44.41-61.59-74.93c-12.66-30.52-15.99-64.11-9.55-96.52
	c6.44-32.41,22.34-62.18,45.71-85.55c23.36-23.36,53.14-39.27,85.55-45.71c32.41-6.44,66-3.11,96.52,9.55
	c30.52,12.66,56.6,34.1,74.93,61.59c18.33,27.49,28.1,59.8,28.06,92.85c-0.09,44.21-17.7,86.58-48.96,117.84
	C564.58,676.57,522.21,694.18,478,694.27z M478,363.25c-32.45,0.01-64.17,9.63-91.14,27.67c-26.98,18.03-48,43.66-60.41,73.64
	c-12.41,29.98-15.66,62.97-9.32,94.79s21.96,61.06,44.91,84c22.95,22.94,52.18,38.57,84.01,44.89c31.83,6.33,64.81,3.08,94.79-9.34
	c29.98-12.42,55.6-33.45,73.63-60.43c18.03-26.98,27.65-58.7,27.65-91.15c-0.05-43.5-17.36-85.21-48.12-115.97
	C563.22,380.59,521.51,363.29,478,363.25z"/>
<path d="M478,658.7c-26.01,0-51.44-7.71-73.06-22.16c-21.63-14.45-38.48-34.99-48.44-59.02c-9.95-24.03-12.56-50.47-7.48-75.98
	c5.07-25.51,17.6-48.94,35.99-67.34c18.39-18.39,41.83-30.92,67.34-35.99c25.51-5.07,51.95-2.47,75.98,7.48
	c24.03,9.95,44.57,26.81,59.02,48.44c14.45,21.63,22.16,47.05,22.16,73.06c0,34.88-13.86,68.33-38.52,92.99
	C546.33,644.84,512.88,658.7,478,658.7z M478,399.11c-25.38,0-50.18,7.53-71.28,21.62c-21.1,14.1-37.54,34.14-47.25,57.58
	c-9.71,23.44-12.25,49.24-7.3,74.13c4.95,24.89,17.17,47.75,35.11,65.69c17.94,17.94,40.8,30.16,65.69,35.11
	c24.89,4.95,50.69,2.41,74.13-7.3c23.44-9.71,43.48-26.16,57.58-47.26c14.1-21.1,21.62-45.91,21.62-71.28
	c0-34.03-13.52-66.66-37.58-90.72C544.67,412.63,512.03,399.11,478,399.11z"/>
<path d="M495.74,419.19c0,1.47,0,2.95,0,4.43c0,8.79,0,17.61,0,26.4c0,1.51,0.42,2.02,1.99,2.21c9.14,0.71,18.1,2.88,26.56,6.42
	c5.98,2.35,11.1,6.46,14.68,11.8c3.58,5.34,5.44,11.64,5.34,18.06c0.57,7.13-1.15,14.25-4.91,20.34c-2.27,3.4-5.23,6.29-8.69,8.47
	c-0.99,0.67-2.02,1.25-3.37,2.05c2.12,0.71,3.98,1.22,5.74,1.89c8.47,3.21,15.78,7.83,19.54,16.33c1.69,4.01,2.77,8.25,3.21,12.57
	c0.88,7.94-0.11,15.98-2.89,23.48c-1.89,5.29-4.96,10.09-8.96,14.03c-4,3.94-8.85,6.93-14.16,8.74c-9.88,3.53-20.24,5.51-30.73,5.87
	c-3.91,0.26-3.21,0-3.21,3.46c0,9.17,0,18.33,0,27.46v2.37h-19.98v-32.56h-15.81v32.4h-20.05v-33.07H399.8l4.01-23.77h2.28
	c4.07,0,8.15,0,12.25,0c0.99,0.07,1.99-0.08,2.92-0.43c0.93-0.35,1.78-0.89,2.49-1.59c0.71-0.7,1.26-1.54,1.61-2.47
	c0.36-0.93,0.51-1.92,0.45-2.92c0-0.48,0-0.96,0-1.47v-85.35c0.15-1.47-0.02-2.95-0.5-4.34c-0.48-1.39-1.26-2.67-2.28-3.73
	c-1.02-1.06-2.27-1.88-3.64-2.41c-1.38-0.53-2.85-0.75-4.32-0.65c-5,0-10.01,0-15.14,0v-21.27h40.09v-32.75h19.86
	c0,0.83,0.16,1.67,0.16,2.5c0,9.02,0,18.04,0,27.04v2.31h15.85v-31.85H495.74z M460.46,578.41c0.48,0,0.8,0,1.15,0
	c8.02-0.16,16.04,0,24.02-0.61c7.12-0.34,14.1-2.15,20.5-5.29c4.25-2.07,7.52-5.73,9.09-10.19c1.57-4.46,1.33-9.36-0.69-13.64
	c-1.41-2.65-3.34-4.98-5.69-6.84c-2.35-1.87-5.05-3.23-7.94-4c-8.78-2.63-17.92-3.82-27.07-3.53c-4.39,0-8.82,0-13.38,0V578.41z
	 M460.46,514.93c7.38-0.32,14.56-0.22,21.65-1.06c5.09-0.51,10.07-1.81,14.76-3.85c2.59-1.1,4.87-2.83,6.62-5.03
	c1.75-2.2,2.93-4.81,3.42-7.58c0.49-2.77,0.28-5.62-0.61-8.29c-0.89-2.67-2.43-5.08-4.49-7c-4.08-3.52-9.12-5.75-14.47-6.42
	c-8.23-1.15-16.56-1.49-24.86-0.99c-1.73,0-2.28,0.48-2.28,2.24c0,11.9,0,23.77,0,35.67c0.19,0.58,0.26,1.12,0.32,2.31H460.46z"/>
<path class="st0" d="M680.21,435.61h314.35V630.6c0,3.97-1.58,7.78-4.39,10.59c-2.81,2.81-6.61,4.39-10.59,4.39H695.19
	c-3.97,0-7.78-1.58-10.59-4.39c-2.81-2.81-4.39-6.62-4.39-10.59V435.61z"/>
<path d="M979.51,647.02H695.19c-4.36,0-8.54-1.73-11.62-4.81c-3.08-3.08-4.82-7.26-4.83-11.61V435.61c0-0.39,0.16-0.77,0.43-1.04
	c0.28-0.28,0.65-0.43,1.04-0.43h314.35c0.19,0,0.38,0.04,0.56,0.11c0.17,0.07,0.33,0.18,0.47,0.32c0.13,0.14,0.24,0.3,0.31,0.48
	c0.07,0.18,0.1,0.37,0.1,0.56V630.6c-0.01,2.16-0.44,4.3-1.27,6.3s-2.05,3.81-3.58,5.33c-1.53,1.53-3.34,2.73-5.35,3.56
	C983.81,646.61,981.67,647.03,979.51,647.02z M681.68,437.05V630.6c0.01,3.58,1.43,7.01,3.96,9.54c2.53,2.53,5.96,3.96,9.54,3.96
	h284.32c3.58-0.01,7.01-1.43,9.54-3.96c2.53-2.53,3.95-5.96,3.96-9.54V437.05H681.68z"/>
<path class="st0" d="M695.19,407.7h284.32c3.97,0,7.79,1.58,10.59,4.39c2.81,2.81,4.38,6.62,4.38,10.59v12.83H680.15v-12.83
	c0-1.97,0.39-3.93,1.15-5.75s1.87-3.48,3.26-4.87c1.4-1.39,3.06-2.49,4.88-3.24C691.26,408.08,693.22,407.7,695.19,407.7z"/>
<path d="M994.49,437.05H680.15c-0.39,0-0.76-0.15-1.03-0.42c-0.28-0.27-0.44-0.64-0.44-1.02v-12.83c0.01-4.36,1.75-8.54,4.83-11.61
	c3.09-3.08,7.27-4.81,11.62-4.81h284.32c4.35,0.01,8.52,1.74,11.6,4.82c3.08,3.08,4.81,7.25,4.82,11.6v12.83c0,0.37-0.14,0.73-0.4,1
	C995.21,436.88,994.86,437.04,994.49,437.05z M681.68,434.13h311.33v-11.45c-0.01-3.58-1.43-7.01-3.96-9.54
	c-2.54-2.53-5.97-3.96-9.54-3.96H695.19c-3.58,0.01-7.01,1.43-9.54,3.96c-2.53,2.53-3.96,5.96-3.96,9.54V434.13z"/>
<path d="M702.31,426.47c2.66,0,4.81-2.15,4.81-4.81c0-2.66-2.15-4.81-4.81-4.81c-2.66,0-4.81,2.15-4.81,4.81
	C697.5,424.31,699.65,426.47,702.31,426.47z"/>
<path d="M719.25,426.47c2.66,0,4.81-2.15,4.81-4.81c0-2.66-2.15-4.81-4.81-4.81c-2.66,0-4.81,2.15-4.81,4.81
	C714.44,424.31,716.59,426.47,719.25,426.47z"/>
<path d="M736.18,426.47c2.66,0,4.81-2.15,4.81-4.81c0-2.66-2.15-4.81-4.81-4.81c-2.66,0-4.81,2.15-4.81,4.81
	C731.37,424.31,733.53,426.47,736.18,426.47z"/>
<path d="M969.95,471.31H782.59c-0.43,0-0.83-0.17-1.13-0.47c-0.3-0.3-0.47-0.71-0.47-1.13c0.01-0.42,0.18-0.83,0.48-1.12
	c0.3-0.3,0.7-0.47,1.12-0.48h187.35c0.43,0,0.84,0.17,1.14,0.47c0.3,0.3,0.47,0.71,0.47,1.13c0,0.21-0.04,0.42-0.12,0.61
	c-0.09,0.2-0.2,0.37-0.35,0.52s-0.32,0.27-0.52,0.35C970.37,471.27,970.16,471.31,969.95,471.31z"/>
<path d="M969.95,506.79H782.59c-0.43,0-0.83-0.17-1.13-0.47c-0.3-0.3-0.47-0.71-0.47-1.13c0-0.43,0.17-0.83,0.47-1.13
	c0.3-0.3,0.71-0.47,1.13-0.47h187.35c0.43,0,0.84,0.17,1.14,0.47c0.3,0.3,0.47,0.71,0.47,1.13c0,0.43-0.17,0.83-0.47,1.13
	C970.79,506.62,970.38,506.79,969.95,506.79z"/>
<path d="M969.95,542.07h-265.2c-0.43,0-0.83-0.17-1.13-0.47c-0.3-0.3-0.47-0.71-0.47-1.13c0-0.43,0.17-0.83,0.47-1.13
	c0.3-0.3,0.71-0.47,1.13-0.47h265.2c0.43,0,0.84,0.17,1.14,0.47c0.3,0.3,0.47,0.71,0.47,1.13c0,0.43-0.17,0.83-0.47,1.13
	C970.79,541.9,970.38,542.07,969.95,542.07z"/>
<path d="M969.95,577.61h-265.2c-0.43,0-0.83-0.17-1.13-0.47c-0.3-0.3-0.47-0.71-0.47-1.13c0-0.43,0.17-0.83,0.47-1.13
	c0.3-0.3,0.71-0.47,1.13-0.47h265.2c0.43,0,0.84,0.17,1.14,0.47c0.3,0.3,0.47,0.71,0.47,1.13c0,0.43-0.17,0.83-0.47,1.13
	C970.79,577.44,970.38,577.61,969.95,577.61z"/>
<path d="M969.95,613.05h-265.2c-0.43,0-0.83-0.17-1.13-0.47c-0.3-0.3-0.47-0.71-0.47-1.13s0.17-0.83,0.47-1.13
	c0.3-0.3,0.71-0.47,1.13-0.47h265.2c0.43,0,0.84,0.17,1.14,0.47c0.3,0.3,0.47,0.71,0.47,1.13s-0.17,0.83-0.47,1.13
	C970.79,612.89,970.38,613.05,969.95,613.05z"/>
<path d="M704.75,612.89c-0.3,0-0.59-0.09-0.83-0.26c-0.25-0.17-0.43-0.41-0.54-0.68c-0.11-0.28-0.13-0.58-0.06-0.87
	s0.22-0.55,0.44-0.75l58.28-51.32c0.22-0.19,0.5-0.31,0.79-0.35c0.29-0.03,0.59,0.02,0.85,0.15l59.66,31.05l39.84-84.49
	c0.1-0.23,0.27-0.43,0.48-0.58c0.21-0.15,0.45-0.23,0.71-0.25c0.25-0.03,0.5,0,0.73,0.1c0.23,0.1,0.43,0.25,0.59,0.45l50.29,65.21
	l48.38-103.19c0.17-0.35,0.47-0.61,0.83-0.74c0.37-0.13,0.77-0.12,1.12,0.04c0.35,0.17,0.61,0.47,0.74,0.84
	c0.13,0.36,0.12,0.77-0.04,1.12l-49.43,105.37c-0.1,0.23-0.26,0.43-0.46,0.58c-0.2,0.15-0.45,0.24-0.69,0.26
	c-0.25,0.03-0.5-0.01-0.73-0.1c-0.24-0.1-0.44-0.25-0.59-0.44l-50.29-65.24l-39.48,83.72c-0.08,0.18-0.2,0.35-0.35,0.48
	c-0.15,0.13-0.33,0.23-0.52,0.29c-0.18,0.08-0.37,0.12-0.56,0.12c-0.19,0-0.38-0.04-0.56-0.12l-60.11-31.31l-57.51,50.68
	C705.42,612.82,705.09,612.91,704.75,612.89z"/>
<path d="M707.83,617.19c4.27,0,7.73-3.46,7.73-7.73c0-4.27-3.46-7.73-7.73-7.73c-4.27,0-7.73,3.46-7.73,7.73
	C700.1,613.73,703.56,617.19,707.83,617.19z"/>
<path d="M763,567.92c4.27,0,7.73-3.46,7.73-7.73c0-4.27-3.46-7.73-7.73-7.73c-4.27,0-7.73,3.46-7.73,7.73
	C755.27,564.46,758.73,567.92,763,567.92z"/>
<path d="M824.01,599.68c4.27,0,7.73-3.46,7.73-7.73c0-4.27-3.46-7.73-7.73-7.73c-4.27,0-7.73,3.46-7.73,7.73
	C816.28,596.22,819.74,599.68,824.01,599.68z"/>
<path d="M864.52,513.78c4.27,0,7.73-3.46,7.73-7.73s-3.46-7.73-7.73-7.73c-4.27,0-7.73,3.46-7.73,7.73S860.25,513.78,864.52,513.78z
	"/>
<path d="M916.25,580.91c4.27,0,7.73-3.46,7.73-7.73c0-4.27-3.46-7.73-7.73-7.73s-7.72,3.46-7.72,7.73
	C908.53,577.45,911.98,580.91,916.25,580.91z"/>
<path d="M965.65,475.51c4.27,0,7.73-3.46,7.73-7.73c0-4.27-3.46-7.73-7.73-7.73s-7.73,3.46-7.73,7.73
	C957.92,472.05,961.38,475.51,965.65,475.51z"/>
<path class="st0" d="M746.67,455.02c0,0.45,0,0.93,0,1.41c0,2.82,0,5.65,0,8.47c0,0.48,0,0.64,0.64,0.71
	c2.92,0.19,5.8,0.86,8.5,1.99c1.93,0.75,3.58,2.08,4.73,3.8c1.15,1.72,1.74,3.76,1.69,5.82c0.17,2.25-0.38,4.5-1.57,6.42
	c-0.72,1.1-1.67,2.03-2.79,2.73l-1.06,0.67l1.83,0.58c1.38,0.36,2.67,1.02,3.77,1.92c1.11,0.9,2.01,2.03,2.64,3.31
	c0.54,1.29,0.88,2.65,1.03,4.04c0.27,2.54-0.05,5.11-0.93,7.51c-0.61,1.7-1.59,3.23-2.88,4.5c-1.28,1.27-2.83,2.23-4.53,2.82
	c-3.17,1.13-6.49,1.76-9.85,1.86c-1.25,0-1.03,0-1.03,1.12c0,2.92,0,5.87,0,8.79v0.77h-6.41v-10.39h-5.32v10.39h-6.41v-10.59h-12.83
	l1.28-7.63h0.74c1.31,0,2.6,0,3.91,0c0.32,0.02,0.64-0.03,0.93-0.14c0.3-0.11,0.57-0.29,0.8-0.51c0.23-0.22,0.4-0.49,0.52-0.79
	c0.12-0.3,0.17-0.61,0.15-0.93V475.9c0.05-0.47,0-0.94-0.15-1.39c-0.15-0.45-0.4-0.86-0.73-1.2c-0.33-0.34-0.73-0.6-1.17-0.77
	c-0.44-0.17-0.92-0.24-1.39-0.2h-4.91v-6.83h12.83v-10.49h6.41c0.02,0.27,0.02,0.53,0,0.8v9.27h5.1v-10.2L746.67,455.02z
	 M735.38,506.02h0.38c2.57,0,5.13,0,7.7-0.19c2.23-0.12,4.42-0.7,6.42-1.7c1.35-0.67,2.39-1.84,2.9-3.27
	c0.5-1.43,0.43-2.99-0.2-4.36c-0.46-0.84-1.09-1.59-1.84-2.18c-0.75-0.6-1.62-1.03-2.55-1.28c-2.81-0.84-5.73-1.22-8.66-1.12h-4.3
	L735.38,506.02z M735.38,485.68c2.37,0,4.68,0,6.96-0.35c1.63-0.16,3.22-0.57,4.72-1.22c0.83-0.35,1.56-0.91,2.12-1.62
	c0.56-0.71,0.94-1.54,1.09-2.43c0.16-0.89,0.09-1.8-0.2-2.66c-0.29-0.86-0.78-1.63-1.44-2.24c-1.31-1.11-2.91-1.82-4.62-2.02
	c-2.63-0.38-5.3-0.51-7.96-0.38c-0.55,0-0.71,0.16-0.71,0.71v11.42C735.35,485.1,735.38,485.3,735.38,485.68z"/>
<path d="M735.12,525.74h-6.42c-0.39-0.01-0.76-0.17-1.03-0.44c-0.27-0.27-0.43-0.65-0.44-1.03v-9.14h-11.35
	c-0.21,0.01-0.43-0.04-0.62-0.13c-0.19-0.09-0.37-0.22-0.5-0.39c-0.13-0.17-0.23-0.36-0.28-0.56c-0.06-0.2-0.07-0.42-0.04-0.63
	l1.28-7.6c0.06-0.33,0.23-0.63,0.48-0.85c0.25-0.22,0.57-0.35,0.9-0.37h4.68c0.71,0,0.93-0.26,0.99-0.96l1.44-0.42h-1.48v-27.23
	c0-1.44-0.58-2.08-1.99-2.12h-4.88c-0.39-0.01-0.76-0.17-1.03-0.44c-0.27-0.27-0.43-0.65-0.44-1.03v-6.83
	c0.01-0.39,0.17-0.76,0.44-1.03c0.28-0.27,0.65-0.43,1.03-0.44h11.32v-9.01c0-0.39,0.16-0.77,0.43-1.04
	c0.28-0.28,0.65-0.43,1.04-0.43h6.41c0.37,0,0.73,0.14,1,0.39c0.27,0.25,0.44,0.59,0.48,0.96c0,0.45,0,0.67,0,0.9v7.95h2.15v-8.72
	c0-0.39,0.16-0.77,0.43-1.04c0.28-0.28,0.65-0.43,1.04-0.43h6.41c0.38,0,0.75,0.15,1.02,0.41c0.27,0.26,0.44,0.62,0.45,1v0.45
	c0,0.32,0,0.67,0,1.03v7.76c2.84,0.28,5.63,0.97,8.28,2.05c2.17,0.87,4.02,2.37,5.32,4.31c1.3,1.94,1.98,4.23,1.96,6.56
	c0.2,2.59-0.44,5.18-1.83,7.38c-0.52,0.79-1.15,1.5-1.86,2.12c2.74,1.01,4.97,3.05,6.22,5.68c0.59,1.42,0.97,2.93,1.12,4.46
	c0.3,2.77-0.04,5.57-0.99,8.18c-0.68,1.89-1.78,3.6-3.21,5.01c-1.43,1.41-3.16,2.48-5.06,3.13c-3.19,1.16-6.55,1.82-9.94,1.96v9.24
	c0,0.39-0.15,0.76-0.42,1.03c-0.27,0.28-0.64,0.43-1.02,0.44h-6.41c-0.39-0.01-0.76-0.17-1.03-0.44c-0.27-0.27-0.43-0.65-0.44-1.03
	v-8.92h-2.12v8.92c-0.02,0.38-0.19,0.74-0.47,1C735.88,525.6,735.51,525.74,735.12,525.74z M730.31,522.82h3.46v-8.92
	c0.01-0.39,0.17-0.76,0.44-1.03c0.27-0.27,0.65-0.43,1.03-0.44h5.07c0.39,0.01,0.76,0.17,1.03,0.44c0.27,0.27,0.43,0.65,0.44,1.03
	v8.92h3.46v-8.47c0-2.02,1.38-2.12,2.28-2.18c3.28-0.1,6.53-0.7,9.62-1.8c1.51-0.5,2.89-1.34,4.02-2.45
	c1.14-1.11,2.01-2.47,2.55-3.96c0.79-2.2,1.08-4.54,0.83-6.86c-0.11-1.24-0.41-2.45-0.9-3.59c-0.54-1.08-1.31-2.03-2.24-2.8
	c-0.93-0.77-2.02-1.33-3.18-1.66l-1.12-0.38l-0.67-0.19c-0.27-0.08-0.51-0.24-0.68-0.46c-0.18-0.22-0.29-0.48-0.31-0.76
	c-0.03-0.28,0.03-0.57,0.15-0.82c0.13-0.25,0.32-0.47,0.56-0.62l0.38-0.22l0.64-0.38c0.95-0.59,1.76-1.38,2.37-2.31
	c1.05-1.69,1.51-3.67,1.31-5.65c0.06-1.78-0.44-3.54-1.43-5.02c-0.99-1.48-2.42-2.62-4.09-3.25c-2.58-1.05-5.31-1.68-8.08-1.89
	c-0.27-0.01-0.54-0.07-0.79-0.19c-0.25-0.12-0.47-0.28-0.65-0.49c-0.18-0.2-0.32-0.44-0.4-0.7c-0.08-0.26-0.11-0.53-0.09-0.8v-8.4
	h-3.5v8.6c0,0.39-0.15,0.76-0.42,1.03c-0.27,0.28-0.64,0.43-1.02,0.44h-5.29c-0.39-0.01-0.75-0.17-1.02-0.44
	c-0.27-0.28-0.42-0.65-0.42-1.03v-8.76h-3.5v9.05c-0.01,0.39-0.17,0.76-0.44,1.03c-0.28,0.27-0.65,0.43-1.03,0.44h-11.35v3.88h3.37
	c0.66-0.03,1.33,0.07,1.94,0.32c0.62,0.24,1.18,0.62,1.64,1.09c0.46,0.48,0.82,1.05,1.04,1.67c0.22,0.63,0.31,1.29,0.25,1.95v27.81
	c0,0.5-0.09,1-0.29,1.47c-0.19,0.47-0.48,0.89-0.84,1.24c-0.36,0.35-0.79,0.63-1.25,0.82c-0.47,0.18-0.97,0.27-1.47,0.26h-3.43
	l-0.8,4.72h11.19c0.39,0.01,0.76,0.17,1.03,0.44c0.27,0.27,0.43,0.65,0.44,1.03L730.31,522.82z M735.8,507.56h-0.51
	c-0.36-0.05-0.68-0.22-0.93-0.48c-0.25-0.26-0.39-0.6-0.42-0.96v-14.08c0-0.19,0.03-0.38,0.1-0.56c0.07-0.18,0.18-0.34,0.31-0.48
	c0.13-0.14,0.29-0.25,0.47-0.32c0.18-0.07,0.37-0.11,0.56-0.11h4.33c3.08-0.09,6.15,0.31,9.11,1.19c1.11,0.31,2.15,0.85,3.05,1.58
	c0.9,0.73,1.64,1.63,2.18,2.65c0.84,1.7,0.97,3.67,0.37,5.47c-0.6,1.8-1.89,3.29-3.58,4.15c-2.22,1.12-4.66,1.76-7.15,1.86
	c-1.83,0.16-3.66,0.16-5.48,0.19L735.8,507.56z M736.86,493.41v11.19h1.19c1.76,0,3.56,0,5.32-0.16c2.08-0.08,4.11-0.6,5.97-1.54
	c1.03-0.48,1.82-1.35,2.21-2.41c0.39-1.06,0.35-2.24-0.13-3.27c-0.37-0.67-0.87-1.26-1.48-1.73c-0.61-0.47-1.31-0.81-2.05-0.99
	c-2.66-0.79-5.44-1.15-8.21-1.06L736.86,493.41z M735.38,487.19c-0.38,0-0.74-0.15-1.01-0.41c-0.27-0.26-0.43-0.62-0.43-1h1.44
	l-1.48-0.22c0-0.22,0-0.38,0-0.58v-3.21c0-2.69,0-5.39,0-8.05c-0.03-0.29,0.01-0.59,0.11-0.87c0.1-0.28,0.26-0.53,0.47-0.75
	c0.21-0.21,0.46-0.37,0.74-0.48c0.28-0.1,0.58-0.14,0.87-0.12h1.09c2.39-0.1,4.79,0.04,7.15,0.42c1.99,0.25,3.85,1.09,5.36,2.41
	c0.83,0.83,1.45,1.84,1.81,2.96c0.36,1.12,0.44,2.3,0.25,3.46c-0.2,1.11-0.68,2.14-1.38,3.02c-0.71,0.87-1.62,1.56-2.66,1.99
	c-1.64,0.72-3.38,1.18-5.16,1.38c-1.64,0.19-3.21,0.22-4.94,0.26h-2.12L735.38,487.19z M736.82,474.36v9.98h0.64
	c1.56,0,3.13-0.09,4.68-0.26c1.48-0.15,2.93-0.53,4.3-1.12c0.6-0.24,1.14-0.62,1.55-1.12c0.41-0.5,0.7-1.1,0.82-1.73
	c0.1-0.66,0.05-1.34-0.16-1.98c-0.21-0.64-0.56-1.22-1.03-1.7c-1.11-0.92-2.48-1.49-3.91-1.64c-2.12-0.33-4.27-0.46-6.41-0.38
	L736.82,474.36z"/>
<path class="st0" d="M233.1,595.44H25.32c-7.16,0-12.96,5.8-12.96,12.96v54.02c0,7.16,5.8,12.96,12.96,12.96H233.1
	c7.16,0,12.96-5.8,12.96-12.96V608.4C246.06,601.25,240.26,595.44,233.1,595.44z"/>
<path d="M233.13,676.79H25.31c-3.82,0-7.49-1.52-10.2-4.22c-2.71-2.7-4.23-6.36-4.24-10.19V608.4c0.01-3.82,1.53-7.49,4.24-10.19
	c2.71-2.7,6.37-4.22,10.2-4.22h207.82c1.89,0,3.76,0.37,5.51,1.1c1.75,0.72,3.33,1.78,4.67,3.12c1.34,1.34,2.4,2.92,3.12,4.67
	c0.72,1.75,1.1,3.62,1.1,5.51v54.05c-0.02,3.81-1.54,7.46-4.24,10.14C240.6,675.28,236.94,676.79,233.13,676.79z M25.31,596.92
	c-3.05,0-5.97,1.21-8.12,3.36c-2.15,2.15-3.36,5.07-3.36,8.12v54.05c0,3.05,1.21,5.97,3.36,8.12c2.15,2.15,5.07,3.36,8.12,3.36
	h207.82c3.04-0.01,5.96-1.22,8.11-3.37c2.15-2.15,3.36-5.07,3.37-8.11V608.4c0-3.05-1.21-5.97-3.36-8.12
	c-2.15-2.15-5.07-3.36-8.12-3.36H25.31z"/>
<path d="M57.84,619.44c0,8.21-3.05,12.83-8.37,12.83c-4.72,0-7.92-4.43-7.99-12.41c-0.06-7.99,3.5-12.54,8.37-12.54
	C54.73,607.31,57.84,611.74,57.84,619.44z M44.75,619.82c0,6.25,1.92,9.82,4.88,9.82c2.95,0,4.94-3.88,4.94-10.04
	c0-6.16-1.51-9.85-4.91-9.85C46.81,609.75,44.75,613.25,44.75,619.82z"/>
<path d="M71.63,610.68l-4.2,2.25l-0.64-2.47l5.26-2.82h2.79v24.25h-3.21V610.68z"/>
<path d="M103.23,619.44c0,8.21-3.01,12.83-8.37,12.83c-4.71,0-7.92-4.43-7.99-12.41c-0.06-7.99,3.5-12.54,8.4-12.54
	C100.18,607.31,103.23,611.74,103.23,619.44z M90.14,619.82c0,6.25,1.92,9.82,4.91,9.82s4.97-3.88,4.97-10.04
	c0-6.16-1.54-9.85-4.91-9.85c-2.82,0-4.91,3.5-4.91,10.07H90.14z"/>
<path d="M126.03,619.44c0,8.21-3.21,12.83-8.37,12.83c-4.72,0-7.92-4.43-7.99-12.41c-0.06-7.99,3.5-12.54,8.37-12.54
	C122.92,607.31,126.03,611.74,126.03,619.44z M112.95,619.82c0,6.25,1.92,9.82,4.88,9.82c2.95,0,4.94-3.88,4.94-10.04
	c0-6.16-1.51-9.85-4.88-9.85c-2.89,0-5.04,3.5-5.04,10.07H112.95z"/>
<path d="M139.83,610.68l-4.2,2.25l-0.64-2.47l5.29-2.82h2.76v24.25h-3.21V610.68z"/>
<path d="M162.57,610.68l-4.17,2.25l-0.64-2.47l5.26-2.82h2.79v24.25h-3.21L162.57,610.68z"/>
<path d="M194.23,619.44c0,8.21-3.21,12.83-8.37,12.83c-4.72,0-7.92-4.43-7.99-12.41c-0.06-7.99,3.5-12.54,8.37-12.54
	C191.12,607.31,194.23,611.74,194.23,619.44z M181.14,619.82c0,6.25,1.92,9.82,4.91,9.82c2.98,0,4.91-3.88,4.91-10.04
	c0-6.16-1.51-9.85-4.88-9.85C183.23,609.75,181.14,613.25,181.14,619.82z"/>
<path d="M216.97,619.44c0,8.21-3.05,12.83-8.4,12.83c-4.68,0-7.89-4.43-7.95-12.41c-0.06-7.99,3.5-12.54,8.37-12.54
	C213.86,607.31,216.97,611.74,216.97,619.44z M203.88,619.82c0,6.25,1.92,9.82,4.88,9.82c2.95,0,4.94-3.88,4.94-10.04
	c0-6.16-1.51-9.85-4.91-9.85C205.87,609.75,203.88,613.25,203.88,619.82z"/>
<path d="M48.89,642.15l-4.2,2.24l-0.61-2.47l5.26-2.82h2.79v24.12h-3.21L48.89,642.15z"/>
<path d="M80.58,650.9c0,8.18-3.21,12.83-8.4,12.83c-4.72,0-7.89-4.39-7.95-12.38c-0.06-7.99,3.46-12.54,8.37-12.54
	C77.5,638.81,80.58,643.21,80.58,650.9z M67.46,651.26c0,6.41,1.96,9.85,4.91,9.85s4.94-3.91,4.94-10.07s-1.51-9.82-4.91-9.82
	c-2.85,0-4.94,3.5-4.94,9.91V651.26z"/>
<path d="M94.37,642.15l-4.17,2.24l-0.64-2.47l5.26-2.82h2.79v24.12h-3.21L94.37,642.15z"/>
<path d="M126.03,650.9c0,8.18-3.21,12.83-8.37,12.83c-4.81-0.13-8.02-4.52-8.02-12.61c0-8.08,3.5-12.54,8.37-12.54
	C122.89,638.59,126.03,643.2,126.03,650.9z M112.85,651.13c0,6.41,1.92,9.85,4.88,9.85c2.95,0,4.94-3.91,4.94-10.07
	s-1.51-9.82-4.88-9.82C115.03,641.22,112.85,644.71,112.85,651.13z"/>
<path d="M148.78,650.9c0,8.18-3.21,12.83-8.4,12.83c-4.72,0-7.89-4.39-7.96-12.38c-0.06-7.99,3.46-12.54,8.37-12.54
	C145.7,638.81,148.78,643.21,148.78,650.9z M135.66,651.26c0,6.41,1.96,9.85,4.91,9.85c2.95,0,4.94-3.91,4.94-10.07
	s-1.51-9.82-4.91-9.82c-2.85,0-4.94,3.5-4.94,9.91V651.26z"/>
<path d="M162.57,642.15l-4.17,2.24l-0.64-2.47l5.26-2.82h2.79v24.12h-3.21L162.57,642.15z"/>
<path d="M185.28,642.15l-4.2,2.24l-0.61-2.47l5.26-2.82h2.79v24.12h-3.21L185.28,642.15z"/>
<path d="M208.02,642.15l-4.2,2.24l-0.64-2.47l5.29-2.82h2.79v24.12h-3.21L208.02,642.15z"/>
<path class="st0" d="M78.18,366.45c25.21,0,45.64-20.44,45.64-45.64c0-25.21-20.44-45.64-45.64-45.64
	c-25.21,0-45.64,20.44-45.64,45.64C32.53,346.02,52.97,366.45,78.18,366.45z"/>
<path d="M78.18,367.93c-9.33,0.01-18.44-2.75-26.2-7.93c-7.76-5.18-13.81-12.54-17.38-21.15c-3.57-8.61-4.51-18.09-2.7-27.24
	c1.81-9.15,6.3-17.55,12.89-24.15c6.59-6.6,14.99-11.1,24.13-12.92c9.15-1.83,18.63-0.9,27.24,2.66c8.62,3.56,15.99,9.6,21.17,17.35
	c5.19,7.75,7.96,16.86,7.96,26.19c0,12.5-4.96,24.49-13.8,33.34C102.66,362.93,90.68,367.91,78.18,367.93z M78.18,276.61
	c-8.74,0.02-17.28,2.63-24.54,7.5c-7.26,4.87-12.91,11.78-16.24,19.87c-3.33,8.08-4.19,16.97-2.47,25.54
	c1.72,8.57,5.95,16.44,12.14,22.61c6.19,6.17,14.07,10.36,22.65,12.05c8.58,1.69,17.46,0.8,25.53-2.56
	c8.07-3.36,14.96-9.03,19.81-16.31c4.84-7.27,7.42-15.82,7.41-24.56c-0.03-11.73-4.71-22.96-13.01-31.24
	C101.15,281.23,89.9,276.59,78.18,276.61z"/>
<path d="M78.18,358.21c-7.4,0.01-14.64-2.18-20.8-6.29c-6.16-4.11-10.96-9.95-13.8-16.79c-2.84-6.84-3.59-14.36-2.15-21.62
	c1.44-7.26,5-13.94,10.23-19.18c5.23-5.24,11.9-8.81,19.16-10.26c7.26-1.45,14.79-0.72,21.63,2.11c6.84,2.83,12.69,7.62,16.81,13.77
	c4.12,6.15,6.32,13.39,6.33,20.79c0,4.92-0.96,9.78-2.84,14.33c-1.88,4.54-4.63,8.67-8.1,12.15c-3.47,3.48-7.6,6.24-12.14,8.12
	C87.96,357.23,83.09,358.21,78.18,358.21z M78.18,286.59c-6.77-0.01-13.4,2-19.03,5.76c-5.63,3.76-10.03,9.11-12.62,15.36
	c-2.59,6.26-3.27,13.14-1.95,19.79c1.32,6.64,4.59,12.74,9.38,17.53c4.79,4.79,10.9,8.04,17.54,9.36
	c6.64,1.32,13.53,0.63,19.78-1.97c6.25-2.6,11.6-7,15.35-12.63c3.75-5.64,5.75-12.26,5.74-19.03c-0.03-9.06-3.64-17.74-10.04-24.14
	C95.92,290.21,87.24,286.6,78.18,286.59z"/>
<path d="M83.08,290.98c0,0.38,0,0.8,0,1.22v7.28c0,0.42,0,0.55,0.51,0.61c2.53,0.17,5.01,0.76,7.35,1.73
	c1.65,0.64,3.06,1.77,4.05,3.24c0.99,1.47,1.5,3.2,1.47,4.97c0.16,1.97-0.31,3.93-1.35,5.61c-0.63,0.94-1.45,1.74-2.41,2.34
	c-0.3,0.21-0.61,0.4-0.93,0.58l1.6,0.51c1.16,0.34,2.23,0.92,3.16,1.69c0.93,0.77,1.69,1.73,2.23,2.8c1.23,3.2,1.23,6.74,0,9.94
	c-0.51,1.49-1.35,2.84-2.46,3.95c-1.11,1.11-2.47,1.95-3.95,2.46c-2.72,0.97-5.58,1.53-8.47,1.64c-1.09,0-0.9,0-0.9,0.96v8.21h-5.42
	v-9.08h-4.33v8.95h-5.52v-9.11h-11.1l1.09-6.41h0.61c1.12,0,2.25,0,3.21,0c0.27,0.02,0.54-0.02,0.8-0.12
	c0.26-0.09,0.49-0.24,0.68-0.43s0.35-0.42,0.44-0.67c0.1-0.25,0.14-0.53,0.13-0.8c0.01-0.14,0.01-0.28,0-0.42v-23.67
	c0.06-0.42,0.02-0.84-0.1-1.24c-0.13-0.4-0.34-0.77-0.63-1.07c-0.29-0.31-0.64-0.55-1.03-0.7c-0.39-0.15-0.81-0.22-1.23-0.19
	c-1.38,0-2.76,0-4.17,0v-5.77h11.03v-9.01h5.48c0,0.22,0,0.45,0,0.67v8.12h4.62v-8.79H83.08z M73.46,334.89h0.32
	c2.21,0,4.43,0,6.61,0c1.97-0.11,3.9-0.61,5.68-1.48c1.14-0.57,2.01-1.55,2.44-2.75c0.43-1.19,0.38-2.51-0.13-3.67
	c-0.39-0.72-0.93-1.36-1.57-1.87c-0.64-0.51-1.39-0.89-2.18-1.11c-2.42-0.72-4.95-1.04-7.47-0.96h-3.78L73.46,334.89z M73.46,317.38
	c2.02,0,4.01,0,5.97-0.29c1.4-0.14,2.78-0.5,4.07-1.06c0.72-0.3,1.34-0.78,1.83-1.39c0.48-0.61,0.81-1.33,0.94-2.09
	c0.13-0.77,0.07-1.55-0.17-2.29c-0.25-0.74-0.68-1.4-1.25-1.93c-1.15-0.98-2.57-1.59-4.07-1.73c-2.26-0.34-4.55-0.46-6.83-0.35
	c-0.48,0-0.64,0-0.64,0.61c0,3.21,0,6.42,0,9.85c0,0.28,0.02,0.56,0.06,0.83L73.46,317.38z"/>
<path class="st0" d="M169.27,296.79c20.85,0,37.75-16.9,37.75-37.75c0-20.85-16.9-37.75-37.75-37.75
	c-20.85,0-37.75,16.9-37.75,37.75C131.52,279.88,148.42,296.79,169.27,296.79z"/>
<path d="M169.27,298.29c-7.75,0-15.33-2.3-21.78-6.61c-6.45-4.31-11.47-10.43-14.44-17.59c-2.97-7.16-3.74-15.04-2.23-22.65
	c1.51-7.6,5.25-14.59,10.73-20.07c5.48-5.48,12.47-9.21,20.07-10.73c7.6-1.51,15.48-0.74,22.65,2.23
	c7.16,2.97,13.28,7.99,17.59,14.44c4.31,6.45,6.61,14.02,6.61,21.78c-0.01,10.39-4.14,20.36-11.49,27.71
	C189.63,294.15,179.67,298.28,169.27,298.29z M169.27,222.82c-7.18,0-14.19,2.13-20.16,6.12c-5.97,3.99-10.62,9.66-13.36,16.29
	c-2.74,6.63-3.46,13.93-2.05,20.97c1.4,7.04,4.87,13.5,9.95,18.57c5.08,5.07,11.55,8.52,18.59,9.91c7.04,1.39,14.34,0.66,20.97-2.09
	c6.63-2.76,12.29-7.42,16.27-13.39c3.98-5.97,6.1-12.99,6.08-20.17c-0.01-9.62-3.83-18.84-10.63-25.64s-16.02-10.63-25.64-10.63
	V222.82z"/>
<path d="M169.27,290.21c-6.18,0.01-12.21-1.82-17.35-5.25c-5.14-3.43-9.14-8.3-11.51-14.01c-2.37-5.7-2.99-11.98-1.78-18.04
	c1.2-6.06,4.18-11.62,8.54-15.99c4.37-4.37,9.93-7.34,15.99-8.54c6.06-1.2,12.33-0.58,18.04,1.78c5.7,2.37,10.58,6.37,14,11.51
	c3.43,5.14,5.25,11.18,5.25,17.35c-0.01,8.27-3.3,16.19-9.14,22.04C185.46,286.91,177.54,290.2,169.27,290.21z M169.27,231.03
	c-5.54-0.01-10.96,1.63-15.57,4.7c-4.61,3.07-8.2,7.44-10.33,12.56c-2.12,5.12-2.68,10.75-1.61,16.18
	c1.08,5.43,3.74,10.43,7.66,14.35c3.92,3.92,8.9,6.59,14.34,7.67c5.43,1.08,11.06,0.53,16.18-1.59c5.12-2.12,9.49-5.71,12.57-10.31
	c3.08-4.61,4.72-10.02,4.72-15.56c0.01-3.68-0.71-7.33-2.11-10.73c-1.4-3.4-3.46-6.5-6.06-9.11c-2.6-2.61-5.68-4.68-9.08-6.1
	c-3.4-1.42-7.04-2.15-10.72-2.16V231.03z"/>
<path d="M173.31,234.37c0,0.35,0,0.67,0,1.03v6c0,0.35,0,0.48,0.45,0.51c2.08,0.17,4.12,0.64,6.06,1.41
	c1.37,0.54,2.55,1.49,3.37,2.72c0.82,1.23,1.25,2.67,1.22,4.15c0.13,1.62-0.26,3.24-1.12,4.62c-0.51,0.79-1.19,1.46-1.99,1.96
	l-0.77,0.45l1.32,0.45c0.96,0.27,1.86,0.75,2.62,1.39c0.77,0.64,1.39,1.44,1.83,2.33c0.38,0.91,0.62,1.87,0.71,2.85
	c0.21,1.81-0.01,3.65-0.64,5.36c-0.44,1.21-1.14,2.3-2.06,3.2c-0.92,0.9-2.02,1.58-3.24,2c-2.25,0.8-4.61,1.25-6.99,1.35
	c-0.9,0-0.74,0-0.74,0.77v6.8h-4.56v-7.38h-3.62v7.38h-4.56v-7.57h-9.27l0.93-5.42h0.51c0.93,0,1.86,0,2.79,0
	c0.22,0.01,0.45-0.02,0.66-0.1c0.21-0.08,0.4-0.2,0.56-0.36c0.16-0.16,0.29-0.35,0.37-0.56c0.08-0.21,0.12-0.43,0.11-0.66v-19.79
	c0.04-0.33,0-0.67-0.1-0.99c-0.11-0.32-0.28-0.61-0.52-0.85c-0.23-0.24-0.52-0.43-0.83-0.55c-0.31-0.12-0.65-0.17-0.99-0.14
	c-1.15,0-2.28,0-3.46,0v-4.88h9.11v-7.47h4.56c0,0.19,0,0.38,0,0.58v6.7h3.63v-7.28H173.31z M165.29,270.68h0.26
	c1.83,0,3.66,0,5.49,0c1.62-0.08,3.2-0.5,4.65-1.22c0.97-0.46,1.72-1.3,2.08-2.31c0.36-1.02,0.3-2.13-0.16-3.11
	c-0.33-0.62-0.79-1.16-1.34-1.59c-0.55-0.43-1.19-0.74-1.87-0.91c-2-0.59-4.08-0.86-6.16-0.8h-3.21L165.29,270.68z M165.29,256.21
	c1.67,0,3.21,0,4.94-0.26c1.11-0.12,2.19-0.42,3.21-0.87c0.6-0.24,1.14-0.64,1.55-1.14c0.41-0.51,0.69-1.11,0.8-1.75
	s0.07-1.3-0.14-1.92c-0.21-0.62-0.57-1.17-1.05-1.61c-0.91-0.78-2.02-1.28-3.21-1.44c-1.88-0.29-3.78-0.38-5.68-0.29
	c-0.38,0-0.51,0-0.51,0.51c0,2.73,0,5.42,0,8.12C165.21,255.78,165.25,256,165.29,256.21z"/>
<path class="st0" d="M177.87,424.64c25.21,0,45.64-20.44,45.64-45.64c0-25.21-20.44-45.64-45.64-45.64s-45.64,20.44-45.64,45.64
	C132.22,404.2,152.66,424.64,177.87,424.64z"/>
<path d="M177.87,426.12c-9.32-0.02-18.43-2.8-26.17-7.99c-7.74-5.19-13.77-12.57-17.32-21.19c-3.55-8.62-4.47-18.1-2.64-27.24
	c1.83-9.14,6.33-17.53,12.94-24.12c6.6-6.58,15.01-11.06,24.15-12.87c9.15-1.81,18.62-0.86,27.23,2.71
	c8.61,3.58,15.97,9.63,21.14,17.38c5.17,7.76,7.93,16.87,7.92,26.19c-0.01,6.2-1.24,12.33-3.62,18.05
	c-2.38,5.72-5.86,10.92-10.25,15.29c-4.39,4.37-9.59,7.84-15.32,10.21C190.2,424.91,184.06,426.12,177.87,426.12z M177.87,334.79
	c-8.74,0-17.29,2.59-24.56,7.45c-7.27,4.86-12.93,11.76-16.28,19.84c-3.35,8.08-4.22,16.96-2.52,25.54
	c1.7,8.57,5.92,16.45,12.1,22.63c6.18,6.18,14.06,10.39,22.63,12.1c8.57,1.7,17.46,0.83,25.54-2.52
	c8.08-3.35,14.98-9.01,19.84-16.28c4.86-7.27,7.45-15.81,7.45-24.56c-0.01-11.72-4.67-22.96-12.95-31.25
	C200.83,339.46,189.59,334.8,177.87,334.79z"/>
<path d="M177.87,416.4c-7.41,0.01-14.65-2.18-20.81-6.3c-6.16-4.11-10.96-9.96-13.8-16.8c-2.84-6.84-3.58-14.37-2.14-21.63
	c1.44-7.26,5.01-13.94,10.25-19.17c5.24-5.24,11.91-8.8,19.17-10.25c7.26-1.44,14.79-0.7,21.63,2.14c6.84,2.84,12.69,7.64,16.8,13.8
	c4.11,6.16,6.3,13.4,6.3,20.81c-0.01,9.92-3.95,19.42-10.96,26.44C197.29,412.45,187.79,416.39,177.87,416.4z M177.87,344.77
	c-6.77-0.01-13.39,2-19.02,5.75c-5.63,3.76-10.02,9.1-12.62,15.35c-2.59,6.25-3.28,13.14-1.96,19.78
	c1.32,6.64,4.57,12.74,9.36,17.53c4.79,4.79,10.88,8.05,17.52,9.38c6.64,1.32,13.52,0.65,19.78-1.94c6.26-2.59,11.6-6.98,15.36-12.6
	c3.76-5.63,5.77-12.25,5.77-19.02c-0.01-9.07-3.61-17.76-10.02-24.18C195.63,348.4,186.94,344.79,177.87,344.77z"/>
<path d="M182.78,349.17c0,0.38,0,0.8,0,1.22v7.28c0,0.42,0,0.55,0.51,0.61c2.53,0.17,5.01,0.76,7.34,1.73
	c1.67,0.63,3.1,1.75,4.1,3.22c1,1.47,1.53,3.21,1.51,4.99c0.16,1.97-0.31,3.93-1.35,5.61c-0.63,0.94-1.45,1.74-2.41,2.34
	c-0.3,0.21-0.61,0.4-0.93,0.58l1.6,0.51c1.15,0.34,2.23,0.91,3.15,1.68c0.92,0.77,1.67,1.73,2.21,2.81c0.46,1.12,0.76,2.3,0.9,3.5
	c0.23,2.17-0.05,4.37-0.8,6.41c-0.51,1.49-1.35,2.84-2.46,3.95c-1.11,1.11-2.47,1.95-3.95,2.46c-2.72,0.97-5.58,1.53-8.47,1.64
	c-1.09,0-0.9,0-0.9,0.96v8.21h-5.52v-8.95h-4.36v8.95h-5.58v-9.11h-11.07l1.09-6.41h4.01c0.27,0.02,0.54-0.02,0.8-0.12
	c0.26-0.09,0.49-0.24,0.68-0.43c0.19-0.19,0.35-0.42,0.44-0.67c0.1-0.25,0.14-0.53,0.13-0.8c0.02-0.14,0.02-0.28,0-0.42v-23.77
	c0.06-0.41,0.03-0.84-0.09-1.24c-0.12-0.4-0.33-0.77-0.62-1.08c-0.28-0.31-0.63-0.55-1.02-0.7c-0.39-0.15-0.81-0.22-1.23-0.19
	c-1.38,0-2.76,0-4.17,0v-5.77h11.03v-9.01h5.48c0,0.22,0,0.45,0,0.67v8.11h4.39v-8.79H182.78z M173.15,393.08h0.32
	c2.21,0,4.43,0,6.61,0c1.97-0.11,3.9-0.61,5.68-1.48c1.13-0.57,2-1.56,2.43-2.75c0.43-1.19,0.39-2.5-0.12-3.67
	c-0.39-0.72-0.93-1.36-1.57-1.87c-0.64-0.51-1.39-0.89-2.18-1.11c-2.42-0.72-4.95-1.04-7.47-0.96h-3.69V393.08z M173.15,375.56
	c2.02,0,4.01,0,5.97-0.29c1.4-0.14,2.78-0.5,4.07-1.06c0.72-0.3,1.34-0.78,1.83-1.39c0.48-0.61,0.81-1.33,0.94-2.09
	c0.13-0.77,0.07-1.55-0.17-2.29c-0.25-0.74-0.68-1.4-1.25-1.93c-1.12-0.97-2.51-1.57-3.98-1.73c-2.26-0.34-4.55-0.46-6.83-0.35
	c-0.48,0-0.64,0-0.64,0.64c0,3.21,0,6.41,0,9.81c-0.02,0.22-0.03,0.45-0.03,0.67H173.15z"/>
<path class="st0" d="M8.6,400.04h237.36v147.32c0,3-1.19,5.88-3.32,8.01c-2.12,2.12-5,3.32-8.01,3.32H19.83
	c-3,0-5.88-1.19-8.01-3.32c-2.12-2.12-3.32-5-3.32-8.01V400.04H8.6z"/>
<path d="M234.74,560.16H19.83c-3.4,0-6.67-1.35-9.07-3.76C8.35,554,7,550.73,7,547.33V400.04c0-0.38,0.15-0.75,0.42-1.02
	c0.27-0.27,0.64-0.42,1.02-0.42h237.36c0.38,0,0.75,0.15,1.02,0.42c0.27,0.27,0.42,0.64,0.42,1.02v147.36
	c-0.02,3.34-1.33,6.54-3.67,8.92C241.25,558.7,238.07,560.08,234.74,560.16z M10.21,401.51v145.88c0.01,2.57,1.02,5.04,2.81,6.88
	c1.8,1.84,4.24,2.9,6.81,2.97h214.91c2.61-0.01,5.11-1.05,6.95-2.89s2.89-4.34,2.89-6.95V401.51H10.21z"/>
<path class="st0" d="M19.83,379h214.91c3,0,5.88,1.19,8.01,3.32c2.12,2.12,3.32,5,3.32,8.01v9.62H8.7v-9.62
	c0-2.97,1.17-5.82,3.25-7.94C14.03,380.26,16.86,379.05,19.83,379z"/>
<path d="M246.09,401.51H8.73c-0.19,0-0.38-0.04-0.56-0.11c-0.18-0.07-0.34-0.18-0.47-0.32c-0.13-0.14-0.24-0.3-0.31-0.48
	c-0.07-0.18-0.1-0.37-0.1-0.56v-9.62c0-3.4,1.35-6.67,3.76-9.07c2.41-2.41,5.67-3.76,9.07-3.76h214.91c3.4,0,6.67,1.35,9.07,3.76
	c2.41,2.41,3.76,5.67,3.76,9.07v9.62c0.01,0.22-0.03,0.44-0.12,0.65c-0.09,0.2-0.22,0.38-0.4,0.53c-0.17,0.14-0.37,0.24-0.59,0.3
	C246.54,401.56,246.31,401.56,246.09,401.51z M10.21,398.59h234.54v-8.31c-0.01-2.61-1.05-5.11-2.89-6.95
	c-1.84-1.84-4.34-2.89-6.95-2.89H19.83c-2.57,0.07-5.01,1.13-6.81,2.97c-1.8,1.84-2.81,4.3-2.81,6.88V398.59z"/>
<path d="M67.08,459.03c8.45,0,15.3-6.85,15.3-15.3c0-8.45-6.85-15.3-15.3-15.3c-8.45,0-15.3,6.85-15.3,15.3
	C51.78,452.18,58.63,459.03,67.08,459.03z"/>
<path d="M39.27,489.98c0-7.38,2.93-14.45,8.15-19.66c5.22-5.22,12.29-8.15,19.66-8.15s14.45,2.93,19.66,8.15
	c5.22,5.22,8.15,12.29,8.15,19.66H39.27z"/>
<path d="M187.62,459.03c8.45,0,15.3-6.85,15.3-15.3c0-8.45-6.85-15.3-15.3-15.3c-8.45,0-15.3,6.85-15.3,15.3
	C172.32,452.18,179.17,459.03,187.62,459.03z"/>
<path d="M159.81,489.98c0-7.38,2.93-14.45,8.15-19.66s12.29-8.15,19.66-8.15c7.38,0,14.45,2.93,19.66,8.15
	c5.21,5.22,8.15,12.29,8.15,19.66H159.81z"/>
<path d="M147.53,445.17h-22.74c-2.16,0-4.23-0.86-5.76-2.39c-1.53-1.53-2.39-3.6-2.39-5.76c0-2.16,0.86-4.23,2.39-5.76
	c1.53-1.53,3.6-2.39,5.76-2.39h22.74c2.16,0,4.23,0.86,5.76,2.39c1.53,1.53,2.39,3.6,2.39,5.76c0,2.16-0.86,4.23-2.39,5.76
	C151.76,444.31,149.69,445.17,147.53,445.17z M124.78,431.82c-1.31,0.1-2.54,0.7-3.43,1.66c-0.89,0.97-1.39,2.23-1.39,3.55
	c0,1.32,0.5,2.58,1.39,3.55c0.89,0.97,2.12,1.56,3.43,1.66h22.74c1.31-0.1,2.54-0.7,3.43-1.66c0.89-0.97,1.39-2.23,1.39-3.55
	c0-1.32-0.5-2.58-1.39-3.55c-0.89-0.97-2.12-1.56-3.43-1.66H124.78z"/>
<path d="M131.49,451.87h-22.74c-2.16,0-4.23-0.86-5.76-2.39c-1.53-1.53-2.39-3.6-2.39-5.76s0.86-4.23,2.39-5.76
	c1.53-1.53,3.6-2.39,5.76-2.39h22.74c2.16,0,4.23,0.86,5.76,2.39c1.53,1.53,2.39,3.6,2.39,5.76s-0.86,4.23-2.39,5.76
	C135.72,451.01,133.65,451.87,131.49,451.87z M108.74,438.5c-1.31,0.1-2.54,0.7-3.43,1.66c-0.89,0.97-1.39,2.23-1.39,3.55
	c0,1.32,0.5,2.58,1.39,3.55c0.89,0.97,2.12,1.56,3.43,1.66h22.74c1.31-0.1,2.54-0.7,3.43-1.66c0.89-0.97,1.39-2.23,1.39-3.55
	c0-1.32-0.5-2.58-1.39-3.55c-0.89-0.97-2.12-1.56-3.43-1.66H108.74z"/>
<path d="M198.14,508.13H56.56c-0.43,0-0.83-0.17-1.13-0.47c-0.3-0.3-0.47-0.71-0.47-1.13c0-0.43,0.17-0.83,0.47-1.13
	c0.3-0.3,0.71-0.47,1.13-0.47h141.58c0.43,0,0.83,0.17,1.13,0.47c0.3,0.3,0.47,0.71,0.47,1.13c0,0.43-0.17,0.83-0.47,1.13
	C198.97,507.97,198.57,508.13,198.14,508.13z"/>
<path d="M198.14,518.17H56.56c-0.43,0-0.83-0.17-1.13-0.47c-0.3-0.3-0.47-0.71-0.47-1.13c0-0.43,0.17-0.83,0.47-1.13
	c0.3-0.3,0.71-0.47,1.13-0.47h141.58c0.43,0,0.83,0.17,1.13,0.47c0.3,0.3,0.47,0.71,0.47,1.13c0,0.43-0.17,0.83-0.47,1.13
	C198.97,518,198.57,518.17,198.14,518.17z"/>
<path d="M183.58,528.25H56.56c-0.43,0-0.83-0.17-1.13-0.47c-0.3-0.3-0.47-0.71-0.47-1.13c0-0.43,0.17-0.83,0.47-1.13
	c0.3-0.3,0.71-0.47,1.13-0.47h127.02c0.43,0,0.83,0.17,1.13,0.47c0.3,0.3,0.47,0.71,0.47,1.13c0,0.43-0.17,0.83-0.47,1.13
	C184.41,528.08,184,528.25,183.58,528.25z"/>
<path d="M25.32,393.17c2.02,0,3.66-1.64,3.66-3.66c0-2.02-1.64-3.66-3.66-3.66c-2.02,0-3.66,1.64-3.66,3.66
	C21.66,391.54,23.3,393.17,25.32,393.17z"/>
<path d="M38.11,393.17c2.02,0,3.66-1.64,3.66-3.66c0-2.02-1.64-3.66-3.66-3.66c-2.02,0-3.66,1.64-3.66,3.66
	C34.46,391.54,36.09,393.17,38.11,393.17z"/>
<path d="M50.91,393.17c2.02,0,3.66-1.64,3.66-3.66c0-2.02-1.64-3.66-3.66-3.66c-2.02,0-3.66,1.64-3.66,3.66
	C47.25,391.54,48.89,393.17,50.91,393.17z"/>
</svg>
