<?xml version="1.0" encoding="utf-8"?>
<!-- Generator: Adobe Illustrator 24.3.0, SVG Export Plug-In . SVG Version: 6.00 Build 0)  -->
<svg version="1.1" id="Слой_1" xmlns="http://www.w3.org/2000/svg" xmlns:xlink="http://www.w3.org/1999/xlink" x="0px" y="0px"
	 viewBox="0 0 1000 1000" style="enable-background:new 0 0 1000 1000;" xml:space="preserve">
<style type="text/css">
	.st0{fill:#FFFFFF;}
	.st1{fill:#FFFFFF;stroke:#000000;stroke-width:0.6;}
	.st2{fill:#FFFFFF;filter:url(#Adobe_OpacityMaskFilter);}
	.st3{mask:url(#path-20-inside-1_445_302_1_);}
	.st4{stroke:#000000;stroke-width:0.5;}
</style>
<path d="M902.79,454.97c-10.6-9.27-25.1-14.37-40.84-14.37h-9.53c1.12-18.19,8.55-35.18,21.24-48.41h12.49
	c2.67,0,4.84-2.17,4.84-4.84v-29.05c0-2.67-2.17-4.84-4.84-4.84H663.47c-2.67,0-4.84,2.17-4.84,4.84v29.05
	c0,2.67,2.17,4.84,4.84,4.84h12.49c12.69,13.23,20.12,30.21,21.24,48.41h-9.53c-15.74,0-30.24,5.11-40.84,14.37
	c-11.12,9.73-17.25,23.53-17.25,38.88c0,26.16,21.28,47.44,47.44,47.44c11.76,0,22.31-5.25,29.45-13.52l-4.27,111.12
	c-0.05,1.32,0.44,2.59,1.35,3.54c0.91,0.95,2.17,1.48,3.49,1.48h135.54c1.32,0,2.58-0.54,3.49-1.48c0.91-0.95,1.4-2.23,1.35-3.54
	l-4.27-111.12c7.14,8.27,17.69,13.52,29.45,13.52c26.16,0,47.44-21.28,47.44-47.44C920.04,478.51,913.91,464.7,902.79,454.97z
	 M721.56,440.6h-14.37c0.9-14.61,5.87-28.44,14.37-40.18V440.6z M731.24,400.42c8.5,11.73,13.47,25.56,14.37,40.18h-14.37V400.42z
	 M737.17,392.19h26.87c-5.84,7.46-10.35,15.75-13.44,24.57C747.52,407.94,743.01,399.65,737.17,392.19z M769.97,400.42v40.18H755.6
	C756.5,425.99,761.47,412.16,769.97,400.42z M779.65,400.42c8.5,11.73,13.47,25.56,14.37,40.18h-14.37V400.42z M785.58,392.19h26.87
	c-5.84,7.46-10.35,15.75-13.44,24.57C795.93,407.94,791.42,399.65,785.58,392.19z M818.38,400.42v40.18h-14.37
	C804.91,425.99,809.88,412.16,818.38,400.42z M828.06,400.42c8.5,11.73,13.47,25.56,14.37,40.18h-14.37V400.42z M847.42,416.77
	c-3.08-8.82-7.6-17.11-13.43-24.57h26.87C855.03,399.65,850.51,407.94,847.42,416.77z M668.31,363.15h213v19.36h-213V363.15z
	 M715.64,392.19c-5.84,7.46-10.35,15.75-13.44,24.57c-3.08-8.82-7.6-17.11-13.43-24.57H715.64z M836.52,489.01H713.1
	c-1.56-3.51-3.75-6.75-6.5-9.6c-0.03-0.03-0.06-0.06-0.09-0.08h136.6c-0.03,0.03-0.06,0.06-0.09,0.08
	C840.27,482.26,838.09,485.5,836.52,489.01z M740.93,634.24h-9.68v-91.98c0-2.67,2.17-4.84,4.84-4.84c2.67,0,4.84,2.17,4.84,4.84
	V634.24z M779.65,634.24h-9.68v-91.98c0-2.67,2.17-4.84,4.84-4.84c2.67,0,4.84,2.17,4.84,4.84V634.24z M818.38,634.24h-9.68v-91.98
	c0-2.67,2.17-4.84,4.84-4.84c2.67,0,4.84,2.17,4.84,4.84V634.24z M828.06,634.24v-91.98c0-8.01-6.51-14.52-14.52-14.52
	s-14.52,6.52-14.52,14.52v91.98h-9.68v-91.98c0-8.01-6.51-14.52-14.52-14.52c-8.01,0-14.52,6.52-14.52,14.52v91.98h-9.68v-91.98
	c0-8.01-6.51-14.52-14.52-14.52c-8.01,0-14.52,6.52-14.52,14.52v91.98h-9.49l4.47-116.18h116.54l4.47,116.18H828.06z M715.48,508.37
	c0.3-1.96,0.46-3.96,0.46-6c0-1.24-0.08-2.46-0.21-3.68h118.16c-0.14,1.22-0.21,2.44-0.21,3.68c0,2.04,0.16,4.05,0.46,6H715.48z
	 M872.6,531.61c-16.12,0-29.24-13.12-29.24-29.24c0-12.49,10.27-23.04,22.42-23.04c9.2,0,16.97,8.05,16.97,17.59
	c0,6.95-5.66,12.61-12.61,12.61c-5.03,0-9.12-4.09-9.12-9.12c0-2.49,1.45-4.65,3.54-5.68c1.68-0.83,2.78-2.5,2.78-4.38
	c0-3.52-3.66-5.92-6.84-4.41c-5.41,2.57-9.17,8.09-9.17,14.47c0,10.37,8.43,18.8,18.8,18.8c12.29,0,22.29-10,22.29-22.29
	c0-14.44-11.64-26.68-25.64-27.24v-0.03H682.84v0.03c-14,0.56-25.64,12.81-25.64,27.24c0,12.29,10,22.29,22.29,22.29
	c10.37,0,18.8-8.43,18.8-18.8c0-6.38-3.75-11.9-9.17-14.47c-3.18-1.51-6.84,0.89-6.84,4.41c0,1.88,1.1,3.55,2.78,4.38
	c2.1,1.03,3.54,3.19,3.54,5.68c0,5.03-4.09,9.12-9.12,9.12c-6.95,0-12.61-5.66-12.61-12.61c0-9.54,7.77-17.59,16.97-17.59
	c12.15,0,22.42,10.55,22.42,23.04c0,16.12-13.12,29.24-29.24,29.24c-20.82,0-37.76-16.94-37.76-37.76
	c0-25.24,20.36-43.57,48.41-43.57h174.27c28.05,0,48.41,18.32,48.41,43.57C910.36,514.67,893.42,531.61,872.6,531.61z"/>
<path d="M984.83,734.76H587.14v66.47h397.69V734.76z"/>
<path d="M984.83,803.42H587.09c-0.58,0-1.14-0.23-1.55-0.64s-0.64-0.97-0.64-1.55v-66.47c0-0.58,0.23-1.14,0.64-1.55
	c0.41-0.41,0.97-0.64,1.55-0.64h397.74c0.58,0,1.14,0.23,1.55,0.64c0.41,0.41,0.64,0.97,0.64,1.55v66.47c0,0.58-0.23,1.14-0.64,1.55
	S985.41,803.42,984.83,803.42z M589.33,798.85h393.31v-61.9H589.33V798.85z"/>
<path class="st0" d="M984.78,734.76H768.06v66.47h216.72V734.76z"/>
<path d="M984.82,803.52H768.06c-0.6-0.01-1.17-0.26-1.59-0.69c-0.42-0.43-0.65-1-0.65-1.6v-66.47c0-0.59,0.24-1.16,0.66-1.58
	c0.42-0.42,0.99-0.66,1.58-0.66h216.77c0.59,0,1.16,0.24,1.58,0.66c0.42,0.42,0.66,0.99,0.66,1.58v66.47c0,0.6-0.23,1.17-0.65,1.6
	C985.99,803.26,985.42,803.51,984.82,803.52z M770.59,798.84h212.19v-61.8H770.59V798.84z"/>
<path d="M979.06,686.63H657.04v49.27h322.02V686.63z"/>
<path d="M979.06,738.09H657.04c-0.58,0-1.14-0.23-1.55-0.64s-0.64-0.97-0.64-1.55v-49.27c0-0.58,0.23-1.14,0.64-1.55
	s0.97-0.64,1.55-0.64h322.02c0.58,0,1.15,0.23,1.56,0.64c0.42,0.41,0.66,0.97,0.67,1.55v49.27c0,0.29-0.06,0.58-0.17,0.85
	c-0.11,0.27-0.28,0.51-0.49,0.72c-0.21,0.2-0.46,0.36-0.73,0.47C979.64,738.05,979.35,738.1,979.06,738.09z M659.23,733.71h317.64
	v-44.75H659.23V733.71z"/>
<path class="st0" d="M979.06,686.63H841.59v49.27h137.47V686.63z"/>
<path d="M979.06,738.19H841.59c-0.61,0-1.19-0.24-1.62-0.67c-0.43-0.43-0.67-1.01-0.67-1.62v-49.27c0.01-0.6,0.26-1.18,0.68-1.6
	c0.43-0.43,1-0.67,1.6-0.68h137.47c0.61,0,1.19,0.24,1.62,0.67c0.43,0.43,0.67,1.01,0.67,1.62v49.27c0.01,0.3-0.05,0.6-0.16,0.88
	c-0.11,0.28-0.28,0.54-0.49,0.75c-0.21,0.21-0.47,0.38-0.75,0.49C979.66,738.14,979.36,738.2,979.06,738.19z M843.88,733.67h132.94
	v-44.75H843.88V733.67z"/>
<path d="M933.62,638.76H611.6v49.27h322.02V638.76z"/>
<path d="M933.67,690.21H611.5c-0.58,0-1.14-0.23-1.55-0.64s-0.64-0.97-0.64-1.55v-49.27c0-0.58,0.23-1.14,0.64-1.55
	c0.41-0.41,0.97-0.64,1.55-0.64h322.17c0.58,0,1.14,0.23,1.55,0.64c0.41,0.41,0.64,0.97,0.64,1.55v49.27c0,0.58-0.23,1.14-0.64,1.55
	C934.8,689.98,934.25,690.21,933.67,690.21z M613.79,685.84h317.69v-44.75H613.79V685.84z"/>
<path class="st0" d="M933.62,638.76H796.15v49.27h137.47V638.76z"/>
<path d="M933.67,690.31H796.15c-0.3,0-0.59-0.06-0.87-0.17c-0.27-0.12-0.52-0.29-0.73-0.5c-0.21-0.21-0.37-0.47-0.48-0.74
	c-0.11-0.28-0.16-0.57-0.16-0.87v-49.27c0-0.6,0.23-1.17,0.65-1.6s0.99-0.67,1.59-0.69h137.52c0.6,0.01,1.17,0.26,1.59,0.69
	c0.42,0.43,0.65,1,0.65,1.6v49.27c0.01,0.3-0.05,0.59-0.16,0.87c-0.11,0.28-0.27,0.53-0.48,0.74c-0.21,0.21-0.46,0.38-0.73,0.5
	C934.26,690.25,933.97,690.31,933.67,690.31z M798.44,685.79h132.94v-44.75H798.44V685.79z"/>
<path class="st0" d="M771.64,674.25c5.74,0,10.39-4.65,10.39-10.39s-4.65-10.39-10.39-10.39s-10.39,4.65-10.39,10.39
	S765.9,674.25,771.64,674.25z"/>
<path class="st0" d="M688.46,729.84c-0.6-0.01-1.18-0.26-1.6-0.68c-0.43-0.43-0.67-1-0.68-1.6v-33.11c0-0.3,0.06-0.6,0.17-0.88
	c0.11-0.28,0.28-0.53,0.5-0.74c0.21-0.21,0.47-0.38,0.74-0.5c0.28-0.11,0.57-0.17,0.88-0.17c0.3-0.01,0.6,0.05,0.88,0.16
	c0.28,0.11,0.54,0.28,0.75,0.49c0.21,0.21,0.38,0.47,0.49,0.75s0.17,0.58,0.16,0.88v33.36c-0.06,0.56-0.33,1.08-0.75,1.46
	C689.57,729.63,689.03,729.84,688.46,729.84z"/>
<path class="st0" d="M731.57,795.71c-0.3,0-0.6-0.06-0.88-0.17s-0.53-0.28-0.74-0.5c-0.21-0.21-0.38-0.47-0.5-0.74
	c-0.11-0.28-0.17-0.57-0.17-0.88v-52.05c0.08-0.56,0.36-1.06,0.78-1.43c0.42-0.37,0.97-0.57,1.53-0.57c0.56,0,1.1,0.2,1.53,0.57
	c0.42,0.37,0.7,0.87,0.78,1.43v52.05c0,0.3-0.06,0.61-0.18,0.89c-0.12,0.28-0.29,0.53-0.51,0.75c-0.22,0.21-0.48,0.38-0.76,0.49
	S731.87,795.72,731.57,795.71z"/>
<path class="st1" d="M196.45,224.34l51.63,460.53h-30.36l-51.59-460.53H196.45z"/>
<path d="M251.48,689.69h-36.49c-0.43-0.01-0.85-0.17-1.17-0.47c-0.32-0.29-0.52-0.7-0.56-1.13L160.94,221.5
	c-0.03-0.25-0.01-0.5,0.07-0.74c0.07-0.24,0.19-0.46,0.36-0.65c0.16-0.21,0.36-0.38,0.6-0.5c0.23-0.12,0.49-0.19,0.75-0.21h36.46
	c0.44,0.01,0.86,0.17,1.19,0.46c0.33,0.29,0.54,0.7,0.59,1.13l52.27,466.59c0.04,0.25,0.02,0.5-0.05,0.74
	c-0.07,0.24-0.2,0.46-0.37,0.64c-0.15,0.21-0.35,0.38-0.57,0.51C251.99,689.61,251.74,689.68,251.48,689.69z M216.58,686.14h32.91
	l-51.92-463.19H164.7L216.58,686.14z"/>
<path class="st1" d="M136.95,565.64l-12.77,244.53H89.11l12.77-244.53H136.95z"/>
<path d="M127.07,814.98H85.9c-0.24,0.01-0.47-0.04-0.69-0.13c-0.22-0.09-0.42-0.23-0.58-0.4c-0.17-0.17-0.3-0.38-0.38-0.61
	c-0.09-0.23-0.12-0.47-0.11-0.71l13.09-250.66c0.03-0.45,0.23-0.88,0.56-1.19c0.33-0.31,0.77-0.48,1.22-0.48h41.17
	c0.24,0,0.48,0.05,0.7,0.15c0.22,0.1,0.42,0.24,0.58,0.42c0.17,0.17,0.31,0.37,0.39,0.6c0.09,0.23,0.12,0.47,0.1,0.71l-13.09,250.62
	c-0.02,0.45-0.21,0.88-0.55,1.2C127.97,814.82,127.53,814.99,127.07,814.98z M87.78,811.44h37.63l12.91-247.07h-37.63L87.78,811.44z
	"/>
<defs>
	<filter id="Adobe_OpacityMaskFilter" filterUnits="userSpaceOnUse" x="78.03" y="554.72" width="70" height="266.35">
		<feColorMatrix  type="matrix" values="1 0 0 0 0  0 1 0 0 0  0 0 1 0 0  0 0 0 1 0"/>
	</filter>
</defs>
<mask maskUnits="userSpaceOnUse" x="78.03" y="554.72" width="70" height="266.35" id="path-20-inside-1_445_302_1_">
	<path class="st2" d="M127.07,814.98H85.9c-0.24,0.01-0.47-0.04-0.69-0.13c-0.22-0.09-0.42-0.23-0.58-0.4
		c-0.17-0.17-0.3-0.38-0.38-0.61c-0.09-0.23-0.12-0.47-0.11-0.71l13.09-250.66c0.03-0.45,0.23-0.88,0.56-1.19
		c0.33-0.31,0.77-0.48,1.22-0.48h41.17c0.24,0,0.48,0.05,0.7,0.15c0.22,0.1,0.42,0.24,0.58,0.42c0.17,0.17,0.31,0.37,0.39,0.6
		c0.09,0.23,0.12,0.47,0.1,0.71l-13.09,250.62c-0.02,0.45-0.21,0.88-0.55,1.2C127.97,814.82,127.53,814.99,127.07,814.98z
		 M87.78,811.44h37.63l12.91-247.07h-37.63L87.78,811.44z"/>
</mask>
<path class="st3" d="M127.07,814.98l0.13-6.09h-0.13V814.98z M85.9,814.98v-6.1l-0.14,0L85.9,814.98z M84.62,814.45l4.43-4.19
	L89,810.22L84.62,814.45z M84.13,813.14l-6.09-0.32l0,0.04L84.13,813.14z M97.21,562.48l-6.08-0.37l0,0.05L97.21,562.48z
	 M98.99,560.82l-0.01,6.09h0.01V560.82z M140.16,560.82v6.09h0.03L140.16,560.82z M141.43,561.38l-4.54,4.06l0.14,0.15l0.15,0.14
	L141.43,561.38z M141.93,562.7l-6.08-0.44l-0.01,0.12L141.93,562.7z M128.85,813.32l-6.09-0.32l0,0.07L128.85,813.32z M87.78,811.44
	l-6.09-0.32l-0.33,6.41h6.42V811.44z M125.41,811.44v6.09h5.78l0.3-5.78L125.41,811.44z M138.31,564.36l6.08,0.32l0.34-6.41h-6.42
	V564.36z M100.69,564.36v-6.09H94.9l-0.3,5.78L100.69,564.36z M127.07,808.89H85.9v12.19h41.17V808.89z M85.76,808.89
	c0.61-0.01,1.22,0.1,1.79,0.34l-4.69,11.25c1.01,0.42,2.09,0.62,3.18,0.6L85.76,808.89z M87.55,809.23c0.57,0.24,1.08,0.59,1.5,1.03
	l-8.85,8.38c0.75,0.79,1.66,1.42,2.66,1.84L87.55,809.23z M89,810.22c0.41,0.42,0.73,0.92,0.93,1.47L78.54,816
	c0.38,1,0.96,1.91,1.7,2.68L89,810.22z M89.94,811.69c0.21,0.55,0.3,1.14,0.28,1.72l-12.17-0.55c-0.05,1.07,0.12,2.14,0.5,3.14
	L89.94,811.69z M90.21,813.46L103.3,562.8l-12.17-0.64L78.04,812.82L90.21,813.46z M103.29,562.85c-0.07,1.1-0.55,2.13-1.35,2.89
	l-8.35-8.88c-1.46,1.37-2.34,3.26-2.46,5.26L103.29,562.85z M101.94,565.74c-0.8,0.76-1.86,1.18-2.97,1.17L99,554.72
	c-2.01,0-3.94,0.76-5.4,2.13L101.94,565.74z M98.99,566.91h41.17v-12.19H98.99V566.91z M140.19,566.91c-0.62,0-1.24-0.13-1.8-0.38
	l4.95-11.14c-1.01-0.45-2.1-0.68-3.2-0.67L140.19,566.91z M138.38,566.53c-0.57-0.25-1.08-0.62-1.49-1.09l9.08-8.12
	c-0.74-0.82-1.64-1.48-2.64-1.93L138.38,566.53z M137.17,565.74c-0.46-0.45-0.82-0.99-1.04-1.6l11.4-4.31
	c-0.4-1.06-1.02-2.01-1.83-2.8L137.17,565.74z M136.13,564.14c-0.23-0.6-0.32-1.25-0.28-1.89l12.16,0.88
	c0.08-1.13-0.08-2.25-0.48-3.31L136.13,564.14z M135.85,562.38L122.76,813l12.17,0.64l13.09-250.62L135.85,562.38z M122.76,813.07
	c0.05-1.14,0.54-2.22,1.37-3l8.35,8.88c1.49-1.4,2.38-3.34,2.46-5.39L122.76,813.07z M124.13,810.07c0.83-0.78,1.94-1.21,3.08-1.18
	l-0.26,12.18c2.05,0.04,4.03-0.72,5.53-2.12L124.13,810.07z M87.78,817.53h37.63v-12.19H87.78V817.53z M131.49,811.75l12.91-247.07
	l-12.17-0.64l-12.91,247.07L131.49,811.75z M138.31,558.27h-37.63v12.19h37.63V558.27z M94.6,564.04L81.69,811.12l12.17,0.64
	l12.91-247.07L94.6,564.04z"/>
<path class="st1" d="M302.23,565.64h34.85l67.58,244.53H369.8L302.23,565.64z"/>
<path d="M408.65,814.98h-41.17c-0.38,0-0.76-0.12-1.06-0.36c-0.31-0.23-0.53-0.55-0.64-0.92l-69.26-250.65
	c-0.07-0.26-0.08-0.53-0.03-0.8c0.05-0.26,0.16-0.51,0.32-0.73c0.16-0.22,0.38-0.4,0.62-0.53c0.25-0.12,0.52-0.19,0.8-0.18h41.17
	c0.39,0,0.76,0.13,1.07,0.37c0.31,0.24,0.53,0.57,0.63,0.94l69.26,250.62c0.09,0.26,0.11,0.54,0.06,0.82
	c-0.05,0.27-0.17,0.53-0.34,0.74c-0.17,0.21-0.38,0.39-0.63,0.5C409.2,814.93,408.93,814.99,408.65,814.98z M368.83,811.44h37.52
	l-68.3-247.07h-37.38L368.83,811.44z"/>
<path class="st1" d="M361.99,262.78l46.34,413.44H55.54L9.2,262.78H361.99z"/>
<path d="M411.74,681.04H52.81c-0.44,0-0.87-0.16-1.2-0.45c-0.33-0.3-0.53-0.7-0.58-1.14L4.02,259.95c-0.04-0.25-0.01-0.51,0.07-0.75
	s0.21-0.46,0.39-0.64c0.16-0.19,0.36-0.34,0.59-0.45c0.23-0.1,0.47-0.16,0.72-0.16h358.93c0.43,0,0.85,0.16,1.18,0.45
	c0.33,0.29,0.54,0.68,0.6,1.11l46.99,419.53c0.04,0.25,0.02,0.5-0.05,0.74c-0.07,0.24-0.2,0.46-0.37,0.64
	c-0.16,0.19-0.36,0.34-0.59,0.45C412.24,680.99,411.99,681.04,411.74,681.04z M54.37,677.49h355.38l-46.63-415.99H7.78L54.37,677.49
	z"/>
<path class="st1" d="M26.21,715.05l-3.68-32.74h420.14l3.68,32.74H26.21z"/>
<path d="M449.61,719.87H23.49c-0.43,0-0.85-0.16-1.18-0.45c-0.33-0.29-0.54-0.68-0.6-1.11l-4.36-39.01
	c-0.02-0.25,0.01-0.5,0.09-0.74c0.08-0.24,0.21-0.46,0.37-0.64c0.17-0.18,0.37-0.32,0.6-0.42c0.23-0.1,0.47-0.15,0.71-0.15h426.27
	c0.44,0,0.86,0.15,1.18,0.44c0.33,0.29,0.54,0.69,0.59,1.12l4.36,39.01c0.02,0.25-0.01,0.5-0.09,0.74
	c-0.08,0.24-0.21,0.46-0.37,0.64c-0.18,0.2-0.41,0.35-0.66,0.45C450.15,719.85,449.88,719.89,449.61,719.87z M24.94,716.32h422.83
	l-3.94-35.46H21.11L24.94,716.32z"/>
<path class="st4" d="M248.96,496.01c-0.47,0.02-0.93-0.15-1.28-0.45l-118.37-94.2l-94.64,94.08c-0.39,0.38-0.91,0.59-1.45,0.59
	c-0.54,0-1.06-0.21-1.45-0.59c-0.19-0.19-0.35-0.42-0.45-0.67c-0.11-0.25-0.16-0.52-0.16-0.79c0-0.27,0.05-0.54,0.16-0.79
	c0.11-0.25,0.26-0.48,0.45-0.67l95.92-95.27c0.37-0.34,0.86-0.53,1.37-0.53s0.99,0.19,1.37,0.53l119.82,95.35
	c0.43,0.35,0.7,0.84,0.77,1.39c0.06,0.55-0.09,1.09-0.43,1.52c-0.22,0.19-0.48,0.33-0.75,0.42
	C249.54,496.02,249.25,496.04,248.96,496.01z"/>
<path class="st4" d="M383.75,496.02c-0.55,0-1.07-0.22-1.45-0.61l-89.49-93.44l-59.45,79.96c-0.16,0.22-0.36,0.4-0.59,0.53
	c-0.23,0.14-0.48,0.23-0.74,0.27c-0.26,0.04-0.53,0.02-0.79-0.04c-0.26-0.07-0.5-0.18-0.71-0.35c-0.42-0.33-0.7-0.82-0.77-1.35
	c-0.08-0.53,0.06-1.08,0.37-1.52l60.86-81.93c0.18-0.24,0.4-0.43,0.66-0.57c0.26-0.14,0.54-0.23,0.83-0.25
	c0.29-0.01,0.58,0.03,0.85,0.14c0.27,0.11,0.52,0.27,0.72,0.47l91.15,95.16c0.37,0.39,0.58,0.91,0.58,1.45s-0.21,1.06-0.58,1.45
	c-0.19,0.2-0.41,0.35-0.66,0.46S384.02,496.03,383.75,496.02z"/>
<path class="st0" d="M425.9,406.82c4.26-8.15,9.24-15.91,14.9-23.16L425.9,406.82z"/>
<path class="st0" d="M408.55,400.2c0,0,11.43-28,24.46-42.19L408.55,400.2z"/>
<path class="st0" d="M386.98,379.31c0,0,26.59-45.76,35.41-54.78L386.98,379.31z"/>
<path class="st1" d="M263.54,645.67L263.54,645.67c-5.65,6.04-10.77,13.17-13.79,20.61c-3.01,7.39-3.88,14.91-1.39,21.98
	c3.33,7.76,9.04,14.26,16.31,18.56l0.07,0.04l0.07,0.05c14.81,9.88,31.81,14.9,49.81,17.68c14.74,2.28,29.97,3.04,45.12,3.8
	c3.36,0.17,6.71,0.34,10.05,0.52c4.95-0.18,9.83,1.22,13.94,4l0.13,0.09l0.12,0.1c3,2.53,4.45,5.92,5.45,9
	c0.35,1.08,0.67,2.22,0.98,3.29c0.12,0.44,0.25,0.87,0.36,1.28L263.54,645.67z M263.54,645.67c28.05-30.08,71.33-52.09,117.25-65.16
	c41.25-11.72,84.37-16.14,120.23-12.86c20.75,1.99,38.42,8.38,50.99,19.49c12.5,11.05,20.23,27.01,20.76,48.77
	c0.81,33.62-17.18,66.22-43.31,88.09c-26.12,21.87-59.49,33.84-93.42,39.54c-8.56,1.43-18.17,1.8-26.36-0.06
	c-8.17-1.86-14.53-5.82-17.53-12.78L263.54,645.67z"/>
<path d="M422.33,769.51c-12.58,0-28.44-2.99-34.39-16.79c-0.76-1.95-1.42-3.93-1.96-5.95c-0.1-1.97-0.61-3.89-1.51-5.64
	c-0.9-1.75-2.15-3.29-3.69-4.53c-1.53-1.23-3.31-2.12-5.22-2.62c-1.91-0.49-3.89-0.58-5.83-0.25l-10.91-0.61
	c-33.68-1.8-68.56-3.67-96.51-22.36c-9.65-6.43-15.47-13.16-18.24-20.85c-7.05-19.75,8.94-39.73,16.09-47.42
	c26.73-28.57,69.14-52.18,119.39-66.47c41.56-11.84,84.87-16.41,121.93-12.87c47.26,4.54,74.93,31.08,75.96,72.8
	c0.77,33.23-16.09,67.56-45.04,91.75c-24.29,20.37-56.49,34.01-95.64,40.57C431.98,769.08,427.16,769.49,422.33,769.51z
	 M380.51,579.12c-49.67,14.12-91.56,37.42-117.91,65.56c-6.82,7.27-21.91,26.09-15.47,44.14c2.51,7.01,8.07,13.32,16.99,19.3
	c27.25,18.18,61.64,20.04,94.94,21.81l10.91,0.61c4.71-0.2,9.36,1.16,13.22,3.86c3.11,3.15,5.18,7.16,5.95,11.52
	c0.47,1.88,1.08,3.73,1.8,5.53c7.95,18.43,36.77,15.15,45.43,13.71c38.6-6.43,70.26-19.91,94.13-39.86
	c28.21-23.61,44.59-56.98,43.82-89.24c-1-40.5-26.93-65.24-73.06-69.65c-36.64-3.51-79.53,1-120.74,12.87V579.12z"/>
<path d="M500.51,610.61c11.18,0,20.24-5.17,20.24-11.55c0-6.38-9.06-11.55-20.24-11.55c-11.18,0-20.24,5.17-20.24,11.55
	C480.27,605.44,489.33,610.61,500.51,610.61z"/>
<path d="M300.89,653.02c-8.65,1.51-18.27,3.86-22.97,11.29c-3.89,6.21-3.22,14.35-0.35,21.1c7.01,16.86,25.09,26.8,43.04,29.98
	c20.65,3.51,41.89-0.13,60.19-10.33c13.8-7.62,38.19-26.22,34.04-45.04C407.6,627.57,321.03,649.48,300.89,653.02z"/>
<path d="M385.56,600.67c-4.03-1.89-8.42-2.91-12.87-2.99c-3.78,0.35-7.45,1.44-10.81,3.22c-5.73,2.67-11.13,5.99-16.09,9.91
	c-2.09,1.49-3.87,3.38-5.21,5.57c-0.66,1.11-1.02,2.37-1.06,3.65c-0.04,1.29,0.25,2.57,0.84,3.71c1.76,2.27,4.35,3.75,7.21,4.12
	c11.96,2.23,24.15,2.93,36.29,2.09c5.01,0.28,10.01-0.69,14.54-2.83C415.35,617.08,394.09,604.21,385.56,600.67z"/>
<path d="M408.92,591.02c10.65-6.95,24-7.75,36.71-8.14c3.48-0.5,7.02,0.27,9.97,2.19c1.49,1.34,2.52,3.1,2.96,5.05
	c1.93,7.5-2.67,15.6-9.36,19.56c-4.37,2.44-9.26,3.8-14.26,3.97c-5,0.17-9.97-0.85-14.5-2.97
	C414.64,607.43,400.36,596.62,408.92,591.02z"/>
<path d="M441.28,747.05c-4.3,0-8.6-0.25-12.87-0.74c-5.26-0.2-10.34-2.01-14.54-5.18c-2.22-2.21-3.86-4.94-4.79-7.93
	c-0.93-2.99-1.12-6.17-0.55-9.25c2.28-15.63,16.09-37.7,32.4-44.4c10.58-4.34,21.52-3.93,29.28,1.13c3.37,2.25,6.11,5.33,7.95,8.94
	c1.84,3.61,2.73,7.63,2.57,11.68c-0.14,7.94-1.38,15.82-3.67,23.42c-0.92,5.43-3.22,10.53-6.69,14.8
	c-4.89,5.11-12.35,6.43-18.31,7.01C448.55,746.86,444.92,747.05,441.28,747.05z M411.81,724.53c-0.49,2.55-0.35,5.18,0.4,7.67
	c0.75,2.49,2.09,4.76,3.91,6.61c3.74,2.75,8.23,4.28,12.87,4.41c7.63,0.87,15.33,0.93,22.97,0.19c5.4-0.51,12.13-1.67,16.31-6.02
	c3.07-3.88,5.1-8.47,5.89-13.35c2.2-7.31,3.41-14.89,3.57-22.52c0.13-3.52-0.63-7.02-2.21-10.16c-1.58-3.15-3.93-5.85-6.83-7.85
	c-6.88-4.47-16.73-4.76-26.32-0.84c-15.22,6.43-28.28,27.12-30.43,41.82L411.81,724.53z"/>
<path d="M510.83,706.58c-1.77,0.03-3.52-0.36-5.11-1.13c-6.85-3.38-9.39-13.29-11.68-22.01v-0.64c-2.28-8.85-4.25-18.88,1.29-26.41
	c5.53-7.53,15.41-9.65,25.99-4.83c11.81,5.28,23.03,18.5,20.56,30.66c-2.09,10.17-13.48,18.37-23.45,22.52
	C516.05,705.88,513.47,706.51,510.83,706.58z M509.9,652.21c-2.37-0.06-4.72,0.46-6.83,1.53c-2.12,1.07-3.94,2.64-5.3,4.58
	c-4.7,6.43-2.86,15.57-0.77,23.68l0.16,0.64c2.09,8.07,4.44,17.21,9.97,19.91c1.59,0.63,3.29,0.9,5,0.79
	c1.7-0.11,3.36-0.6,4.85-1.43c9.23-3.96,19.75-11.36,21.59-20.33c2.09-10.29-7.98-22.29-18.72-27.09
	C516.71,653.08,513.33,652.3,509.9,652.21z"/>
<path class="st1" d="M691.68,715.41L691.68,715.41l-0.1-0.08l-109.86-91.3l8.65-9.7l103.35,98.74l0,0l0.05,0.04
	c0.31,0.29,0.5,0.68,0.52,1.11c0.02,0.41-0.11,0.81-0.36,1.12c-0.29,0.29-0.68,0.47-1.09,0.49
	C692.42,715.84,692,715.69,691.68,715.41z"/>
<path d="M689.31,718.94l-0.52-0.35L576.5,625.27c-0.13-0.1-0.24-0.23-0.31-0.38c-0.08-0.15-0.12-0.31-0.13-0.48
	c-0.01-0.16,0.01-0.32,0.06-0.47c0.05-0.15,0.13-0.29,0.24-0.41l12.86-14.42c0.11-0.12,0.24-0.21,0.38-0.28
	c0.15-0.07,0.3-0.1,0.46-0.11c0.33-0.01,0.64,0.11,0.88,0.33L696.6,709.99c1.07,1,1.72,2.37,1.83,3.83
	c0.11,1.46-0.35,2.91-1.26,4.05c-0.91,1.14-2.23,1.9-3.68,2.11c-1.45,0.22-2.92-0.12-4.13-0.95L689.31,718.94z M690.34,716.71
	c0.33,0.3,0.72,0.53,1.14,0.67c0.42,0.15,0.87,0.21,1.31,0.19c0.44-0.02,0.88-0.14,1.28-0.33c0.4-0.19,0.76-0.46,1.06-0.8
	c0.3-0.33,0.53-0.72,0.67-1.14c0.15-0.42,0.21-0.87,0.19-1.31c-0.03-0.44-0.14-0.88-0.33-1.28c-0.19-0.4-0.46-0.76-0.8-1.06
	L590.08,611.56l-11.19,12.55L690.34,716.71z"/>
<path class="st1" d="M573.25,618.25l-33.71-30.9l9.58-10.74l34.56,29.95L573.25,618.25z"/>
<path d="M572.79,623.58l-0.16-0.11l-38.2-35.02c-0.23-0.22-0.37-0.51-0.39-0.83c-0.02-0.32,0.09-0.63,0.3-0.86l13.59-15.25
	c0.1-0.12,0.23-0.22,0.37-0.29c0.14-0.07,0.29-0.11,0.45-0.12c0.16-0.01,0.31,0.01,0.46,0.06c0.15,0.05,0.29,0.13,0.4,0.23
	l39.17,33.94c0.23,0.22,0.38,0.52,0.42,0.84c0,0.33-0.11,0.64-0.31,0.9l-14.54,16.3c-0.11,0.12-0.24,0.21-0.38,0.28
	c-0.15,0.07-0.3,0.1-0.46,0.11C573.26,623.79,573,623.73,572.79,623.58z M536.96,587.47l36.44,33.36l12.91-14.45L548.98,574
	L536.96,587.47z"/>
<path class="st1" d="M587.24,606.22l0.94,0.84c0.12,0.11,0.13,0.29,0.02,0.42l-12.65,14.19c-0.11,0.12-0.29,0.13-0.42,0.02
	l-0.94-0.84c-0.12-0.11-0.13-0.29-0.02-0.42l12.65-14.19C586.93,606.12,587.12,606.11,587.24,606.22z"/>
<path d="M572.77,625.26l-0.5-0.34l-0.97-0.86c-0.89-0.81-1.43-1.93-1.5-3.13c-0.07-1.2,0.34-2.38,1.13-3.28l12.67-14.18
	c0.39-0.45,0.87-0.82,1.41-1.08c0.54-0.26,1.12-0.41,1.72-0.43c0.6-0.04,1.19,0.05,1.76,0.24c0.56,0.2,1.09,0.5,1.53,0.9l0.95,0.84
	c0.45,0.39,0.81,0.87,1.07,1.41c0.26,0.54,0.41,1.12,0.44,1.71c0.06,1.2-0.35,2.38-1.14,3.29l-12.66,14.21
	c-0.81,0.89-1.94,1.43-3.14,1.5C574.54,626.11,573.57,625.82,572.77,625.26z M588.22,604.7c-0.39-0.25-0.84-0.37-1.31-0.36
	c-0.56,0.04-1.08,0.3-1.45,0.72l-12.66,14.21c-0.2,0.2-0.35,0.45-0.45,0.71c-0.1,0.27-0.14,0.55-0.13,0.83s0.09,0.56,0.21,0.81
	c0.12,0.25,0.3,0.48,0.52,0.66l0.95,0.84c0.42,0.37,0.97,0.57,1.54,0.54c0.56-0.04,1.08-0.3,1.45-0.72l12.67-14.18
	c0.19-0.21,0.33-0.46,0.42-0.72c0.09-0.27,0.12-0.55,0.1-0.83c-0.01-0.28-0.07-0.55-0.19-0.8c-0.12-0.25-0.29-0.47-0.49-0.66
	l-0.97-0.86L588.22,604.7z"/>
<path d="M548.76,572.28c0,0-4.1-34.61-26.37-45.02c-22.27-10.42-47.67-4.25-55.85,9.77c0,0,21.99-8.52,32.99,9.68
	c9.26,15.02-12.07,28.57,35.74,40.83L548.76,572.28z"/>
<path d="M509.8,578.93c-8.87-5.99-8.8-12.28-8.76-18.79c0.46-4.42-0.44-8.87-2.57-12.77c-10.37-17.05-30.64-9.52-31.5-9.2
	c-0.23,0.09-0.49,0.11-0.73,0.05c-0.24-0.06-0.46-0.19-0.62-0.38c-0.16-0.19-0.26-0.43-0.29-0.68c-0.02-0.25,0.03-0.5,0.15-0.72
	c8.02-13.78,33.56-21.37,57.39-10.25c22.64,10.55,27.02,44.53,27.17,46c0.02,0.17,0,0.35-0.05,0.51c-0.05,0.17-0.14,0.32-0.25,0.45
	l-13.58,15.23c-0.15,0.16-0.34,0.29-0.56,0.35c-0.21,0.07-0.44,0.07-0.66,0.02C522.66,585.59,514.8,582.31,509.8,578.93z
	 M493.12,538.17c3.02,2.08,5.56,4.79,7.43,7.94c2.37,4.29,3.38,9.19,2.92,14.06c-0.08,9.56-0.14,17.82,31.39,26.03l12.72-14.26
	c-0.66-4.39-5.79-34.26-25.68-43.62c-21.04-9.76-43.37-4.39-52.43,6.62C474.61,533.74,484.71,532.49,493.12,538.17z"/>
<path d="M966.58,409.32c-1.84,0-3.64-0.55-5.18-1.57c-1.53-1.02-2.73-2.48-3.43-4.18c-0.7-1.7-0.89-3.58-0.52-5.38
	c0.36-1.81,1.25-3.47,2.56-4.77c1.31-1.3,2.97-2.18,4.78-2.54c1.81-0.35,3.68-0.17,5.38,0.55c1.7,0.71,3.15,1.91,4.17,3.44
	c1.02,1.54,1.56,3.34,1.55,5.18c-0.01,2.46-1,4.82-2.74,6.56C971.41,408.35,969.05,409.32,966.58,409.32z M966.58,394.43
	c-1.1,0-2.18,0.33-3.1,0.94c-0.92,0.61-1.64,1.49-2.06,2.51c-0.42,1.02-0.53,2.14-0.32,3.23c0.22,1.08,0.75,2.08,1.53,2.86
	c0.78,0.78,1.78,1.31,2.86,1.53c1.08,0.22,2.21,0.11,3.23-0.32c1.02-0.42,1.89-1.14,2.51-2.06c0.61-0.92,0.94-2,0.94-3.1
	c-0.01-1.47-0.6-2.89-1.65-3.93c-1.05-1.04-2.46-1.62-3.94-1.62V394.43z"/>
<path d="M102.68,245.48c-1.84,0-3.64-0.55-5.18-1.57c-1.53-1.02-2.72-2.48-3.43-4.18c-0.7-1.7-0.89-3.58-0.52-5.38
	c0.36-1.81,1.25-3.47,2.56-4.77c1.31-1.3,2.97-2.18,4.78-2.54c1.81-0.35,3.68-0.17,5.38,0.54c1.7,0.71,3.15,1.91,4.17,3.45
	c1.02,1.54,1.56,3.34,1.55,5.18c-0.01,2.46-0.99,4.82-2.74,6.56C107.5,244.5,105.14,245.48,102.68,245.48z M102.68,230.58
	c-1.11,0-2.18,0.33-3.1,0.94c-0.92,0.61-1.63,1.49-2.06,2.51c-0.42,1.02-0.53,2.14-0.32,3.23c0.22,1.08,0.75,2.08,1.53,2.86
	c0.78,0.78,1.78,1.31,2.86,1.53c1.08,0.22,2.21,0.1,3.23-0.32c1.02-0.42,1.89-1.14,2.51-2.06c0.61-0.92,0.94-2,0.94-3.1
	c-0.01-1.48-0.6-2.89-1.65-3.93c-1.05-1.04-2.46-1.62-3.94-1.62V230.58z"/>
<path d="M579.32,312.51c-1.84,0-3.64-0.55-5.18-1.57c-1.53-1.02-2.73-2.48-3.43-4.18c-0.7-1.7-0.89-3.58-0.52-5.38
	c0.36-1.81,1.25-3.47,2.56-4.77c1.31-1.3,2.97-2.18,4.78-2.54c1.81-0.35,3.68-0.17,5.38,0.55c1.7,0.71,3.15,1.91,4.17,3.44
	s1.56,3.34,1.55,5.18c-0.01,2.46-1,4.82-2.74,6.56C584.14,311.53,581.78,312.51,579.32,312.51z M579.32,297.61
	c-1.1,0-2.18,0.33-3.1,0.94c-0.92,0.61-1.63,1.49-2.06,2.51c-0.42,1.02-0.53,2.14-0.32,3.23c0.22,1.08,0.75,2.08,1.53,2.86
	c0.78,0.78,1.78,1.31,2.86,1.53c1.08,0.22,2.21,0.11,3.23-0.32c1.02-0.42,1.89-1.14,2.51-2.06c0.61-0.92,0.94-2,0.94-3.1
	c-0.01-1.47-0.6-2.89-1.65-3.93c-1.05-1.04-2.46-1.62-3.94-1.62V297.61z"/>
<path d="M966.58,640.19c-1.84,0-3.64-0.55-5.18-1.57c-1.53-1.02-2.73-2.48-3.43-4.18c-0.7-1.7-0.89-3.58-0.52-5.38
	c0.36-1.81,1.25-3.47,2.56-4.77c1.31-1.3,2.97-2.18,4.78-2.54c1.81-0.35,3.68-0.17,5.38,0.55c1.7,0.71,3.15,1.91,4.17,3.44
	c1.02,1.54,1.56,3.34,1.55,5.18c-0.01,2.46-1,4.82-2.74,6.56C971.41,639.22,969.05,640.19,966.58,640.19z M966.58,625.3
	c-1.1,0-2.18,0.33-3.1,0.94c-0.92,0.61-1.64,1.49-2.06,2.51c-0.42,1.02-0.53,2.14-0.32,3.23c0.22,1.08,0.75,2.08,1.53,2.86
	c0.78,0.78,1.78,1.31,2.86,1.53c1.08,0.22,2.21,0.11,3.23-0.32c1.02-0.42,1.89-1.14,2.51-2.06c0.61-0.92,0.94-2,0.94-3.1
	c-0.01-1.47-0.6-2.89-1.65-3.93c-1.05-1.04-2.46-1.62-3.94-1.62V625.3z"/>
<path d="M839.98,327.4c-1.84,0-3.64-0.55-5.18-1.57c-1.53-1.02-2.72-2.48-3.43-4.18c-0.7-1.7-0.89-3.58-0.52-5.38
	c0.36-1.81,1.25-3.47,2.56-4.77c1.31-1.3,2.97-2.18,4.78-2.54c1.81-0.36,3.68-0.17,5.38,0.54c1.7,0.71,3.15,1.91,4.17,3.45
	c1.02,1.54,1.56,3.34,1.55,5.18c-0.01,2.46-0.99,4.82-2.74,6.56C844.8,326.42,842.44,327.4,839.98,327.4z M839.98,312.5
	c-1.1,0-2.19,0.33-3.1,0.94c-0.92,0.61-1.63,1.49-2.06,2.51c-0.42,1.02-0.53,2.14-0.32,3.23c0.22,1.08,0.75,2.08,1.53,2.86
	c0.78,0.78,1.78,1.31,2.86,1.53c1.08,0.22,2.21,0.1,3.23-0.32c1.02-0.42,1.89-1.14,2.51-2.06c0.61-0.92,0.94-2,0.94-3.1
	c-0.01-1.48-0.6-2.89-1.65-3.93c-1.05-1.04-2.46-1.62-3.94-1.62V312.5z"/>
<path d="M343.35,212.74c-0.49,0-0.97-0.2-1.32-0.55c-0.35-0.35-0.54-0.82-0.54-1.32v-19.4c0-0.49,0.2-0.97,0.54-1.32
	c0.35-0.35,0.82-0.55,1.32-0.55s0.97,0.2,1.32,0.55c0.35,0.35,0.55,0.82,0.55,1.32v19.4c0,0.49-0.2,0.97-0.55,1.32
	C344.31,212.55,343.84,212.74,343.35,212.74z"/>
<path d="M353.06,203.06h-19.51c-0.49-0.01-0.96-0.21-1.31-0.56c-0.35-0.35-0.55-0.82-0.56-1.31c0-0.49,0.2-0.97,0.55-1.32
	s0.82-0.55,1.32-0.55h19.44c0.49,0,0.97,0.2,1.32,0.55c0.35,0.35,0.55,0.82,0.55,1.32c0,0.48-0.19,0.94-0.52,1.29
	C354,202.84,353.54,203.04,353.06,203.06z"/>
<path d="M879.56,585.12c-0.49,0-0.97-0.2-1.32-0.55c-0.35-0.35-0.55-0.82-0.55-1.32v-19.4c0-0.49,0.2-0.97,0.55-1.32
	c0.35-0.35,0.82-0.54,1.32-0.54c0.49,0,0.97,0.2,1.32,0.54c0.35,0.35,0.55,0.82,0.55,1.32v19.4c0,0.49-0.2,0.97-0.55,1.32
	C880.53,584.92,880.05,585.12,879.56,585.12z"/>
<path d="M889.28,575.44h-19.51c-0.49-0.01-0.96-0.21-1.31-0.56c-0.35-0.35-0.55-0.82-0.56-1.31c0-0.49,0.2-0.97,0.55-1.32
	s0.82-0.55,1.32-0.55h19.44c0.49,0,0.97,0.2,1.32,0.55s0.55,0.82,0.55,1.32c0,0.48-0.19,0.94-0.52,1.29
	C890.21,575.21,889.76,575.42,889.28,575.44z"/>
<path d="M298.66,793.65c-0.49,0-0.97-0.2-1.32-0.55c-0.35-0.35-0.55-0.82-0.55-1.32v-19.4c0-0.49,0.2-0.97,0.55-1.32
	c0.35-0.35,0.82-0.55,1.32-0.55c0.49,0,0.97,0.2,1.32,0.55c0.35,0.35,0.55,0.82,0.55,1.32v19.4c0,0.49-0.2,0.97-0.55,1.32
	C299.63,793.45,299.15,793.65,298.66,793.65z"/>
<path d="M308.38,783.97h-19.51c-0.49-0.01-0.96-0.21-1.31-0.56c-0.35-0.35-0.55-0.82-0.56-1.31c0-0.49,0.2-0.97,0.55-1.32
	c0.35-0.35,0.82-0.55,1.32-0.55h19.44c0.49,0,0.97,0.2,1.32,0.55c0.35,0.35,0.55,0.82,0.55,1.32c0,0.48-0.19,0.94-0.52,1.29
	S308.86,783.95,308.38,783.97z"/>
<path d="M954.04,264.88c-0.49,0-0.97-0.2-1.32-0.55c-0.35-0.35-0.54-0.82-0.54-1.32v-19.4c0-0.49,0.2-0.97,0.54-1.32
	c0.35-0.35,0.82-0.55,1.32-0.55s0.97,0.2,1.32,0.55c0.35,0.35,0.55,0.82,0.55,1.32v19.4c0,0.49-0.2,0.97-0.55,1.32
	C955,264.68,954.53,264.88,954.04,264.88z"/>
<path d="M963.75,255.2h-19.51c-0.49-0.01-0.96-0.21-1.31-0.56c-0.35-0.35-0.55-0.82-0.56-1.31c0-0.49,0.2-0.97,0.55-1.32
	c0.35-0.35,0.82-0.55,1.32-0.55h19.44c0.49,0,0.97,0.2,1.32,0.55c0.35,0.35,0.55,0.82,0.55,1.32c0,0.48-0.19,0.94-0.52,1.29
	C964.69,254.97,964.24,255.18,963.75,255.2z"/>
<path d="M671.03,331.9c-0.49,0-0.97-0.2-1.32-0.55c-0.35-0.35-0.54-0.82-0.54-1.32v-19.4c0-0.49,0.2-0.97,0.54-1.32
	c0.35-0.35,0.82-0.55,1.32-0.55c0.49,0,0.97,0.2,1.32,0.55c0.35,0.35,0.55,0.82,0.55,1.32v19.4c0,0.49-0.2,0.97-0.55,1.32
	C672,331.71,671.53,331.9,671.03,331.9z"/>
<path d="M680.75,322.22h-19.51c-0.49-0.01-0.96-0.21-1.31-0.56c-0.35-0.35-0.55-0.82-0.56-1.31c0-0.49,0.2-0.97,0.55-1.32
	c0.35-0.35,0.82-0.55,1.32-0.55h19.44c0.49,0,0.97,0.2,1.32,0.55c0.35,0.35,0.55,0.82,0.55,1.32c0,0.48-0.19,0.94-0.52,1.29
	S681.23,322.2,680.75,322.22z"/>
<path d="M455.06,376.59c-0.49,0-0.97-0.2-1.32-0.54c-0.35-0.35-0.54-0.82-0.54-1.32v-19.4c0-0.49,0.2-0.97,0.54-1.32
	c0.35-0.35,0.82-0.55,1.32-0.55s0.97,0.2,1.32,0.55c0.35,0.35,0.55,0.82,0.55,1.32v19.4c0,0.49-0.2,0.97-0.55,1.32
	C456.02,376.39,455.55,376.59,455.06,376.59z"/>
<path d="M464.78,366.91h-19.51c-0.49-0.01-0.96-0.21-1.31-0.56c-0.35-0.35-0.55-0.82-0.56-1.31c0-0.49,0.2-0.97,0.55-1.32
	c0.35-0.35,0.82-0.55,1.32-0.55h19.44c0.49,0,0.97,0.2,1.32,0.55c0.35,0.35,0.55,0.82,0.55,1.32c0,0.48-0.19,0.94-0.52,1.29
	C465.71,366.69,465.26,366.89,464.78,366.91z"/>
<path d="M604,443.62c-0.49,0-0.97-0.2-1.32-0.55c-0.35-0.35-0.55-0.82-0.55-1.32v-19.4c0-0.49,0.2-0.97,0.55-1.32
	c0.35-0.35,0.82-0.55,1.32-0.55c0.49,0,0.97,0.2,1.32,0.55c0.35,0.35,0.55,0.82,0.55,1.32v19.4c0,0.49-0.2,0.97-0.55,1.32
	S604.5,443.62,604,443.62z"/>
<path d="M613.72,433.94h-19.51c-0.49-0.01-0.96-0.21-1.31-0.56c-0.35-0.35-0.55-0.82-0.56-1.31c0-0.49,0.2-0.97,0.55-1.32
	c0.35-0.35,0.82-0.55,1.32-0.55h19.44c0.49,0,0.97,0.2,1.32,0.55c0.35,0.35,0.55,0.82,0.55,1.32c0,0.48-0.19,0.94-0.52,1.29
	C614.66,433.71,614.2,433.92,613.72,433.94z"/>
<path d="M987.81,526.25c4.52,0,8.19-3.67,8.19-8.19s-3.67-8.19-8.19-8.19c-4.52,0-8.19,3.67-8.19,8.19S983.28,526.25,987.81,526.25z
	"/>
<path d="M429.25,526.25c4.52,0,8.19-3.67,8.19-8.19s-3.67-8.19-8.19-8.19s-8.19,3.67-8.19,8.19S424.73,526.25,429.25,526.25z"/>
<path d="M540.96,213.45c4.52,0,8.19-3.67,8.19-8.19s-3.67-8.19-8.19-8.19c-4.52,0-8.19,3.67-8.19,8.19S536.44,213.45,540.96,213.45z
	"/>
<path d="M540.96,779.46c4.52,0,8.19-3.67,8.19-8.19c0-4.52-3.67-8.19-8.19-8.19c-4.52,0-8.19,3.67-8.19,8.19
	C532.77,775.79,536.44,779.46,540.96,779.46z"/>
<path d="M742.04,243.24c4.52,0,8.19-3.67,8.19-8.19s-3.67-8.19-8.19-8.19s-8.19,3.67-8.19,8.19S737.52,243.24,742.04,243.24z"/>
</svg>
