<?xml version="1.0" encoding="utf-8"?>
<!-- Generator: Adobe Illustrator 24.3.0, SVG Export Plug-In . SVG Version: 6.00 Build 0)  -->
<svg version="1.1" id="Слой_1" xmlns="http://www.w3.org/2000/svg" xmlns:xlink="http://www.w3.org/1999/xlink" x="0px" y="0px"
	 viewBox="0 0 1000 1000" style="enable-background:new 0 0 1000 1000;" xml:space="preserve">
<style type="text/css">
	.st0{fill:#FFFFFF;}
</style>
<path d="M777.72,644.49H671.36c-0.5,0-0.97-0.2-1.32-0.55s-0.55-0.82-0.55-1.32v-22.03c0-0.49,0.2-0.97,0.55-1.32
	c0.35-0.35,0.82-0.55,1.32-0.55h106.36c0.5,0,0.97,0.2,1.32,0.55c0.35,0.35,0.55,0.82,0.55,1.32v22.03c0,0.49-0.2,0.97-0.55,1.32
	S778.22,644.49,777.72,644.49z M673.34,640.76h102.52v-18.3H673.23L673.34,640.76z"/>
<path class="st0" d="M847.44,138.86H129.28v535.45h718.15V138.86z"/>
<path d="M847.4,676.17H129.28c-0.49,0-0.97-0.2-1.32-0.55s-0.55-0.82-0.55-1.32V138.86c0-0.49,0.2-0.97,0.55-1.32
	s0.82-0.55,1.32-0.55H847.4c0.49,0,0.97,0.2,1.32,0.55s0.55,0.82,0.55,1.32v535.45c0,0.49-0.2,0.97-0.55,1.32
	S847.9,676.17,847.4,676.17z M131.15,672.45h714.39V140.73H131.15V672.45z"/>
<path d="M462.78,448.77H232.4c-0.49,0-0.97-0.2-1.32-0.55c-0.35-0.35-0.55-0.82-0.55-1.32s0.2-0.97,0.55-1.32
	c0.35-0.35,0.82-0.55,1.32-0.55h230.39c0.49,0,0.97,0.2,1.32,0.55c0.35,0.35,0.55,0.82,0.55,1.32s-0.2,0.97-0.55,1.32
	C463.75,448.57,463.28,448.77,462.78,448.77z"/>
<path d="M462.78,481.5H232.4c-0.49,0-0.97-0.2-1.32-0.55c-0.35-0.35-0.55-0.82-0.55-1.32c0-0.5,0.2-0.97,0.55-1.32
	c0.35-0.35,0.82-0.55,1.32-0.55h230.39c0.49,0,0.97,0.2,1.32,0.55c0.35,0.35,0.55,0.82,0.55,1.32c0,0.49-0.2,0.97-0.55,1.32
	C463.75,481.31,463.28,481.5,462.78,481.5z"/>
<path d="M462.78,514.01H232.4c-0.49,0-0.97-0.2-1.32-0.55c-0.35-0.35-0.55-0.82-0.55-1.32c0-0.49,0.2-0.97,0.55-1.32
	c0.35-0.35,0.82-0.55,1.32-0.55h230.39c0.49,0,0.97,0.2,1.32,0.55c0.35,0.35,0.55,0.82,0.55,1.32c0,0.25-0.05,0.49-0.14,0.71
	c-0.09,0.23-0.23,0.43-0.4,0.61c-0.17,0.17-0.38,0.31-0.6,0.4C463.27,513.96,463.03,514.01,462.78,514.01z"/>
<path d="M804.94,644.49H171.78c-0.49,0-0.97-0.2-1.32-0.55c-0.35-0.35-0.55-0.82-0.55-1.32V170.55c0-0.49,0.2-0.97,0.55-1.32
	c0.35-0.35,0.82-0.55,1.32-0.55h633.16c0.5,0,0.97,0.2,1.32,0.55c0.35,0.35,0.55,0.82,0.55,1.32v472.07c0,0.49-0.2,0.97-0.55,1.32
	C805.91,644.29,805.43,644.49,804.94,644.49z M173.68,640.76h629.35V172.41H173.65L173.68,640.76z"/>
<path d="M763.6,481.5H530.04c-0.24,0-0.48-0.05-0.71-0.14c-0.22-0.09-0.43-0.23-0.6-0.41s-0.3-0.38-0.39-0.61
	c-0.09-0.23-0.13-0.47-0.13-0.71c0-0.43,0.14-0.85,0.41-1.19c2.27-9.84,1.01-157.13-0.41-254.88c-0.01-0.38,0.1-0.75,0.32-1.07
	c0.21-0.31,0.52-0.55,0.88-0.69c0.35-0.15,0.74-0.18,1.1-0.09c0.37,0.09,0.7,0.29,0.95,0.58l233.52,256.07
	c0.24,0.27,0.39,0.61,0.44,0.96c0.05,0.36,0,0.72-0.14,1.05c-0.14,0.33-0.38,0.61-0.67,0.81C764.3,481.39,763.95,481.49,763.6,481.5
	z M532.2,477.77h227.14L531.94,228.41C533.28,316.39,534.77,454.96,532.2,477.77z"/>
<path d="M714.5,498.58c-0.48,0-0.95-0.19-1.29-0.52c-0.35-0.33-0.55-0.79-0.57-1.27c0-0.52-1.6-50.44,41.34-60.02
	c0.5-0.11,1.01-0.02,1.44,0.26c0.43,0.27,0.73,0.7,0.84,1.2c0.11,0.5,0.02,1.01-0.26,1.44c-0.27,0.43-0.7,0.73-1.2,0.84
	c-39.96,8.87-38.43,55.92-38.43,56.22c0.01,0.49-0.17,0.97-0.5,1.33c-0.33,0.36-0.79,0.58-1.29,0.61L714.5,498.58z"/>
<path d="M568.29,481.5c-0.49,0-0.97-0.2-1.32-0.55c-0.35-0.35-0.55-0.82-0.55-1.32v-27.96h-36.35c-0.49-0.01-0.96-0.21-1.31-0.56
	c-0.35-0.35-0.55-0.82-0.56-1.31c0-0.49,0.2-0.97,0.55-1.32c0.35-0.35,0.82-0.55,1.32-0.55h38.21c0.5,0,0.97,0.2,1.32,0.55
	c0.35,0.35,0.55,0.82,0.55,1.32v29.82c0,0.49-0.2,0.97-0.55,1.32C569.26,481.31,568.78,481.5,568.29,481.5z"/>
<path d="M498.13,332.98v-2.5c-0.01-0.94,0.07-1.87,0.22-2.8c0.15-0.82,0.4-1.62,0.75-2.39c0.33-0.78,0.77-1.51,1.3-2.16
	c0.63-0.78,1.32-1.52,2.05-2.2l2.95-2.83c0.81-0.73,1.52-1.56,2.12-2.46c0.62-1.01,0.93-2.17,0.89-3.36
	c0.04-1.58-0.54-3.12-1.6-4.29c-0.59-0.59-1.31-1.05-2.09-1.34c-0.78-0.3-1.62-0.42-2.46-0.37c-0.9-0.01-1.79,0.16-2.62,0.52
	c-0.83,0.35-1.57,0.88-2.19,1.53c-0.59,0.63-1.05,1.38-1.34,2.2c-0.3,0.81-0.48,1.67-0.52,2.54l-8.05-0.71
	c0.22-1.95,0.79-3.84,1.68-5.59c0.8-1.6,1.92-3.02,3.28-4.18c1.39-1.13,2.97-2,4.66-2.57c1.81-0.61,3.72-0.91,5.63-0.89
	c1.81,0,3.6,0.28,5.33,0.82c1.62,0.53,3.12,1.35,4.44,2.42c1.3,1.08,2.34,2.42,3.06,3.95c0.77,1.71,1.15,3.57,1.12,5.44
	c0.02,1.26-0.15,2.52-0.48,3.73c-0.3,1.03-0.74,2-1.3,2.91c-0.59,0.9-1.28,1.74-2.05,2.5c-0.82,0.82-1.71,1.64-2.72,2.54
	c-1.01,0.89-1.57,1.38-2.12,1.94c-0.5,0.52-0.93,1.1-1.3,1.71c-0.33,0.56-0.56,1.18-0.67,1.83c-0.16,0.8-0.24,1.61-0.22,2.42v1.71
	L498.13,332.98z M496.82,342.08c-0.02-0.69,0.1-1.39,0.37-2.03c0.26-0.64,0.66-1.22,1.16-1.7c0.49-0.49,1.07-0.87,1.71-1.12
	c0.64-0.26,1.33-0.38,2.02-0.37c1.38-0.02,2.71,0.48,3.73,1.42c0.52,0.46,0.94,1.04,1.21,1.69c0.27,0.65,0.39,1.34,0.36,2.04
	c0.02,0.69-0.1,1.38-0.37,2.03c-0.26,0.64-0.66,1.22-1.16,1.7c-0.49,0.49-1.07,0.87-1.71,1.13c-0.64,0.26-1.33,0.38-2.02,0.36
	c-0.69,0-1.38-0.14-2.01-0.41c-0.62-0.24-1.19-0.6-1.68-1.04c-0.49-0.43-0.89-0.97-1.16-1.57
	C496.96,343.54,496.81,342.81,496.82,342.08z"/>
<path d="M775.19,748.98H393.22c-4.01,0-7.27,3.25-7.27,7.27v0.34c0,4.02,3.25,7.27,7.27,7.27h381.97c4.02,0,7.27-3.25,7.27-7.27
	v-0.34C782.46,752.24,779.2,748.98,775.19,748.98z"/>
<path d="M775.15,765.68H393.22c-2.47,0-4.84-0.98-6.59-2.73c-1.75-1.75-2.73-4.12-2.73-6.59c0-2.47,0.98-4.84,2.73-6.59
	c1.75-1.75,4.12-2.73,6.59-2.73h381.93c2.47,0,4.84,0.98,6.59,2.73c1.75,1.75,2.73,4.12,2.73,6.59c0,2.47-0.98,4.84-2.73,6.59
	S777.62,765.68,775.15,765.68z M393.22,750.77c-1.43,0-2.81,0.57-3.82,1.58c-1.01,1.01-1.58,2.39-1.58,3.82
	c-0.03,0.73,0.09,1.46,0.35,2.15c0.26,0.69,0.65,1.31,1.15,1.84s1.11,0.96,1.78,1.25c0.67,0.29,1.39,0.45,2.13,0.46h381.93
	c1.44,0,2.82-0.57,3.84-1.58c1.02-1.01,1.6-2.39,1.61-3.82c0.03-0.73-0.1-1.47-0.36-2.15c-0.26-0.69-0.66-1.31-1.16-1.84
	c-0.51-0.53-1.11-0.96-1.79-1.25c-0.67-0.29-1.4-0.45-2.13-0.46H393.22z"/>
<path d="M635.31,563.74h233.67l-93.5,192.47H541.82L635.31,563.74z"/>
<path d="M775.49,758.08H541.82c-0.31,0-0.62-0.08-0.89-0.23c-0.27-0.15-0.5-0.37-0.67-0.63c-0.15-0.27-0.22-0.58-0.22-0.89
	c0-0.31,0.08-0.62,0.22-0.89l93.5-192.51c0.16-0.31,0.4-0.57,0.69-0.76c0.3-0.18,0.64-0.28,0.98-0.29H869.1
	c0.32,0,0.63,0.08,0.9,0.24s0.5,0.38,0.67,0.65c0.15,0.27,0.23,0.58,0.23,0.89c0,0.31-0.08,0.62-0.23,0.89l-93.5,192.47
	c-0.16,0.31-0.4,0.57-0.69,0.76C776.18,757.97,775.84,758.07,775.49,758.08z M544.8,754.35h229.49L866,565.6H636.51L544.8,754.35z"
	/>
<path class="st0" d="M978.52,763.67H24.13c-10.03,0-18.16,8.13-18.16,18.15v24.16c0,10.03,8.13,18.15,18.16,18.15h954.39
	c10.03,0,18.15-8.13,18.15-18.15v-24.16C996.67,771.79,988.55,763.67,978.52,763.67z"/>
<path d="M977.84,826H23.48c-2.64,0.01-5.26-0.51-7.71-1.53c-2.44-1.01-4.66-2.5-6.53-4.37c-1.86-1.88-3.34-4.1-4.34-6.55
	c-1-2.45-1.5-5.07-1.48-7.72v-24.19c0-5.3,2.11-10.38,5.85-14.13c3.75-3.75,8.83-5.85,14.13-5.85h954.36
	c5.3,0,10.39,2.11,14.13,5.85c3.75,3.75,5.85,8.83,5.85,14.13v24.19c0.02,2.63-0.48,5.24-1.47,7.68c-0.99,2.44-2.44,4.66-4.3,6.53
	c-1.85,1.87-4.05,3.36-6.48,4.39C983.08,825.45,980.47,825.99,977.84,826z M23.48,765.53c-2.13,0-4.25,0.42-6.22,1.24
	c-1.97,0.82-3.76,2.01-5.27,3.52c-1.51,1.51-2.71,3.3-3.52,5.27c-0.82,1.97-1.24,4.09-1.24,6.22v24.05c0,4.31,1.71,8.45,4.76,11.51
	c3.05,3.05,7.18,4.78,11.5,4.78h954.36c4.31-0.01,8.44-1.73,11.5-4.78c3.04-3.05,4.75-7.19,4.75-11.51v-24.19
	c-0.01-4.31-1.73-8.44-4.77-11.48c-3.04-3.05-7.17-4.76-11.48-4.77L23.48,765.53z"/>
<path d="M709.54,323.92c-0.61-0.82-1.42-1.47-2.35-1.9c-1-0.48-2.1-0.74-3.21-0.75c-1.13-0.02-2.24,0.24-3.24,0.75
	c-0.91,0.5-1.7,1.18-2.31,2.01c-0.63,0.83-1.09,1.76-1.38,2.76c-0.3,1.02-0.45,2.07-0.45,3.13c-0.01,1.05,0.16,2.1,0.48,3.09
	c0.29,1.01,0.77,1.96,1.42,2.8c0.67,0.87,1.53,1.57,2.53,2.04c0.99,0.47,2.08,0.7,3.18,0.68c1.08,0,2.16-0.2,3.17-0.6
	c0.98-0.37,1.84-0.98,2.5-1.79l4.21,4.25c-1.19,1.25-2.66,2.19-4.29,2.76c-1.8,0.68-3.71,1.02-5.63,1.01
	c-1.92,0.01-3.82-0.32-5.63-0.97c-1.73-0.6-3.32-1.55-4.66-2.8c-1.35-1.25-2.42-2.77-3.13-4.47c-0.79-1.9-1.19-3.94-1.16-6
	c-0.04-2.02,0.36-4.03,1.16-5.89c0.71-1.7,1.76-3.24,3.09-4.51c1.33-1.24,2.89-2.2,4.59-2.83c1.77-0.68,3.66-1.02,5.55-1.01
	c1.98,0,3.94,0.38,5.78,1.12c1.7,0.64,3.21,1.69,4.4,3.06L709.54,323.92z"/>
<path d="M328.91,331.3h-12.64v-4.1l11.63-17.6h5.55v17.71h3.73v3.99h-3.73v5.67h-4.55V331.3z M328.91,315.05l-7.79,12.26h7.87
	L328.91,315.05z"/>
<path d="M358.55,313.74h-11.18l-0.26,5.93c0.51-0.15,1.04-0.25,1.57-0.3h1.64c1.27,0,2.52,0.2,3.73,0.6
	c1.1,0.35,2.11,0.92,2.98,1.68c0.86,0.75,1.55,1.68,2.01,2.72c0.49,1.18,0.73,2.45,0.71,3.73c0.02,1.39-0.25,2.78-0.78,4.06
	c-0.51,1.14-1.25,2.17-2.16,3.02c-0.93,0.83-2,1.48-3.17,1.9c-1.2,0.43-2.46,0.66-3.73,0.67c-2.04,0.06-4.06-0.5-5.78-1.6
	c-1.57-1.07-2.77-2.61-3.43-4.4l4.21-1.53c0.35,1.04,1.01,1.96,1.9,2.61c0.94,0.65,2.06,0.99,3.21,0.97
	c0.67,0.01,1.34-0.11,1.98-0.34c0.6-0.25,1.15-0.59,1.64-1.01c0.46-0.47,0.83-1.03,1.08-1.64c0.29-0.71,0.43-1.47,0.41-2.24
	c0.03-0.9-0.15-1.79-0.52-2.61c-0.34-0.67-0.82-1.26-1.42-1.71c-0.58-0.41-1.24-0.7-1.94-0.86c-0.72-0.18-1.46-0.27-2.2-0.26h-1.68
	c-0.57,0.08-1.13,0.19-1.68,0.34l-1.64,0.48l-1.38,0.56l0.45-14.91h15.58L358.55,313.74z"/>
<path d="M364.15,316.35c-0.01-0.97,0.18-1.94,0.56-2.83c0.37-0.84,0.89-1.61,1.53-2.27c0.67-0.65,1.45-1.17,2.31-1.53
	c1.79-0.73,3.8-0.73,5.59,0c0.84,0.37,1.61,0.89,2.27,1.53c0.67,0.67,1.2,1.47,1.56,2.34c0.36,0.88,0.54,1.82,0.53,2.76
	c0.01,0.96-0.18,1.91-0.56,2.8c-0.72,1.67-2.05,3.01-3.73,3.73c-1.33,0.53-2.77,0.66-4.18,0.39c-1.4-0.27-2.69-0.94-3.73-1.92
	c-0.64-0.66-1.16-1.43-1.53-2.27C364.39,318.22,364.17,317.29,364.15,316.35z M374.81,316.35c-0.01-0.79-0.29-1.56-0.8-2.16
	c-0.51-0.61-1.21-1.02-1.99-1.17c-0.78-0.15-1.58-0.02-2.28,0.35c-0.7,0.38-1.24,0.98-1.54,1.72c-0.3,0.73-0.34,1.55-0.1,2.3
	c0.23,0.76,0.72,1.41,1.38,1.85c0.66,0.44,1.45,0.64,2.24,0.56c0.79-0.08,1.53-0.43,2.09-0.99c0.33-0.32,0.58-0.7,0.76-1.13
	C374.73,317.26,374.82,316.81,374.81,316.35z M386.96,308.37l3.24,1.49l-16.1,28.33l-3.21-1.45L386.96,308.37z M382.6,330.26
	c-0.01-0.96,0.18-1.91,0.56-2.8c0.36-0.87,0.89-1.65,1.57-2.31c0.66-0.65,1.43-1.16,2.27-1.53c1.79-0.73,3.8-0.73,5.59,0
	c0.85,0.37,1.62,0.88,2.27,1.53c0.67,0.66,1.2,1.44,1.57,2.31c0.73,1.79,0.73,3.8,0,5.59c-0.38,0.85-0.91,1.62-1.57,2.27
	c-0.65,0.66-1.42,1.18-2.27,1.53c-0.89,0.37-1.84,0.56-2.8,0.56c-0.96,0-1.91-0.19-2.8-0.56c-0.85-0.35-1.63-0.87-2.27-1.53
	c-0.66-0.65-1.19-1.43-1.57-2.27C382.78,332.17,382.59,331.22,382.6,330.26z M393.26,330.26c0.01-0.46-0.07-0.92-0.24-1.35
	c-0.17-0.43-0.43-0.82-0.76-1.14c-0.32-0.33-0.7-0.59-1.12-0.76c-0.42-0.17-0.88-0.26-1.34-0.24c-0.49-0.05-0.98,0-1.45,0.15
	c-0.47,0.15-0.9,0.4-1.26,0.73s-0.66,0.73-0.85,1.18c-0.2,0.45-0.3,0.93-0.3,1.42s0.1,0.98,0.3,1.42c0.2,0.45,0.49,0.85,0.85,1.18
	s0.79,0.58,1.26,0.73c0.47,0.15,0.96,0.2,1.45,0.15c0.46,0.01,0.91-0.07,1.34-0.24c0.42-0.17,0.81-0.43,1.12-0.76
	c0.33-0.32,0.58-0.7,0.76-1.13C393.18,331.17,393.27,330.71,393.26,330.26z"/>
<path d="M631.66,494.29v18.9h0.19c0.38-0.5,0.8-0.96,1.27-1.38c0.59-0.52,1.22-0.99,1.9-1.38c0.8-0.44,1.65-0.78,2.54-1.01
	c1.08-0.31,2.2-0.47,3.32-0.45c1.77,0,3.52,0.36,5.14,1.07c1.62,0.71,3.08,1.74,4.29,3.03c1.19,1.31,2.1,2.84,2.68,4.51
	c0.64,1.77,0.95,3.64,0.93,5.52c0.01,1.9-0.29,3.79-0.89,5.59c-0.6,1.66-1.49,3.21-2.65,4.55c-1.2,1.38-2.69,2.47-4.37,3.2
	c-1.68,0.73-3.49,1.07-5.32,1.01c-1.85,0.01-3.68-0.41-5.33-1.23c-1.65-0.82-3.02-2.12-3.91-3.73v4.03h-6.37v-42.24H631.66z
	 M647.09,523.1c0-1.05-0.16-2.09-0.48-3.09c-0.3-1.01-0.78-1.96-1.42-2.8c-0.66-0.82-1.49-1.5-2.42-1.98
	c-1.07-0.52-2.24-0.77-3.43-0.75c-1.14-0.02-2.27,0.25-3.28,0.78c-0.96,0.5-1.8,1.19-2.5,2.01c-0.71,0.82-1.24,1.77-1.57,2.8
	c-0.37,1-0.55,2.06-0.56,3.13c0,1.07,0.19,2.13,0.56,3.13c0.33,1.02,0.86,1.96,1.57,2.76c0.69,0.83,1.54,1.51,2.5,2.01
	c1.05,0.5,2.19,0.76,3.36,0.76c1.16,0,2.31-0.26,3.36-0.76c0.94-0.49,1.77-1.18,2.42-2.01c0.65-0.83,1.13-1.78,1.42-2.8
	C646.94,525.27,647.11,524.19,647.09,523.1z"/>
<path d="M631.66,494.29v18.9h0.19c0.38-0.5,0.8-0.96,1.27-1.38c0.59-0.52,1.22-0.99,1.9-1.38c0.8-0.44,1.65-0.78,2.54-1.01
	c1.08-0.31,2.2-0.47,3.32-0.45c1.77,0,3.52,0.36,5.14,1.07c1.62,0.71,3.08,1.74,4.29,3.03c1.19,1.31,2.1,2.84,2.68,4.51
	c0.64,1.77,0.95,3.64,0.93,5.52c0.01,1.9-0.29,3.79-0.89,5.59c-0.6,1.66-1.49,3.21-2.65,4.55c-1.2,1.38-2.69,2.47-4.37,3.2
	c-1.68,0.73-3.49,1.07-5.32,1.01c-1.85,0.01-3.68-0.41-5.33-1.23c-1.65-0.82-3.02-2.12-3.91-3.73v4.03h-6.37v-42.24H631.66z
	 M647.09,523.1c0-1.05-0.16-2.09-0.48-3.09c-0.3-1.01-0.78-1.96-1.42-2.8c-0.66-0.82-1.49-1.5-2.42-1.98
	c-1.07-0.52-2.24-0.77-3.43-0.75c-1.14-0.02-2.27,0.25-3.28,0.78c-0.96,0.5-1.8,1.19-2.5,2.01c-0.71,0.82-1.24,1.77-1.57,2.8
	c-0.37,1-0.55,2.06-0.56,3.13c0,1.07,0.19,2.13,0.56,3.13c0.33,1.02,0.86,1.96,1.57,2.76c0.69,0.83,1.54,1.51,2.5,2.01
	c1.05,0.5,2.19,0.76,3.36,0.76c1.16,0,2.31-0.26,3.36-0.76c0.94-0.49,1.77-1.18,2.42-2.01c0.65-0.83,1.13-1.78,1.42-2.8
	C646.94,525.27,647.11,524.19,647.09,523.1z"/>
<path d="M412.68,371.56H218.23c-0.38,0-0.76-0.12-1.07-0.34c-0.31-0.22-0.55-0.53-0.68-0.89c-0.12-0.37-0.13-0.76-0.02-1.13
	c0.11-0.37,0.32-0.7,0.62-0.95l194.45-152.29c0.19-0.18,0.41-0.31,0.65-0.4c0.24-0.09,0.5-0.12,0.76-0.1
	c0.26,0.02,0.51,0.09,0.74,0.21c0.23,0.12,0.43,0.29,0.59,0.49c0.16,0.2,0.28,0.44,0.34,0.68c0.07,0.25,0.08,0.51,0.04,0.77
	c-0.04,0.25-0.13,0.5-0.27,0.72c-0.14,0.22-0.32,0.4-0.54,0.55L223.71,367.99h189.04c0.49,0.01,0.96,0.21,1.31,0.56
	c0.35,0.35,0.55,0.82,0.56,1.31c-0.04,0.48-0.26,0.93-0.62,1.25C413.64,371.42,413.17,371.58,412.68,371.56z"/>
<path d="M290.11,386.51c-0.36-0.01-0.7-0.11-1.01-0.3c-0.41-0.27-0.71-0.69-0.82-1.17c-0.11-0.48-0.03-0.98,0.22-1.41
	c0.26-0.37,24.01-39.93-25.46-93.2c-0.34-0.35-0.54-0.83-0.54-1.32c0-0.49,0.19-0.97,0.54-1.32c0.17-0.18,0.38-0.31,0.61-0.41
	c0.23-0.09,0.47-0.14,0.72-0.14c0.25,0,0.49,0.05,0.72,0.14c0.23,0.1,0.43,0.23,0.61,0.41c26.8,28.82,32.47,53.72,32.51,69.53
	c0.28,9.78-2.01,19.46-6.64,28.07c-0.13,0.3-0.33,0.55-0.58,0.75S290.42,386.46,290.11,386.51z"/>
</svg>
