<?xml version="1.0" encoding="utf-8"?>
<!-- Generator: Adobe Illustrator 24.3.0, SVG Export Plug-In . SVG Version: 6.00 Build 0)  -->
<svg version="1.1" id="Слой_1" xmlns="http://www.w3.org/2000/svg" xmlns:xlink="http://www.w3.org/1999/xlink" x="0px" y="0px"
	 viewBox="0 0 1000 1000" style="enable-background:new 0 0 1000 1000;" xml:space="preserve">
<style type="text/css">
	.st0{fill:none;stroke:#000000;}
	.st1{fill:none;stroke:#000000;stroke-linecap:round;stroke-linejoin:round;}
	.st2{fill:#FFFFFF;}
	.st3{fill:#FFFFFF;stroke:#000000;stroke-linecap:round;stroke-linejoin:round;}
</style>
<circle class="st0" cx="527.03" cy="544.31" r="310.61"/>
<circle class="st0" cx="527.03" cy="544.31" r="373.69"/>
<path class="st1" d="M664.08,468.85c0,0,125.9-86.3,158.82-109.93c32.92-23.63,100.47-71.61,100.47-71.61"/>
<path class="st1" d="M755.31,628.83c0,0,49.17-25.04,71.54-44.72c22.37-19.68,173.46-119.56,173.46-119.56"/>
<path class="st1" d="M1.58,482.75c0,0,233.11,108.28,256.06,110.96c15.83,1.88,46.97,15.86,46.97,15.86"/>
<path class="st1" d="M317.31,457.58l-14.51-7.21L90.79,309.04"/>
<path class="st1" d="M342.47,468.48c-0.31-4.22-1.52-8.32-3.54-12.03c-0.19-0.26-0.45-0.48-0.73-0.63
	c-0.29-0.15-0.61-0.24-0.93-0.26c-0.33-0.02-0.65,0.04-0.95,0.17c-0.3,0.13-0.57,0.32-0.79,0.56c-1.39,2.84-2.24,5.92-2.5,9.07
	c-7.13,51.64-10.93,103.68-11.36,155.81c0.23,12.01,1.19,19.93,3.12,20.99c1.21,0.83,2.69,1.16,4.14,0.9
	c4.73-1.23,3.2-12.88,3.2-12.88"/>
<path class="st1" d="M339.13,456.28c-0.53-6.75-15.07-9.99-19.35-4.35c-0.77,1.86-1.27,3.83-1.48,5.83
	c-4.01,23.07-11.29,107.17-13.14,151.83c-0.82,9.22-0.75,18.51,0.22,27.72c3.89,11.36,18.25,9.56,23.65,5.98"/>
<path class="st1" d="M333.02,465.35l9.27,3.6c15.03,5.83,43.43,16.82,47.06,18.1c1.74,0.92,3.67,1.4,5.64,1.4
	c1.96,0,3.9-0.48,5.64-1.4c5.15-1.95,65.67-33.82,77.9-36.73c12.23-2.91,36.51,1.1,36.51,1.1"/>
<path class="st1" d="M321.66,621.15c0,0,4.59,3.18,10.98,7.48c5.78,3.9,13.06,8.7,19.75,12.88c5.1,3.35,10.4,6.38,15.88,9.07"/>
<path class="st1" d="M753.5,594.38c0,7.63,4.57,19.91,1.41,34.36c-3,13.75-12.99,29.44-40.52,44.99"/>
<path class="st1" d="M688.81,481.09c-7.68-5.12-16.05-9.11-24.86-11.85c-6.27-2.08-12.7-3.64-19.22-4.68
	c-27.61-4.41-84.63-28.45-107.32-21.77c-7.66,2.31-15.14,5.2-22.37,8.65c-12.14,5.66-22.8,11.8-34.17,15.77
	c-17.81,6.23-33.98,3.29-38.86,29.32c-4.88,26.04-4.15,58.01-9.05,79.69c-0.63,2.64-0.65,5.39-0.05,8.04
	c3.68,16.3,30.97,22.69,48.85,0.11c11.34-13.81,17.48-31.16,17.35-49.03c-0.04-5.04-0.6-10.06-1.7-14.98"/>
<path class="st1" d="M499.82,535.34c0,0,8.22-3.31,10.19-9.21c0,0,26.72-3.52,36.42-5.13c9.7-1.61,121.68,73.24,149.14,123.76"/>
<path class="st1" d="M695.56,644.75c6.85,9.15,12.61,19.07,17.17,29.55c2.98,7.7,4.12,15.03,0.53,19.28
	c-12.38,14.72-27.52,10.39-38.14-1.84c-0.53-0.59-1.05-1.23-1.58-1.88c-10.68-13.64-38.09-46.94-38.09-46.94l-22.87-14.19"/>
<path class="st1" d="M572.6,580.25c0.47,4.87,1.69,9.63,3.62,14.12c1.5,1.73,21.48,19.75,36.4,34.36c5.33,4.99,10.34,10.32,15,15.95
	c6.12,8.35,30.21,32.94,41.03,49.79c2.78,3.65,4.61,7.93,5.31,12.46c-0.23,3.31-1.24,6.53-2.96,9.37c-1.72,2.84-4.08,5.24-6.91,6.99
	c-2.83,1.75-6.03,2.8-9.34,3.06c-3.31,0.26-6.64-0.27-9.7-1.54c-0.38-0.16-0.75-0.35-1.09-0.58c-9.16-5.67-54.23-46.1-61.23-52.7
	l-0.03-0.04"/>
<path class="st1" d="M642.72,726.06c-0.47,2.45-1.5,4.76-3.02,6.75c-1.52,1.98-3.48,3.58-5.72,4.68c-3.19,2-6.76,3.32-10.49,3.88
	c-3.73,0.55-7.53,0.33-11.16-0.67c-3.26-1.58-6.4-3.38-9.41-5.4"/>
<path class="st1" d="M612.33,740.7c-6.4,7.93-15.15,13.62-24.98,16.26c-2.07,0.75-4.28,1.03-6.47,0.84
	c-2.19-0.19-4.32-0.86-6.23-1.96"/>
<path class="st1" d="M546.42,520.99c0,0,8.17-8.09,8.17-12.7"/>
<path class="st1" d="M510,526.12c0.72-3.8,0.72-7.69,0-11.49"/>
<path class="st1" d="M432.48,582.58c0,0.59,0.14,1.17,0.41,1.7c3.27,6.61,26.2,4.48,33.55-6.54c7.93-11.91-1.76-27.73-1.76-27.73"/>
<path class="st1" d="M437.36,545.71c0,0,5.89-0.45,13.67-1.36"/>
<path class="st1" d="M692.94,694.49c5.38-1.59,10.32-4.4,14.43-8.2"/>
<path class="st1" d="M675.13,691.74c0,0-6.36,2.94-6.49,2.75"/>
<path class="st1" d="M355.82,657.85c3.8-2.87,8.03-5.11,12.54-6.63c1.11-0.33,2.26-0.54,3.42-0.61c7.06-0.4,20.45-1.81,29.41,11.67
	c3.9,6.27,5.49,13.71,4.48,21.03c-0.42,2.84-1.55,5.52-3.28,7.81c-1.73,2.29-4.01,4.1-6.63,5.27c-5.12,2.33-10.53,3.97-16.08,4.88
	c-12.34,2.08-25.17,0.96-30.8-4.59c-9.46-9.34-19.64-30.8,2.46-53.47"/>
<path class="st1" d="M447.13,679.41c-4.17,3.04-7.64,5.62-9.79,7.21"/>
<path class="st1" d="M379.69,701.24c0,0,6.92,27.13,21.43,30.89c13.3,4.29,27.24,6.25,41.21,5.78c7.35-0.55,14.52-2.51,21.12-5.78
	c0,0,48.2-25.76,55.45-37.63c3.77-5.46,5.64-12.01,5.33-18.64c-0.46-4.38-2.33-8.49-5.33-11.71c-11.08-12.43-26.09-13.05-40.22-5.44
	c-10.9,6.27-21.43,13.18-31.51,20.7"/>
<path class="st1" d="M447.17,679.42h-0.02l-41.12,3.94"/>
<path class="st1" d="M479.65,677.25c-3.42,4.05-5.29,9.19-5.26,14.49c0.26,2.23,1.05,4.36,2.33,6.22c1.27,1.85,2.98,3.36,4.97,4.39
	s4.21,1.57,6.45,1.54c2.25-0.02,4.45-0.6,6.42-1.67c9.34-5.17,24.3-15.63,20.18-24.97"/>
<path class="st1" d="M486.07,671.52c3.26-2.89,7.24-4.86,11.53-5.69c3.01-0.13,5.96,0.89,8.26,2.84"/>
<path class="st1" d="M572.53,661.77c-11.85-6.74-24.83-4.21-36.03,4.55c-12.36,9.7-6.94,3.97-12.28,9.54
	c-0.11,0.11-0.22,0.24-0.34,0.36"/>
<path class="st1" d="M442.35,738.17c2.86,9.12,9.21,16.75,17.67,21.21c8.87,4.17,14.65,10.25,39.33-0.04
	c11.94-5.23,23.51-11.27,34.62-18.08c0,0,38.9-30.26,47.2-44.37c0.41-0.67,0.76-1.37,1.05-2.1c1.8-3.59,2.78-7.54,2.87-11.56
	c0.09-4.02-0.71-8.01-2.35-11.68c-1.4-2.6-3.32-4.88-5.65-6.69c-1.41-1.13-2.91-2.15-4.48-3.03"/>
<path class="st1" d="M540.61,684.42c-2.67,4.58-3.63,9.96-2.69,15.18c0.63,2.15,1.78,4.12,3.35,5.72c1.57,1.61,3.51,2.8,5.65,3.48
	c2.14,0.68,4.41,0.83,6.62,0.43c2.21-0.4,4.28-1.34,6.04-2.73c8.35-6.68,21.3-19.53,15.66-28.04"/>
<path class="st1" d="M545.95,677.67c2.72-3.4,6.31-6.01,10.39-7.55c2.95-0.64,6.04-0.14,8.64,1.39"/>
<path class="st1" d="M499.85,760.53c1.01,3.4,2.78,6.53,5.17,9.15s5.35,4.67,8.65,5.98c10.64,5,23.83,1.12,53.57-16.35
	c0,0,1.93-1.34,4.95-3.52c9.09-6.44,17.74-13.47,25.92-21.03c2.43-2.24,4.58-4.78,6.4-7.54c6.83-11.52,6.6-18.66-0.94-24.66
	c-2.83-2.68-6.32-4.57-10.11-5.48c-3.79-0.91-7.75-0.81-11.49,0.29"/>
<path class="st1" d="M573.87,714.93c-2.07,3.54-2.8,7.7-2.08,11.73c0.49,1.67,1.37,3.19,2.59,4.44c1.21,1.24,2.71,2.17,4.37,2.7
	c1.66,0.53,3.42,0.64,5.13,0.33c1.71-0.31,3.32-1.04,4.68-2.12c6.45-5.17,16.48-15.1,12.09-21.7"/>
<path class="st1" d="M578.02,709.7c2.11-2.64,4.9-4.65,8.06-5.84c2.28-0.5,4.66-0.11,6.67,1.09"/>
<path class="st1" d="M554.59,638.88l6.05,11.54l11.89,11.34l0.07,0.06"/>
<path class="st1" d="M395.77,696.36c-5.25-2.41-10.04-5.71-14.15-9.77c-2.79-3.63-4.73-7.85-5.66-12.34
	c-0.2-1.01-0.65-1.96-1.33-2.74c-0.67-0.78-1.54-1.38-2.51-1.73c-0.97-0.35-2.02-0.44-3.04-0.26c-1.02,0.18-1.97,0.62-2.77,1.28
	c-2.53,1.87-4.3,4.59-4.99,7.66c-0.8,3.52-0.39,7.21,1.17,10.48c1.55,3.26,4.16,5.91,7.4,7.51"/>
<rect x="762.93" y="370.61" transform="matrix(0.8213 -0.5704 0.5704 0.8213 -112.1374 561.7045)" class="st2" width="155.45" height="178.51"/>
<rect x="112.8" y="388.03" transform="matrix(0.5519 -0.8339 0.8339 0.5519 -304.8573 364.1539)" class="st2" width="147.24" height="155.45"/>
<rect x="173.65" y="505.14" transform="matrix(0.4043 -0.9146 0.9146 0.4043 -389.3294 497.4597)" class="st2" width="27.12" height="84.92"/>
<path class="st2" d="M463.34,403.75l-15.44,3.17l-3.19-15.44l-51.48-249.89l189.91-39.14l15.44-3.18l3.19,15.43v0.01"/>
<path class="st1" d="M463.34,403.75l-15.44,3.17l-3.19-15.44l-51.48-249.89l189.91-39.14l15.44-3.18l3.19,15.43v0.01"/>
<path class="st3" d="M674.21,375.1l-207.7,44.08l-3.17-15.42l-51.49-249.91l189.92-39.14l15.43-3.17L674.21,375.1z"/>
<path class="st1" d="M451.79,182.41l140.02-28.85"/>
<path class="st1" d="M465.87,211.71l140.02-28.86"/>
<path class="st1" d="M453.61,230.33l155.46-32.04"/>
<path class="st1" d="M456.78,245.77l155.46-32.03"/>
<path class="st1" d="M459.98,261.21l109.13-22.5"/>
<path class="st1" d="M478.59,273.47l140.02-28.85"/>
<path class="st1" d="M466.34,292.08l155.46-32.02"/>
<path class="st1" d="M469.52,307.52l155.46-32.03"/>
<path class="st1" d="M488.13,319.79l140.04-28.86"/>
<path class="st1" d="M475.88,338.41l155.46-32.03"/>
<path class="st1" d="M479.06,353.85l155.46-32.03"/>
<path class="st1" d="M528.7,383.86l15.85-3.26l18.83-3.89l39.12-8.07l7.43-1.54l12.47-2.56"/>
<path class="st1" d="M574.8,360.05c-0.49,1.79-3.53,13.07,0.66,13.19c4.52,0.13,14.83-25.87,14.83-25.87s-5.05,21.12,1.06,21.55
	c6.11,0.44,5.22-15.02,10.52-16.46c3.73-1.02,0.64,10.02,0.64,16.21c0,2.65,0.57,4.42,2.48,3.93c2.38-0.59,3.81-2.83,4.94-5.47
	c1.86-4.42,2.92-9.92,6.23-10.75"/>
<path class="st1" d="M555.16,367.64c2.16,5.25,5.4,9.33,8.13,8.69c6.21-1.5,10.84-14.38,11.5-16.29c0.01-0.06,0.03-0.11,0.05-0.17
	v-0.05"/>
<path class="st1" d="M555.16,367.64c5.01-9.45,7.78-20.54,1.79-19C551.13,350.14,552.06,360.08,555.16,367.64z"/>
<path class="st1" d="M544.44,380.05c3.36-0.91,7.51-6.31,10.73-12.4"/>
<path class="st1" d="M519.02,365.48l-7.76,11.8l-7.76,11.78"/>
<path class="st1" d="M499.46,369.52l11.8,7.76l11.78,7.75"/>
<path class="st1" d="M444.71,391.47l-15.44,3.19l-54.67-265.36L579.96,87l3.17,15.44"/>
<path d="M583.14,102.44l-189.91,39.14l51.48,249.89l-15.44,3.19l-54.67-265.36L579.96,87L583.14,102.44z"/>
</svg>
