<?xml version="1.0" encoding="utf-8"?>
<!-- Generator: Adobe Illustrator 24.3.0, SVG Export Plug-In . SVG Version: 6.00 Build 0)  -->
<svg version="1.1" id="Слой_1" xmlns="http://www.w3.org/2000/svg" xmlns:xlink="http://www.w3.org/1999/xlink" x="0px" y="0px"
	 viewBox="0 0 1000 1000" style="enable-background:new 0 0 1000 1000;" xml:space="preserve">
<style type="text/css">
	.st0{fill:#FFFFFF;}
</style>
<path class="st0" d="M996.96,482.04c0.76-9.75,0.57-19.55-0.57-29.27c-4.58-36.64-22.21-70.4-49.67-95.08
	c-28.26-24.84-48.14-17.3-82.87-23.49c-14.04-2.46-28.49-0.65-41.48,5.21c1.82-53.63-19.25-97.34-61.61-130.28
	c-86.82-67.35-188.72-39.38-256.51,37.21c-31.15-56.68-78.78-98.25-147.96-86.45c-59.47,10.14-109.15,62.52-116.18,122.46
	c-25.12-9.42-54.23-5.02-78.5,6.75s-44.78,30.08-63.99,49.05c-23.17,22.83-45.59,47.51-58.47,77.37
	c-8.73,20.25-8.76,40.98-9.01,62.58c0,3.58,7.03,57.84,13.31,52.56c-95.18,79.91-2.7,227.5,96.46,249.48
	c43.96,9.76,93.04-0.85,126.45-31.15c40.73,27.48,86.37,46.88,134.43,57.12c66.41,14.16,137.63,19.59,203.1-1.95
	c16.64-5.46,31.21-13.85,47.1-21.04c19.22-8.73,22.29-1.07,42.3,5.37c33.6,10.8,70.81,7.32,104.12-2.83
	c35.61-10.83,73.26-35.26,75.86-72.41c37.99,2.61,77.9-14.07,98.75-45.91c20.86-31.84,18.84-78.31-8.13-105.16
	c4.93,4.9,27.88-45.97,28.92-50.71C994.91,501.79,996.3,491.95,996.96,482.04z"/>
<path d="M507.8,819.98c-36.13-0.43-72.11-4.64-107.36-12.56c-47.83-10.27-93.28-29.5-133.95-56.68
	c-32.69,29.08-81.2,40.82-126.92,30.71C79.91,768.23,21.34,708.69,5.96,645.89c-11.02-44.71,1.16-85.54,34.26-114.49
	c-6.75-7.63-11.68-51.43-11.65-53.38v-1.51c0.25-21.41,0.5-41.61,9.14-61.7c13.13-30.3,36.02-55.42,58.81-77.78
	c18.9-18.46,39.72-37.52,64.37-49.42c26.53-12.84,54.79-15.7,77.94-7.51c7.91-59.66,57.97-111.69,117.22-121.83
	c60.16-10.27,111.5,19.22,148.52,85.32c34.35-38.06,77.09-63.49,120.51-71.37c48.11-8.73,95.21,3.61,136.62,35.67
	c42.45,32.94,63.4,76.37,62.3,129.12c12.7-5.2,26.61-6.7,40.13-4.33c8.74,1.51,17.56,2.56,26.41,3.14
	c20.5,1.54,36.68,2.73,57.21,20.88c27.72,24.95,45.56,59.05,50.24,96.05c1.15,9.82,1.34,19.72,0.57,29.58
	c-0.73,9.94-2.15,19.81-4.27,29.55c-0.82,3.71-18.65,44.75-27.36,51.34c24.81,26.85,27.76,72.22,6.28,105.03
	c-20.09,30.71-58.65,48.92-98.63,46.72c-2.51,24.68-23.9,56.14-76.87,72.22c-26.66,8.1-66.54,15.2-105.03,2.83
	c-4.53-1.48-8.97-3.21-13.31-5.18c-9.61-4.24-14.44-6.28-27.85-0.25c-4.93,2.23-9.83,4.65-14.54,6.97
	c-10.54,5.46-21.44,10.18-32.63,14.13C573.14,815.57,540.54,820.39,507.8,819.98z M266.36,747.31c0.31,0.01,0.61,0.1,0.88,0.25
	c40.58,27.33,86.02,46.65,133.86,56.9c80.26,17.11,146.45,16.49,202.31-1.88c11.01-3.91,21.73-8.58,32.09-13.97
	c4.74-2.32,9.64-4.74,14.63-7c14.66-6.69,20.6-4.08,30.43,0.22c4.23,1.92,8.56,3.61,12.97,5.06c37.68,12.15,76.93,5.18,103.18-2.83
	c52.56-15.98,73.1-47.1,74.8-71c0.01-0.21,0.07-0.41,0.16-0.59c0.09-0.19,0.22-0.35,0.37-0.49c0.15-0.14,0.33-0.24,0.53-0.31
	c0.2-0.07,0.4-0.1,0.61-0.08c39.38,2.7,77.59-15.04,97.34-45.22c21.2-32.31,17.71-77.65-7.91-103.18c-0.14-0.15-0.26-0.32-0.34-0.51
	c-0.08-0.19-0.12-0.4-0.12-0.6c0-0.21,0.05-0.41,0.12-0.6c0.08-0.19,0.2-0.37,0.34-0.51c0.26-0.26,0.61-0.41,0.98-0.44
	c0.37-0.03,0.73,0.07,1.04,0.29c5.14-1.7,25.11-43.4,26.47-49.74c2.11-9.59,3.51-19.32,4.2-29.11c0.77-9.66,0.58-19.36-0.57-28.98
	c-4.51-36.3-21.98-69.74-49.17-94.2c-19.72-17.43-35.42-18.62-55.32-20.1c-8.97-0.57-17.9-1.62-26.75-3.14
	c-13.72-2.4-27.84-0.61-40.54,5.12c-0.25,0.11-0.52,0.16-0.79,0.14c-0.27-0.02-0.53-0.11-0.75-0.26c-0.22-0.15-0.41-0.36-0.53-0.6
	c-0.12-0.24-0.18-0.51-0.16-0.78c1.79-52.78-18.84-96.18-61.01-128.99c-40.6-31.4-87.01-43.65-134.14-35.07
	c-43.27,8.1-85.97,33.6-120.11,72.25c-0.17,0.18-0.38,0.32-0.62,0.42c-0.23,0.09-0.48,0.13-0.73,0.12c-0.25-0.03-0.5-0.12-0.71-0.26
	c-0.21-0.14-0.39-0.33-0.52-0.55c-45.97-83.59-104.94-92.73-146.3-85.66c-58.59,9.99-107.99,62.05-114.89,121.08
	c-0.03,0.24-0.11,0.46-0.24,0.66c-0.13,0.2-0.3,0.37-0.5,0.49c-0.2,0.12-0.43,0.19-0.67,0.21c-0.24,0.02-0.47-0.02-0.69-0.11
	c-22.67-8.54-50.84-5.97-77.31,6.59c-24.18,11.84-44.87,30.52-63.55,48.98c-22.58,22.23-45.22,47.1-58.12,76.87
	c-8.38,19.5-8.64,39.41-8.89,60.48v1.51c0,5.59,6.53,48.29,10.83,51.25c0.32-0.23,0.71-0.33,1.1-0.28c0.39,0.05,0.75,0.24,1,0.53
	c0.27,0.32,0.39,0.74,0.36,1.15c-0.04,0.42-0.23,0.8-0.55,1.08C10.64,560.36-1.92,600.55,9,645.14
	c15.14,61.73,72.79,120.26,131.25,133.23c45.15,10.02,93.07-1.79,125.04-30.77C265.6,747.38,265.98,747.28,266.36,747.31z"/>
<path class="st0" d="M355.79,635.72c-32.06,0-32.25-4.68-38.21-21.98c-10.74-31.21-31.02-55.17-52.19-79.76
	c-78.5-91.06-51.68-233.53,81.89-257.48c90.56-16.36,166.27,31.56,181.78,119.7c7.69,43.74-2.04,85.25-26.53,122.02
	c-16.67,25.12-30.43,50.46-35.23,80.57c-3.14,19.41-1.66,30.87-35.73,30.87c-12.34,0-24.65,1.92-36.96,2.95
	C381.66,633.33,368.76,635.72,355.79,635.72z"/>
<path d="M355.79,637.13c-30.68,0-33.22-3.99-39-20.98l-0.69-2.1c-10.86-31.59-31.75-55.8-51.91-79.22
	c-41.23-47.85-54.89-111.38-35.61-165.79c17.84-50.24,59.88-83.87,118.41-94.45c46.25-8.32,90.25,0,123.84,23.39
	c31.75,21.98,52.44,55.89,59.66,97.59c7.56,42.98-2.05,87.21-26.75,123.18c-14.48,21.7-29.92,48.14-35.01,79.95
	c-0.25,1.6-0.47,3.14-0.69,4.68c-2.42,16.55-3.99,27.51-36.58,27.51c-8.4,0.15-16.78,0.75-25.12,1.79
	c-3.92,0.41-7.82,0.82-11.74,1.16c-4.4,0.38-8.76,0.85-13.16,1.35C372.94,636.32,364.37,636.97,355.79,637.13z M381.63,274.61
	c-11.43,0.02-22.83,1.07-34.07,3.14c-57.37,10.36-98.57,43.18-116.18,92.41c-18.84,53.38-5.46,115.68,35.04,162.69
	c20.35,23.64,41.42,48.07,52.47,80.26l0.72,2.1c5.18,15.23,6.44,18.84,36.02,18.84c8.51-0.16,17-0.8,25.43-1.92
	c4.4-0.5,8.82-1.01,13.25-1.38c3.89-0.31,7.79-0.72,11.68-1.16c8.43-1.04,16.91-1.64,25.4-1.79c29.86,0,31.06-8.29,33.47-24.84
	c0.22-1.51,0.44-3.14,0.72-4.71c5.15-32.37,20.82-59.22,35.48-81.2c24.96-37.46,33.79-78.12,26.28-120.89
	c-7.19-40.82-27.41-73.89-58.47-95.55C443.16,283.2,412.7,274.12,381.63,274.61z"/>
<path class="st0" d="M340.71,674.56l114.57-9.46c4.77-0.39,8.32-4.58,7.92-9.35l-1.67-20.18c-0.39-4.77-4.58-8.32-9.35-7.92
	l-114.57,9.46c-4.77,0.39-8.32,4.58-7.92,9.35l1.67,20.18C331.75,671.41,335.94,674.96,340.71,674.56z"/>
<path d="M339.96,676.19c-2.57,0-5.05-0.97-6.94-2.71c-1.89-1.75-3.05-4.14-3.26-6.71l-1.66-20.16c-0.11-1.34,0.05-2.7,0.47-3.98
	c0.41-1.28,1.08-2.47,1.95-3.5c0.88-1.03,1.94-1.87,3.14-2.48c1.2-0.61,2.51-0.98,3.85-1.09l114.55-9.42
	c2.71-0.21,5.4,0.67,7.47,2.43c2.07,1.77,3.36,4.28,3.58,6.99l1.66,20.16c0.11,1.34-0.05,2.7-0.47,3.98
	c-0.42,1.28-1.08,2.47-1.95,3.5c-0.88,1.03-1.94,1.87-3.14,2.48c-1.2,0.61-2.51,0.98-3.86,1.09l-114.55,9.42H339.96z M452.85,629.22
	h-0.57l-114.55,9.42c-0.93,0.08-1.84,0.33-2.67,0.76c-0.83,0.43-1.57,1.01-2.17,1.72c-0.6,0.71-1.06,1.54-1.35,2.42
	c-0.29,0.89-0.39,1.82-0.31,2.75l1.66,20.16c0.16,1.88,1.06,3.61,2.49,4.83c1.43,1.22,3.29,1.82,5.17,1.67l114.55-9.42
	c0.93-0.07,1.84-0.33,2.67-0.76c0.83-0.43,1.57-1.01,2.17-1.72c0.6-0.71,1.06-1.54,1.35-2.42c0.28-0.89,0.39-1.83,0.31-2.76
	l-1.7-20.16c-0.15-1.77-0.96-3.42-2.27-4.63C456.34,629.89,454.63,629.22,452.85,629.22z"/>
<path class="st0" d="M343.82,712l114.57-9.46c4.77-0.39,8.32-4.58,7.92-9.35L464.64,673c-0.39-4.77-4.58-8.32-9.35-7.92
	l-114.57,9.46c-4.77,0.39-8.32,4.58-7.92,9.35l1.67,20.18C334.86,708.84,339.05,712.39,343.82,712z"/>
<path d="M343.07,713.65c-2.57,0-5.05-0.97-6.94-2.71c-1.89-1.75-3.05-4.14-3.26-6.71l-1.66-20.19c-0.11-1.34,0.05-2.69,0.47-3.97
	s1.08-2.47,1.96-3.49c0.88-1.02,1.94-1.87,3.14-2.48c1.2-0.61,2.51-0.98,3.85-1.08l114.55-9.42c1.34-0.11,2.7,0.05,3.98,0.47
	c1.28,0.42,2.47,1.08,3.5,1.95c1.03,0.88,1.87,1.94,2.48,3.14c0.61,1.2,0.98,2.51,1.09,3.86l1.66,20.19
	c0.11,1.34-0.05,2.7-0.47,3.98c-0.42,1.28-1.08,2.47-1.95,3.5c-0.88,1.03-1.94,1.87-3.14,2.48c-1.2,0.61-2.51,0.98-3.86,1.09
	l-114.55,9.42h-0.85V713.65z M455.96,666.68h-0.6l-114.55,9.42c-1.87,0.16-3.61,1.06-4.82,2.49c-1.21,1.44-1.81,3.3-1.65,5.17
	l1.66,20.19c0.16,1.87,1.06,3.61,2.49,4.82c1.44,1.21,3.3,1.81,5.17,1.65L458.22,701c0.93-0.07,1.83-0.33,2.66-0.76
	c0.83-0.43,1.57-1.01,2.17-1.72c0.6-0.71,1.06-1.54,1.34-2.42c0.28-0.89,0.38-1.82,0.3-2.75l-1.66-20.19
	c-0.16-1.76-0.98-3.4-2.28-4.6C459.43,667.35,457.73,666.69,455.96,666.68z"/>
<path d="M349.95,711.55c1.16,14.13,25.12,23.68,53.22,21.32c28.1-2.36,50.24-15.7,49.02-29.77L349.95,711.55z"/>
<path d="M394.54,734.82c-25.43,0-45.03-9.42-46.16-23.14c-0.03-0.41,0.11-0.82,0.38-1.14c0.27-0.32,0.65-0.52,1.07-0.56l102.24-8.32
	c0.41-0.03,0.82,0.11,1.14,0.38c0.32,0.27,0.52,0.65,0.56,1.06c1.26,15.2-20.91,29.05-50.46,31.4
	C400.33,734.71,397.41,734.82,394.54,734.82z M351.74,712.84c1.22,5.59,6.56,10.49,15.26,13.97c11.53,4.15,23.85,5.66,36.05,4.4
	c26.22-2.17,46.94-13.88,47.6-26.53L351.74,712.84z"/>
<path d="M361.76,616.63c-0.21-0.01-0.41-0.07-0.6-0.16c-0.19-0.09-0.36-0.22-0.49-0.38c-0.14-0.16-0.24-0.34-0.31-0.54
	c-0.07-0.2-0.09-0.41-0.07-0.62c2.52-32.6,0.97-65.38-4.62-97.59c-8.43-1.88-16.6-4.77-24.34-8.6
	c-13.56-6.2-25.03-16.19-33.03-28.76c-8.13-13.75-9.42-30.3-3.64-43.18c0.82-2.21,2.17-4.19,3.94-5.74c1.77-1.56,3.9-2.65,6.2-3.18
	c9.7-1.95,20.16,6.91,23.11,9.67c18.46,17.14,24.37,46.63,29.11,70.31l0.6,3.14l0.75,3.86c15.41,3.17,31.31,3.17,46.72,0
	c0.35-7.83,1.19-15.63,2.51-23.36c4.3-25.12,10.83-43.8,19.47-55.33c2.76-3.17,6.14-5.74,9.94-7.55c3.79-1.81,7.92-2.82,12.12-2.97
	c4.2-0.15,8.39,0.56,12.3,2.1c3.91,1.53,7.47,3.85,10.45,6.82c3.42,4.38,5.68,9.56,6.56,15.05c0.88,5.49,0.37,11.11-1.51,16.35
	c-3.77,10.21-10.23,19.21-18.68,26.06c-14.35,12.55-31.63,21.27-50.24,25.37c-1.13,30.24,3.99,60.7,8.98,90.37l0.63,3.7
	c0.06,0.41-0.03,0.83-0.28,1.17c-0.24,0.34-0.6,0.57-1.01,0.65c-0.41,0.06-0.82-0.04-1.16-0.28c-0.34-0.24-0.56-0.6-0.63-1.01
	l-0.63-3.7c-4.99-29.58-10.08-59.98-9.08-90.21c-15.18,3.05-30.8,3.1-46,0.16c5.46,32.07,6.96,64.69,4.46,97.12
	c-0.08,0.35-0.27,0.67-0.55,0.89C362.47,616.49,362.12,616.62,361.76,616.63z M307.5,430.74c-0.74,0.01-1.47,0.08-2.2,0.22
	c-1.8,0.45-3.46,1.33-4.84,2.57c-1.38,1.24-2.42,2.81-3.05,4.55c-2.64,6.51-3.7,13.56-3.1,20.56c0.61,7,2.86,13.76,6.58,19.72
	c7.72,12.05,18.74,21.62,31.75,27.57c7.11,3.5,14.59,6.19,22.29,8.04c-0.16-0.82-0.35-1.66-0.5-2.48l-0.6-3.14
	c-4.68-23.24-10.46-52.13-28.26-68.61C320.75,435.26,313.65,430.74,307.5,430.74z M450.24,428.47h-1.16
	c-3.75,0.01-7.44,0.85-10.83,2.45c-3.39,1.6-6.38,3.93-8.76,6.82c-8.32,11.15-14.66,29.3-18.84,53.98
	c-1.23,7.34-2.03,14.74-2.42,22.17c17.74-4.09,34.2-12.49,47.92-24.46c8.03-6.5,14.17-15.03,17.77-24.71
	c1.68-4.71,2.16-9.76,1.39-14.69c-0.77-4.94-2.77-9.6-5.81-13.57c-2.46-2.62-5.45-4.68-8.77-6.05
	C457.41,429.02,453.83,428.37,450.24,428.47z"/>
<path d="M493.14,623.97c1.29-4.99,2.51-9.95,3.83-14.92c0.69-2.57,1.51-5.12,2.32-7.66c0.41-1.6,1.37-3,2.7-3.97
	c1.33-0.97,2.97-1.44,4.61-1.34c3.96,0,7.88,0.63,11.84,0.94c2.08,0.3,4.18,0.41,6.28,0.31c1.57-0.07,3.06-0.68,4.24-1.73
	c4.14-4.65,8.1-9.42,11.99-14.32c0.64-0.9,1.06-1.94,1.2-3.04c0.14-1.1,0.01-2.21-0.38-3.24c-1.35-4.68-2.89-9.42-4.24-13.94
	c-0.57-1.8-0.89-3.67-0.94-5.56c0-0.69,0.13-1.38,0.4-2.02c0.26-0.64,0.65-1.22,1.14-1.72c6.85-5.29,14.46-9.53,22.58-12.56
	c1.19-0.49,2.52-0.57,3.76-0.23c1.24,0.34,2.34,1.08,3.12,2.11c3.33,3.86,6.78,7.63,9.99,11.59c1.04,1.52,2.51,2.71,4.21,3.41
	s3.58,0.88,5.39,0.52c5.12-0.79,10.33-1.29,15.48-1.95c0.95-0.12,1.85-0.47,2.63-1.02c0.78-0.55,1.42-1.28,1.86-2.12
	c1.63-2.89,3.14-5.84,4.74-8.73c1.6-2.89,2.7-4.99,4.18-7.44c0.61-1.26,1.64-2.26,2.92-2.83s2.71-0.68,4.05-0.31
	c7.38,1.92,14.76,3.89,21.98,6.06c1.39,0.42,2.59,1.31,3.4,2.52c0.81,1.21,1.17,2.66,1.03,4.1c0,4.02-0.66,8.01-0.97,12.03
	c-0.16,1.88-0.28,3.77-0.28,5.68c-0.03,1.2,0.21,2.39,0.72,3.48c0.51,1.09,1.26,2.05,2.2,2.8c4.08,3.14,8.2,6.5,12.12,9.92
	c1.14,1.04,2.55,1.75,4.06,2.05c1.52,0.3,3.09,0.18,4.54-0.36c5.06-1.51,10.05-3.14,15.1-4.68c1.64-0.7,3.48-0.73,5.14-0.1
	c1.66,0.63,3.02,1.89,3.77,3.49c3.42,5.9,6.72,11.84,9.92,17.87c0.59,0.8,1.02,1.71,1.25,2.67c0.23,0.97,0.26,1.97,0.09,2.95
	c-0.17,0.98-0.54,1.91-1.08,2.74c-0.54,0.83-1.25,1.54-2.08,2.09c-2.48,2.29-5.18,4.33-7.72,6.56c-1.82,1.57-3.61,3.14-5.31,4.96
	c-0.73,0.71-1.28,1.58-1.63,2.53c-0.34,0.96-0.46,1.98-0.35,2.99c0.57,5.34,1.07,10.71,1.76,16.08c0.15,1.46,0.67,2.85,1.53,4.04
	c0.85,1.19,2.01,2.14,3.34,2.74c3.14,1.54,6.28,2.98,9.23,4.55c1.92,0.94,3.79,1.98,5.59,3.14c1.33,0.68,2.39,1.81,2.96,3.19
	c0.58,1.38,0.64,2.92,0.18,4.35c-1.78,6.72-3.72,13.43-5.81,20.13c-0.35,1.01-0.8,1.98-1.35,2.89c-0.5,1.09-1.33,1.99-2.37,2.59
	c-1.04,0.59-2.24,0.84-3.44,0.71l-14.16-1.19c-0.35,0-0.72,0-1.07,0c-1.99-0.37-4.04-0.13-5.89,0.69c-1.85,0.82-3.41,2.17-4.47,3.89
	c-2.39,3.33-5.15,6.28-7.76,9.42c-1.21,1.4-2.02,3.1-2.33,4.92c-0.32,1.82-0.13,3.69,0.54,5.41c1.51,4.43,2.98,8.85,4.27,13.34
	c1.29,4.49,0.6,6.91-3.64,9.42c-6.09,3.55-12.28,6.91-18.53,10.17c-1.36,0.93-3.03,1.29-4.65,1c-1.62-0.29-3.06-1.2-4.02-2.54
	c-2.76-2.95-5.31-6.09-7.88-9.17c-5.56-6.66-6.88-7.16-15.48-6.06l-10.05,1.38c-1.6,0.16-3.13,0.72-4.45,1.64
	c-1.32,0.92-2.38,2.16-3.09,3.6c-1.79,3.55-3.45,7.16-5.34,10.64c-1,1.81-2.17,3.52-3.49,5.12c-0.58,0.81-1.39,1.42-2.33,1.74
	c-0.94,0.32-1.96,0.34-2.91,0.05c-6.97-1.98-13.97-3.96-20.97-6c-0.95-0.31-1.86-0.75-2.7-1.29c-1.08-0.52-1.97-1.37-2.54-2.42
	c-0.57-1.05-0.79-2.26-0.63-3.45c0.38-4.68,0.79-9.42,1.16-13.97c0-1.44,0-2.86,0-4.27c0.04-1.16-0.2-2.31-0.69-3.37
	c-0.49-1.05-1.22-1.98-2.13-2.69c-3.96-3.14-7.88-6.28-11.84-9.42c-1.12-0.93-2.46-1.55-3.9-1.78c-1.44-0.23-2.91-0.07-4.26,0.46
	c-4.43,1.48-8.92,2.83-13.38,4.24l-0.5,0.16c-5.87,1.54-7.85,0.94-10.86-4.33c-3.33-5.84-6.44-11.84-9.42-17.87
	c-0.92-1.39-1.24-3.09-0.91-4.72c0.34-1.63,1.3-3.06,2.7-3.98c3.39-3.14,6.88-6.03,10.52-8.79c1.77-1.21,3.15-2.91,3.96-4.89
	c0.81-1.98,1.03-4.16,0.62-6.26c-0.72-4.8-1.22-9.64-1.85-14.44c-0.08-1-0.41-1.97-0.96-2.82c-0.55-0.84-1.3-1.54-2.18-2.02
	c-4.24-2.26-8.51-4.46-12.56-6.75c-2.97-1.2-5.41-3.43-6.88-6.28L493.14,623.97z M649.23,638.86c-0.47-6.07-2.13-11.99-4.9-17.41
	c-2.77-5.42-6.58-10.24-11.23-14.18c-4.64-3.94-10.02-6.91-15.82-8.76c-5.8-1.84-11.91-2.52-17.98-1.99
	c-12,1.31-23.02,7.21-30.77,16.46c-7.75,9.25-11.62,21.14-10.8,33.18c1.02,12.07,6.75,23.26,15.95,31.14
	c9.2,7.88,21.14,11.82,33.22,10.97C636.42,685.96,652.12,658.95,649.23,638.86z"/>
<path d="M534.46,273.83c0.75-3.14,1.51-5.97,2.29-8.95c0.41-1.54,0.91-3.14,1.41-4.58c0.26-0.94,0.83-1.77,1.63-2.34
	c0.8-0.57,1.76-0.85,2.74-0.8c2.39,0,4.74,0.38,7.13,0.57c1.27,0.19,2.55,0.25,3.83,0.19c0.94-0.04,1.84-0.41,2.54-1.04
	c2.51-2.79,4.87-5.68,7.19-8.6c0.39-0.54,0.65-1.16,0.74-1.82c0.09-0.66,0.02-1.33-0.21-1.95c-0.85-2.83-1.76-5.59-2.58-8.38
	c-0.34-1.09-0.53-2.22-0.57-3.36c0-0.42,0.09-0.83,0.25-1.21c0.16-0.38,0.4-0.73,0.69-1.02c4.12-3.18,8.69-5.72,13.57-7.54
	c0.71-0.29,1.51-0.34,2.25-0.14c0.74,0.2,1.4,0.65,1.86,1.27c2.01,2.32,4.08,4.58,6,6.97c0.64,0.9,1.52,1.61,2.54,2.02
	c1.02,0.42,2.15,0.53,3.23,0.33c3.14-0.47,6.28-0.78,9.42-1.19c0.57-0.08,1.11-0.29,1.57-0.62c0.47-0.33,0.84-0.78,1.09-1.29
	c0.97-1.73,1.88-3.49,2.86-5.24c0.97-1.76,1.63-3.14,2.51-4.46c0.37-0.75,0.99-1.34,1.76-1.67c0.76-0.33,1.62-0.39,2.42-0.15
	c4.46,1.13,8.89,2.32,13.28,3.61c0.83,0.26,1.54,0.8,2.02,1.53c0.48,0.73,0.7,1.59,0.61,2.46c0,2.42-0.38,4.8-0.57,7.22
	c0,1.13-0.19,2.29-0.19,3.42c-0.03,0.73,0.11,1.46,0.42,2.13c0.31,0.67,0.76,1.25,1.34,1.7c2.45,1.98,4.93,3.89,7.29,5.97
	c0.69,0.62,1.53,1.05,2.45,1.23c0.91,0.18,1.86,0.11,2.73-0.2c3.14-0.94,6.03-1.92,9.04-2.83c0.98-0.43,2.1-0.45,3.1-0.07
	s1.82,1.14,2.27,2.11c2.07,3.55,4.05,7.13,5.97,10.71c0.35,0.48,0.6,1.03,0.74,1.61c0.14,0.58,0.15,1.18,0.05,1.77
	c-0.1,0.59-0.32,1.15-0.65,1.64c-0.32,0.5-0.75,0.93-1.24,1.26c-1.48,1.38-3.14,2.61-4.62,3.93c-1.48,1.32-2.2,1.95-3.14,3.14
	c-0.44,0.43-0.78,0.95-0.99,1.53c-0.21,0.58-0.28,1.19-0.21,1.8c0.35,3.14,0.63,6.28,1.04,9.67c0.1,0.88,0.43,1.71,0.95,2.42
	c0.52,0.71,1.21,1.29,2.01,1.66l5.56,2.7c1.13,0.6,2.26,1.19,3.33,1.88c0.78,0.43,1.39,1.11,1.72,1.93c0.33,0.83,0.37,1.74,0.1,2.59
	c-1.13,4.02-2.26,8.01-3.45,12c-0.2,0.61-0.48,1.19-0.82,1.73c-0.3,0.65-0.8,1.2-1.42,1.56c-0.62,0.36-1.35,0.52-2.06,0.45
	l-8.67-0.78h-0.63c-1.2-0.24-2.45-0.1-3.57,0.39c-1.12,0.49-2.07,1.32-2.71,2.37c-1.41,1.98-3.14,3.8-4.65,5.72
	c-0.72,0.86-1.2,1.89-1.39,2.99c-0.19,1.1-0.08,2.24,0.32,3.29c0.91,2.64,1.79,5.31,2.57,8.01c0.26,0.51,0.41,1.07,0.44,1.65
	c0.03,0.57-0.07,1.15-0.28,1.68c-0.21,0.53-0.53,1.02-0.94,1.42c-0.41,0.4-0.91,0.71-1.45,0.9c-3.64,2.13-7.35,4.14-11.12,6.28
	c-0.83,0.54-1.82,0.74-2.79,0.56c-0.97-0.18-1.83-0.71-2.42-1.51c-1.63-1.79-3.14-3.64-4.74-5.49c-3.33-4.02-4.11-4.33-9.42-3.64
	l-6.03,0.82c-0.96,0.09-1.88,0.42-2.67,0.98c-0.79,0.55-1.43,1.3-1.85,2.16c-1.07,2.1-2.07,4.27-3.14,6.28
	c-0.6,1.11-1.3,2.17-2.1,3.14c-0.35,0.49-0.83,0.85-1.4,1.05c-0.56,0.2-1.17,0.21-1.74,0.05l-12.56-3.61
	c-0.57-0.2-1.12-0.47-1.63-0.79c-0.66-0.3-1.2-0.79-1.56-1.42c-0.36-0.63-0.52-1.35-0.44-2.07c0.22-2.79,0.47-5.59,0.69-8.38
	c0-0.85,0-1.73,0-2.57c0.02-0.7-0.12-1.39-0.42-2.02c-0.29-0.63-0.73-1.19-1.28-1.62l-7.13-5.62c-0.67-0.56-1.48-0.94-2.34-1.08
	c-0.86-0.14-1.75-0.05-2.56,0.26c-2.67,0.88-5.37,1.7-8.04,2.54h-0.31c-3.52,0.94-4.71,0.57-6.53-2.57
	c-1.82-3.14-3.86-7.13-5.68-10.74c-0.28-0.41-0.48-0.88-0.58-1.36c-0.1-0.49-0.1-0.99,0-1.49c0.1-0.49,0.3-0.95,0.58-1.37
	c0.28-0.41,0.65-0.76,1.07-1.03c2.04-1.82,4.14-3.61,6.28-5.28c1.06-0.73,1.89-1.75,2.38-2.93c0.49-1.19,0.63-2.49,0.39-3.75
	c-0.44-2.89-0.72-5.81-1.1-8.7c-0.06-0.61-0.27-1.2-0.61-1.71c-0.34-0.51-0.8-0.93-1.34-1.21c-2.54-1.35-5.12-2.67-7.66-4.05
	c-1.76-0.7-3.22-2-4.11-3.67L534.46,273.83z M628.25,282.71c-0.28-3.64-1.29-7.19-2.95-10.45c-1.66-3.25-3.96-6.14-6.74-8.51
	c-2.79-2.36-6.02-4.15-9.5-5.26c-3.48-1.11-7.15-1.51-10.79-1.2c-7.22,0.79-13.85,4.33-18.53,9.89c-4.68,5.55-7.04,12.7-6.59,19.94
	c0.61,7.26,4.05,13.98,9.58,18.72c5.53,4.74,12.7,7.11,19.97,6.59c3.65-0.23,7.21-1.19,10.48-2.81c3.27-1.63,6.18-3.89,8.57-6.67
	c2.38-2.77,4.19-5.99,5.3-9.47S628.57,286.35,628.25,282.71z"/>
<path class="st0" d="M198.92,661.69l0.88-57.15l55.48,13.6l6.66,36.14l7.44,40.38l-35.55-16.64L198.92,661.69z"/>
<path d="M269.38,696.23c-0.23-0.01-0.45-0.06-0.66-0.16l-70.46-32.97c-0.27-0.13-0.5-0.34-0.66-0.59c-0.16-0.26-0.25-0.55-0.25-0.85
	l0.88-57.15c0.02-0.24,0.08-0.47,0.19-0.68c0.11-0.21,0.26-0.4,0.44-0.55c0.19-0.14,0.4-0.23,0.63-0.28c0.23-0.05,0.46-0.05,0.69,0
	l55.39,13.63c0.29,0.07,0.56,0.22,0.76,0.44c0.21,0.22,0.34,0.49,0.4,0.79l14.1,76.52c0.06,0.28,0.04,0.58-0.06,0.85
	c-0.1,0.27-0.28,0.51-0.5,0.69C270,696.09,269.69,696.2,269.38,696.23z M200.48,660.84l66.82,31.4l-13.38-72.54l-52.6-12.91
	L200.48,660.84z"/>
<path class="st0" d="M210.64,637.95l18.79-14.51L85.78,437.38l-18.79,14.51L210.64,637.95z"/>
<path d="M210.63,639.55h-0.22c-0.21-0.02-0.41-0.08-0.58-0.18c-0.18-0.1-0.33-0.24-0.45-0.41L65.71,452.87
	c-0.13-0.16-0.22-0.35-0.27-0.55c-0.05-0.2-0.07-0.41-0.04-0.61c0.06-0.41,0.28-0.78,0.6-1.04l18.84-14.51
	c0.16-0.13,0.34-0.22,0.54-0.28c0.2-0.06,0.4-0.07,0.61-0.04c0.2,0.03,0.4,0.09,0.57,0.2c0.18,0.1,0.33,0.24,0.45,0.41L230.66,622.5
	c0.26,0.33,0.37,0.74,0.33,1.15c-0.05,0.41-0.25,0.79-0.58,1.05l-18.84,14.51C211.3,639.42,210.97,639.54,210.63,639.55z
	 M69.14,452.18l141.77,183.54l16.3-12.56L85.46,439.59L69.14,452.18z"/>
<path d="M85.75,437.39l25.87-5.31l143.66,186.05l-25.87,5.34L85.75,437.39z"/>
<path d="M229.4,625.04c-0.24,0-0.48-0.06-0.7-0.17c-0.22-0.11-0.41-0.27-0.56-0.46L84.49,438.36c-0.16-0.21-0.26-0.46-0.3-0.73
	c-0.04-0.26-0.01-0.53,0.09-0.78c0.09-0.25,0.25-0.47,0.45-0.65c0.2-0.17,0.44-0.3,0.7-0.35l25.87-5.31
	c0.29-0.06,0.59-0.04,0.87,0.06s0.52,0.28,0.7,0.51l143.66,186.08c0.16,0.21,0.26,0.46,0.3,0.72c0.04,0.26,0.01,0.53-0.09,0.78
	c-0.09,0.25-0.25,0.47-0.45,0.64c-0.2,0.17-0.44,0.29-0.7,0.34l-25.87,5.34L229.4,625.04z M88.54,438.43l141.52,183.32l22.45-4.65
	l-141.4-183.29L88.54,438.43z"/>
<path d="M55.26,475.61l11.71-23.68l143.66,186.05l-11.71,23.68L55.26,475.61z"/>
<path d="M199.04,663.26c-0.24-0.01-0.48-0.07-0.7-0.18c-0.22-0.11-0.41-0.26-0.56-0.45L54,476.58c-0.17-0.24-0.28-0.52-0.3-0.81
	c-0.03-0.29,0.02-0.59,0.15-0.85l11.71-23.71c0.11-0.24,0.29-0.45,0.51-0.6c0.22-0.15,0.48-0.24,0.75-0.25
	c0.26-0.03,0.53,0.01,0.77,0.12c0.24,0.1,0.45,0.27,0.61,0.48l143.66,186.05c0.16,0.25,0.24,0.54,0.24,0.83s-0.08,0.58-0.24,0.83
	l-11.68,23.71c-0.12,0.24-0.3,0.44-0.52,0.58c-0.22,0.15-0.47,0.24-0.74,0.26L199.04,663.26z M57.11,475.58l141.52,183.32
	l10.14-20.57L67.16,454.85L57.11,475.58z"/>
<path d="M233.83,678.01l2.2-10.8l17.02-13.13l8.89,0.19l7.44,40.38L233.83,678.01z"/>
<path d="M269.38,696.23c-0.23-0.01-0.45-0.06-0.66-0.16l-35.58-16.64c-0.31-0.15-0.57-0.41-0.72-0.72c-0.15-0.31-0.2-0.67-0.13-1.01
	l2.23-10.8c0.07-0.36,0.27-0.69,0.57-0.91l16.99-13.13c0.3-0.21,0.64-0.33,1.01-0.34l8.92,0.22c0.35,0,0.7,0.13,0.97,0.36
	c0.27,0.23,0.45,0.55,0.51,0.9l7.44,40.38c0.06,0.28,0.04,0.58-0.06,0.85c-0.1,0.27-0.27,0.51-0.5,0.69
	C270.06,696.11,269.72,696.22,269.38,696.23z M235.59,677.13l31.71,14.82l-6.66-36.14l-7.1-0.16l-16.11,12.56L235.59,677.13z"/>
<path class="st0" d="M138.25,229.14c-50.34,10.64-84.97,48.26-77.37,84.03c4.4,20.76,21.98,36.33,46.03,43.65
	c7.98,13.63,24.12,29.89,56.71,41.92c-9.89-10.6-17.1-23.41-21.04-37.37c7.77-0.23,15.51-1.15,23.11-2.76
	c50.24-10.64,84.97-48.26,77.4-84.03C235.53,238.81,188.55,218.5,138.25,229.14z"/>
<path d="M163.59,400.21c-0.18,0.03-0.36,0.03-0.53,0c-27.32-10.08-46.54-24.21-57.21-42.08c-25.12-7.88-42.2-24.12-46.54-44.65
	c-7.85-36.55,27.54-75.08,78.6-85.97c51.09-10.8,98.94,10.11,106.76,46.66c7.82,36.55-27.54,75.05-78.5,85.88
	c-7.04,1.5-14.19,2.41-21.38,2.73c4.02,12.93,10.89,24.8,20.1,34.73c0.23,0.22,0.38,0.5,0.45,0.81c0.06,0.31,0.04,0.63-0.08,0.92
	c-0.12,0.29-0.32,0.54-0.58,0.71c-0.26,0.17-0.57,0.27-0.88,0.26H163.59z M138.47,230.65c-49.33,10.49-83.46,47.32-76.08,82.18
	c4.11,19.53,20.5,35.01,44.97,42.48c0.37,0.13,0.69,0.37,0.91,0.69c9.42,16.14,26.19,29.23,49.9,38.94
	c-7.9-9.78-13.72-21.06-17.11-33.16c-0.06-0.23-0.07-0.47-0.03-0.7c0.05-0.23,0.14-0.45,0.28-0.64c0.14-0.19,0.33-0.35,0.54-0.46
	c0.21-0.11,0.44-0.17,0.68-0.18c7.67-0.23,15.29-1.14,22.8-2.73c49.39-10.46,83.59-47.32,76.21-82.18
	c-7.38-34.85-53.57-54.67-102.96-44.24H138.47z"/>
<path d="M855.22,637.48l-237.36-79.82l101.64-302.2l189.38,63.71l31.49,65.09L855.22,637.48z"/>
<path d="M855.31,639.05h-0.5l-237.36-79.85c-0.2-0.06-0.38-0.17-0.53-0.3c-0.16-0.13-0.28-0.3-0.37-0.48
	c-0.09-0.18-0.14-0.38-0.16-0.59c-0.01-0.21,0.02-0.41,0.09-0.6l101.61-302.2c0.14-0.39,0.43-0.71,0.81-0.89
	c0.37-0.18,0.81-0.21,1.2-0.08l189.38,63.68c0.2,0.07,0.38,0.18,0.54,0.32c0.16,0.14,0.28,0.31,0.37,0.5l31.4,65.09
	c0.16,0.38,0.16,0.81,0,1.19L856.6,638.04c-0.06,0.2-0.16,0.38-0.3,0.54c-0.13,0.16-0.3,0.28-0.49,0.37
	C855.65,639.01,855.48,639.04,855.31,639.05z M619.81,556.68l234.4,78.81l84.43-251.2l-30.9-63.87l-187.27-62.8L619.81,556.68z"/>
<path class="st0" d="M831.32,653.08l-237.36-79.82l101.64-302.2l189.38,63.68l31.5,65.12L831.32,653.08z"/>
<path d="M831.32,654.56c-0.17,0.03-0.34,0.03-0.5,0l-237.36-79.82c-0.39-0.14-0.71-0.42-0.89-0.79c-0.18-0.37-0.21-0.8-0.08-1.19
	l101.61-302.2c0.15-0.4,0.44-0.72,0.82-0.91c0.18-0.08,0.38-0.13,0.58-0.13c0.2,0,0.4,0.04,0.58,0.13l189.41,63.68
	c0.2,0.07,0.38,0.17,0.54,0.31c0.16,0.14,0.28,0.31,0.37,0.5l31.4,65.09c0.08,0.18,0.12,0.38,0.12,0.58c0,0.2-0.04,0.4-0.12,0.58
	l-85.16,253.25c-0.06,0.19-0.16,0.37-0.3,0.52c-0.14,0.15-0.3,0.27-0.49,0.36C831.68,654.57,831.5,654.58,831.32,654.56z
	 M595.82,572.16l234.4,78.85l84.44-251.2l-30.93-63.93l-187.15-62.83L595.82,572.16z"/>
<path class="st0" d="M884.98,334.74l-18.02,48.45l49.52,16.67L884.98,334.74z"/>
<path d="M916.48,401.41c-0.17,0.03-0.34,0.03-0.5,0l-49.52-16.67c-0.2-0.06-0.38-0.16-0.54-0.3c-0.16-0.13-0.28-0.3-0.37-0.49
	c-0.16-0.39-0.16-0.83,0-1.22l18.02-48.45c0.11-0.29,0.3-0.54,0.55-0.73c0.25-0.18,0.55-0.29,0.86-0.31
	c0.31-0.01,0.61,0.08,0.87,0.24c0.26,0.16,0.47,0.39,0.6,0.67l31.4,65.09c0.14,0.28,0.19,0.59,0.14,0.9
	c-0.05,0.31-0.18,0.6-0.39,0.82C917.3,401.26,916.9,401.41,916.48,401.41z M868.97,382.22l44.5,14.85l-28.26-58.47L868.97,382.22z"
	/>
<path d="M874.47,423.04c-0.17,0.03-0.34,0.03-0.5,0l-170.94-57.56c-0.39-0.14-0.71-0.42-0.89-0.79c-0.18-0.37-0.21-0.8-0.08-1.19
	c0.06-0.2,0.16-0.38,0.29-0.54c0.13-0.16,0.3-0.29,0.48-0.38c0.18-0.09,0.39-0.15,0.59-0.16c0.21-0.01,0.41,0.01,0.61,0.08
	L874.97,420c0.42,0.07,0.79,0.3,1.04,0.64c0.25,0.34,0.35,0.77,0.28,1.18c-0.07,0.42-0.3,0.79-0.64,1.04
	c-0.34,0.25-0.77,0.35-1.18,0.28V423.04z"/>
<path d="M863.66,455.16c-0.17,0.03-0.34,0.03-0.5,0l-170.94-57.49c-0.39-0.14-0.71-0.42-0.9-0.79c-0.19-0.37-0.22-0.8-0.1-1.19
	c0.06-0.2,0.17-0.38,0.3-0.54c0.14-0.16,0.3-0.29,0.49-0.38c0.19-0.09,0.39-0.15,0.6-0.16c0.21-0.01,0.42,0.01,0.62,0.08
	l170.94,57.49c0.42,0.07,0.79,0.3,1.04,0.64c0.25,0.34,0.35,0.77,0.28,1.18c-0.07,0.42-0.3,0.79-0.64,1.04
	c-0.34,0.25-0.77,0.35-1.18,0.28V455.16z"/>
<path d="M852.86,487.29c-0.17,0.03-0.34,0.03-0.5,0l-170.94-57.56c-0.42-0.13-0.76-0.43-0.96-0.81c-0.2-0.39-0.24-0.84-0.1-1.26
	c0.13-0.42,0.43-0.76,0.82-0.96c0.39-0.2,0.84-0.24,1.26-0.1l170.94,57.49c0.42,0.07,0.79,0.3,1.04,0.64
	c0.25,0.34,0.35,0.77,0.28,1.18c-0.07,0.42-0.3,0.79-0.64,1.04c-0.34,0.25-0.77,0.35-1.18,0.28V487.29z"/>
<path d="M842.06,519.53c-0.17,0.03-0.34,0.03-0.5,0l-170.94-57.49c-0.39-0.14-0.71-0.42-0.9-0.79c-0.19-0.37-0.22-0.8-0.1-1.19
	c0.06-0.2,0.17-0.38,0.3-0.54c0.14-0.16,0.3-0.29,0.49-0.38c0.19-0.09,0.39-0.15,0.6-0.16c0.21-0.01,0.42,0.02,0.62,0.08
	l170.94,57.34c0.42,0.07,0.79,0.3,1.04,0.64c0.25,0.34,0.35,0.77,0.28,1.18c-0.07,0.42-0.3,0.79-0.64,1.04
	C842.9,519.5,842.48,519.6,842.06,519.53z"/>
<path d="M831.26,551.53c-0.17,0.03-0.34,0.03-0.5,0l-170.94-57.49c-0.42-0.13-0.76-0.43-0.96-0.81c-0.2-0.39-0.24-0.84-0.1-1.26
	c0.13-0.42,0.43-0.76,0.81-0.96c0.39-0.2,0.84-0.24,1.26-0.1l170.94,57.49c0.42,0.07,0.79,0.3,1.04,0.64
	c0.25,0.34,0.35,0.77,0.28,1.18c-0.07,0.42-0.3,0.79-0.64,1.04C832.1,551.5,831.68,551.6,831.26,551.53z"/>
<path d="M770.18,566.64c-0.17,0.03-0.34,0.03-0.5,0L649.01,526.1c-0.21-0.07-0.4-0.17-0.56-0.31c-0.16-0.14-0.3-0.31-0.4-0.5
	c-0.1-0.19-0.16-0.4-0.18-0.62s0.01-0.43,0.07-0.64c0.07-0.21,0.17-0.4,0.31-0.56c0.14-0.16,0.31-0.3,0.5-0.4
	c0.19-0.1,0.4-0.16,0.62-0.18c0.22-0.02,0.43,0.01,0.64,0.07l120.67,40.57c0.39,0.14,0.71,0.43,0.89,0.81
	c0.18,0.37,0.21,0.81,0.08,1.2c-0.09,0.32-0.29,0.6-0.55,0.79C770.84,566.53,770.52,566.64,770.18,566.64z"/>
<path d="M577.73,429.79c-1.55,0-3.07-0.46-4.36-1.33c-1.29-0.86-2.3-2.09-2.89-3.53c-0.59-1.44-0.75-3.02-0.44-4.54
	c0.31-1.52,1.06-2.92,2.16-4.02c1.1-1.1,2.5-1.84,4.03-2.14c1.52-0.3,3.1-0.14,4.54,0.46c1.43,0.6,2.66,1.61,3.52,2.91
	c0.86,1.3,1.31,2.82,1.31,4.37c-0.01,2.08-0.84,4.06-2.31,5.53C581.8,428.97,579.81,429.79,577.73,429.79z M577.73,417.23
	c-0.93,0-1.84,0.28-2.62,0.79c-0.77,0.52-1.38,1.25-1.74,2.11c-0.36,0.86-0.45,1.81-0.27,2.72s0.63,1.75,1.29,2.41
	c0.66,0.66,1.5,1.11,2.41,1.29c0.91,0.18,1.86,0.09,2.72-0.27c0.86-0.36,1.6-0.96,2.11-1.74c0.52-0.77,0.79-1.69,0.79-2.62
	c-0.01-1.24-0.51-2.43-1.39-3.31c-0.88-0.88-2.08-1.37-3.32-1.37V417.23z"/>
<path d="M133.1,680.78c-1.55,0.01-3.07-0.45-4.37-1.31c-1.3-0.86-2.31-2.08-2.91-3.52c-0.6-1.43-0.76-3.01-0.46-4.54
	c0.3-1.53,1.04-2.93,2.14-4.03s2.5-1.85,4.02-2.16c1.52-0.31,3.1-0.15,4.54,0.44c1.44,0.59,2.66,1.6,3.53,2.89
	c0.86,1.29,1.32,2.81,1.32,4.36c0,2.08-0.82,4.07-2.29,5.54C137.16,679.94,135.17,680.77,133.1,680.78z M133.1,668.22
	c-0.93-0.01-1.85,0.26-2.62,0.78c-0.78,0.51-1.39,1.25-1.75,2.11c-0.36,0.86-0.46,1.81-0.28,2.72s0.62,1.76,1.28,2.42
	c0.66,0.66,1.5,1.11,2.41,1.3c0.91,0.18,1.86,0.09,2.73-0.26c0.86-0.36,1.6-0.96,2.12-1.73c0.52-0.78,0.8-1.69,0.8-2.62
	c0-1.24-0.49-2.44-1.37-3.32C135.53,668.73,134.34,668.23,133.1,668.22z"/>
<path d="M184.94,433.65c-0.42,0-0.82-0.16-1.11-0.46c-0.29-0.29-0.46-0.69-0.46-1.11v-16.39c0-0.42,0.17-0.82,0.46-1.11
	c0.29-0.29,0.69-0.46,1.11-0.46s0.82,0.17,1.11,0.46c0.29,0.29,0.46,0.69,0.46,1.11v16.39c-0.01,0.41-0.18,0.81-0.47,1.1
	C185.75,433.48,185.35,433.65,184.94,433.65z"/>
<path d="M193.14,425.33h-16.39c-0.42,0-0.82-0.16-1.11-0.46c-0.29-0.29-0.46-0.69-0.46-1.11c0-0.42,0.17-0.82,0.46-1.11
	c0.29-0.29,0.69-0.46,1.11-0.46h16.39c0.42,0,0.82,0.17,1.11,0.46c0.29,0.29,0.46,0.69,0.46,1.11c-0.01,0.41-0.18,0.81-0.47,1.1
	C193.94,425.16,193.55,425.33,193.14,425.33z"/>
<path d="M753.98,736.2c-0.42,0-0.82-0.16-1.11-0.46c-0.29-0.29-0.46-0.69-0.46-1.11v-16.39c0-0.42,0.16-0.82,0.46-1.11
	c0.29-0.29,0.69-0.46,1.11-0.46s0.82,0.17,1.11,0.46c0.29,0.29,0.46,0.69,0.46,1.11v16.39c-0.01,0.41-0.18,0.81-0.47,1.1
	C754.79,736.02,754.4,736.19,753.98,736.2z"/>
<path d="M762.18,727.94h-16.39c-0.42,0-0.82-0.16-1.11-0.46c-0.29-0.29-0.46-0.69-0.46-1.11s0.17-0.82,0.46-1.11
	c0.29-0.29,0.69-0.46,1.11-0.46h16.39c0.42,0,0.82,0.17,1.11,0.46c0.29,0.29,0.46,0.69,0.46,1.11c-0.01,0.41-0.18,0.81-0.47,1.1
	C762.98,727.76,762.59,727.93,762.18,727.94z"/>
<path d="M452.22,244.25c-0.42,0-0.82-0.16-1.11-0.46c-0.29-0.29-0.46-0.69-0.46-1.11v-16.36c0-0.42,0.17-0.82,0.46-1.11
	c0.29-0.29,0.69-0.46,1.11-0.46s0.82,0.17,1.11,0.46c0.29,0.29,0.46,0.69,0.46,1.11v16.36c0,0.42-0.16,0.82-0.46,1.11
	C453.04,244.08,452.64,244.25,452.22,244.25z"/>
<path d="M460.42,236.08h-16.45c-0.41-0.01-0.81-0.18-1.1-0.47c-0.29-0.29-0.46-0.69-0.47-1.1c0-0.42,0.17-0.82,0.46-1.11
	c0.29-0.29,0.69-0.46,1.11-0.46h16.39c0.42,0,0.82,0.17,1.11,0.46c0.29,0.29,0.46,0.69,0.46,1.11c0,0.41-0.16,0.8-0.44,1.09
	C461.21,235.89,460.82,236.07,460.42,236.08z"/>
<path d="M119.44,318.82c-0.69-0.04-1.37-0.12-2.04-0.25c-2.98-0.45-5.81-1.58-8.28-3.31c-2.46-1.73-4.49-4.02-5.92-6.67
	c-1.29,1.72-2.91,3.16-4.76,4.24c-1.86,1.08-3.91,1.77-6.04,2.04c-0.42,0.05-0.84-0.07-1.17-0.33c-0.33-0.26-0.54-0.64-0.59-1.06
	c-0.05-0.42,0.07-0.84,0.33-1.17c0.26-0.33,0.64-0.54,1.06-0.59c1.98-0.25,3.88-0.95,5.55-2.04c1.67-1.09,3.08-2.54,4.12-4.24
	c-1.07-2.59-1.55-5.37-1.43-8.17c0.12-2.79,0.86-5.52,2.15-8.01c0.13-0.24,0.32-0.45,0.56-0.59c0.24-0.14,0.51-0.22,0.79-0.22
	c0.28,0,0.55,0.07,0.79,0.2c0.24,0.13,0.45,0.32,0.59,0.55c1.38,2.46,2.13,5.23,2.16,8.05c0.03,2.82-0.65,5.61-1.97,8.09v0.28
	l0.28,0.63c1.07,2.5,2.78,4.67,4.95,6.29c2.18,1.63,4.74,2.65,7.44,2.97c2.7,0.32,5.43-0.08,7.92-1.15
	c2.49-1.07,4.66-2.79,6.28-4.97c1.46-1.68,2.62-3.6,3.42-5.68c-0.93-1.63-1.37-3.5-1.27-5.38c0.11-1.88,0.75-3.69,1.86-5.2
	c0.19-0.22,0.44-0.38,0.71-0.48c0.28-0.09,0.57-0.11,0.86-0.06c0.28,0.07,0.53,0.21,0.73,0.41c0.2,0.2,0.35,0.45,0.43,0.72
	c0.84,3.21,0.76,6.59-0.22,9.77c0.62,1.12,1.53,2.06,2.63,2.73c1.1,0.66,2.36,1.02,3.65,1.04c1.43-0.07,2.83-0.51,4.04-1.28
	c1.21-0.77,2.2-1.84,2.87-3.11c0.82-1.39,1.31-2.95,1.44-4.55c-0.63-1.64-0.97-3.37-1-5.12c0-0.35,0.11-0.7,0.33-0.98
	c0.22-0.28,0.52-0.48,0.86-0.56c0.35-0.09,0.71-0.05,1.04,0.09c0.32,0.15,0.59,0.4,0.75,0.72c0.8,1.64,1.2,3.45,1.16,5.28
	c0.79,1.82,1.96,3.44,3.42,4.77c1.26,1.27,2.77,2.25,4.44,2.89c1.67,0.63,3.46,0.91,5.24,0.8c1.78-0.11,3.52-0.6,5.1-1.43
	c1.58-0.84,2.96-2,4.06-3.41c0.78-0.96,1.45-2.02,1.98-3.14c-0.78-0.9-1.49-1.87-2.1-2.89c-0.65-1.18-0.93-2.53-0.8-3.88
	c0.13-1.34,0.66-2.62,1.52-3.66c0.52-0.49,1.19-0.79,1.91-0.85c0.71-0.06,1.43,0.13,2.02,0.54c0.55,0.43,0.99,0.98,1.31,1.6
	c0.31,0.62,0.49,1.31,0.51,2.01c0.21,2.12-0.03,4.26-0.69,6.28c1.23,1.18,2.8,1.95,4.48,2.21c1.69,0.26,3.41-0.01,4.94-0.77
	c7.79-3.39,13.72-15.42,11.52-23.39c-0.06-0.2-0.07-0.41-0.05-0.62c0.02-0.21,0.09-0.41,0.19-0.59c0.1-0.18,0.24-0.34,0.4-0.47
	c0.16-0.13,0.35-0.22,0.55-0.28c0.4-0.11,0.83-0.05,1.18,0.16c0.36,0.21,0.62,0.54,0.73,0.94c2.64,9.42-4.08,23.14-13.31,27.13
	c-1.91,0.91-4.04,1.27-6.14,1.03c-2.1-0.24-4.1-1.06-5.76-2.38c-0.57,1-1.23,1.95-1.98,2.83c-1.37,1.74-3.08,3.17-5.04,4.19
	c-1.96,1.03-4.11,1.63-6.31,1.77c-2.21,0.14-4.41-0.19-6.48-0.96c-2.07-0.77-3.95-1.97-5.53-3.53c-0.8-0.74-1.53-1.56-2.17-2.45
	c-0.27,0.7-0.6,1.39-0.97,2.04c-0.9,1.67-2.21,3.1-3.8,4.14c-1.59,1.04-3.41,1.67-5.31,1.83c-1.5,0.05-3-0.25-4.37-0.86
	c-1.38-0.61-2.6-1.52-3.57-2.66c-0.85,1.68-1.91,3.25-3.14,4.68c-1.82,2.26-4.12,4.09-6.72,5.38S122.34,318.75,119.44,318.82z
	 M103.74,294.24c-0.46,2.19-0.46,4.46,0,6.66c0.56-2.18,0.57-4.47,0.03-6.66H103.74z M181.46,290.31c-0.26,0.28-0.42,0.63-0.47,1.01
	c-0.23,0.86-0.14,1.77,0.25,2.57c0.18,0.32,0.38,0.62,0.6,0.91c0.14-1.04,0.14-2.1,0-3.14c0-1-0.34-1.29-0.44-1.35H181.46z"/>
<path d="M546.46,511.43c3.82,0,6.91-3.09,6.91-6.91s-3.09-6.91-6.91-6.91c-3.82,0-6.91,3.09-6.91,6.91S542.64,511.43,546.46,511.43z
	"/>
<path d="M244.1,551.82c3.82,0,6.91-3.09,6.91-6.91c0-3.82-3.09-6.91-6.91-6.91c-3.82,0-6.91,3.09-6.91,6.91
	C237.19,548.72,240.28,551.82,244.1,551.82z"/>
</svg>
