<?xml version="1.0" encoding="utf-8"?>
<!-- Generator: Adobe Illustrator 24.3.0, SVG Export Plug-In . SVG Version: 6.00 Build 0)  -->
<svg version="1.1" id="Слой_1" xmlns="http://www.w3.org/2000/svg" xmlns:xlink="http://www.w3.org/1999/xlink" x="0px" y="0px"
	 viewBox="0 0 1000 1000" style="enable-background:new 0 0 1000 1000;" xml:space="preserve">
<style type="text/css">
	.st0{opacity:0.6;}
	.st1{fill:none;stroke:#000000;stroke-width:0.7;stroke-miterlimit:10;}
	.st2{stroke:#000000;stroke-miterlimit:10;}
	.st3{fill:#FFFFFF;}
	.st4{fill:none;stroke:#000000;stroke-width:0.7;stroke-linecap:round;stroke-linejoin:round;stroke-miterlimit:10;}
	.st5{fill:none;stroke:#000000;stroke-linecap:round;stroke-linejoin:round;stroke-miterlimit:10;}
	.st6{fill:none;stroke:#000000;stroke-width:4;stroke-linecap:round;stroke-linejoin:round;stroke-miterlimit:10;}
	.st7{fill:#D6DBE2;}
	.st8{fill:#FFFFFF;stroke:#000000;stroke-width:0.7;stroke-linecap:round;stroke-linejoin:round;stroke-miterlimit:10;}
	.st9{fill:#FFFFFF;stroke:#000000;stroke-width:0.7;stroke-miterlimit:10;}
	.st10{fill:#D8D8D8;}
	.st11{fill:none;stroke:#000000;stroke-miterlimit:10;}
	.st12{stroke:#000000;stroke-width:0.7;stroke-linecap:round;stroke-linejoin:round;stroke-miterlimit:10;}
	.st13{fill:none;stroke:#000000;stroke-width:2;stroke-linecap:round;stroke-linejoin:round;stroke-miterlimit:10;}
</style>
<g class="st0">
	<path class="st1" d="M774.05,420.17l-35.83-62.1l35.83-62.1h71.65l35.83,62.1l-35.83,62.1H774.05z"/>
	<path class="st2" d="M650.14,353.76l-35.83-62.1l35.83-62.1h71.65l35.83,62.1l-35.83,62.1H650.14z"/>
	<path class="st1" d="M649.85,205.2l-35.83-62.1L649.85,81h71.65l35.83,62.1l-35.83,62.1H649.85z"/>
	<path class="st2" d="M525.93,282.11l-35.83-62.1l35.83-62.1h71.65l35.83,62.1l-35.83,62.1H525.93z"/>
	<path class="st1" d="M401.45,348.51l-35.83-62.1l35.83-62.1h71.65l35.83,62.1l-35.83,62.1H401.45z"/>
	<path class="st2" d="M153.33,353.76l-35.83-62.1l35.83-62.1h71.65l35.83,62.1l-35.83,62.1H153.33z"/>
</g>
<g class="st0">
	<path class="st1" d="M650.14,496.51l-35.83-62.1l35.83-62.1h71.66l35.83,62.1l-35.83,62.1H650.14z M525.93,711.47l-35.83-62.1
		l35.83-62.1h71.65l35.83,62.1l-35.83,62.1H525.93z"/>
</g>
<path class="st3" d="M806.46,874.99c-13.99,0-25.34-11.35-25.34-25.34V650.93h50.68v198.72
	C831.8,863.64,820.45,874.99,806.46,874.99z"/>
<path class="st3" d="M835.8,629.59h-58.68c-2.83,0-5.54,1.12-7.54,3.13c-2,2-3.13,4.71-3.13,7.54c0,2.83,1.12,5.54,3.13,7.54
	c2,2,4.71,3.13,7.54,3.13h58.68c2.83,0,5.54-1.12,7.54-3.13c2-2,3.13-4.71,3.13-7.54c0-2.83-1.12-5.54-3.13-7.54
	C841.34,630.71,838.63,629.59,835.8,629.59z"/>
<path class="st4" d="M806.46,874.99c-13.99,0-25.34-11.35-25.34-25.34V650.93h50.68v198.72
	C831.8,863.64,820.45,874.99,806.46,874.99z M835.8,629.59h-58.68c-2.83,0-5.54,1.12-7.54,3.13c-2,2-3.13,4.71-3.13,7.54
	c0,2.83,1.12,5.54,3.13,7.54c2,2,4.71,3.13,7.54,3.13h58.68c2.83,0,5.54-1.12,7.54-3.13c2-2,3.13-4.71,3.13-7.54
	c0-2.83-1.12-5.54-3.13-7.54C841.34,630.71,838.63,629.59,835.8,629.59z"/>
<path class="st3" d="M793.12,777.63v72.02c0,7.35,5.98,13.34,13.34,13.34s13.34-5.98,13.34-13.34v-72.02H793.12z"/>
<path class="st4" d="M793.12,777.63v72.02c0,7.35,5.98,13.34,13.34,13.34s13.34-5.98,13.34-13.34v-72.02H793.12z"/>
<path class="st3" d="M781.22,581.73c2.79,0,5.04-2.26,5.04-5.04s-2.26-5.04-5.04-5.04c-2.79,0-5.04,2.26-5.04,5.04
	S778.44,581.73,781.22,581.73z"/>
<path class="st3" d="M799.73,604.18c2.35,0,4.26-1.91,4.26-4.26c0-2.35-1.91-4.26-4.26-4.26c-2.35,0-4.26,1.91-4.26,4.26
	C795.47,602.28,797.38,604.18,799.73,604.18z"/>
<path class="st3" d="M821.8,543.63c5.32,0,9.63-4.31,9.63-9.63c0-5.32-4.31-9.63-9.63-9.63c-5.32,0-9.63,4.31-9.63,9.63
	C812.17,539.32,816.48,543.63,821.8,543.63z"/>
<path class="st3" d="M816.29,581.74c4.56,0,8.25-3.69,8.25-8.25c0-4.56-3.69-8.25-8.25-8.25c-4.56,0-8.25,3.69-8.25,8.25
	C808.04,578.04,811.73,581.74,816.29,581.74z"/>
<path class="st5" d="M781.22,581.73c2.79,0,5.04-2.26,5.04-5.04s-2.26-5.04-5.04-5.04c-2.79,0-5.04,2.26-5.04,5.04
	S778.44,581.73,781.22,581.73z"/>
<path class="st5" d="M799.73,604.18c2.35,0,4.26-1.91,4.26-4.26c0-2.35-1.91-4.26-4.26-4.26c-2.35,0-4.26,1.91-4.26,4.26
	C795.47,602.28,797.38,604.18,799.73,604.18z"/>
<path class="st6" d="M797.17,558.31c1.52,0,2.75-1.23,2.75-2.75c0-1.52-1.23-2.75-2.75-2.75c-1.52,0-2.75,1.23-2.75,2.75
	C794.42,557.07,795.65,558.31,797.17,558.31z"/>
<path class="st5" d="M821.8,543.63c5.32,0,9.63-4.31,9.63-9.63c0-5.32-4.31-9.63-9.63-9.63c-5.32,0-9.63,4.31-9.63,9.63
	C812.17,539.32,816.48,543.63,821.8,543.63z"/>
<path class="st5" d="M816.29,581.74c4.56,0,8.25-3.69,8.25-8.25c0-4.56-3.69-8.25-8.25-8.25c-4.56,0-8.25,3.69-8.25,8.25
	C808.04,578.04,811.73,581.74,816.29,581.74z"/>
<path class="st3" d="M801.8,734.51c5.34,0,9.67-4.33,9.67-9.67c0-5.34-4.33-9.67-9.67-9.67c-5.34,0-9.67,4.33-9.67,9.67
	C792.13,730.18,796.46,734.51,801.8,734.51z"/>
<path class="st5" d="M801.8,734.51c5.34,0,9.67-4.33,9.67-9.67c0-5.34-4.33-9.67-9.67-9.67c-5.34,0-9.67,4.33-9.67,9.67
	C792.13,730.18,796.46,734.51,801.8,734.51z"/>
<path class="st3" d="M810.13,761.84c2.27,0,4.11-1.84,4.11-4.11c0-2.27-1.84-4.11-4.11-4.11c-2.27,0-4.11,1.84-4.11,4.11
	C806.02,760,807.86,761.84,810.13,761.84z"/>
<path class="st5" d="M810.13,761.84c2.27,0,4.11-1.84,4.11-4.11c0-2.27-1.84-4.11-4.11-4.11c-2.27,0-4.11,1.84-4.11,4.11
	C806.02,760,807.86,761.84,810.13,761.84z"/>
<path class="st3" d="M815.59,675.36c3.16,0,5.72-2.56,5.72-5.72c0-3.16-2.56-5.72-5.72-5.72c-3.16,0-5.72,2.56-5.72,5.72
	C809.87,672.8,812.43,675.36,815.59,675.36z"/>
<path class="st5" d="M815.59,675.36c3.16,0,5.72-2.56,5.72-5.72c0-3.16-2.56-5.72-5.72-5.72c-3.16,0-5.72,2.56-5.72,5.72
	C809.87,672.8,812.43,675.36,815.59,675.36z"/>
<path class="st3" d="M795.47,662.8c1.19,0,2.16-0.97,2.16-2.16c0-1.19-0.97-2.16-2.16-2.16c-1.19,0-2.16,0.97-2.16,2.16
	C793.31,661.83,794.28,662.8,795.47,662.8z"/>
<path class="st5" d="M795.47,662.8c1.19,0,2.16-0.97,2.16-2.16c0-1.19-0.97-2.16-2.16-2.16c-1.19,0-2.16,0.97-2.16,2.16
	C793.31,661.83,794.28,662.8,795.47,662.8z"/>
<path d="M808.11,800.48c1.15,0,2.09-0.94,2.09-2.09c0-1.16-0.94-2.09-2.09-2.09c-1.15,0-2.09,0.94-2.09,2.09
	C806.02,799.55,806.95,800.48,808.11,800.48z"/>
<path d="M796.62,824.31c1.93,0,3.5-1.57,3.5-3.5c0-1.93-1.57-3.5-3.5-3.5s-3.5,1.57-3.5,3.5
	C793.12,822.74,794.69,824.31,796.62,824.31z"/>
<path d="M812.2,843.15c2.77,0,5.01-2.24,5.01-5.01c0-2.77-2.24-5.01-5.01-5.01c-2.77,0-5.01,2.25-5.01,5.01
	C807.19,840.91,809.43,843.15,812.2,843.15z"/>
<path d="M804.77,792.98c0.42,0,0.76-0.34,0.76-0.76c0-0.42-0.34-0.76-0.76-0.76c-0.42,0-0.76,0.34-0.76,0.76
	C804.01,792.64,804.35,792.98,804.77,792.98z"/>
<path class="st3" d="M585.75,697.6c-2.94,0-5.33-2.39-5.33-5.33V432.88c0-21.7-17.66-39.36-39.36-39.36
	c-21.7,0-39.36,17.66-39.36,39.36v58.93c0,49.49-40.27,89.76-89.76,89.76c-49.5,0-89.76-40.27-89.76-89.76v-127.5
	c0-30.14-24.52-54.67-54.67-54.67c-30.14,0-54.67,24.52-54.67,54.67v54.6c0,2.94-2.39,5.33-5.33,5.33c-2.94,0-5.33-2.39-5.33-5.33
	v-54.6c0-36.03,29.31-65.34,65.34-65.34c36.03,0,65.34,29.31,65.34,65.34v127.5c0,43.61,35.48,79.09,79.09,79.09
	s79.09-35.48,79.09-79.09v-58.93c0-27.59,22.44-50.03,50.03-50.03c27.59,0,50.03,22.44,50.03,50.03v259.39
	C591.08,695.21,588.69,697.6,585.75,697.6z"/>
<path class="st5" d="M585.75,697.6c-2.94,0-5.33-2.39-5.33-5.33V432.88c0-21.7-17.66-39.36-39.36-39.36
	c-21.7,0-39.36,17.66-39.36,39.36v58.93c0,49.49-40.27,89.76-89.76,89.76c-49.5,0-89.76-40.27-89.76-89.76v-127.5
	c0-30.14-24.52-54.67-54.67-54.67c-30.14,0-54.67,24.52-54.67,54.67v54.6c0,2.94-2.39,5.33-5.33,5.33c-2.94,0-5.33-2.39-5.33-5.33
	v-54.6c0-36.03,29.31-65.34,65.34-65.34c36.03,0,65.34,29.31,65.34,65.34v127.5c0,43.61,35.48,79.09,79.09,79.09
	s79.09-35.48,79.09-79.09v-58.93c0-27.59,22.44-50.03,50.03-50.03c27.59,0,50.03,22.44,50.03,50.03v259.39
	C591.08,695.21,588.69,697.6,585.75,697.6z"/>
<path class="st3" d="M402.16,919h-26.67V158.8c0-7.37,5.97-13.34,13.34-13.34c7.37,0,13.34,5.97,13.34,13.34V919z"/>
<path class="st4" d="M402.16,919h-26.67V158.8c0-7.37,5.97-13.34,13.34-13.34c7.37,0,13.34,5.97,13.34,13.34V919z"/>
<path class="st3" d="M448.62,486.31H411.5v-13.34h37.12c1.77,0,3.47,0.7,4.72,1.95c1.25,1.25,1.95,2.95,1.95,4.72
	c0,1.77-0.7,3.46-1.95,4.72C452.08,485.61,450.39,486.31,448.62,486.31z"/>
<path class="st4" d="M448.62,486.31H411.5v-13.34h37.12c1.77,0,3.47,0.7,4.72,1.95c1.25,1.25,1.95,2.95,1.95,4.72
	c0,1.77-0.7,3.46-1.95,4.72C452.08,485.61,450.39,486.31,448.62,486.31z"/>
<path d="M488.05,896.33h426.78V919H488.05V896.33z"/>
<path class="st5" d="M488.05,896.33h426.78V919H488.05V896.33z"/>
<path class="st7" d="M509.56,696.27h13.34v200.05h-13.34V696.27z"/>
<path class="st8" d="M509.56,696.27h13.34v200.05h-13.34V696.27z"/>
<path class="st7" d="M879.98,696.27h13.34v200.05h-13.34V696.27z"/>
<path class="st8" d="M879.98,696.27h13.34v200.05h-13.34V696.27z"/>
<path class="st1" d="M201.44,771.07c0,0-0.51-12.42-2.67-18.28c6.33,2.84,12.17,15.56,12.17,15.56L201.44,771.07z"/>
<path class="st3" d="M290.6,889.66h164.68V919H290.6V889.66z"/>
<path class="st4" d="M290.6,889.66h164.68V919H290.6V889.66z"/>
<path class="st3" d="M250.39,856.2l-28.46-4.8v-21.42h11.34c4.55,0,8.52-3.51,8.65-8.05c0.03-1.11-0.16-2.22-0.56-3.26
	c-0.4-1.04-1.01-1.98-1.78-2.78c-0.77-0.8-1.7-1.43-2.73-1.87c-1.02-0.43-2.13-0.66-3.24-0.66h-51.87c-4.55,0-8.52,3.51-8.65,8.05
	c-0.03,1.11,0.16,2.22,0.56,3.26c0.4,1.04,1.01,1.98,1.78,2.78c0.77,0.8,1.7,1.43,2.73,1.87c1.02,0.43,2.13,0.66,3.24,0.66h11.68
	v21.42l-28.46,4.8c-3.1,0.52-5.87,2.26-7.7,4.82c-1.82,2.57-2.56,5.75-2.03,8.85l6.94,38.37c0.55,3.02,2.13,5.75,4.49,7.71
	c2.35,1.97,5.32,3.04,8.39,3.04h65.63c3.07,0,6.03-1.08,8.39-3.04c2.35-1.97,3.94-4.7,4.49-7.71l6.94-38.37
	c0.26-1.54,0.21-3.11-0.14-4.63c-0.35-1.52-0.99-2.96-1.9-4.22c-0.9-1.27-2.05-2.35-3.37-3.18
	C253.4,857.02,251.93,856.46,250.39,856.2z"/>
<path class="st4" d="M250.39,856.2l-28.46-4.8v-21.42h11.34c4.55,0,8.52-3.51,8.65-8.05c0.03-1.11-0.16-2.22-0.56-3.26
	c-0.4-1.04-1.01-1.98-1.78-2.78c-0.77-0.8-1.7-1.43-2.73-1.87c-1.02-0.43-2.13-0.66-3.24-0.66h-51.87c-4.55,0-8.52,3.51-8.65,8.05
	c-0.03,1.11,0.16,2.22,0.56,3.26c0.4,1.04,1.01,1.98,1.78,2.78c0.77,0.8,1.7,1.43,2.73,1.87c1.02,0.43,2.13,0.66,3.24,0.66h11.68
	v21.42l-28.46,4.8c-3.1,0.52-5.87,2.26-7.7,4.82c-1.82,2.57-2.56,5.75-2.03,8.85l6.94,38.37c0.55,3.02,2.13,5.75,4.49,7.71
	c2.35,1.97,5.32,3.04,8.39,3.04h65.63c3.07,0,6.03-1.08,8.39-3.04c2.35-1.97,3.94-4.7,4.49-7.71l6.94-38.37
	c0.26-1.54,0.21-3.11-0.14-4.63c-0.35-1.52-0.99-2.96-1.9-4.22c-0.9-1.27-2.05-2.35-3.37-3.18
	C253.4,857.02,251.93,856.46,250.39,856.2z"/>
<path class="st9" d="M228.67,778.99c-5.44-17.65-16.43-27.23-21.02-32.04c-2.57,20-23.47,26.26-21.39,45.08
	c1.7,15.39,16.44,20.03,23.56,18.82C224.9,808.3,232.83,792.5,228.67,778.99z"/>
<path d="M216.44,792.51c-2.12-9.45-6.62-14.29-9.02-16.81c-1.35,10.49-12.32,13.78-11.23,23.65c0.89,8.07,8.62,10.51,12.36,9.87
	C216.47,807.88,217.68,798.06,216.44,792.51z"/>
<path class="st3" d="M169.67,876.76l4.54,25.12c0.19,1.06,0.75,2.02,1.57,2.71c0.83,0.69,1.87,1.07,2.94,1.07h57.53
	c1.08,0,2.12-0.38,2.94-1.07c0.83-0.69,1.38-1.65,1.57-2.71l4.54-25.12H169.67z"/>
<path class="st4" d="M207.5,813.36v80.29 M169.67,876.77l4.54,25.12c0.19,1.06,0.75,2.02,1.57,2.71c0.83,0.69,1.87,1.07,2.94,1.07
	h57.53c1.08,0,2.12-0.38,2.94-1.07c0.83-0.69,1.38-1.65,1.57-2.71l4.54-25.12H169.67z"/>
<path class="st3" d="M230.17,512.32v-77.4h-45.35v77.4c0,2.05-0.64,4.05-1.84,5.72c-1.2,1.66-2.89,2.91-4.84,3.55
	c-37.98,12.57-65.16,48.86-63.97,91.33c1.39,49.34,41.69,89.45,91.04,90.63c52.6,1.25,95.64-41.01,95.64-93.33
	c0-41.27-26.79-76.28-63.92-88.61C232.91,520.28,230.17,516.55,230.17,512.32z"/>
<path class="st4" d="M230.17,512.32v-77.4h-45.35v77.4c0,2.05-0.64,4.05-1.84,5.72c-1.2,1.66-2.89,2.91-4.84,3.55
	c-37.98,12.57-65.16,48.86-63.97,91.33c1.39,49.34,41.69,89.45,91.04,90.63c52.6,1.25,95.64-41.01,95.64-93.33
	c0-41.27-26.79-76.28-63.92-88.61C232.91,520.28,230.17,516.55,230.17,512.32z"/>
<path class="st5" d="M284.26,587.58h-0.03c-1.81-8.07-9.01-14.11-17.63-14.11c-4.02,0-7.92,1.34-11.09,3.82
	c-2.17-1.59-4.79-2.45-7.49-2.45c-2.59,0-5.11,0.79-7.23,2.26c0.03-0.34,0.05-0.68,0.05-1.02c0-3.38-1.34-6.62-3.73-9.01
	c-2.39-2.39-5.63-3.73-9.01-3.73c-1.92,0-3.82,0.44-5.54,1.28c-4.44-6.51-11.92-10.79-20.4-10.79c-13.63,0-24.67,11.05-24.67,24.67
	c0,3.21,1.74,9.07,1.74,9.07c0.03-0.37,0.03,0.01,0.03-0.37c0-8.1-8.34-15.41-16.44-15.41s-14.67,6.57-14.67,14.67
	c0,0.37,0.03,0.74,0.06,1.11H130.7c-2.36,8.11-3.43,16.53-3.19,24.97c0.58,20.43,8.96,39.72,23.61,54.3
	c14.65,14.59,33.97,22.89,54.41,23.37c0.66,0.02,1.31,0.02,1.96,0.02h0c21.37,0,41.47-8.32,56.58-23.44
	c15.11-15.11,23.44-35.21,23.44-56.58C287.52,602.56,286.42,594.93,284.26,587.58z"/>
<path class="st5" d="M150.68,594.7c-1.65-2.43-2.54-5.3-2.53-8.24c0-8.1,6.57-14.67,14.67-14.67s16.42,3.95,16.42,14.67"/>
<path class="st5" d="M177.72,581.9c-0.15-1.12-0.23-2.25-0.23-3.39c0-13.63,11.05-24.67,24.67-24.67c8.48,0,15.96,4.27,20.4,10.79"
	/>
<path class="st5" d="M216.11,571.79c1.13-3.14,3.44-5.72,6.44-7.18c1.94-0.94,4.09-1.37,6.24-1.25c2.15,0.12,4.24,0.78,6.07,1.93
	c1.83,1.15,3.34,2.74,4.38,4.63c1.04,1.89,1.59,4.01,1.59,6.17 M242.72,576c1.66-0.76,3.47-1.16,5.3-1.15c2.8,0,5.39,0.91,7.5,2.44"
	/>
<path class="st5" d="M248.52,591.55c0-5.8,2.73-10.97,6.98-14.27c3.17-2.47,7.08-3.81,11.1-3.81c8.62,0,15.83,6.03,17.64,14.11"/>
<path class="st3" d="M195.01,398.86h24.98v47.35h-24.98V398.86z"/>
<path class="st5" d="M195.01,398.86h24.98v47.35h-24.98V398.86z"/>
<path class="st10" d="M235.51,434.92h-56.01c-2.83,0-5.54-1.12-7.54-3.13c-2-2-3.13-4.71-3.13-7.54s1.12-5.54,3.13-7.54
	c2-2,4.71-3.13,7.54-3.13h56.01c2.83,0,5.54,1.12,7.54,3.13c2,2,3.13,4.71,3.13,7.54s-1.12,5.54-3.13,7.54
	C241.05,433.79,238.34,434.92,235.51,434.92z"/>
<path class="st5" d="M235.51,434.92h-56.01c-2.83,0-5.54-1.12-7.54-3.13c-2-2-3.13-4.71-3.13-7.54s1.12-5.54,3.13-7.54
	c2-2,4.71-3.13,7.54-3.13h56.01c2.83,0,5.54,1.12,7.54,3.13c2,2,3.13,4.71,3.13,7.54s-1.12,5.54-3.13,7.54
	C241.05,433.79,238.34,434.92,235.51,434.92z"/>
<path class="st3" d="M207.5,529.97c5.52,0,10-4.48,10-10c0-5.52-4.48-10-10-10s-10,4.48-10,10
	C197.5,525.5,201.97,529.97,207.5,529.97z"/>
<path class="st11" d="M207.5,529.97c5.52,0,10-4.48,10-10c0-5.52-4.48-10-10-10s-10,4.48-10,10
	C197.5,525.5,201.97,529.97,207.5,529.97z"/>
<path class="st3" d="M238.92,558.9c2.95,0,5.33-2.39,5.33-5.33c0-2.95-2.39-5.33-5.33-5.33c-2.95,0-5.33,2.39-5.33,5.33
	C233.59,556.51,235.98,558.9,238.92,558.9z"/>
<path class="st6" d="M184.82,544.62c1.28,0,2.32-1.04,2.32-2.32c0-1.28-1.04-2.32-2.32-2.32c-1.28,0-2.32,1.04-2.32,2.32
	C182.5,543.58,183.54,544.62,184.82,544.62z"/>
<path d="M184.52,631.31c2.92,0,5.28-2.37,5.28-5.28c0-2.92-2.37-5.28-5.28-5.28c-2.92,0-5.28,2.37-5.28,5.28
	C179.24,628.95,181.6,631.31,184.52,631.31z"/>
<path d="M212.72,661.54c4.69,0,8.5-3.81,8.5-8.5c0-4.7-3.81-8.5-8.5-8.5c-4.7,0-8.5,3.81-8.5,8.5
	C204.22,657.74,208.02,661.54,212.72,661.54z"/>
<path d="M242.72,632.34c1.71,0,3.09-1.38,3.09-3.09c0-1.71-1.38-3.09-3.09-3.09s-3.09,1.38-3.09,3.09
	C239.63,630.96,241.01,632.34,242.72,632.34z"/>
<path d="M216.11,607.39c1.21,0,2.2-0.98,2.2-2.2c0-1.21-0.98-2.2-2.2-2.2c-1.21,0-2.2,0.98-2.2,2.2
	C213.91,606.41,214.9,607.39,216.11,607.39z"/>
<path class="st3" d="M366.15,456.97h45.35v45.35h-45.35V456.97z"/>
<path class="st5" d="M366.15,456.97h45.35v45.35h-45.35V456.97z"/>
<path class="st3" d="M607.24,764.29c-1.41,0-2.77-0.56-3.77-1.56c-1-1-1.56-2.36-1.56-3.77V585.99c0-28.91,23.52-52.43,52.43-52.43
	s52.43,23.52,52.43,52.43v120.28c0,1.41-0.56,2.77-1.56,3.77c-1,1-2.36,1.56-3.77,1.56c-1.41,0-2.77-0.56-3.77-1.56
	s-1.56-2.36-1.56-3.77V585.99c0-23.03-18.73-41.76-41.76-41.76c-23.03,0-41.76,18.73-41.76,41.76v172.96c0,1.41-0.56,2.77-1.56,3.77
	C610.02,763.73,608.66,764.29,607.24,764.29z"/>
<path class="st5" d="M607.24,764.29c-1.41,0-2.77-0.56-3.77-1.56c-1-1-1.56-2.36-1.56-3.77V585.99c0-28.91,23.52-52.43,52.43-52.43
	s52.43,23.52,52.43,52.43v120.28c0,1.41-0.56,2.77-1.56,3.77c-1,1-2.36,1.56-3.77,1.56c-1.41,0-2.77-0.56-3.77-1.56
	s-1.56-2.36-1.56-3.77V585.99c0-23.03-18.73-41.76-41.76-41.76c-23.03,0-41.76,18.73-41.76,41.76v172.96c0,1.41-0.56,2.77-1.56,3.77
	C610.02,763.73,608.66,764.29,607.24,764.29z"/>
<path class="st3" d="M701.44,874.99c-13.99,0-25.34-11.35-25.34-25.34V650.93h50.68v198.72
	C726.78,863.64,715.43,874.99,701.44,874.99z"/>
<path class="st4" d="M701.44,874.99c-13.99,0-25.34-11.35-25.34-25.34V650.93h50.68v198.72
	C726.78,863.64,715.43,874.99,701.44,874.99z"/>
<path class="st3" d="M680.43,603.36h42.01v47.57h-42.01V603.36z"/>
<path class="st5" d="M680.43,603.36h42.01v47.57h-42.01V603.36z"/>
<path class="st3" d="M730.78,629.59H672.1c-2.83,0-5.54,1.12-7.54,3.13c-2,2-3.13,4.71-3.13,7.54c0,2.83,1.12,5.54,3.13,7.54
	c2,2,4.71,3.13,7.54,3.13h58.68c2.83,0,5.54-1.12,7.55-3.13c2-2,3.12-4.71,3.12-7.54c0-2.83-1.12-5.54-3.12-7.54
	C736.32,630.71,733.61,629.59,730.78,629.59z"/>
<path class="st4" d="M730.78,629.59H672.1c-2.83,0-5.54,1.12-7.54,3.13c-2,2-3.13,4.71-3.13,7.54c0,2.83,1.12,5.54,3.13,7.54
	c2,2,4.71,3.13,7.54,3.13h58.68c2.83,0,5.54-1.12,7.55-3.13c2-2,3.12-4.71,3.12-7.54c0-2.83-1.12-5.54-3.12-7.54
	C736.32,630.71,733.61,629.59,730.78,629.59z"/>
<path class="st3" d="M688.1,808.51v41.14c0,7.35,5.98,13.34,13.34,13.34c7.35,0,13.34-5.98,13.34-13.34v-41.14H688.1z"/>
<path class="st5" d="M688.1,808.51v41.14c0,7.35,5.98,13.34,13.34,13.34c7.35,0,13.34-5.98,13.34-13.34v-41.14H688.1z"/>
<path class="st3" d="M696.93,777.63c2.21,0,4-1.79,4-4c0-2.21-1.79-4-4-4c-2.21,0-4,1.79-4,4
	C692.93,775.84,694.72,777.63,696.93,777.63z"/>
<path class="st5" d="M696.93,777.63c2.21,0,4-1.79,4-4c0-2.21-1.79-4-4-4c-2.21,0-4,1.79-4,4
	C692.93,775.84,694.72,777.63,696.93,777.63z"/>
<path class="st3" d="M703.6,739.95c3.68,0,6.67-2.99,6.67-6.67c0-3.68-2.99-6.67-6.67-6.67c-3.68,0-6.67,2.99-6.67,6.67
	C696.94,736.97,699.92,739.95,703.6,739.95z"/>
<path class="st5" d="M703.6,739.95c3.68,0,6.67-2.99,6.67-6.67c0-3.68-2.99-6.67-6.67-6.67c-3.68,0-6.67,2.99-6.67,6.67
	C696.94,736.97,699.92,739.95,703.6,739.95z"/>
<path class="st3" d="M704.49,796.3c1.47,0,2.67-1.19,2.67-2.67c0-1.47-1.19-2.67-2.67-2.67s-2.67,1.19-2.67,2.67
	C701.82,795.1,703.02,796.3,704.49,796.3z"/>
<path class="st5" d="M704.49,796.3c1.47,0,2.67-1.19,2.67-2.67c0-1.47-1.19-2.67-2.67-2.67s-2.67,1.19-2.67,2.67
	C701.82,795.1,703.02,796.3,704.49,796.3z"/>
<path d="M699.33,840.53c1.32,0,2.39-1.07,2.39-2.39c0-1.32-1.07-2.39-2.39-2.39c-1.32,0-2.39,1.07-2.39,2.39
	C696.94,839.46,698.01,840.53,699.33,840.53z"/>
<path d="M700.66,828.41c2.12,0,3.83-1.71,3.83-3.83c0-2.12-1.71-3.83-3.83-3.83c-2.11,0-3.83,1.71-3.83,3.83
	C696.83,826.7,698.55,828.41,700.66,828.41z"/>
<path class="st3" d="M575.41,603.36h42.01v47.57h-42.01V603.36z"/>
<path class="st5" d="M575.41,603.36h42.01v47.57h-42.01V603.36z"/>
<path class="st3" d="M625.75,629.59h-58.68c-2.83,0-5.54,1.12-7.54,3.13c-2,2-3.13,4.71-3.13,7.54c0,2.83,1.12,5.54,3.13,7.54
	c2,2,4.71,3.13,7.54,3.13h58.68c2.83,0,5.54-1.12,7.55-3.13c2-2,3.12-4.71,3.12-7.54c0-2.83-1.12-5.54-3.12-7.54
	C631.3,630.71,628.58,629.59,625.75,629.59z"/>
<path class="st4" d="M625.75,629.59h-58.68c-2.83,0-5.54,1.12-7.54,3.13c-2,2-3.13,4.71-3.13,7.54c0,2.83,1.12,5.54,3.13,7.54
	c2,2,4.71,3.13,7.54,3.13h58.68c2.83,0,5.54-1.12,7.55-3.13c2-2,3.12-4.71,3.12-7.54c0-2.83-1.12-5.54-3.12-7.54
	C631.3,630.71,628.58,629.59,625.75,629.59z"/>
<path class="st3" d="M596.41,874.99c-13.99,0-25.34-11.35-25.34-25.34V650.93h50.68v198.72
	C621.75,863.64,610.41,874.99,596.41,874.99z"/>
<path class="st4" d="M596.41,874.99c-13.99,0-25.34-11.35-25.34-25.34V650.93h50.68v198.72
	C621.75,863.64,610.41,874.99,596.41,874.99z"/>
<path class="st12" d="M583.08,743.39v106.25c0,7.35,5.98,13.34,13.34,13.34s13.34-5.98,13.34-13.34V743.39H583.08z"/>
<path d="M592.59,794.79c2.11,0,3.83-1.71,3.83-3.83c0-2.12-1.71-3.83-3.83-3.83c-2.12,0-3.83,1.71-3.83,3.83
	C588.75,793.08,590.47,794.79,592.59,794.79z"/>
<path d="M591.08,724.63c1.42,0,2.58-1.15,2.58-2.58c0-1.42-1.15-2.58-2.58-2.58c-1.42,0-2.58,1.15-2.58,2.58
	C588.5,723.48,589.65,724.63,591.08,724.63z"/>
<path d="M600.24,760.79c0.92,0,1.66-0.74,1.66-1.66c0-0.92-0.75-1.66-1.66-1.66s-1.66,0.75-1.66,1.66
	C598.58,760.05,599.32,760.79,600.24,760.79z"/>
<path d="M600.24,818.53c0.89,0,1.61-0.72,1.61-1.61s-0.72-1.61-1.61-1.61c-0.89,0-1.61,0.72-1.61,1.61S599.36,818.53,600.24,818.53z
	"/>
<path d="M488.05,685.6h426.78v10.67H488.05V685.6z"/>
<path class="st5" d="M488.05,685.6h426.78v10.67H488.05V685.6z"/>
<path class="st3" d="M315.94,375.32h22.9v117.63h-22.9V375.32z"/>
<path class="st4" d="M315.94,375.32h22.9v117.63h-22.9V375.32z"/>
<path class="st3" d="M255.15,472.98h111v13.34h-111V472.98z"/>
<path class="st4" d="M255.15,472.98h111v13.34h-111V472.98z"/>
<path class="st3" d="M167.49,496.98h80.02c9.58,0,17.34-7.76,17.34-17.34c0-9.58-7.76-17.34-17.34-17.34h-80.02
	c-9.58,0-17.34,7.76-17.34,17.34C150.15,489.22,157.91,496.98,167.49,496.98z"/>
<path class="st5" d="M167.49,496.98h80.02c9.58,0,17.34-7.76,17.34-17.34c0-9.58-7.76-17.34-17.34-17.34h-80.02
	c-9.58,0-17.34,7.76-17.34,17.34C150.15,489.22,157.91,496.98,167.49,496.98z"/>
<path class="st13" d="M-0.47,919H999.79"/>
</svg>
