<?xml version="1.0" encoding="utf-8"?>
<!-- Generator: Adobe Illustrator 24.3.0, SVG Export Plug-In . SVG Version: 6.00 Build 0)  -->
<svg version="1.1" id="Слой_1" xmlns="http://www.w3.org/2000/svg" xmlns:xlink="http://www.w3.org/1999/xlink" x="0px" y="0px"
	 viewBox="0 0 1000 1000" style="enable-background:new 0 0 1000 1000;" xml:space="preserve">
<style type="text/css">
	.st0{fill:#FFFFFF;}
</style>
<path d="M162.99,623.91c-1.77-3.6-6.73-5.86-9.89-3.47c-4.28-6.85-13.9-8.44-21.71-6.42c-7.82,2.02-14.64,6.73-22.02,10.08
	c-5.3,2.42-11.23,4.34-14.76,8.93c-1.92,3.06-3.55,6.29-4.87,9.65c-4.13,8.1-11.91,13.62-19.39,18.61
	c-2.57-4.75-9.58-4.25-14.58-2.23c-8.78,3.47-22.11-2.23-27.91,3.82c-10.51-15.01-19.73-11.04-25-1.4v91.37l144.88-16.32
	c6.41-33.5,11.82-67.17,16.22-101.02C164.75,631.63,164.41,627.6,162.99,623.91z"/>
<path d="M2.7,754.55c-0.2,0-0.41-0.03-0.6-0.11c-0.19-0.08-0.36-0.19-0.51-0.34c-0.14-0.14-0.26-0.32-0.34-0.51
	c-0.08-0.19-0.11-0.39-0.11-0.6v-91.37c0-0.25,0.06-0.5,0.19-0.71c3.1-5.8,7.41-9.15,11.97-9.3s9.83,2.82,14.67,9.3
	c3.82-2.64,9.3-2.36,14.58-2.08c4.22,0.56,8.5,0.24,12.59-0.93c5.52-2.2,12.16-2.45,15.51,1.55c6.64-4.59,13.83-9.86,17.65-17.34
	c0.53-1.05,0.99-2.17,1.46-3.1c0.88-2.46,2.09-4.78,3.6-6.92c3.44-3.79,7.8-6.62,12.65-8.22l2.73-1.18c2.45-1.12,4.9-2.45,7.29-3.69
	c4.71-2.74,9.73-4.92,14.95-6.48c7.47-1.92,17.43-0.81,22.61,5.89c1.4-0.56,2.94-0.66,4.4-0.28c1.38,0.33,2.66,0.96,3.77,1.84
	c1.11,0.88,2.01,1.99,2.65,3.25c1.53,4.04,1.86,8.43,0.96,12.65c-4.4,33.68-9.99,67.71-16.19,101.11c-0.06,0.32-0.23,0.61-0.47,0.84
	c-0.24,0.22-0.54,0.36-0.87,0.4L2.98,754.55H2.7z M4.25,662.03v89.26l142.02-16.04c6.2-32.97,11.66-66.56,15.97-99.81
	c0.86-3.61,0.63-7.4-0.65-10.89c-0.43-0.85-1.05-1.6-1.8-2.19c-0.75-0.59-1.62-1.02-2.55-1.25c-0.52-0.14-1.07-0.16-1.61-0.07
	c-0.54,0.09-1.04,0.29-1.49,0.6c-0.18,0.13-0.38,0.23-0.59,0.28c-0.21,0.05-0.43,0.06-0.65,0.03c-0.21-0.04-0.41-0.13-0.58-0.25
	c-0.18-0.12-0.33-0.28-0.44-0.46c-4-6.45-13.18-7.51-20.04-5.77c-4.98,1.51-9.77,3.59-14.27,6.2c-2.42,1.27-4.93,2.61-7.47,3.78
	l-2.76,1.21c-4.36,1.43-8.3,3.92-11.45,7.26c-1.28,1.84-2.32,3.83-3.1,5.92c-0.5,1.18-0.99,2.33-1.55,3.44
	c-4.4,8.68-12.65,14.36-19.91,19.35c-0.18,0.13-0.38,0.22-0.59,0.26c-0.21,0.04-0.44,0.04-0.65-0.01c-0.21-0.04-0.42-0.14-0.59-0.27
	c-0.17-0.13-0.31-0.31-0.4-0.51c-2.02-3.72-7.97-3.41-12.65-1.55c-4.5,1.36-9.23,1.75-13.9,1.15c-5.55-0.28-10.76-0.56-13.59,2.33
	c-0.17,0.15-0.36,0.27-0.58,0.35c-0.21,0.07-0.44,0.1-0.67,0.09c-0.23-0.01-0.45-0.08-0.65-0.19c-0.2-0.11-0.37-0.27-0.5-0.46
	c-4.44-6.2-8.84-9.3-12.93-9.3C10.11,654.8,6.85,657.44,4.25,662.03z"/>
<path d="M880.37,669.35c3.64,0.42,7.09,1.86,9.95,4.14c2.87,2.28,5.04,5.32,6.27,8.77c5.73,2.32,10.67,6.24,14.24,11.29
	c0.5,0.8,1.14,1.51,1.89,2.08c1.06,0.52,2.24,0.73,3.41,0.62c3.69-0.23,7.36,0.65,10.55,2.51c1.54,1,2.66,2.54,3.12,4.32
	c0.46,1.78,0.23,3.67-0.64,5.29c5.25-1.46,10.85-0.93,15.73,1.49c-0.88-7.55,0.75-15.19,4.65-21.71c2.61-4.28,7.85-8.34,12.23-5.86
	c0.14-1.39,0.76-2.68,1.77-3.64c1-0.97,2.33-1.55,3.71-1.64c1.4-0.09,2.77,0.32,3.89,1.15c1.12,0.83,1.91,2.03,2.22,3.39
	c4.32,1.06,7.04-4.22,9.9-7.6c3.36-3.4,7.49-5.95,12.03-7.44c1.02-0.43,2.54-0.71,3.1,0.31c0.09,0.36,0.09,0.73,0,1.09
	c-0.65,8.9-0.93,17.8-1.58,26.71v62.37c-1.17,0-2.33,0-3.5,0H856.36c0,0.84,0,1.67,0,2.51c0.19-16.44-4.06-32.57-6.36-48.82
	c-2.08-14.55-3.1-31.26,3.44-44.94C859.12,653.9,876.15,657.96,880.37,669.35z"/>
<path d="M856.52,760.97c-0.4,0-0.79-0.15-1.07-0.43c-0.29-0.28-0.46-0.66-0.48-1.06c0-0.43,0-0.87,0-1.33v-1.18
	c-0.02-0.12-0.02-0.25,0-0.37c-0.49-10.42-1.79-20.79-3.88-31.02c-0.87-4.84-1.77-9.83-2.48-14.79c-1.92-13.65-3.29-31.2,3.6-45.81
	c1.13-2.53,3.01-4.65,5.38-6.08c2.37-1.43,5.13-2.09,7.9-1.89c3.4,0.18,6.69,1.29,9.51,3.21c2.82,1.92,5.05,4.58,6.46,7.68
	c3.64,0.57,7.07,2.08,9.95,4.39c2.87,2.31,5.09,5.33,6.43,8.76c5.72,2.48,10.66,6.48,14.27,11.57c0.37,0.63,0.86,1.18,1.43,1.64
	c0.81,0.36,1.7,0.5,2.57,0.4c4.02-0.25,8.03,0.74,11.47,2.82c1.38,0.98,2.47,2.31,3.17,3.84c0.71,1.53,1,3.22,0.87,4.91
	c3.9-0.59,7.88-0.2,11.59,1.12c-0.34-7.04,1.43-14.01,5.09-20.04c2.76-4.62,7.82-8.31,12.4-7.13c0.54-1.41,1.49-2.62,2.73-3.47
	c1.24-0.86,2.71-1.31,4.21-1.31c1.51,0,2.98,0.46,4.22,1.31c1.24,0.85,2.19,2.07,2.72,3.47c1.93,0,3.6-2.05,5.81-4.96
	c0.59-0.78,1.14-1.55,1.73-2.2c3.51-3.61,7.84-6.32,12.63-7.88c2.3-0.96,4.25-0.53,5,1.09c0.25,0.59,0.34,1.23,0.24,1.86
	c-0.33,4.44-0.56,8.87-0.8,13.34c-0.25,4.47-0.47,8.9-0.78,13.34v62.22c0.01,0.21-0.03,0.42-0.11,0.61
	c-0.08,0.19-0.2,0.37-0.35,0.51c-0.31,0.28-0.7,0.43-1.12,0.43h-1.27h-2.21H858.1v0.99c0,0.4-0.16,0.79-0.44,1.07
	c-0.28,0.28-0.67,0.44-1.07,0.44L856.52,760.97z M858.04,755.36H993.3h1.95v-60.73c0.33-4.56,0.56-8.99,0.8-13.4
	c0.25-4.4,0.47-8.96,0.78-13.43c-0.34,0.01-0.67,0.1-0.97,0.25c-4.32,1.41-8.24,3.81-11.47,7.01l-1.61,2.08
	c-2.39,3.1-5.4,7.1-9.84,6.2c-0.28-0.07-0.54-0.22-0.74-0.43c-0.2-0.21-0.34-0.47-0.41-0.75c-0.26-0.99-0.84-1.87-1.66-2.48
	c-0.82-0.61-1.82-0.93-2.85-0.9c-1.02,0.1-1.97,0.55-2.72,1.26c-0.74,0.71-1.21,1.66-1.34,2.68c-0.02,0.26-0.1,0.51-0.24,0.73
	c-0.15,0.22-0.33,0.39-0.57,0.52c-0.23,0.11-0.48,0.17-0.74,0.17c-0.26,0-0.51-0.06-0.74-0.17c-3.56-2.02-8.03,1.89-10.11,5.3
	c-3.73,6.21-5.29,13.49-4.43,20.69c0.03,0.28-0.02,0.56-0.14,0.82c-0.11,0.26-0.29,0.48-0.51,0.64c-0.24,0.15-0.51,0.22-0.79,0.22
	c-0.28,0-0.56-0.08-0.79-0.22c-4.53-2.25-9.73-2.75-14.61-1.4c-0.32,0.09-0.64,0.08-0.95-0.02c-0.31-0.11-0.58-0.3-0.76-0.57
	c-0.18-0.26-0.28-0.58-0.28-0.9c0-0.32,0.1-0.64,0.28-0.9c0.63-1.28,0.77-2.75,0.38-4.13c-0.39-1.38-1.27-2.56-2.48-3.32
	c-2.92-1.7-6.28-2.47-9.65-2.23c-1.46,0.11-2.92-0.19-4.22-0.87c-0.89-0.61-1.65-1.4-2.2-2.33c-3.44-4.87-8.19-8.66-13.71-10.92
	c-0.21-0.08-0.39-0.2-0.54-0.37c-0.15-0.16-0.26-0.35-0.33-0.56c-1.13-3.17-3.13-5.96-5.77-8.05c-2.64-2.09-5.81-3.41-9.15-3.8
	c-0.29-0.03-0.56-0.13-0.79-0.31c-0.23-0.17-0.41-0.41-0.51-0.68c-1.09-2.75-2.95-5.14-5.35-6.87c-2.4-1.73-5.25-2.74-8.21-2.9
	c-2.15-0.15-4.3,0.36-6.16,1.47c-1.85,1.11-3.32,2.76-4.2,4.73c-6.51,13.89-5.21,30.86-3.32,44.07c0.71,4.9,1.58,9.86,2.45,14.7
	C856.14,735.19,857.46,745.24,858.04,755.36z"/>
<path class="st0" d="M1.55,750.08l126.02-14.7h737.94H997.8v68.67H1.55V750.08z"/>
<path d="M997.8,805.6H1.55c-0.41,0-0.81-0.16-1.1-0.45c-0.29-0.29-0.45-0.69-0.45-1.1v-53.97c0-0.38,0.13-0.75,0.39-1.04
	c0.25-0.29,0.6-0.47,0.98-0.51l126.11-14.7H997.8c0.41,0,0.8,0.16,1.1,0.45c0.29,0.29,0.46,0.68,0.46,1.1v68.67
	c0,0.41-0.17,0.81-0.46,1.1C998.6,805.44,998.2,805.6,997.8,805.6z M3.1,802.5h993.14v-65.57H127.48L3.1,751.45V802.5z"/>
<path d="M997.8,805.6H1.55c-0.41,0-0.81-0.16-1.1-0.45c-0.29-0.29-0.45-0.68-0.45-1.1V157.8c0-0.41,0.16-0.81,0.45-1.1
	c0.29-0.29,0.69-0.45,1.1-0.45H997.8c0.41,0,0.8,0.16,1.1,0.45c0.29,0.29,0.46,0.69,0.46,1.1v646.26c0,0.41-0.17,0.81-0.46,1.1
	C998.6,805.44,998.2,805.6,997.8,805.6z M3.1,802.5h993.14V159.35H3.1V802.5z"/>
<path d="M534.53,489.67h-34.86v25.03h34.86V489.67z"/>
<path d="M534.54,516.28h-34.86c-0.41,0-0.81-0.16-1.1-0.45c-0.29-0.29-0.45-0.69-0.45-1.1v-25.06c0-0.41,0.16-0.81,0.45-1.1
	c0.29-0.29,0.69-0.46,1.1-0.46h34.86c0.41,0,0.81,0.16,1.1,0.46c0.29,0.29,0.45,0.68,0.45,1.1v25.06c0,0.41-0.16,0.81-0.45,1.1
	C535.34,516.12,534.95,516.28,534.54,516.28z M501.22,513.18h31.76v-21.96h-31.76V513.18z"/>
<path class="st0" d="M556.37,524.75v-45.41c0,0,91.13,0,172.05,17.59c94.91,20.63,133.18,59.27,133.18,59.27l4.06,45.84
	l-186.87,4.84l-111.66-68.89L556.37,524.75z"/>
<path d="M678.64,608.43c-0.28,0.01-0.56-0.07-0.81-0.22l-111.66-68.89c-0.16-0.09-0.3-0.22-0.4-0.37l-10.48-13.24
	c-0.23-0.27-0.35-0.61-0.34-0.96v-45.41c0-0.41,0.16-0.81,0.45-1.1c0.29-0.29,0.68-0.45,1.1-0.45c0.9,0,92.21,0.22,172.36,17.62
	c49.22,10.7,82.97,26.33,102.63,37.56c11.32,6.06,21.84,13.5,31.33,22.15c0.25,0.26,0.41,0.6,0.43,0.96l3.82,45.81
	c0.02,0.21,0,0.42-0.07,0.62s-0.18,0.38-0.33,0.53c-0.13,0.16-0.3,0.29-0.48,0.38c-0.19,0.09-0.39,0.14-0.6,0.14l-186.9,4.84
	L678.64,608.43z M567.91,536.75l111.13,68.48l184.8-4.78l-3.75-43.55c-4.28-4.03-43.73-39.27-132.01-58.47
	c-74.1-16.1-157.78-17.43-170.15-17.52v43.42L567.91,536.75z"/>
<path class="st0" d="M841.94,590.91v-20.04l-11.35-5.83v21.71c-5.21-1.86-11.04-3.82-17.59-5.83v-21.25l-11.85-5.74v23.48
	c-6.76-1.88-14.12-3.8-22.08-5.77v-24.07l-13.99-5.68v26.55c-3.82-0.87-7.72-1.71-11.79-2.51c-4.96-1.02-9.93-1.95-14.83-2.82
	v-28.22l-16.59-2.92v28.32c-10.73-1.61-21.22-2.88-31.3-3.91v-29.43l-16.59-2.92v30.83c-11.57-0.9-22.42-1.49-32.29-1.86
	c0-12.22-0.19-34.86-0.19-34.86l-16.04-0.68l-0.43,35.11c-23.97-0.34-38.99,0.56-38.99,0.56s-2.17,56.33,3.78,83.37
	c5.96,27.05,91.4,98.76,91.4,98.76h184.42V601.89C858.09,597.56,850.15,593.88,841.94,590.91z"/>
<path d="M865.67,736.93H681.24c-0.36-0.02-0.71-0.15-0.99-0.37c-3.5-2.95-85.91-72.49-91.93-99.72
	c-6.02-27.23-3.91-81.45-3.82-83.74c0.02-0.38,0.18-0.74,0.45-1.01c0.27-0.27,0.63-0.43,1.01-0.45c0.16,0,14.7-0.9,37.56-0.62
	l0.4-33.56c0-0.21,0.04-0.42,0.13-0.61c0.09-0.19,0.21-0.36,0.37-0.51c0.15-0.14,0.32-0.25,0.52-0.32c0.19-0.07,0.4-0.1,0.6-0.08
	l16.04,0.68c0.39,0.02,0.77,0.18,1.05,0.46c0.28,0.28,0.43,0.66,0.44,1.06c0,0.22,0.22,21.06,0.19,33.4
	c9.68,0.37,19.45,0.93,29.19,1.67v-29.16c-0.01-0.23,0.04-0.45,0.14-0.66c0.1-0.2,0.24-0.38,0.42-0.52
	c0.17-0.15,0.36-0.26,0.58-0.32c0.22-0.06,0.44-0.07,0.66-0.02l16.59,2.92c0.36,0.06,0.69,0.24,0.93,0.52
	c0.24,0.28,0.37,0.63,0.37,1v27.91c9.46,0.99,18.92,2.17,28.19,3.54v-26.52c0-0.23,0.04-0.45,0.13-0.66s0.23-0.4,0.39-0.55
	c0.36-0.28,0.82-0.4,1.27-0.34l16.59,2.92c0.36,0.07,0.69,0.26,0.93,0.54c0.24,0.28,0.37,0.64,0.37,1.01v26.74
	c4.49,0.81,9.02,1.67,13.59,2.61c3.41,0.68,6.7,1.4,9.93,2.08v-24.6c0.01-0.25,0.07-0.5,0.19-0.72c0.12-0.22,0.29-0.41,0.49-0.56
	c0.21-0.14,0.46-0.23,0.71-0.25c0.25-0.03,0.51,0.01,0.75,0.1l13.99,5.68c0.28,0.12,0.52,0.32,0.69,0.57
	c0.17,0.25,0.26,0.55,0.27,0.86v22.86c6.54,1.61,12.93,3.26,18.98,4.96v-21.34c0-0.27,0.07-0.53,0.2-0.76
	c0.13-0.23,0.32-0.43,0.55-0.57c0.23-0.12,0.48-0.19,0.74-0.19c0.26,0,0.52,0.06,0.74,0.19l11.85,5.77
	c0.26,0.13,0.48,0.33,0.63,0.57c0.15,0.25,0.23,0.53,0.23,0.82v20.1c5.06,1.58,9.89,3.1,14.48,4.78v-19.35
	c0-0.26,0.07-0.52,0.2-0.75c0.13-0.23,0.32-0.42,0.54-0.55c0.23-0.14,0.49-0.21,0.76-0.21c0.27,0,0.53,0.07,0.76,0.21l11.35,5.8
	c0.26,0.13,0.47,0.33,0.62,0.58c0.15,0.25,0.22,0.53,0.22,0.82v18.95c7.91,2.98,15.56,6.62,22.86,10.89
	c0.22,0.13,0.41,0.33,0.53,0.56c0.12,0.23,0.19,0.49,0.18,0.75v133.37c-0.04,0.35-0.2,0.68-0.46,0.93
	C866.35,736.74,866.02,736.9,865.67,736.93z M681.99,733.83h182.13V602.91c-7.27-4.07-14.83-7.6-22.61-10.58
	c-0.29-0.11-0.53-0.31-0.7-0.56c-0.17-0.25-0.26-0.56-0.26-0.86v-19.04l-8.41-4.09v19.01c0,0.25-0.06,0.49-0.17,0.71
	c-0.11,0.22-0.28,0.41-0.48,0.56c-0.21,0.14-0.44,0.24-0.69,0.27c-0.25,0.03-0.5,0-0.74-0.08c-5.46-1.95-11.35-3.91-17.52-5.8
	c-0.32-0.1-0.59-0.3-0.79-0.57c-0.2-0.27-0.3-0.59-0.3-0.92v-20.28l-8.75-4.25v21.03c0.01,0.24-0.05,0.48-0.16,0.7
	c-0.11,0.22-0.27,0.4-0.46,0.54c-0.19,0.15-0.41,0.25-0.65,0.3c-0.24,0.05-0.48,0.04-0.72-0.02c-6.95-1.98-14.36-3.91-22.02-5.77
	c-0.34-0.08-0.64-0.28-0.85-0.56c-0.21-0.28-0.33-0.62-0.33-0.96v-23.01l-10.89-4.4v24.22c0,0.23-0.06,0.46-0.15,0.66
	s-0.23,0.39-0.41,0.55c-0.19,0.14-0.4,0.24-0.64,0.29c-0.23,0.05-0.47,0.04-0.7-0.01c-3.78-0.84-7.69-1.67-11.75-2.48
	c-4.96-1.02-9.89-1.95-14.79-2.82c-0.36-0.06-0.68-0.24-0.92-0.52c-0.23-0.28-0.36-0.63-0.35-1v-26.8l-13.49-2.39v26.49
	c-0.01,0.22-0.06,0.44-0.16,0.65c-0.1,0.2-0.23,0.38-0.4,0.53c-0.17,0.15-0.37,0.25-0.58,0.31c-0.21,0.06-0.44,0.07-0.66,0.03
	c-10.24-1.52-20.75-2.82-31.2-3.91c-0.38-0.03-0.74-0.2-1-0.49c-0.26-0.28-0.4-0.65-0.4-1.03v-28.13l-13.49-2.39v29
	c0,0.21-0.04,0.43-0.13,0.62c-0.09,0.2-0.21,0.38-0.37,0.52c-0.16,0.15-0.34,0.26-0.55,0.33c-0.2,0.07-0.42,0.1-0.63,0.08
	c-10.73-0.84-21.71-1.46-32.23-1.86c-0.4-0.02-0.78-0.19-1.06-0.48c-0.28-0.29-0.43-0.67-0.43-1.07c0-10.27,0-28.16,0-33.37
	l-13-0.56l-0.4,33.53c0,0.2-0.04,0.41-0.12,0.59c-0.08,0.19-0.2,0.36-0.35,0.49c-0.14,0.15-0.3,0.27-0.49,0.34
	c-0.19,0.08-0.39,0.11-0.59,0.09c-19.54-0.28-33.22,0.28-37.47,0.5c-0.28,8.9-1.55,57.38,3.78,81.54
	c5.43,25.09,83.74,91.93,90.32,97.52H681.99z"/>
<path d="M645.17,636v-45.75c0-12.65,7.94-15.88,17.62-15.94c10.61,0,13.43,8.31,13.9,15.07c0.47,6.76,0,47.36,0,47.36L645.17,636z"
	/>
<path d="M676.68,638.39l-31.54-0.65c-0.21,0-0.42-0.05-0.61-0.13c-0.19-0.08-0.37-0.21-0.52-0.36s-0.26-0.33-0.34-0.53
	c-0.08-0.2-0.11-0.41-0.11-0.62v-45.84c0-11.75,6.2-17.52,19.26-17.59c9.3,0,14.67,5.89,15.51,16.59c0.47,6.76,0,45.84,0,47.52
	c0,0.21-0.04,0.43-0.13,0.63s-0.21,0.38-0.37,0.52c-0.15,0.15-0.33,0.27-0.53,0.35C677.11,638.36,676.9,638.4,676.68,638.39z
	 M646.81,634.49l28.23,0.59c0-7.69,0.4-39.73,0-45.56c-0.62-9-4.71-13.55-12.13-13.55c-11.07,0-16,4.47-16,14.3L646.81,634.49z"/>
<path d="M596.1,689.01v-45.84c0-12.69,7.94-15.88,17.65-15.94c10.58,0,13.4,8.28,13.86,15.07c0.47,6.79,0,47.36,0,47.36
	L596.1,689.01z"/>
<path d="M627.61,637.31l-31.51-0.65c-0.43-0.01-0.84-0.18-1.14-0.49c-0.3-0.31-0.47-0.72-0.47-1.15v-45.84
	c0-11.75,6.2-17.52,19.29-17.59c9.3,0,14.76,5.83,15.51,16.59c0.47,6.76,0,45.84,0,47.52c0,0.21-0.05,0.43-0.13,0.62
	c-0.08,0.2-0.21,0.38-0.36,0.52c-0.15,0.16-0.34,0.28-0.54,0.36C628.05,637.28,627.83,637.32,627.61,637.31z M597.74,633.4
	l28.26,0.59c0-7.69,0.4-39.73,0-45.59c-0.62-8.96-4.68-13.52-12.13-13.52c-11.07,0-16,4.47-16,14.3L597.74,633.4z"/>
<path d="M865.66,672.32c-0.13,0.03-0.27,0.03-0.4,0c-70.84-19.48-216.68-13.74-218.14-13.68c-0.21,0.01-0.42-0.02-0.61-0.09
	c-0.2-0.07-0.38-0.18-0.53-0.32c-0.15-0.14-0.28-0.31-0.36-0.5c-0.09-0.19-0.13-0.4-0.13-0.61c-0.01-0.21,0.02-0.42,0.1-0.61
	c0.07-0.2,0.18-0.37,0.32-0.53c0.14-0.15,0.31-0.28,0.5-0.36c0.19-0.09,0.39-0.14,0.6-0.14c1.46,0,147.79-5.83,219.1,13.8
	c0.37,0.11,0.68,0.34,0.89,0.66c0.21,0.32,0.29,0.7,0.24,1.08c-0.05,0.38-0.24,0.72-0.53,0.97c-0.29,0.25-0.66,0.39-1.04,0.39
	V672.32z"/>
<path class="st0" d="M464.1,508.31c0,0,96.15-4.65,125.74-4.06v14.55c0,0,3.51,5.83,2.92,9.3c-0.28,5.04-0.28,10.09,0,15.14
	c0,0.59,29.06,87.34,29.06,87.34l22.18,104.68H511.83c0,0-71.62-128.69-64.61-167.49C454.23,528.97,464.1,508.31,464.1,508.31z"/>
<path d="M643.99,736.93H511.83c-0.28,0-0.55-0.08-0.79-0.22c-0.24-0.14-0.44-0.34-0.57-0.59c-2.92-5.27-71.8-129.59-64.79-168.42
	c7.01-38.83,16.9-59.83,17.03-60.05c0.12-0.25,0.3-0.47,0.53-0.63c0.23-0.16,0.5-0.25,0.77-0.27c0.96,0,96.49-4.62,125.86-4.06
	c0.2,0,0.4,0.04,0.59,0.12c0.19,0.08,0.36,0.19,0.5,0.34c0.14,0.14,0.25,0.32,0.33,0.5c0.07,0.19,0.11,0.39,0.11,0.59v14.14
	c1.89,2.97,2.9,6.43,2.88,9.96c-0.25,4.18-0.25,8.38,0,12.56c0,0.96,0,1.71,0,2.14c0.99,3.57,21.18,63.83,28.97,87.03l22.21,104.96
	c0.04,0.23,0.04,0.46-0.02,0.68c-0.05,0.23-0.15,0.44-0.29,0.62c-0.14,0.17-0.31,0.32-0.51,0.42
	C644.43,736.86,644.21,736.92,643.99,736.93z M512.76,733.83h129.31l-21.71-102.94c-29.19-86.85-29.12-87.37-29.06-87.81
	c0.06-0.43,0-0.96,0-2.05c-0.33-4.39-0.33-8.79,0-13.18c-0.18-2.94-1.12-5.78-2.73-8.25c-0.13-0.25-0.21-0.52-0.22-0.81v-13.06
	c-29.25-0.4-113.27,3.57-123.17,4.06c-7.61,18.81-13.11,38.41-16.38,58.43C442.2,604.43,506.74,722.85,512.76,733.83z"/>
<path class="st0" d="M652.86,645.09l20.22,78.04h8.16v12.25H519.12l-1.61-105.61h135.35"/>
<path d="M681.24,736.93H519.12c-0.41,0-0.81-0.16-1.1-0.45c-0.29-0.29-0.45-0.69-0.45-1.1l-1.61-105.46c0-0.41,0.16-0.81,0.43-1.12
	c0.3-0.3,0.7-0.46,1.12-0.47h135.35c0.41,0,0.81,0.16,1.1,0.45c0.29,0.29,0.45,0.68,0.45,1.1c0,0.41-0.16,0.8-0.45,1.1
	c-0.29,0.29-0.69,0.45-1.1,0.45H519.09l1.55,102.35h158.93v-9.15h-6.57c-0.35,0-0.68-0.11-0.96-0.31c-0.27-0.21-0.47-0.5-0.56-0.83
	l-20.22-78.04c-0.05-0.2-0.06-0.42-0.03-0.62c0.03-0.21,0.1-0.41,0.21-0.59c0.11-0.18,0.25-0.34,0.42-0.46
	c0.17-0.12,0.36-0.22,0.56-0.27c0.2-0.05,0.41-0.06,0.62-0.03c0.21,0.03,0.41,0.1,0.59,0.21c0.18,0.11,0.34,0.25,0.46,0.42
	c0.12,0.17,0.22,0.36,0.27,0.56l19.91,76.86h6.95c0.41,0,0.81,0.16,1.1,0.45c0.29,0.29,0.45,0.68,0.45,1.1v12.16
	c0.02,0.21-0.01,0.42-0.08,0.62c-0.07,0.2-0.18,0.39-0.32,0.54c-0.14,0.16-0.32,0.28-0.51,0.37
	C681.66,736.88,681.45,736.93,681.24,736.93z"/>
<path d="M549.52,662.37c5.52,0,10.81,2.19,14.72,6.1c3.9,3.9,6.1,9.2,6.1,14.72v52.08H528.7v-52.08c0-5.52,2.19-10.81,6.1-14.72
	C538.7,664.56,544,662.37,549.52,662.37z"/>
<path d="M570.36,736.93H528.7c-0.41-0.01-0.8-0.17-1.09-0.46c-0.29-0.29-0.46-0.68-0.46-1.09v-52.2c0.21-5.79,2.67-11.27,6.84-15.29
	c4.17-4.02,9.74-6.27,15.54-6.27c5.8,0,11.36,2.25,15.54,6.27c4.17,4.02,6.63,9.5,6.84,15.29v52.08c0.01,0.21-0.02,0.43-0.09,0.63
	s-0.18,0.39-0.33,0.54c-0.15,0.16-0.32,0.28-0.51,0.37C570.78,736.88,570.57,736.93,570.36,736.93z M530.25,733.83h38.55v-50.65
	c-0.2-4.98-2.32-9.69-5.91-13.14c-3.59-3.45-8.38-5.38-13.37-5.38c-4.98,0-9.77,1.93-13.37,5.38c-3.59,3.45-5.71,8.16-5.91,13.14
	V733.83z"/>
<path class="st0" d="M655.71,645.09H510.74v-32.35h144.97l-2.85,17.03L655.71,645.09z"/>
<path d="M655.72,646.64H510.75c-0.41,0-0.81-0.16-1.1-0.45c-0.29-0.29-0.45-0.69-0.45-1.1v-32.35c0-0.41,0.16-0.81,0.45-1.1
	c0.29-0.29,0.68-0.45,1.1-0.45h144.97c0.22,0.01,0.44,0.06,0.65,0.16c0.2,0.1,0.38,0.23,0.53,0.4c0.14,0.17,0.25,0.37,0.31,0.58
	c0.06,0.21,0.07,0.44,0.03,0.66l-2.79,16.78l2.79,15.04c0.04,0.22,0.03,0.45-0.03,0.67c-0.06,0.22-0.16,0.42-0.31,0.6
	c-0.15,0.17-0.33,0.32-0.53,0.41C656.17,646.59,655.94,646.64,655.72,646.64z M512.3,643.54h141.56l-2.51-13.49
	c-0.03-0.17-0.03-0.35,0-0.53l2.54-15.23H512.3V643.54z"/>
<path d="M508.98,606.88v-41.47c0-9.3-9.61-17.93-21.4-15.51c-11.79,2.42-18.61,6.2-19.88,12c-1.27,5.8,0,44.97,0,44.97H508.98z"/>
<path d="M508.98,608.43h-41.25c-0.4,0-0.79-0.15-1.08-0.43c-0.29-0.28-0.46-0.66-0.48-1.06c0-1.61-1.3-39.58,0-45.38
	c1.46-6.2,8.34-10.58,21.09-13.18c2.91-0.64,5.92-0.62,8.82,0.07c2.9,0.68,5.61,2,7.93,3.87c1.99,1.56,3.61,3.54,4.74,5.81
	c1.13,2.26,1.73,4.75,1.77,7.28v41.47c0,0.41-0.16,0.81-0.45,1.1C509.78,608.27,509.39,608.43,508.98,608.43z M469.22,605.33h38.21
	v-39.92c-0.04-2.07-0.55-4.11-1.47-5.96c-0.93-1.85-2.26-3.47-3.89-4.74c-1.97-1.57-4.27-2.67-6.72-3.24
	c-2.45-0.57-5-0.59-7.46-0.05c-11.26,2.3-17.56,5.92-18.61,10.83c-1.02,4.31-0.4,31.23-0.03,43.08H469.22z"/>
<path d="M466.42,523.85c-0.39-0.01-0.77-0.16-1.06-0.43c-0.29-0.27-0.46-0.64-0.49-1.03c-0.01-0.2,0.01-0.41,0.08-0.6
	c0.07-0.19,0.17-0.37,0.31-0.52c0.14-0.15,0.3-0.28,0.48-0.37c0.18-0.09,0.38-0.14,0.59-0.15c0.9,0,90.44-6.2,123.63-3.51
	c0.41,0.03,0.79,0.23,1.06,0.54c0.27,0.31,0.4,0.72,0.37,1.13c-0.03,0.41-0.23,0.79-0.54,1.06c-0.31,0.27-0.72,0.4-1.13,0.37
	c-32.97-2.57-122.3,3.44-123.2,3.47L466.42,523.85z"/>
<path d="M466.42,539.54c-0.37,0-0.74-0.14-1.02-0.38c-0.28-0.24-0.47-0.58-0.53-0.95c-0.03-0.2-0.01-0.41,0.04-0.61
	c0.05-0.2,0.15-0.38,0.28-0.54c0.13-0.16,0.28-0.3,0.46-0.4c0.18-0.1,0.38-0.16,0.58-0.19c26.83-3.47,125.31-4.09,126.3-4.09
	c0.41,0,0.81,0.16,1.1,0.45c0.29,0.29,0.45,0.69,0.45,1.1c0,0.41-0.16,0.81-0.45,1.1c-0.29,0.29-0.69,0.46-1.1,0.46
	c-0.99,0-99.25,0.62-125.93,4.06H466.42z"/>
<path d="M441.98,476.3l28.5,27.95l5.24,105.95l-50.65-3.5L441.98,476.3z"/>
<path d="M475.73,611.75l-50.65-3.5c-0.21-0.01-0.42-0.06-0.6-0.16c-0.19-0.1-0.35-0.23-0.48-0.4c-0.14-0.16-0.24-0.35-0.3-0.55
	c-0.06-0.2-0.07-0.42-0.04-0.63l16.87-130.42c0.04-0.29,0.15-0.56,0.33-0.78c0.18-0.23,0.42-0.39,0.69-0.49
	c0.28-0.09,0.57-0.1,0.86-0.03c0.28,0.07,0.54,0.2,0.76,0.4l28.5,27.91c0.28,0.27,0.45,0.63,0.47,1.02l5.24,105.98
	c0.01,0.21-0.03,0.42-0.1,0.61c-0.07,0.2-0.19,0.37-0.33,0.52c-0.14,0.15-0.32,0.27-0.51,0.35c-0.19,0.08-0.4,0.12-0.61,0.12
	L475.73,611.75z M426.85,605.27l47.27,3.1l-5.15-103.59l-25.87-25.34L426.85,605.27z"/>
<path d="M378.37,355.28l10.61,9.83v48.32v11.63l27.95,64.61h-57.04v-110.6L378.37,355.28z"/>
<path d="M416.92,491.22h-57.04c-0.41,0-0.81-0.16-1.1-0.45c-0.29-0.29-0.45-0.68-0.45-1.1v-110.6c0.01-0.34,0.12-0.68,0.31-0.96
	l18.61-23.79c0.13-0.17,0.3-0.31,0.49-0.41c0.19-0.1,0.4-0.16,0.61-0.18c0.21-0.02,0.43,0.01,0.64,0.08
	c0.2,0.07,0.39,0.18,0.55,0.32l10.61,9.83c0.16,0.14,0.29,0.32,0.38,0.52c0.09,0.2,0.13,0.41,0.12,0.63v59.64l27.91,64.33
	c0.11,0.23,0.15,0.49,0.13,0.75c-0.02,0.26-0.11,0.5-0.25,0.72c-0.14,0.21-0.34,0.39-0.56,0.51c-0.23,0.12-0.48,0.18-0.74,0.17
	H416.92z M361.43,488.12h53.13l-26.98-62.44c-0.09-0.19-0.15-0.4-0.16-0.62v-59.3l-8.71-8.19l-17.12,22.02L361.43,488.12z"/>
<path d="M305.14,252.15c0,0,16.31,13.68,17.18,14.98c1.04,2.7,1.87,5.48,2.48,8.31l12.41,10.48l29.09,79.03l-61.29,8.28l-5.52-92.12
	L305.14,252.15z"/>
<path d="M305.14,374.78c-0.35,0-0.69-0.12-0.96-0.34c-0.17-0.13-0.31-0.3-0.4-0.5c-0.1-0.19-0.15-0.4-0.15-0.62l-5.55-92.12
	c-0.01-0.13-0.01-0.27,0-0.4l5.52-28.94c0.05-0.27,0.18-0.52,0.36-0.72c0.18-0.21,0.41-0.36,0.67-0.45c0.25-0.09,0.53-0.12,0.8-0.07
	c0.27,0.05,0.52,0.17,0.72,0.35c4.93,4.16,16.56,13.96,17.46,15.32c1.14,2.66,2,5.44,2.57,8.28l11.97,10.17
	c0.21,0.16,0.38,0.37,0.47,0.62l29.25,79.03c0.1,0.21,0.15,0.45,0.15,0.68c0,0.24-0.05,0.47-0.15,0.68
	c-0.12,0.2-0.28,0.36-0.48,0.48c-0.19,0.12-0.41,0.2-0.64,0.23l-61.29,8.31H305.14z M301.17,281.21l5.43,90.29l57.72-7.82
	l-28.44-76.86l-12.07-10.2c-0.26-0.21-0.43-0.51-0.5-0.84c-0.54-2.65-1.3-5.25-2.26-7.78c-0.68-0.87-7.85-7.04-14.86-12.97
	L301.17,281.21z"/>
<path class="st0" d="M127.48,735.26v-64.51c0,0-4.06-5.83,0-10.48l3.51-9.89l0.47-59.4l7.38-25.59l1.55-149.59
	c0.34-2.05-7.35-14.7-7.32-11.66c0,6.57,9.09-50.65,47.52-84.99s116.99-60.61,116.99-60.61l7.57-6.39l3.51,11.66l6.42,18.05
	l9.3,13.4l10.48,69.29c0,0,27.91-6.92,43.42-9.3l-1.61,27.91l-0.28,14.14l-4.96,2.76v80.86c0,0,57.66-4.06,70.47-4.62l2.88,122.82
	c0,0,59.4,0.59,70.47-1.15v23.73c0,0,8.13-2.76,8.13,1.3c0,4.06,1.49-1.89-1.3,9.61c-0.22,0.99,5.09,43.08,5.09,43.08
	s20.19,35.14,23.88,47.73c1.44,3.85,1.44,8.09,0,11.94L127.48,735.26z"/>
<path d="M551.13,736.93H127.48c-0.41-0.01-0.8-0.17-1.09-0.46c-0.29-0.29-0.46-0.68-0.46-1.09v-64.17c-1.18-1.73-1.8-3.79-1.77-5.89
	c0.03-2.1,0.72-4.14,1.95-5.83l3.32-9.3l0.47-59.12c-0.02-0.14-0.02-0.29,0-0.43l7.38-25.4l1.55-149.44
	c-1.2-3.47-2.93-6.72-5.15-9.65c-0.27,0.06-0.54,0.06-0.81,0c-0.65,0-1.43-0.5-1.43-2.05c-0.03-0.33,0.03-0.67,0.17-0.98
	c0.14-0.31,0.36-0.57,0.63-0.76c0.19-0.59,0.4-1.3,0.59-2.02c3.91-13.55,15.79-54.84,46.52-82.41
	c37.22-33.13,112.03-58.93,117.27-60.76l7.35-6.2c0.2-0.17,0.43-0.29,0.69-0.34s0.52-0.04,0.77,0.03c0.25,0.07,0.47,0.2,0.65,0.39
	c0.18,0.19,0.31,0.41,0.37,0.67l3.51,11.63l6.2,17.77l9.3,13.21c0.12,0.2,0.21,0.42,0.25,0.65l10.24,67.62
	c6.2-1.52,28.6-6.85,42.03-8.84c0.23-0.04,0.46-0.03,0.68,0.04c0.22,0.07,0.42,0.18,0.59,0.34c0.17,0.16,0.3,0.35,0.39,0.56
	s0.12,0.45,0.11,0.68l-1.61,27.91l-0.28,14.08c-0.01,0.27-0.09,0.53-0.23,0.76c-0.14,0.23-0.34,0.42-0.58,0.54l-4.16,2.33v78.32
	c9.55-0.65,57.38-4,68.83-4.5c0.21-0.02,0.42,0,0.62,0.07c0.2,0.07,0.38,0.18,0.53,0.33c0.31,0.29,0.48,0.69,0.5,1.12l2.85,121.34
	c9.3,0,58.93,0.37,68.7-1.18c0.22-0.03,0.45,0,0.66,0.06c0.21,0.07,0.41,0.17,0.58,0.32c0.17,0.15,0.31,0.33,0.4,0.53
	c0.1,0.2,0.15,0.42,0.16,0.64v21.71c2.21-0.72,4.6-0.56,6.7,0.43c0.46,0.33,0.84,0.77,1.09,1.28c0.25,0.51,0.37,1.07,0.34,1.64
	c-0.04,0.33-0.04,0.66,0,0.99c0.59,0.68,0.59,0.68-1.4,8.96c0,1.46,3.1,25.96,5.09,42.21c2.02,3.54,20.28,35.64,23.85,47.83
	c1.58,4.21,1.58,8.85,0,13.06c-0.13,0.22-0.32,0.41-0.54,0.55C551.64,736.84,551.39,736.92,551.13,736.93z M129.12,733.83h420.92
	c0.81-3.29,0.67-6.74-0.4-9.96c-3.6-12.41-23.51-47.05-23.73-47.39c-0.09-0.18-0.16-0.38-0.19-0.59
	c-5.37-42.37-5.15-43.42-5.06-43.64c0.9-3.69,1.46-6.2,1.61-6.95c-0.29-0.73-0.42-1.51-0.37-2.3c0-0.31,0-0.37,0-0.4
	c-1.99-0.44-4.08-0.24-5.96,0.56c-0.23,0.08-0.48,0.11-0.72,0.07c-0.24-0.04-0.47-0.14-0.67-0.28c-0.21-0.13-0.38-0.32-0.49-0.54
	c-0.11-0.22-0.17-0.46-0.16-0.71v-21.99c-14.39,1.49-66.59,0.99-68.92,0.96c-0.4-0.01-0.79-0.17-1.08-0.45
	c-0.29-0.28-0.46-0.66-0.47-1.07l-2.98-121.34c-15.23,0.81-68.24,4.53-68.82,4.56c-0.21,0.02-0.43-0.01-0.63-0.08
	c-0.2-0.07-0.39-0.18-0.55-0.33c-0.16-0.15-0.28-0.32-0.37-0.52c-0.09-0.2-0.13-0.41-0.13-0.62v-80.8c0-0.28,0.08-0.55,0.22-0.79
	c0.14-0.24,0.34-0.44,0.59-0.57l4.16-2.33l0.28-13.24l1.49-25.99c-15.69,2.54-41.22,8.84-41.47,8.9c-0.21,0.05-0.43,0.06-0.64,0.02
	c-0.21-0.04-0.42-0.12-0.6-0.24c-0.18-0.12-0.33-0.27-0.45-0.46c-0.12-0.18-0.2-0.38-0.23-0.6l-10.42-68.92l-9.12-13.09l-0.19-0.31
	l-6.39-18.05l-2.82-9.3l-5.77,4.9c-0.16,0.12-0.34,0.22-0.53,0.28c-0.78,0.25-78.72,26.49-116.47,60.23
	c-30.15,26.74-41.72,67.4-45.72,80.74c-0.22,0.81-0.4,1.46-0.59,2.05c2.29,2.61,7.01,10.39,6.64,12.72l-1.46,149.41
	c0.02,0.14,0.02,0.29,0,0.43l-7.38,25.37l-0.43,59.18c0.03,0.17,0.03,0.35,0,0.53l-3.6,9.93c-0.09,0.18-0.19,0.34-0.31,0.5
	c-3.1,3.69,0,8.53,0,8.56c0.18,0.27,0.28,0.58,0.28,0.9L129.12,733.83z"/>
<path class="st0" d="M131.07,650.37c0,0,44.26-19.51,127.79-26.49c83.53-6.98,256.47-2.17,256.47-2.17s9.3-8.31,8.13,1.3
	c-0.7,4.53-1.14,9.1-1.3,13.68c0,0-207.81-2.33-269.1,4.65c-89.39,10.17-125.59,29.4-125.59,29.4S117.12,661.13,131.07,650.37z"/>
<path d="M127.48,672.29c-0.19,0-0.38-0.03-0.55-0.1c-0.18-0.07-0.34-0.17-0.47-0.3c-1.36-1.33-2.44-2.91-3.18-4.67
	c-0.74-1.75-1.11-3.64-1.1-5.54c0.31-2.52,1.18-4.94,2.54-7.09c1.36-2.15,3.19-3.96,5.34-5.32l0.31-0.22
	c0.43-0.19,45.44-19.66,128.28-26.61c80.24-6.7,244.78-2.51,256.04-2.2c1.74-1.43,5.77-4.37,8.47-2.92c2.7,1.46,1.92,4.84,1.77,6.02
	c-0.69,4.46-1.12,8.95-1.3,13.46c0,0.42-0.17,0.82-0.47,1.12c-0.14,0.15-0.31,0.27-0.49,0.34c-0.19,0.08-0.39,0.11-0.59,0.09
	c-2.08,0-208.46-2.23-268.94,4.65c-87.93,10.02-124.56,29.03-124.9,29.22C127.98,672.31,127.73,672.33,127.48,672.29z
	 M131.79,651.73c-1.76,1.1-3.25,2.57-4.38,4.32c-1.13,1.74-1.86,3.71-2.14,5.76c-0.01,2.58,0.9,5.08,2.57,7.04
	c6.67-3.1,44.6-19.88,124.93-29.06c57.91-6.58,248.78-4.87,267.79-4.68c0-1.98,0.4-5.92,1.27-12.41c0.31-2.39-0.16-2.85-0.19-2.85
	c-0.56-0.31-3.1,0.96-5.4,2.92c-0.3,0.27-0.69,0.41-1.09,0.4c-1.71,0-173.69-4.71-256.29,2.17c-79.62,6.76-123.94,25.06-127.01,26.4
	H131.79z"/>
<path class="st0" d="M131.54,590.97c0,0-7.72-9.89,0.19-24.81c4.28-8.06,23.23-30.58,65.13-40.32
	c80.53-18.86,162.94-28.56,245.65-28.91c0,0,0.47,2.61,1.05,5.49c0.18,4.14-0.01,8.3-0.56,12.41c0,0-156.04,4.06-221.55,21.53
	C138.67,558.28,131.54,590.97,131.54,590.97z"/>
<path d="M131.51,592.58c-0.23,0-0.46-0.06-0.67-0.16c-0.21-0.1-0.39-0.25-0.54-0.43c-0.34-0.43-8.25-10.86,0-26.39
	c5.46-10.24,26.21-31.95,66.06-41.25c80.68-18.81,163.21-28.52,246.05-28.94c0.36,0,0.71,0.12,0.98,0.36
	c0.27,0.23,0.45,0.56,0.51,0.91c0,0,0.47,2.57,1.05,5.49c0.21,4.25,0.04,8.5-0.53,12.72c-0.05,0.37-0.23,0.71-0.51,0.96
	c-0.28,0.25-0.64,0.39-1.01,0.4c-1.55,0-156.6,4.25-221.21,21.46c-80.42,21.46-88.58,53.26-88.68,53.57
	c-0.06,0.29-0.2,0.56-0.41,0.76c-0.21,0.21-0.48,0.35-0.77,0.41L131.51,592.58z M437.42,498.57
	c-80.92,0.95-161.5,10.63-240.35,28.88c-38.8,9.12-58.93,29.87-63.99,39.61c-1.86,3.01-2.99,6.4-3.32,9.92
	c-0.32,3.52,0.17,7.07,1.45,10.36c4.16-9.06,21.71-34.37,89.7-52.51c61.72-16.47,205.08-21.09,220.56-21.71
	c0.48-3.45,0.62-6.94,0.43-10.42c-0.34-1.67-0.65-3.1-0.84-4.28L437.42,498.57z"/>
<path class="st0" d="M139.14,522.3c0,0-12.13-9.3-7.47-22.15c4.65-12.84,8.56-36.07,58.93-70.59c42.21-29,186.28-46.52,186.28-46.52
	l-0.28,14.14c0,0-105.27,19.2-149.93,36.51C177.79,452.7,146.58,478.32,139.14,522.3z"/>
<path d="M139.14,523.85c-0.34-0.01-0.67-0.13-0.93-0.34c0,0-13-10.14-8-23.88c0.4-1.15,0.84-2.39,1.27-3.69
	c4.47-13.46,12-35.98,58.09-67.65c42.09-28.88,181.1-45.97,187-46.52c0.22-0.03,0.45-0.01,0.66,0.06c0.21,0.06,0.41,0.17,0.58,0.32
	c0.17,0.15,0.3,0.33,0.38,0.53c0.09,0.2,0.12,0.43,0.11,0.65l-0.28,14.14c-0.02,0.35-0.15,0.69-0.38,0.96
	c-0.23,0.27-0.54,0.46-0.89,0.53c-1.05,0.19-105.61,19.35-149.65,36.44c-53.04,20.59-79.68,47.52-86.41,87.31
	c-0.05,0.26-0.16,0.51-0.33,0.72c-0.17,0.21-0.39,0.37-0.63,0.46C139.53,523.9,139.33,523.89,139.14,523.85z M375.17,384.9
	c-16.63,2.14-144.91,19.23-183.83,45.97c-45.25,31.02-52.73,52.98-56.91,66.06c-0.47,1.33-0.87,2.61-1.3,3.75
	c-1.03,3.25-1.11,6.74-0.23,10.04c0.88,3.3,2.7,6.27,5.22,8.57c7.69-39.48,34.92-66.37,87.87-86.85
	c41.69-16.19,136.94-34.12,148.88-36.38L375.17,384.9z"/>
<path d="M140.23,433.31h-0.56c-0.38-0.16-0.68-0.46-0.84-0.83c-0.16-0.38-0.17-0.8-0.03-1.18c0.19-0.47,19.04-47.95,62.62-75.43
	c43.58-27.48,102.63-45.53,123.23-47.92c0.41-0.04,0.82,0.08,1.15,0.33c0.32,0.26,0.53,0.64,0.58,1.05
	c0.04,0.41-0.08,0.82-0.33,1.15c-0.26,0.32-0.64,0.53-1.05,0.58c-19.76,2.17-79.06,20.35-121.92,47.36
	c-42.86,27.01-61.2,73.45-61.38,73.91c-0.12,0.29-0.32,0.54-0.58,0.72C140.84,433.21,140.54,433.31,140.23,433.31z"/>
<path class="st0" d="M511.83,636.5h-12.16v98.88h12.16V636.5z"/>
<path d="M511.83,736.93h-12.16c-0.41,0-0.81-0.16-1.1-0.45c-0.29-0.29-0.45-0.68-0.45-1.1V636.5c0-0.41,0.16-0.81,0.45-1.1
	c0.29-0.29,0.69-0.46,1.1-0.46h12.16c0.41,0,0.81,0.16,1.1,0.46c0.29,0.29,0.45,0.68,0.45,1.1v98.76c0.02,0.21-0.01,0.43-0.08,0.63
	c-0.07,0.2-0.18,0.39-0.33,0.55c-0.15,0.16-0.32,0.28-0.52,0.37C512.26,736.89,512.05,736.93,511.83,736.93z M501.22,733.83h9.06
	v-95.78h-9.06V733.83z"/>
<path d="M493.28,735.26v-62.9c0-10.48-11.35-20.87-26.21-19.54c-14.86,1.33-21.18,10.36-21.71,23.45c-0.5,9.77,0,59.12,0,59.12
	L493.28,735.26z"/>
<path d="M493.28,736.93h-48.04c-0.41,0-0.81-0.16-1.1-0.45c-0.29-0.29-0.45-0.69-0.45-1.1c0-2.02-0.47-49.63,0-59.18
	c0.74-15.04,8.81-23.67,23.26-24.81c3.78-0.39,7.6,0.01,11.22,1.17c3.62,1.16,6.96,3.07,9.8,5.59c2.06,1.79,3.74,3.99,4.92,6.45
	c1.18,2.46,1.84,5.15,1.94,7.88v62.78c0.01,0.21-0.02,0.43-0.09,0.63c-0.07,0.2-0.18,0.38-0.33,0.54c-0.15,0.16-0.32,0.28-0.51,0.37
	C493.71,736.88,493.5,736.93,493.28,736.93z M446.76,733.83h44.94v-61.47c-0.09-2.3-0.66-4.55-1.66-6.62
	c-1-2.07-2.42-3.91-4.17-5.41c-2.53-2.22-5.48-3.9-8.68-4.93c-3.2-1.03-6.58-1.39-9.93-1.06c-12.87,1.15-19.73,8.56-20.41,22.02
	c-0.5,8.62-0.16,49.04,0.09,57.47H446.76z"/>
<path d="M415.93,735.26v-60.64c0-10.79-11.14-18.02-25.56-17.59c-14.42,0.43-18.98,14.83-18.77,21.71c0.22,6.89,0,56.51,0,56.51
	H415.93z"/>
<path d="M415.93,736.9h-44.45c-0.2,0-0.4-0.04-0.59-0.12c-0.19-0.08-0.35-0.2-0.49-0.35c-0.14-0.14-0.25-0.31-0.33-0.5
	c-0.07-0.19-0.11-0.39-0.11-0.59c0-0.5,0.22-49.63,0-56.45c-0.04-6.41,2.3-12.61,6.58-17.4c1.75-1.87,3.87-3.37,6.22-4.4
	c2.35-1.03,4.89-1.57,7.46-1.58c7.97-0.62,15.85,1.95,21.93,7.13c1.63,1.54,2.93,3.39,3.82,5.45c0.89,2.06,1.35,4.28,1.36,6.52
	v60.64c0.02,0.2-0.01,0.4-0.07,0.59c-0.06,0.19-0.16,0.37-0.29,0.52c-0.13,0.15-0.29,0.28-0.47,0.37S416.13,736.89,415.93,736.9z
	 M373.13,733.8h41.28v-59.18c-0.01-1.83-0.39-3.64-1.12-5.32c-0.73-1.68-1.8-3.19-3.13-4.45c-5.5-4.58-12.59-6.81-19.73-6.2
	c-2.19-0.03-4.36,0.4-6.38,1.25c-2.02,0.85-3.84,2.12-5.34,3.71c-3.71,4.19-5.76,9.6-5.77,15.2c0.28,6.33,0.12,46.49,0.06,55.02
	L373.13,733.8z"/>
<path d="M342.48,735.26V680.2c0-12.41-4.99-21.71-18.61-20.75c-13.62,0.96-16.38,9.83-17.24,21.71c-0.87,11.88,0,54.31,0,54.31
	L342.48,735.26z"/>
<path d="M342.48,736.93h-36.01c-0.4-0.01-0.79-0.17-1.08-0.45c-0.29-0.28-0.46-0.67-0.47-1.07c0-1.74-0.87-42.71,0-54.43
	c0.78-10.51,2.95-21.71,18.61-23.05c2.53-0.38,5.12-0.2,7.58,0.5c2.46,0.71,4.74,1.93,6.69,3.59c4.09,3.82,6.2,9.93,6.2,18.18v55.05
	c0.02,0.21-0.01,0.42-0.08,0.62c-0.07,0.2-0.18,0.39-0.32,0.54c-0.14,0.16-0.32,0.28-0.51,0.37
	C342.9,736.88,342.69,736.93,342.48,736.93z M307.99,733.83h32.94V680.2c0-7.26-1.77-12.75-5.18-15.88
	c-1.64-1.36-3.55-2.35-5.6-2.92c-2.05-0.57-4.2-0.71-6.31-0.4c-12.13,0.96-14.92,7.85-15.82,20.19
	C307.37,691.52,307.84,726.14,307.99,733.83z"/>
<path d="M275.3,735.26v-58.31c0-9.3-6.2-17.49-14.83-15.73c-8.62,1.77-13.34,9.3-13.55,21.18c-0.22,11.88,0,52.98,0,52.98
	L275.3,735.26z"/>
<path d="M275.3,736.93h-28.38c-0.41-0.01-0.8-0.17-1.09-0.46c-0.29-0.29-0.46-0.68-0.46-1.09c0-0.4-0.22-41.34,0-53.01
	c0.25-12.41,5.61-20.81,14.79-22.67c1.8-0.39,3.67-0.36,5.46,0.08c1.79,0.45,3.45,1.3,4.86,2.49c2.03,1.85,3.64,4.12,4.71,6.66
	c1.07,2.53,1.58,5.27,1.5,8.01v58.31c0.03,0.41-0.09,0.81-0.35,1.12C276.08,736.69,275.71,736.89,275.3,736.93z M248.47,733.83
	h25.28v-56.88c0.08-2.32-0.34-4.63-1.24-6.78c-0.9-2.14-2.26-4.06-3.97-5.63c-1.06-0.89-2.31-1.53-3.65-1.86
	c-1.34-0.33-2.75-0.35-4.1-0.06c-7.72,1.58-12.1,8.56-12.41,19.66c0.06,10.48,0.06,43.95,0.06,51.55H248.47z"/>
<path d="M211.41,735.26c0.87,0,0-44.48,0-55.18s-11.07-12.59-17.46-9.46c-6.39,3.13-7.54,9.8-7.54,17.68v46.96H211.41z"/>
<path d="M211.41,737.15h-25c-0.47,0-0.92-0.19-1.25-0.52c-0.33-0.33-0.52-0.78-0.52-1.25V688.3c0-7.79,1.02-15.51,8.56-19.17
	c2.29-1.09,4.82-1.61,7.35-1.52c2.54,0.09,5.02,0.79,7.22,2.05c1.77,1.11,3.21,2.67,4.16,4.53c0.96,1.86,1.39,3.94,1.26,6.02
	c0,3.1,0,8.53,0.16,15.04c0.5,40.32,0.22,40.51-0.65,41.38c-0.17,0.17-0.37,0.31-0.6,0.4C211.89,737.11,211.65,737.15,211.41,737.15
	z M188.18,733.58h21.71c0.28-5.43,0-25.68,0-38.31c0-6.51,0-12.1,0-15.07c0.11-1.47-0.19-2.95-0.85-4.27
	c-0.66-1.32-1.66-2.44-2.91-3.24c-1.7-0.94-3.59-1.45-5.53-1.51c-1.94-0.06-3.86,0.34-5.61,1.17c-5.43,2.67-6.54,8.28-6.54,15.94
	L188.18,733.58z"/>
<path d="M156.26,689.17c0-7.85-8.78-8.22-12.22-4.5c-3.44,3.72-2.3,50.59-2.3,50.59h14.52V689.17z"/>
<path d="M156.26,737.27h-14.52c-0.49-0.01-0.97-0.2-1.32-0.55c-0.35-0.35-0.56-0.82-0.57-1.31c-0.37-14.36-0.78-48.14,2.79-52.01
	c1.34-1.34,3.03-2.27,4.87-2.67c1.85-0.41,3.77-0.28,5.55,0.38c1.59,0.64,2.93,1.76,3.84,3.21c0.91,1.45,1.35,3.15,1.24,4.85v46.09
	c0.02,0.26-0.02,0.52-0.11,0.76c-0.09,0.24-0.22,0.47-0.4,0.66c-0.18,0.19-0.39,0.34-0.63,0.44
	C156.78,737.22,156.52,737.27,156.26,737.27z M143.61,733.46h10.76v-44.29c0.1-0.94-0.11-1.89-0.59-2.7
	c-0.48-0.82-1.21-1.46-2.08-1.83c-1.06-0.36-2.19-0.42-3.29-0.19c-1.09,0.24-2.1,0.76-2.92,1.52
	C143.67,688.55,143.14,711.81,143.61,733.46z"/>
<path class="st0" d="M437.02,647.17h-11.94v88.21h11.94V647.17z"/>
<path d="M437.02,736.93h-11.79c-0.41-0.01-0.8-0.17-1.09-0.46c-0.29-0.29-0.46-0.68-0.46-1.09v-88.21c0-0.41,0.16-0.81,0.45-1.1
	c0.29-0.29,0.69-0.45,1.1-0.45h11.94c0.41,0,0.81,0.16,1.1,0.45c0.29,0.29,0.45,0.68,0.45,1.1v88.09c0.02,0.23-0.01,0.46-0.09,0.67
	c-0.08,0.21-0.2,0.41-0.37,0.57c-0.16,0.16-0.36,0.28-0.58,0.36C437.48,736.93,437.25,736.96,437.02,736.93z M426.63,733.83h8.84
	v-85.11h-8.84V733.83z"/>
<path class="st0" d="M363.73,645.09h-11.94v90.26h11.94V645.09z"/>
<path d="M363.73,736.93h-11.94c-0.41,0-0.81-0.16-1.1-0.45c-0.29-0.29-0.46-0.69-0.46-1.1v-90.29c0-0.41,0.16-0.81,0.46-1.1
	c0.29-0.29,0.68-0.45,1.1-0.45h11.94c0.21,0,0.41,0.03,0.6,0.11c0.19,0.08,0.37,0.19,0.51,0.33c0.15,0.15,0.26,0.32,0.34,0.51
	c0.08,0.19,0.12,0.39,0.12,0.6v90.16c0.02,0.22-0.01,0.43-0.08,0.64c-0.07,0.2-0.19,0.39-0.33,0.55s-0.33,0.28-0.53,0.37
	S363.94,736.94,363.73,736.93z M353.37,733.83h8.81v-87.16h-8.81V733.83z"/>
<path d="M234.45,736.71h-9.65c-0.35-0.04-0.67-0.21-0.89-0.49c-0.22-0.27-0.32-0.62-0.29-0.97v-79.93c0-0.36,0.14-0.7,0.39-0.95
	c0.25-0.25,0.59-0.4,0.95-0.41c0.36,0,0.71,0.14,0.96,0.4c0.26,0.26,0.4,0.6,0.4,0.96v78.69h6.92v-81.54c0-0.36,0.14-0.71,0.4-0.96
	c0.26-0.26,0.6-0.4,0.96-0.4c0.36,0,0.71,0.14,0.96,0.4c0.26,0.26,0.4,0.6,0.4,0.96v82.78c0.02,0.2-0.01,0.4-0.09,0.59
	c-0.07,0.19-0.19,0.36-0.33,0.5c-0.15,0.14-0.32,0.24-0.51,0.31C234.86,736.72,234.65,736.74,234.45,736.71z"/>
<path d="M297.07,736.71h-9.65c-0.36,0-0.7-0.14-0.95-0.39c-0.25-0.25-0.4-0.59-0.41-0.95v-86.47c0-0.36,0.14-0.71,0.4-0.96
	c0.26-0.26,0.6-0.4,0.96-0.4c0.36,0,0.71,0.14,0.96,0.4c0.26,0.26,0.4,0.6,0.4,0.96v85.11h6.92v-86.85c0-0.36,0.14-0.71,0.4-0.96
	c0.26-0.26,0.6-0.4,0.96-0.4c0.36,0.01,0.7,0.16,0.95,0.41c0.25,0.25,0.39,0.6,0.39,0.95v88.09c0.02,0.19,0,0.37-0.06,0.55
	c-0.06,0.18-0.15,0.34-0.28,0.48c-0.13,0.14-0.28,0.25-0.45,0.32C297.45,736.68,297.26,736.72,297.07,736.71z"/>
<path d="M174.78,736.72h-9.65c-0.18,0-0.35-0.04-0.51-0.1c-0.16-0.07-0.31-0.16-0.43-0.29c-0.12-0.12-0.22-0.27-0.29-0.43
	c-0.07-0.16-0.1-0.34-0.1-0.51v-70.07c0-0.36,0.14-0.7,0.39-0.95c0.25-0.25,0.59-0.4,0.95-0.41c0.36,0,0.71,0.14,0.96,0.4
	c0.26,0.26,0.4,0.6,0.4,0.96v68.7h6.92v-71.34c0-0.36,0.14-0.71,0.4-0.96c0.26-0.26,0.6-0.4,0.96-0.4s0.71,0.14,0.96,0.4
	c0.26,0.26,0.4,0.6,0.4,0.96v72.58c0.01,0.19-0.01,0.37-0.08,0.55c-0.06,0.18-0.16,0.34-0.29,0.47c-0.13,0.14-0.28,0.25-0.45,0.32
	C175.15,736.68,174.96,736.72,174.78,736.72z"/>
<path d="M129.77,681.16c-0.34,0-0.67-0.12-0.93-0.32c-0.27-0.21-0.46-0.5-0.55-0.82c-0.09-0.33-0.07-0.67,0.06-0.99
	c0.13-0.31,0.35-0.58,0.64-0.75c27.39-15.94,78.38-26.92,151.58-32.66c58.93-4.62,216.34,0,217.92,0c0.41,0.02,0.79,0.19,1.07,0.49
	c0.28,0.3,0.43,0.69,0.42,1.1c0,0.2-0.04,0.41-0.12,0.6c-0.08,0.19-0.2,0.36-0.35,0.5c-0.15,0.14-0.32,0.25-0.51,0.33
	c-0.19,0.07-0.4,0.11-0.6,0.1c-1.58,0-158.93-4.62-217.58,0c-72.7,5.71-123.29,16.53-150.24,32.26
	C130.33,681.1,130.05,681.17,129.77,681.16z"/>
<path d="M140.38,415.79c0,0,8.99-66.62,59.4-106.26c38.86-30.61,108.87-45.72,108.87-45.72l-3.51-11.63c0,0-62.9,11.04-112.06,46.25
	c-52.73,37.65-60.02,105.67-60.02,105.67L140.38,415.79z"/>
<path d="M140.38,417.31c-0.26,0-0.52-0.07-0.75-0.2c-0.23-0.13-0.42-0.32-0.55-0.54l-7.35-11.63c-0.18-0.3-0.25-0.65-0.22-0.99
	c0-0.68,8.13-69.17,60.67-106.76c48.91-35.05,112.06-46.52,112.71-46.52c0.37-0.07,0.76,0.01,1.08,0.21
	c0.32,0.2,0.56,0.51,0.66,0.88l3.51,11.63c0.08,0.2,0.13,0.41,0.13,0.62c0,0.21-0.04,0.42-0.13,0.62c-0.11,0.18-0.25,0.34-0.42,0.46
	c-0.17,0.12-0.36,0.21-0.57,0.25c-0.71,0-70.13,15.51-108.25,45.41c-49.32,38.8-58.71,104.59-58.93,105.24
	c-0.04,0.32-0.18,0.61-0.39,0.85c-0.22,0.23-0.5,0.39-0.82,0.46L140.38,417.31z M134.67,403.75l4.87,7.75
	c3.1-15.11,16.1-69.26,59.27-103.22c35.39-27.91,97.05-43.11,107.87-45.62l-2.61-8.72c-9.3,1.83-65.72,13.99-110.11,45.75
	C145.03,334.74,135.51,397.33,134.67,403.75z"/>
<path d="M419.84,599.99l-45.1,2.92c0,0,0.87-34.92,2.02-49.63c1.15-14.7,13.4-20.38,25.34-20.38s17.74,10.76,17.74,19.51V599.99z"/>
<path d="M374.74,604.46c-0.21,0-0.41-0.04-0.6-0.12c-0.19-0.08-0.36-0.2-0.51-0.34c-0.14-0.15-0.26-0.32-0.33-0.51
	c-0.08-0.19-0.11-0.4-0.11-0.6c0-0.34,0.9-35.14,2.05-49.63c1.3-16.07,15.26-21.71,26.86-21.71c12.07,0,19.29,10.67,19.29,21.03
	v47.42c-0.01,0.39-0.16,0.77-0.43,1.06c-0.27,0.29-0.64,0.46-1.03,0.49l-45.1,2.88L374.74,604.46z M402.1,534.58
	c-10.79,0-22.7,4.99-23.82,18.98c-0.99,12.41-1.8,40.6-1.98,47.73l42.03-2.73v-46C418.32,545.62,413.91,534.58,402.1,534.58z"/>
<path d="M351.79,604.37v-51.24c-0.03-2.86-0.81-5.65-2.25-8.12c-1.44-2.47-3.49-4.52-5.96-5.95s-5.27-2.2-8.12-2.23
	c-2.86-0.03-5.67,0.68-8.17,2.07c-12.41,6.67-14.27,13.37-15.51,22.98c-1.24,9.62-1.15,45.41-1.15,45.41L351.79,604.37z"/>
<path d="M310.69,608.8c-0.19,0.01-0.39-0.03-0.57-0.09c-0.18-0.07-0.35-0.17-0.49-0.31c-0.15-0.14-0.27-0.32-0.35-0.51
	c-0.08-0.19-0.12-0.4-0.11-0.61c0-1.46,0-36.01,1.15-45.59c1.15-9.58,3.1-17.09,16.25-24.16c2.71-1.54,5.78-2.34,8.9-2.3
	c3.12,0.03,6.17,0.89,8.85,2.49c2.7,1.6,4.95,3.87,6.53,6.58c1.58,2.71,2.44,5.79,2.5,8.93v51.15c0,0.39-0.15,0.76-0.41,1.04
	c-0.27,0.28-0.63,0.45-1.02,0.48l-41.13,2.92H310.69z M335.5,538.27c-2.6,0.03-5.16,0.7-7.44,1.95
	c-11.94,6.39-13.49,12.41-14.64,21.71c-0.99,8.25-1.12,36.48-1.15,43.58l38.06-2.7v-49.69c-0.08-2.6-0.82-5.13-2.13-7.37
	c-1.32-2.24-3.17-4.11-5.4-5.44c-2.22-1.34-4.76-2.05-7.35-2.05H335.5z"/>
<path d="M287.12,610.2c0,0,1.71-57.63-3.82-64.92c-5.52-7.29-33.68-5.24-35.61,14.27c-1.92,19.51,0,53.56,0,53.56L287.12,610.2z"/>
<path d="M247.7,614.64c-0.37,0-0.74-0.13-1.02-0.37c-0.15-0.13-0.28-0.29-0.36-0.47c-0.09-0.18-0.13-0.38-0.13-0.58
	c0-0.34-1.92-34.43,0-53.81c0.87-8.84,7.01-15.51,16.81-18.3c8.81-2.48,18.27-1.05,21.53,3.1c5.71,7.51,4.31,59.92,4.12,65.88
	c0,0.38-0.14,0.75-0.4,1.02c-0.26,0.28-0.61,0.44-0.99,0.47l-39.45,2.92L247.7,614.64z M271.73,542.96
	c-2.68,0.01-5.34,0.39-7.91,1.12c-4.03,1.15-13.55,4.96-14.61,15.66c-1.02,17.24-1.02,34.53,0,51.77l36.51-2.7
	c0.62-22.98,0.22-57.63-3.54-62.56c-1.42-1.24-3.09-2.17-4.88-2.73S273.61,542.76,271.73,542.96z"/>
<path d="M231.66,615.66c0.28-0.87-1.86-37.53-2.7-47.18c-1.24-14.45-24.81-14.55-27.91-0.59c-3.1,13.96-1.52,52.73-1.52,52.73
	L231.66,615.66z"/>
<path d="M199.5,622.14c-0.36,0-0.71-0.12-0.99-0.34c-0.16-0.14-0.3-0.31-0.4-0.5c-0.1-0.19-0.15-0.4-0.16-0.62
	c0-1.61-1.64-39.11,1.58-53.13c1.01-3.68,3.31-6.87,6.49-8.98c3.17-2.11,7.01-3.01,10.79-2.52c3.42-0.03,6.73,1.23,9.26,3.53
	c2.53,2.3,4.11,5.47,4.41,8.88c0.43,5.15,3.1,46.25,2.61,47.8c-0.09,0.26-0.25,0.49-0.47,0.67c-0.21,0.18-0.47,0.3-0.74,0.35
	l-32.16,4.93L199.5,622.14z M215.5,559.05c-2.91-0.19-5.79,0.64-8.16,2.33c-2.37,1.7-4.08,4.16-4.84,6.97
	c-2.73,11.97-1.83,42.99-1.55,50.59l29.19-4.65c0-6.39-1.92-36.72-2.7-45.75c-0.32-2.65-1.61-5.08-3.61-6.84
	c-2-1.76-4.58-2.71-7.25-2.69L215.5,559.05z"/>
<path d="M184.55,623.29c0,0,0.28-43.08,0-50.06c-0.28-6.98-11.35-1.74-13.09,8.16c-1.74,9.89-1.18,46.52-1.18,46.52L184.55,623.29z"
	/>
<path d="M170.28,629.49c-0.31,0-0.62-0.1-0.87-0.28c-0.2-0.14-0.36-0.33-0.47-0.54c-0.11-0.22-0.17-0.46-0.18-0.7
	c0-1.49-0.56-36.94,1.18-46.87c1.33-7.44,7.57-12.87,12.1-12.59c0.57,0.04,1.13,0.19,1.64,0.45c0.51,0.26,0.97,0.61,1.34,1.04
	c0.37,0.43,0.66,0.93,0.84,1.48c0.18,0.54,0.25,1.12,0.21,1.69c0.31,6.95,0,48.39,0,50.15c0,0.32-0.1,0.63-0.29,0.89
	c-0.19,0.26-0.46,0.45-0.76,0.54l-14.27,4.65L170.28,629.49z M181.66,571.55c-2.45,0-7.6,3.78-8.71,10.08
	c-1.46,8.31-1.24,36.35-1.15,44.23l11.23-3.69c0-6.76,0.25-42.65,0-48.88c0-1.64-0.84-1.71-1.21-1.74H181.66z"/>
<path d="M155.39,631.44c0,0,1.24-37.56,0-42.8c-1.24-5.24-10.86-2.45-11.72,5.06c-0.87,7.51,0,43.86,0,43.86L155.39,631.44z"/>
<path d="M143.51,639.11c-0.27,0-0.54-0.06-0.78-0.19c-0.23-0.13-0.41-0.32-0.54-0.55c-0.13-0.23-0.2-0.49-0.2-0.75
	c0-1.49-0.87-36.57,0-44.07c0.25-2.33,1.3-4.5,2.97-6.15c1.67-1.65,3.85-2.67,6.18-2.9c1.24-0.18,2.51,0.12,3.54,0.83
	s1.76,1.79,2.04,3.02c1.27,5.37,0,41.66,0,43.21c-0.01,0.27-0.09,0.53-0.23,0.76c-0.14,0.23-0.34,0.42-0.58,0.54l-11.72,6.2
	C143.98,639.12,143.74,639.14,143.51,639.11z M151.58,587.53h-0.25c-1.57,0.21-3.03,0.93-4.15,2.05c-1.12,1.12-1.84,2.58-2.05,4.15
	c-0.71,6.2-0.22,32.94,0,41.22l8.75-4.56c0.34-11.01,0.96-37.5,0-41.5c-0.13-0.48-0.44-0.9-0.87-1.15
	c-0.43-0.26-0.94-0.35-1.43-0.24V587.53z"/>
<path d="M353.9,485.39c0,0,3.1-45.72-2.02-56.82c-3.91-8.59-22.49-11.94-30.33,3.1c-7.85,15.04-5.83,57.91-5.83,57.91L353.9,485.39z
	"/>
<path d="M315.62,491.22c-0.36,0-0.72-0.13-0.99-0.37c-0.31-0.28-0.5-0.67-0.53-1.09c0-1.77-1.95-43.42,5.99-58.71
	c1.66-3.49,4.31-6.42,7.62-8.43c3.31-2.01,7.13-3,10.99-2.86c2.95-0.09,5.86,0.62,8.43,2.06c2.57,1.44,4.71,3.54,6.18,6.1
	c5.21,11.35,2.26,55.83,2.14,57.57c-0.02,0.36-0.16,0.7-0.41,0.96c-0.24,0.26-0.57,0.43-0.93,0.47l-38.18,4.28L315.62,491.22z
	 M338.05,422.8c-3.19,0-6.32,0.91-9.02,2.63c-2.7,1.71-4.85,4.16-6.21,7.05c-6.73,12.93-5.99,47.58-5.71,55.52l35.27-3.97
	c0.43-7.41,2.45-45.16-1.95-54.81c-1.25-2.02-3.01-3.68-5.11-4.81c-2.1-1.12-4.46-1.67-6.83-1.58L338.05,422.8z"/>
<path d="M296.14,493.76c0,0,1.52-40.6,0-50.22c-1.52-9.61-14.64-14.42-23.6-3.94c-8.96,10.48-8.28,19.88-8.72,29.25
	c-0.43,9.37-0.87,32.16-0.87,32.16L296.14,493.76z"/>
<path d="M262.96,502.63c-0.36,0-0.71-0.12-0.99-0.34c-0.17-0.16-0.31-0.35-0.41-0.56c-0.1-0.21-0.15-0.45-0.15-0.68
	c0-0.22,0.47-22.89,0.9-32.19v-2.85c0.31-8.62,0.62-17.49,8.99-27.33c1.9-2.5,4.48-4.39,7.43-5.44c2.95-1.05,6.15-1.22,9.19-0.49
	c2.45,0.65,4.67,2,6.37,3.88c1.71,1.88,2.83,4.22,3.24,6.72c1.55,9.65,0,48.85,0,50.53c-0.02,0.34-0.15,0.66-0.36,0.92
	c-0.22,0.26-0.51,0.44-0.84,0.51l-33.06,7.32H262.96z M284.2,435.3c-2.03,0.08-4.02,0.6-5.83,1.53c-1.81,0.93-3.4,2.24-4.65,3.84
	c-7.69,9-7.97,17-8.25,25.43c0,0.96,0,1.92,0,2.92c-0.37,7.66-0.71,24.47-0.84,30.18l30.15-6.61c0.22-6.73,1.3-40.32,0-48.73
	c-0.32-1.93-1.19-3.73-2.5-5.17c-1.31-1.45-3.02-2.48-4.91-2.98c-1.03-0.31-2.09-0.46-3.16-0.47V435.3z"/>
<path d="M251.54,504.34c0,0-2.08-32.19-2.08-40.94c0-8.75-4.37-17.9-13.31-13.96s-10.92,8.72-11.79,17.24
	c-0.87,8.53-1.05,42.49-1.05,42.49L251.54,504.34z"/>
<path d="M223.26,510.7c-0.36,0-0.71-0.12-0.99-0.34c-0.17-0.15-0.31-0.33-0.4-0.53s-0.15-0.42-0.16-0.65
	c0-1.4,0.22-34.12,1.09-42.65c0.9-8.96,3.1-14.3,12.69-18.61c1.44-0.77,3.06-1.15,4.69-1.09c1.63,0.05,3.22,0.54,4.61,1.4
	c4.53,2.95,6.2,9.71,6.2,15.04c0,8.59,2.08,40.54,2.08,40.85c0.03,0.38-0.09,0.76-0.32,1.05c-0.24,0.3-0.57,0.5-0.95,0.56
	l-28.16,4.96H223.26z M240.13,449.91c-1.18,0.03-2.34,0.31-3.41,0.81c-8.28,3.63-10.05,7.88-10.89,16
	c-0.74,7.23-0.99,33.37-1.05,40.54l25.09-4.31c-0.4-6.2-1.99-31.88-1.99-39.67c0-5.68-1.86-10.61-4.78-12.41
	C242.23,450.26,241.19,449.92,240.13,449.91z"/>
<path d="M209.02,511.5c0,0,0.43-18.61,1.09-30.58c0.65-11.97-4.37-25.37-11.79-16.84c-7.41,8.53-6.76,13.31-7.2,20.5
	c-0.43,7.2-0.87,32.85-0.87,32.85L209.02,511.5z"/>
<path d="M190.25,518.95c-0.34,0.01-0.67-0.1-0.93-0.31c-0.2-0.14-0.36-0.33-0.46-0.54c-0.11-0.22-0.16-0.46-0.16-0.7
	c0-1.05,0.47-25.74,0.9-32.91v-2.3c-0.11-3.53,0.49-7.05,1.77-10.33c1.29-3.29,3.23-6.28,5.7-8.8c3.1-3.6,5.86-3.54,7.57-2.85
	c5.09,2.08,7.35,12.41,6.89,20.81c-0.62,11.88-1.09,30.37-1.09,30.55c0,0.32-0.1,0.62-0.29,0.87c-0.19,0.25-0.46,0.43-0.76,0.52
	l-18.8,5.92L190.25,518.95z M202.85,462.9c-0.68,0.11-1.34,0.36-1.92,0.73c-0.58,0.37-1.08,0.86-1.46,1.44
	c-2.25,2.26-4.02,4.96-5.17,7.93c-1.15,2.97-1.67,6.16-1.53,9.34c0,0.74,0,1.52,0,2.33c-0.37,5.89-0.71,24.35-0.84,30.64l15.73-4.93
	c0-4.16,0.5-19.29,1.05-29.56c0.43-8.22-1.89-16.53-4.99-17.77C203.44,462.95,203.14,462.89,202.85,462.9z"/>
<path d="M180.42,520.84c0.43-0.87,0-25.99,0-35.39c0-9.4-6.98-12.07-10.05-4.28c-2.4,4.89-3.47,10.32-3.1,15.76
	c-0.25,7.97,0,28.57,0,28.57L180.42,520.84z"/>
<path d="M167.33,527.01c-0.32,0-0.63-0.1-0.9-0.28c-0.2-0.14-0.36-0.33-0.48-0.54c-0.11-0.22-0.17-0.46-0.17-0.7
	c0-0.19-0.22-20.69,0-28.6v-1.58c-0.23-5.08,0.84-10.14,3.1-14.7c1.83-4.65,4.93-5.86,7.2-5.43c2.88,0.53,5.8,3.94,5.8,10.27
	c0,2.92,0,7.29,0,12c0.22,21.99,0,23.36-0.25,24.07c-0.19,0.35-0.5,0.61-0.87,0.74l-12.96,4.65
	C167.65,526.98,167.49,527.01,167.33,527.01z M175.24,478.13c-1.27,0-2.57,1.33-3.44,3.6c-2.13,4.23-3.13,8.94-2.92,13.68v1.58
	c-0.19,6.2,0,20.87,0,26.33l10.17-3.63c0-3.1,0-13.99,0-22.21c0-4.71,0-9.12,0-12.03c0-4.37-1.67-6.98-3.32-7.29L175.24,478.13z"/>
<path d="M159.67,528.69v-29.68c0-7.23-8.28-3.51-10.7,6.2c-2.42,9.71,0,31.42,0,31.42L159.67,528.69z"/>
<path d="M148.97,538.27c-0.2,0.03-0.39,0.03-0.59,0c-0.25-0.1-0.48-0.27-0.64-0.49c-0.16-0.22-0.27-0.48-0.29-0.75
	c0-0.9-2.39-21.96,0-31.95c1.83-7.47,6.7-11.6,10.14-11.23c0.84,0,3.57,0.78,3.57,5.27v29.68c0,0.23-0.05,0.47-0.15,0.68
	c-0.1,0.21-0.25,0.39-0.44,0.53l-10.7,8.06C149.6,538.23,149.28,538.29,148.97,538.27z M157.13,496.77c-1.61,0-5.21,3.1-6.67,8.93
	c-1.8,7.41-0.78,22.11-0.22,28.16l7.91-5.96v-28.91c0-0.5,0-2.14-0.9-2.23H157.13z"/>
<path d="M220.84,412.04c-0.4,0-0.79-0.16-1.07-0.44c-0.29-0.28-0.45-0.67-0.45-1.07v-90.54c0-0.41,0.16-0.81,0.45-1.1
	c0.29-0.29,0.69-0.45,1.1-0.45c0.41,0,0.81,0.16,1.1,0.45c0.29,0.29,0.46,0.69,0.46,1.1v90.54c0,0.2-0.04,0.41-0.12,0.6
	c-0.08,0.19-0.2,0.36-0.35,0.5c-0.15,0.14-0.32,0.25-0.51,0.33C221.25,412.01,221.04,412.04,220.84,412.04z"/>
<path d="M190.25,426.58c-0.2,0-0.4-0.03-0.59-0.11c-0.19-0.07-0.36-0.19-0.5-0.33c-0.14-0.14-0.26-0.31-0.34-0.5
	c-0.08-0.19-0.12-0.39-0.12-0.59v-84.43c0-0.41,0.16-0.81,0.45-1.1c0.29-0.29,0.68-0.45,1.1-0.45c0.41,0,0.81,0.16,1.1,0.45
	c0.29,0.29,0.45,0.69,0.45,1.1v84.46c0,0.2-0.05,0.4-0.13,0.58c-0.08,0.18-0.2,0.35-0.34,0.49c-0.14,0.14-0.31,0.25-0.5,0.32
	C190.65,426.55,190.45,426.59,190.25,426.58z"/>
<path d="M167.21,442.31c-0.4,0-0.79-0.16-1.07-0.44c-0.28-0.29-0.44-0.67-0.44-1.07v-76.86c0-0.41,0.16-0.81,0.45-1.1
	c0.29-0.29,0.69-0.45,1.1-0.45c0.41,0,0.81,0.16,1.1,0.45c0.29,0.29,0.45,0.69,0.45,1.1v76.86c0,0.2-0.04,0.41-0.12,0.6
	c-0.08,0.19-0.2,0.36-0.35,0.5c-0.15,0.14-0.32,0.25-0.51,0.32C167.62,442.28,167.41,442.32,167.21,442.31z"/>
<path d="M151.45,454.25c-0.2,0-0.4-0.04-0.59-0.12c-0.19-0.08-0.36-0.19-0.5-0.34c-0.14-0.14-0.25-0.32-0.33-0.5
	c-0.07-0.19-0.11-0.39-0.11-0.59v-63.43c0-0.41,0.16-0.81,0.45-1.1c0.29-0.29,0.68-0.45,1.1-0.45s0.81,0.16,1.1,0.45
	c0.29,0.29,0.45,0.69,0.45,1.1v63.43c0,0.21-0.03,0.41-0.11,0.61c-0.08,0.19-0.2,0.37-0.34,0.51c-0.15,0.15-0.32,0.26-0.52,0.33
	C151.87,454.22,151.66,454.26,151.45,454.25z"/>
<path d="M262.96,395.72c-0.22,0.06-0.46,0.06-0.68,0c-0.32-0.14-0.58-0.4-0.73-0.72c-0.15-0.32-0.18-0.68-0.08-1.02
	c0.37-3.1,0.19-57.44,0-93.36c0-0.4,0.16-0.79,0.44-1.07c0.29-0.28,0.67-0.44,1.07-0.44c0.2,0,0.4,0.03,0.59,0.11
	c0.19,0.08,0.36,0.19,0.5,0.33c0.14,0.14,0.25,0.31,0.33,0.5c0.08,0.19,0.11,0.39,0.11,0.59c0.59,93.05,0,94.01,0,94.41
	c-0.16,0.25-0.4,0.45-0.67,0.57C263.56,395.73,263.25,395.77,262.96,395.72z"/>
<path d="M310.47,387.01c-0.2,0-0.4-0.04-0.59-0.12s-0.36-0.19-0.5-0.34c-0.14-0.14-0.25-0.32-0.33-0.5s-0.11-0.39-0.11-0.59v-98.66
	c0-0.41,0.16-0.81,0.45-1.1c0.29-0.29,0.68-0.45,1.1-0.45c0.41,0,0.81,0.16,1.1,0.45c0.29,0.29,0.45,0.68,0.45,1.1v98.66
	c0,0.21-0.04,0.41-0.12,0.6c-0.08,0.19-0.2,0.36-0.34,0.51s-0.32,0.26-0.51,0.33C310.89,386.97,310.68,387.01,310.47,387.01z"/>
<path d="M232.53,374.85c0-0.59,0-24.16,0-24.16s12.22-7.13,12.22-6.7c0,0.43-0.59,26.64-0.59,26.64L232.53,374.85z"/>
<path d="M232.53,376.37c-0.37,0-0.74-0.13-1.02-0.37c-0.18-0.17-0.32-0.39-0.41-0.62c-0.09-0.24-0.12-0.49-0.09-0.74
	c0-1.21,0-14.95,0-23.95c0-0.27,0.07-0.53,0.2-0.76c0.13-0.23,0.32-0.43,0.54-0.57c12.62-7.35,12.81-7.26,13.74-6.7
	c0.24,0.13,0.44,0.32,0.57,0.56s0.21,0.5,0.2,0.78c0,0.43-0.53,23.98-0.56,26.67c-0.02,0.31-0.12,0.6-0.3,0.85
	c-0.18,0.25-0.43,0.44-0.72,0.55l-11.76,4.22C232.8,376.32,232.67,376.35,232.53,376.37z M234.05,351.56c0,12.41,0,18.33,0,21.09
	l8.56-3.1c0-3.88,0.37-17.52,0.5-23.14C241.03,347.55,237.46,349.6,234.05,351.56z"/>
<path d="M173.88,413.43v-24.19l5.37-5.37v24.32L173.88,413.43z"/>
<path d="M174,414.95c-0.2,0.03-0.39,0.03-0.59,0c-0.28-0.12-0.53-0.31-0.7-0.57c-0.17-0.25-0.26-0.55-0.27-0.86v-24.13
	c0-0.2,0.04-0.4,0.12-0.59c0.08-0.19,0.2-0.35,0.34-0.5l5.4-5.4c0.21-0.22,0.49-0.37,0.78-0.43c0.3-0.06,0.61-0.03,0.89,0.09
	c0.28,0.12,0.52,0.32,0.69,0.57c0.17,0.25,0.25,0.55,0.25,0.86v24.29c0,0.42-0.17,0.82-0.47,1.12l-5.4,5.24
	C174.76,414.87,174.38,414.98,174,414.95z M175.52,389.89v19.91l2.33-2.26v-19.97L175.52,389.89z"/>
<path d="M571.88,605.55v-41.5c0-9.3-9.61-17.9-21.4-15.51c-11.79,2.39-18.61,6.2-19.88,12c-1.27,5.8,0,44.97,0,44.97L571.88,605.55z
	"/>
<path d="M571.88,607.1h-41.19c-0.4-0.01-0.79-0.17-1.08-0.45c-0.29-0.28-0.46-0.66-0.47-1.07c0-1.61-1.3-39.55,0-45.35
	c1.43-6.2,8.34-10.61,21.06-13.18c2.91-0.64,5.92-0.61,8.82,0.06c2.9,0.68,5.61,1.99,7.93,3.85c1.99,1.56,3.6,3.55,4.73,5.81
	c1.13,2.26,1.74,4.75,1.78,7.28v41.5c-0.01,0.41-0.18,0.81-0.47,1.1C572.69,606.94,572.29,607.1,571.88,607.1z M532.12,604h38.21
	v-39.95c-0.04-2.07-0.55-4.1-1.47-5.94c-0.93-1.85-2.26-3.46-3.89-4.73c-1.96-1.58-4.26-2.69-6.71-3.26
	c-2.45-0.57-5.01-0.58-7.46-0.02c-11.26,2.3-17.52,5.92-18.61,10.83C531.12,565.23,531.74,592.15,532.12,604z"/>
<path d="M615.89,662.37c5.52,0,10.81,2.19,14.72,6.1c3.9,3.9,6.1,9.2,6.1,14.72v52.08h-41.62v-52.08c0-5.52,2.19-10.81,6.1-14.72
	C605.08,664.56,610.37,662.37,615.89,662.37z"/>
<path d="M636.7,736.93h-41.62c-0.41-0.01-0.8-0.17-1.09-0.46c-0.29-0.29-0.46-0.68-0.46-1.09v-52.2c0-5.93,2.36-11.62,6.55-15.81
	c4.19-4.19,9.88-6.55,15.81-6.55c5.93,0,11.62,2.36,15.81,6.55c4.19,4.19,6.55,9.88,6.55,15.81v52.08c0.02,0.21-0.01,0.43-0.08,0.63
	c-0.07,0.2-0.18,0.39-0.33,0.55c-0.15,0.16-0.32,0.28-0.52,0.37C637.13,736.89,636.92,736.93,636.7,736.93z M596.63,733.83h38.52
	v-50.65c0-5.11-2.03-10.01-5.64-13.62c-3.61-3.61-8.51-5.64-13.62-5.64c-5.11,0-10.01,2.03-13.62,5.64
	c-3.61,3.61-5.64,8.51-5.64,13.62V733.83z"/>
<path d="M693.71,727.6v-45.87c0-12.65,7.35-15.88,16.34-15.91c9.83,0,12.41,8.28,12.9,15.04c0.5,6.76,0,47.39,0,47.39L693.71,727.6z
	"/>
<path d="M722.99,729.83l-29.28-0.65c-0.41-0.02-0.8-0.19-1.09-0.48s-0.45-0.69-0.46-1.1v-45.87c0-11.69,5.89-17.43,17.96-17.52
	c8.56,0,13.65,5.89,14.36,16.56c0.43,6.76,0,45.84,0,47.49c0,0.21-0.04,0.42-0.13,0.61c-0.09,0.19-0.21,0.36-0.37,0.51
	C723.73,729.64,723.37,729.81,722.99,729.83z M695.29,725.95l26.09,0.56c0-7.57,0.37-39.76,0-45.62
	c-0.37-5.86-2.67-13.59-11.2-13.59c-10.24,0-14.79,4.47-14.79,14.33L695.29,725.95z"/>
<path d="M736.27,728.25v-49.78c0-12.65,24.47-14.2,24.81-2.23c0.4,12.41-0.37,52.01-0.37,52.01H736.27z"/>
<path d="M760.74,729.83h-24.47c-0.42,0-0.82-0.17-1.12-0.46c-0.3-0.3-0.46-0.7-0.46-1.12v-49.78c0-7.72,7.51-11.88,14.95-12
	c6.2,0,12.84,2.88,13.06,9.74c0.4,12.41-0.37,51.67-0.37,52.08c-0.02,0.41-0.19,0.8-0.48,1.09
	C761.54,729.66,761.15,729.82,760.74,729.83z M737.85,726.73h21.31c0-7.44,0.71-39.51,0.37-50.37c0-4.71-4.96-6.73-9.86-6.64
	c-5.86,0-11.82,3.1-11.82,8.81V726.73z"/>
<path d="M736.27,636.97v-46.83c0-11.91,24.47-13.34,24.81-2.08c0.34,11.26-0.37,48.91-0.37,48.91H736.27z"/>
<path d="M760.74,638.52h-24.47c-0.2,0-0.4-0.04-0.59-0.12c-0.19-0.08-0.36-0.19-0.5-0.34c-0.14-0.15-0.25-0.32-0.33-0.5
	c-0.07-0.19-0.11-0.39-0.11-0.59v-46.83c0-7.26,7.44-11.17,14.83-11.29c6.36,0,12.84,2.67,13.09,9.3c0.4,11.6-0.4,48.63-0.4,49.01
	c-0.04,0.37-0.22,0.72-0.5,0.97C761.47,638.37,761.11,638.51,760.74,638.52z M737.82,635.42h21.4c0.15-7.1,0.71-37.22,0.37-47.33
	c-0.16-4.4-5.12-6.39-9.96-6.2c-5.86,0-11.82,2.95-11.82,8.22V635.42z"/>
<path d="M691.73,636.97v-49.78c0-12.65,28.13-13.93,28.66-1.95c0.56,12.41,1.49,51.74,1.49,51.74H691.73z"/>
<path d="M721.87,638.83h-30.15c-0.24,0-0.48-0.05-0.71-0.14c-0.22-0.09-0.43-0.23-0.6-0.4c-0.17-0.17-0.3-0.38-0.39-0.6
	c-0.09-0.23-0.13-0.47-0.13-0.71v-49.78c0-7.69,8.44-11.91,16.78-12.1c7.54-0.22,15.23,2.88,15.51,10.08
	c0.56,12.41,1.49,51.36,1.49,51.77c0,0.5-0.19,0.97-0.53,1.33C722.81,638.61,722.35,638.81,721.87,638.83z M693.59,635.14h26.3
	c-0.19-8-0.96-39.11-1.43-49.81c-0.22-4.68-6.36-6.73-11.79-6.54c-6.57,0-13.18,3.1-13.18,8.41L693.59,635.14z"/>
<path d="M776,728.25v-45.72c0-9.12,5.68-12.41,11.13-12.62c5.46-0.22,10.7,4.75,11.35,12.62c0.65,7.88,0,45.69,0,45.69L776,728.25z"
	/>
<path d="M798.48,729.83H776c-0.42,0-0.82-0.17-1.12-0.46c-0.3-0.3-0.46-0.7-0.46-1.12v-45.72c0-10.08,6.55-13.96,12.65-14.21
	c6.67-0.31,12.41,5.8,13,14.08c0.59,8.28,0,44.29,0,45.84c0,0.42-0.17,0.82-0.46,1.12S798.9,729.83,798.48,729.83z M777.58,726.73
	h19.35c0-7.2,0.56-37.22,0-43.95c-0.62-7.51-5.46-11.35-9.71-11.2c-2.88,0-9.62,1.43-9.62,11.04L777.58,726.73z"/>
<path d="M776,636.97v-38.55c0-7.72,5.68-10.48,11.13-10.67c2.9-0.02,5.7,1.08,7.81,3.06c2.11,1.99,3.38,4.71,3.54,7.61
	c0.65,6.67,0,42.93,0,42.93L776,636.97z"/>
<path d="M798.48,642.8h-0.28l-22.49-4.4c-0.33-0.06-0.64-0.24-0.85-0.5c-0.22-0.26-0.33-0.59-0.33-0.93v-38.55
	c0-8.62,6.48-11.91,12.56-12.13c3.27-0.05,6.43,1.18,8.83,3.41c2.39,2.23,3.83,5.3,4.02,8.57c0.65,6.7,0,41.62,0,43.11
	c0,0.21-0.05,0.42-0.14,0.62c-0.09,0.19-0.23,0.36-0.39,0.5C799.15,642.69,798.82,642.8,798.48,642.8z M777.45,635.79l19.6,3.78
	c0-7.29,0.56-35.33,0-41c-0.16-2.51-1.26-4.87-3.09-6.6c-1.83-1.73-4.25-2.69-6.77-2.7c-1.27-0.11-2.55,0.06-3.75,0.48
	c-1.2,0.42-2.3,1.1-3.22,1.98c-0.92,0.88-1.64,1.94-2.12,3.12c-0.48,1.18-0.7,2.45-0.65,3.72V635.79z"/>
<path d="M812.94,728.25v-46.74c0-7.41,8.53-13.74,12.65-5.68c4.13,8.06,2.42,52.42,2.42,52.42H812.94z"/>
<path d="M828.07,729.83h-15.14c-0.42,0-0.82-0.17-1.12-0.46c-0.3-0.3-0.46-0.7-0.46-1.12v-46.74c-0.03-2.37,0.68-4.7,2.05-6.64
	c1.36-1.94,3.31-3.41,5.55-4.18c1.65-0.34,3.37-0.08,4.85,0.74c1.48,0.81,2.62,2.12,3.22,3.7c4.22,8.22,2.76,48.6,2.57,53.19
	c-0.02,0.4-0.19,0.77-0.47,1.05C828.84,729.64,828.47,729.81,828.07,729.83z M814.58,726.73h11.97c0.43-13.24,0.84-44.01-2.29-50.09
	c-0.81-1.58-2.23-3.35-4.5-2.82c-1.55,0.6-2.89,1.67-3.81,3.06c-0.93,1.39-1.4,3.03-1.37,4.69V726.73z"/>
<path d="M812.94,643.95V603.1c0-5.68,8.53-10.51,12.65-4.34c4.13,6.17,2.42,49.63,2.42,49.63L812.94,643.95z"/>
<path d="M828.07,649.68h-0.4l-15.04-4.37c-0.28-0.08-0.53-0.25-0.71-0.49c-0.18-0.23-0.28-0.52-0.28-0.82V603.1
	c0.13-1.87,0.82-3.67,1.99-5.14c1.17-1.47,2.76-2.56,4.55-3.11c1.58-0.52,3.28-0.5,4.85,0.06c1.56,0.56,2.89,1.63,3.77,3.04
	c4.28,6.2,2.82,45.87,2.64,50.37c0,0.21-0.05,0.42-0.15,0.61c-0.1,0.19-0.24,0.35-0.41,0.48
	C828.64,649.57,828.36,649.67,828.07,649.68z M814.39,642.89l12.41,3.6c0.65-17.31,0.53-42.86-2.23-46.96
	c-0.54-0.92-1.39-1.63-2.4-2c-1.01-0.37-2.11-0.37-3.12-0.02c-1.24,0.35-2.35,1.08-3.17,2.08c-0.82,1-1.32,2.22-1.43,3.51
	L814.39,642.89z"/>
<path d="M837.75,651.76v-40.85c0-5.65,8.5-10.48,12.65-4.31c4.16,6.17,2.42,49.63,2.42,49.63L837.75,651.76z"/>
<path d="M852.92,657.53h-0.4l-15.07-4.37c-0.29-0.08-0.54-0.26-0.72-0.5c-0.18-0.24-0.27-0.54-0.27-0.84v-40.91
	c0.14-1.87,0.84-3.66,2.01-5.13c1.17-1.47,2.76-2.54,4.56-3.09c1.58-0.53,3.29-0.51,4.85,0.05c1.57,0.56,2.89,1.64,3.77,3.05
	c4.28,6.2,2.82,45.87,2.64,50.37c0,0.21-0.05,0.41-0.15,0.59c-0.1,0.18-0.24,0.34-0.41,0.46
	C853.5,657.41,853.21,657.52,852.92,657.53z M839.24,650.74l12.41,3.57c0.62-17.28,0.53-42.83-2.23-46.93
	c-0.54-0.93-1.39-1.64-2.4-2.01c-1.01-0.37-2.11-0.37-3.13-0.01c-1.24,0.35-2.34,1.07-3.16,2.06c-0.82,0.99-1.32,2.21-1.43,3.49
	L839.24,650.74z"/>
<path d="M840.42,728.25v-44.32c0-6.2,6.2-10.92,11.14-5.24c4.93,5.68,3.47,49.63,3.47,49.63L840.42,728.25z"/>
<path d="M855.03,729.83h-14.61c-0.42,0-0.82-0.17-1.12-0.46c-0.3-0.3-0.46-0.7-0.46-1.12v-44.32c-0.09-1.89,0.4-3.77,1.4-5.37
	c1-1.61,2.47-2.87,4.21-3.62c1.49-0.5,3.11-0.51,4.61-0.01c1.5,0.49,2.8,1.45,3.7,2.74c4.93,5.83,4.06,43.21,3.85,50.62
	c-0.01,0.41-0.18,0.81-0.47,1.1C855.84,729.67,855.44,729.83,855.03,729.83z M842,726.73h11.51c0.4-16.87,0-43.27-3.1-46.96
	c-0.5-0.78-1.24-1.38-2.1-1.7c-0.87-0.32-1.81-0.36-2.7-0.1c-1.12,0.53-2.06,1.39-2.69,2.46c-0.63,1.07-0.92,2.31-0.84,3.55
	L842,726.73z"/>
<path d="M664.43,497.45l-13.96-1.52v22.21c0,0,10.73-0.43,14.76,0L664.43,497.45z"/>
<path d="M650.47,519.79c-0.21,0-0.42-0.04-0.62-0.12c-0.2-0.08-0.38-0.2-0.53-0.35c-0.31-0.31-0.49-0.74-0.5-1.18v-22.21
	c0-0.23,0.04-0.45,0.13-0.66c0.09-0.21,0.22-0.4,0.39-0.55c0.36-0.31,0.83-0.46,1.3-0.43l13.96,1.55c0.39,0.04,0.75,0.22,1.01,0.51
	c0.27,0.28,0.42,0.65,0.44,1.04l0.81,20.6c0.01,0.23-0.02,0.47-0.11,0.69c-0.09,0.22-0.22,0.42-0.39,0.58
	c-0.36,0.31-0.83,0.47-1.3,0.43c-3.88-0.34-14.45,0-14.55,0L650.47,519.79z M652.12,497.76v18.61c2.67,0,7.91-0.25,11.41,0
	l-0.68-17.37L652.12,497.76z"/>
<path d="M750.04,533.06v-19.01c3.62,1.47,7.37,2.62,11.2,3.41v17.34L750.04,533.06z"/>
<path d="M761.23,536.44h-0.25l-11.23-1.77c-0.38-0.07-0.73-0.26-0.98-0.56s-0.39-0.67-0.39-1.06v-19.01c0-0.27,0.06-0.53,0.18-0.76
	c0.12-0.23,0.31-0.43,0.53-0.57c0.22-0.15,0.47-0.25,0.74-0.28c0.26-0.03,0.53,0,0.78,0.09c3.47,1.44,7.08,2.54,10.76,3.29
	c0.41,0.04,0.79,0.23,1.06,0.53c0.28,0.3,0.43,0.7,0.43,1.11v17.34c0,0.24-0.05,0.47-0.15,0.69c-0.1,0.21-0.25,0.4-0.44,0.55
	C762,536.31,761.62,536.45,761.23,536.44z M751.68,531.64l7.91,1.24v-14.02c-2.68-0.64-5.32-1.45-7.91-2.42V531.64z"/>
<path d="M819.14,556.42v-17.24c0,0,6.82,2.64,9.3,3.94v17.68L819.14,556.42z"/>
<path d="M828.45,562.43c-0.25,0-0.49-0.06-0.71-0.16l-9.3-4.37c-0.28-0.14-0.51-0.35-0.67-0.62c-0.16-0.26-0.25-0.56-0.26-0.87
	v-17.24c0-0.27,0.07-0.53,0.19-0.77c0.12-0.24,0.3-0.44,0.52-0.6c0.22-0.15,0.47-0.25,0.74-0.27c0.27-0.03,0.53,0.01,0.78,0.12
	c0.28,0,6.95,2.7,9.3,4.03c0.26,0.14,0.48,0.34,0.63,0.59c0.15,0.25,0.24,0.54,0.24,0.83v17.68c-0.01,0.28-0.08,0.55-0.21,0.79
	c-0.13,0.24-0.33,0.45-0.56,0.6C828.92,562.31,828.69,562.4,828.45,562.43z M820.88,555.36l5.92,2.82v-14.05
	c-1.61-0.78-4.12-1.83-5.92-2.54V555.36z"/>
<path d="M1.55,756.91l140.01-6.39h321.36l-141.46,53.53H1.55V756.91z"/>
<path d="M321.45,805.6H1.55c-0.41,0-0.81-0.16-1.1-0.45c-0.29-0.29-0.45-0.69-0.45-1.1v-47.08c0-0.4,0.15-0.79,0.43-1.07
	c0.28-0.29,0.66-0.46,1.06-0.48l140.01-6.39h321.42c0.37-0.01,0.72,0.12,1.01,0.35c0.28,0.23,0.48,0.56,0.54,0.92
	c0.07,0.36,0,0.72-0.18,1.04s-0.47,0.55-0.81,0.67l-141.47,53.53C321.83,805.6,321.64,805.63,321.45,805.6z M3.1,802.5h318.07
	l133.37-50.43H141.56L3.1,758.27V802.5z"/>
<path d="M641.51,802.07l-53.88-57.23l410.16-2.26v61.47L641.51,802.07z"/>
<path d="M997.8,805.6l-356.29-2.11c-0.21,0-0.42-0.04-0.61-0.13c-0.19-0.09-0.36-0.21-0.5-0.37l-53.88-57.07
	c-0.21-0.22-0.36-0.49-0.41-0.79c-0.05-0.3-0.02-0.61,0.1-0.88c0.12-0.28,0.32-0.52,0.57-0.69c0.25-0.17,0.55-0.26,0.86-0.27
	l410.16-2.26c0.4,0.02,0.78,0.17,1.09,0.43c0.15,0.14,0.26,0.32,0.34,0.51c0.08,0.19,0.12,0.4,0.12,0.61v61.47
	c0,0.2-0.05,0.4-0.12,0.59c-0.08,0.19-0.2,0.36-0.34,0.49C998.6,805.43,998.2,805.59,997.8,805.6z M642.35,800.39l354.05,1.95
	v-58.22l-405.04,2.26L642.35,800.39z"/>
<path d="M997.8,791.64c-0.28,0.01-0.54-0.07-0.77-0.22c-0.25,0-24.07-13.9-70.88-20.19c-39.21-5.27-104.4-19.6-125.8-24.29
	l-7.82-1.71c-0.2,0-0.39-0.04-0.57-0.12c-0.18-0.08-0.34-0.19-0.48-0.33c-0.14-0.14-0.24-0.31-0.31-0.49
	c-0.07-0.18-0.1-0.38-0.09-0.58c0-0.21,0.05-0.42,0.14-0.62s0.21-0.37,0.37-0.51c0.16-0.15,0.34-0.26,0.54-0.33
	c0.2-0.07,0.41-0.1,0.63-0.09c0.28,0,0.5,0,8.25,1.74c21.4,4.71,86.5,19.01,125.55,24.25c47.52,6.39,71.06,20.01,72.06,20.6
	c0.34,0.21,0.6,0.55,0.69,0.95c0.1,0.39,0.04,0.81-0.17,1.16c-0.13,0.23-0.33,0.43-0.56,0.57
	C998.33,791.57,998.06,791.64,997.8,791.64z"/>
<path d="M28.66,692.73c-0.35,0-0.69-0.12-0.96-0.34c-0.16-0.13-0.29-0.29-0.39-0.47c-0.1-0.18-0.16-0.38-0.18-0.59s0-0.41,0.06-0.61
	c0.06-0.2,0.16-0.38,0.29-0.54c2.73-3.24,6.34-5.64,10.39-6.88c4.05-1.25,8.38-1.3,12.47-0.16c1.02,0.28,1.95,0.56,2.42,0.31
	c0.44-0.43,0.76-0.96,0.93-1.55c3.11-6.76,8.75-12.04,15.71-14.7c6.96-2.66,14.68-2.48,21.51,0.49c0.18,0.09,0.35,0.21,0.48,0.36
	c0.13,0.15,0.24,0.33,0.31,0.52c0.07,0.19,0.09,0.39,0.08,0.59c-0.01,0.2-0.07,0.4-0.15,0.58c-0.09,0.19-0.21,0.35-0.36,0.49
	c-0.15,0.14-0.33,0.25-0.52,0.31c-0.19,0.07-0.4,0.1-0.6,0.09c-0.2-0.01-0.41-0.06-0.59-0.15c-6.04-2.61-12.86-2.78-19.02-0.47
	c-6.16,2.31-11.18,6.93-14.01,12.88c-0.39,1.27-1.21,2.37-2.33,3.1c-0.73,0.31-1.52,0.48-2.31,0.48c-0.79,0-1.58-0.16-2.31-0.48
	c-3.53-1.01-7.27-0.97-10.78,0.09c-3.51,1.07-6.64,3.12-9.01,5.92c-0.12,0.19-0.29,0.36-0.48,0.48
	C29.1,692.62,28.89,692.7,28.66,692.73z"/>
<path d="M926.15,723.13c-0.39-0.01-0.76-0.15-1.05-0.4c-2.25-2.35-4.9-4.29-7.82-5.71c-1.3-0.61-2.74-0.87-4.17-0.75
	c-1.43,0.12-2.81,0.61-3.99,1.43c-0.22,0.18-0.49,0.3-0.77,0.34c-0.28,0.04-0.57,0.01-0.84-0.09c-0.26-0.1-0.48-0.28-0.65-0.5
	c-0.16-0.22-0.26-0.49-0.28-0.77c-0.2-1.43-0.74-2.78-1.57-3.96c-0.83-1.18-1.93-2.14-3.21-2.8c-1.23-0.75-2.62-1.18-4.06-1.28
	c-1.44-0.09-2.87,0.17-4.19,0.75c-0.37,0.17-0.8,0.2-1.18,0.06c-0.39-0.13-0.71-0.41-0.9-0.78c-0.09-0.18-0.14-0.38-0.16-0.59
	c-0.01-0.2,0.01-0.41,0.08-0.6c0.07-0.19,0.17-0.37,0.31-0.52c0.14-0.15,0.3-0.28,0.48-0.37c1.77-0.81,3.7-1.17,5.64-1.07
	s3.82,0.69,5.49,1.69c2.73,1.47,4.81,3.92,5.83,6.85c1.47-0.62,3.05-0.94,4.65-0.94c1.6,0,3.18,0.32,4.65,0.94
	c3.27,1.53,6.24,3.63,8.78,6.2c0.22,0.21,0.39,0.49,0.47,0.79c0.07,0.31,0.05,0.63-0.07,0.92c-0.12,0.29-0.32,0.54-0.58,0.72
	c-0.26,0.18-0.57,0.27-0.88,0.27L926.15,723.13z"/>
<path d="M947.33,726.36h-0.19c-1.81-0.25-3.52-1-4.93-2.17c-1.41-1.17-2.46-2.7-3.04-4.44c-0.09-0.26-0.11-0.54-0.06-0.8
	c0.06-0.27,0.19-0.51,0.36-0.72c8.34-9.28,18.67-16.55,30.21-21.28c0.38-0.16,0.81-0.15,1.19,0.01c0.38,0.16,0.68,0.46,0.84,0.85
	c0.16,0.38,0.16,0.81,0,1.19c-0.17,0.38-0.47,0.68-0.85,0.84c-10.81,4.4-20.52,11.14-28.42,19.73c0.5,0.96,1.22,1.79,2.1,2.42
	c0.89,0.63,1.91,1.03,2.99,1.18c0.41,0.03,0.79,0.22,1.06,0.53s0.41,0.72,0.38,1.13c-0.03,0.41-0.22,0.79-0.53,1.06
	c-0.32,0.27-0.72,0.41-1.13,0.38V726.36z"/>
<path d="M90.91,729.83c-0.34,0-0.67-0.1-0.94-0.3c-0.27-0.2-0.46-0.49-0.55-0.81c-0.7-2.13-2.18-3.92-4.14-5
	c-1.96-1.09-4.26-1.39-6.44-0.86c-0.79,0.26-1.57,0.58-2.33,0.93c-1.54,0.8-3.23,1.29-4.96,1.43c-2.74-0.24-5.34-1.32-7.44-3.1
	l-1.55-1.02c-3.66-2.14-7.89-3.09-12.11-2.72c-4.22,0.37-8.23,2.03-11.46,4.77c-0.19,0.17-0.42,0.29-0.67,0.35
	c-0.25,0.06-0.51,0.06-0.76,0c-0.25-0.06-0.47-0.19-0.66-0.36c-0.18-0.17-0.32-0.39-0.4-0.63c-1.03-2.44-2.54-4.65-4.44-6.48
	c-1.9-1.84-4.16-3.27-6.64-4.21c-2.47-0.94-5.11-1.37-7.76-1.26s-5.24,0.76-7.62,1.9c-0.18,0.1-0.38,0.16-0.58,0.18
	c-0.2,0.02-0.41,0-0.6-0.05c-0.2-0.06-0.38-0.15-0.54-0.28c-0.16-0.13-0.29-0.29-0.39-0.47c-0.19-0.36-0.23-0.79-0.12-1.18
	c0.12-0.39,0.38-0.73,0.74-0.93c2.76-1.41,5.79-2.21,8.89-2.35c3.1-0.14,6.19,0.39,9.07,1.54c5.26,1.94,9.58,5.83,12.07,10.86
	c3.72-2.59,8.11-4.06,12.64-4.24c4.53-0.18,9.02,0.94,12.94,3.22l1.67,1.09c1.61,1.34,3.57,2.2,5.64,2.48
	c1.33-0.15,2.61-0.55,3.78-1.18c0.87-0.4,1.76-0.75,2.67-1.05c2.97-0.8,6.13-0.41,8.81,1.08c2.71,1.44,4.74,3.89,5.65,6.82
	c0.11,0.39,0.06,0.82-0.14,1.17c-0.2,0.36-0.52,0.63-0.91,0.75L90.91,729.83z"/>
</svg>
