<?xml version="1.0" encoding="UTF-8"?>
<!DOCTYPE svg  PUBLIC '-//W3C//DTD SVG 1.1//EN'  'http://www.w3.org/Graphics/SVG/1.1/DTD/svg11.dtd'>
<svg version="1.1" xmlns="http://www.w3.org/2000/svg">
<defs>
<font id="MariupolSymbols" horiz-adv-x="60">
<font-face font-family="s" font-weight="400" ascent="819" bbox="60 -1 741 770" cap-height="679" descent="-205" panose-1="5 10 5 6 2 0 0 2 0 4" underline-position="-200" underline-thickness="50" unicode-range="U+0020-00BB" units-per-em="1024" x-height="531"/>
<missing-glyph/>
<glyph glyph-name="space" unicode=" "/>
<glyph glyph-name="exclam" unicode="!"/>
<glyph glyph-name="quotedbl" unicode='"'/>
<glyph glyph-name="numbersign" unicode="#"/>
<glyph glyph-name="dollar" unicode="$"/>
<glyph glyph-name="percent" unicode="%"/>
<glyph glyph-name="ampersand" unicode="&amp;"/>
<glyph glyph-name="quotesingle" unicode="'"/>
<glyph glyph-name="parenleft" unicode="("/>
<glyph glyph-name="parenright" unicode=")"/>
<glyph glyph-name="asterisk" unicode="*"/>
<glyph glyph-name="plus" unicode="+"/>
<glyph glyph-name="comma" unicode=","/>
<glyph glyph-name="hyphen" unicode="-"/>
<glyph glyph-name="period" unicode="."/>
<glyph glyph-name="slash" unicode="/"/>
<glyph glyph-name="zero" unicode="0"/>
<glyph glyph-name="one" unicode="1"/>
<glyph glyph-name="two" unicode="2"/>
<glyph glyph-name="three" unicode="3"/>
<glyph glyph-name="four" unicode="4"/>
<glyph glyph-name="five" unicode="5"/>
<glyph glyph-name="six" unicode="6"/>
<glyph glyph-name="seven" unicode="7"/>
<glyph glyph-name="eight" unicode="8"/>
<glyph glyph-name="nine" unicode="9"/>
<glyph glyph-name="colon" unicode=":"/>
<glyph glyph-name="semicolon" unicode=";"/>
<glyph glyph-name="less" unicode="&lt;"/>
<glyph glyph-name="equal" unicode="="/>
<glyph glyph-name="greater" unicode="&gt;"/>
<glyph glyph-name="question" unicode="?"/>
<glyph glyph-name="at" unicode="@"/>
<glyph d="M253 553q0 -8 1 -13q39 13 84 13q46 0 84 -13q1 5 1 13q0 35 -25 60t-60 25t-60 -25t-25 -60zM61 274l1 3h116l-54 -95q20 -45 58.5 -79.5t87.5 -49.5q14 -7 28 -7q16 99 16 220v23q0 86 -25 131q-10 17 -32 34q-48 38 -48 99q0 53 37.5 90.5t90.5 37.5t90.5 -37.5 t37.5 -90.5q0 -61 -48 -99q-24 -20 -32 -34q-23 -41 -23 -123v-31q0 -121 16 -220q13 0 27 7q49 15 87 49t59 80l-54 95h118q0 -65 -28 -121t-71 -91q-77 -65 -178 -65t-178 65q-69 58 -91 146q-8 40 -8 63z" glyph-name="A" horiz-adv-x="673" unicode="A"/>
<glyph d="M400 127l127 127h-85l128 170l127 -170h-85l128 -127h-148v-127h-43v127h-149zM60 317q0 85 66 143q-21 36 -21 75q0 60 42 102.5t102 42.5t102.5 -42.5t42.5 -102.5q0 -30 -10 -53q-50 40 -134 40v-39q78 0 132.5 -49t55.5 -117v-2q-1 -68 -44 -119.5t-109 -64.5l7 -131 h-81l7 130q-56 9 -96 46q58 24 94 77.5t36 118.5h-46q0 -55 -32.5 -98.5t-83.5 -59.5q-30 47 -30 103z" glyph-name="B" horiz-adv-x="799" unicode="B"/>
<glyph d="M401 126v510v43h126v-43h-106l233 -510h-253zM187 126l170 425v-383zM60 83v1h679v-84h-555z" glyph-name="C" horiz-adv-x="798" unicode="C"/>
<glyph d="M60 476v43h158q33 47 81 73.5t101 26.5t101.5 -26.5t81.5 -73.5h157v-43h-181l-6 10q-26 42 -67.5 66t-85.5 24t-85.5 -24t-67.5 -66l-6 -10h-181zM60 0v432h204q14 42 51 69.5t83 27.5q47 0 85.5 -27.5t52.5 -69.5h204v-85v-347h-62l6 19v328h-57v-328l7 -19h-69l6 19 v328h-57v-328l7 -19h-69l6 19v328v42q0 22 -18.5 38.5t-41.5 16.5q-22 0 -38.5 -16t-16.5 -39v-42h-1v-328l7 -19h-69l6 19v328h-57v-328l7 -19h-69l6 19v328h-57v-328l7 -19h-63z" glyph-name="D" horiz-adv-x="800" unicode="D"/>
<glyph d="M246 151q0 -21 15 -35.5t36 -14.5q22 0 36 14t14 36q0 21 -14.5 35.5t-35.5 14.5q-22 0 -36.5 -14t-14.5 -36zM60 303h36v49h12q-3 15 -3 38q0 61 16 61t16 -61q0 -23 -3 -38h12q0 21 14.5 36t35.5 15t36 -15t15 -36h27l-15 121l24 234q-15 6 -25 23.5t-10 39.5h98 q0 -48 -34 -62l27 -235l-16 -121h24q0 21 14.5 36t35.5 15t36 -15t15 -36h11q-3 15 -3 38q0 61 16 61q7 0 12 -18t5 -43q0 -18 -4 -38h12v-49h37l-37 -64v-239h-50v239h-54v-239h-192v239h-55v-239h-50v239h1z" glyph-name="E" horiz-adv-x="594" unicode="E"/>
<glyph d="M348 85v367q0 25 17 42t42 17t42 -17t17 -42v-367h-118zM273 559q0 19 13.5 33t33.5 14t34 -14t14 -33t-14 -33.5t-34 -14.5q-19 0 -33 14t-14 34zM171 85v367q0 25 17 42t42 17t42 -17t17 -42v-367h-118zM171 0v42h295v-42h-295zM60 466q0 107 76 183t183 76t183 -76 t76 -183h-83q0 73 -51.5 124.5t-124.5 51.5t-124.5 -51.5t-51.5 -124.5h-83z" glyph-name="F" horiz-adv-x="637" unicode="F"/>
<glyph d="M339 524q0 -12 8.5 -20.5t20.5 -8.5t20.5 8.5t8.5 20.5t-8.5 21t-20.5 9t-20.5 -9t-8.5 -21zM293 129h71l-28 85h-43v-85zM183 129h70v85h-42zM130 289h221v123l-88 -113v200zM60 214v43h43v341h149v84h42v-84h149v-341h43v-43h-108l69 -214h-42l-28 86h-84v-42h-40v42 h-84l-28 -86h-42l69 214h-108z" glyph-name="G" horiz-adv-x="545" unicode="G"/>
<glyph d="M542 607q0 -11 7 -18t18 -7t18 7t7 18t-7 18t-18 7t-18 -7t-7 -18zM339 142l53 -99h52l-53 99h-52zM60 142l66 88h233q68 0 116.5 48.5t48.5 116.5h-42q0 -51 -36 -86.5t-87 -35.5h-201l126 166q50 71 129 82q-9 21 -9 45q0 47 33.5 80.5t80.5 33.5q41 0 72.5 -25 t39.5 -64l56 -25l-56 -25q-11 -48 -53 -73q55 -55 55 -135q0 -79 -55.5 -135t-134.5 -56h-3l53 -99h56v-43h-254v43h50l-54 99h-230z" glyph-name="H" horiz-adv-x="746" unicode="H"/>
<glyph d="M611 317v43h43v43h42v-43h43v-43h-43v-42h-42v42h-43zM422 405v85l104 105v-128h127l-106 -106h-82v44h-43zM422 188v85h43v44h82l106 -106h-127v-128zM335 594v43h41v42h44v-42h43v-43h-43v-42h-44v42h-41zM335 317v44h43v42h44v-42h41v-44h-41v-42h-44v42h-43zM335 41 v43h41v42h44v-42h43v-43h-43v-41h-44v41h-41zM145 467h127v128l106 -107v-83h-45v-44h-83zM145 211l105 106h83v-44h45v-83l-106 -107v128h-127zM60 317v43h41v43h43v-43h42v-43h-42v-42h-43v42h-41z" glyph-name="I" horiz-adv-x="798" unicode="I"/>
<glyph d="M485 463h213v42h-213v-42zM485 378h213v42h-213v-42zM485 293h213v42h-213v-42zM146 293h170v42h-170v-42zM146 208h170v42h-170v-42zM145 378h128l-64 127zM60 124l1 466l214 1q52 0 89 -35t37 -89v-259l42 42l1 309q34 31 83 31l214 -1l-1 -466l-214 1q-55 0 -94 -44 h-63q-39 44 -95 44h-214z" glyph-name="J" horiz-adv-x="801" unicode="J"/>
<glyph d="M520 363h28q52 0 99 -6q6 -29 6 -60q0 -52 -17 -100q-22 14 -32 22q-66 54 -84 144zM515 410q0 60 29 116q65 -54 92 -131q-47 5 -89 5q-5 0 -15 -0.5t-16 -0.5q0 2 -0.5 5.5t-0.5 5.5zM413 352q22 4 70 8q26 -134 137 -197h1q-29 -56 -78 -96.5t-110 -56.5q9 57 9 122 q0 111 -29 220zM307 589q21 4 49 4q87 0 158 -45q-36 -65 -36 -136q0 -2 0.5 -7t0.5 -8q-41 -3 -76 -10q-36 114 -96 202zM205 42q44 36 70.5 92t26.5 117q0 35 -9 71q37 12 84 22q28 -102 28 -214q0 -66 -11 -127q-18 -3 -38 -3q-80 0 -151 42zM144 504q52 53 124 76 q63 -84 99 -200q-34 -6 -86 -23q-40 98 -137 147zM73 208q79 61 185 101q7 -27 7 -58q0 -55 -25.5 -105t-66.5 -82q-74 59 -100 144zM60 297q0 97 59 177q90 -39 127 -129q-103 -38 -182 -98q-4 21 -4 50z" glyph-name="K" horiz-adv-x="712" unicode="K"/>
<glyph d="M398 80h43v84h-43v-84zM314 80h40v84h-40v-4v-80zM273 590v42q30 0 62 -27q16 -15 33 -15q18 0 34 15q32 27 62 27t62 -27q17 -15 34 -15q16 0 33 15q32 27 62 27v-42q-15 0 -33 -16q-32 -27 -62 -27t-62 27q-18 16 -34 16t-34 -16q-32 -27 -62 -27t-62 27q-18 16 -33 16 zM228 80h43v84h-43v-84zM145 80h41v84h-41v-84zM60 0v292h49l15 302h43l14 -302h62l11 212h42l11 -212h136l212 127v-127v-292h-595z" glyph-name="L" horiz-adv-x="715" unicode="L"/>
<glyph d="M457 368q0 -20 13.5 -33.5t33.5 -13.5q19 0 32.5 13.5t13.5 33.5t-13 33t-33 13t-33.5 -13.5t-13.5 -32.5zM280 195q52 -47 121 -47t121 47h-242zM272 368q0 -20 13.5 -33.5t32.5 -13.5q20 0 33.5 13.5t13.5 33.5q0 19 -13.5 32.5t-33.5 13.5t-33 -13t-13 -33zM60 345 q0 57 45 91v21q0 31 3 58q60 -4 87 -4q262 0 333 169q1 -5 2.5 -14t12.5 -33.5t27 -45t49 -41t75 -29.5q3 -29 3 -60q0 -4 -0.5 -11.5t-0.5 -10.5q44 -34 44 -90q0 -38 -22 -68t-58 -41q-39 -110 -108 -173t-151 -63t-151 63t-108 173q-36 11 -59 41t-23 68z" glyph-name="M" horiz-adv-x="800" unicode="M"/>
<glyph d="M400 391v85h85v85h170v-85h86v-85h-341zM358 284q0 -9 6 -15t15 -6t15 6t6 15t-6 15t-15 6t-15 -6t-6 -15zM230 348h511v-206q-3 -1 -11 -1q-14 0 -34 16q-32 27 -62 27t-62 -27q-20 -16 -34 -16q-13 0 -33 16q-32 27 -62 27t-62 -27q-20 -16 -34 -16q-9 0 -15 3zM60 98 v42q31 0 62 -26q18 -16 34 -16q15 0 33 16q31 26 62 26t62 -26q18 -16 34 -16t34 16q31 26 62 26t62 -26q18 -16 33 -16q16 0 34 16q31 26 62 26t62 -26q18 -16 34 -16q8 0 11 1v-43q-1 0 -5 -0.5t-6 -0.5q-30 0 -62 27q-18 16 -34 16t-34 -16q-32 -27 -62 -27t-62 27 q-18 16 -33 16q-16 0 -34 -16q-32 -27 -62 -27t-62 27q-18 16 -34 16q-15 0 -33 -16q-32 -27 -62 -27t-62 27q-18 16 -34 16z" glyph-name="N" horiz-adv-x="800" unicode="N"/>
<glyph d="M318 106q0 22 15 37t37 15t37 -15t15 -37t-15 -37t-37 -15t-37 15t-15 37zM229 223q60 53 141 53q79 0 141 -54l-42 -48q-43 38 -99 38t-98 -37zM145 317q96 87 226 87q63 0 122 -23t103 -63l-42 -48q-78 70 -183 70q-104 0 -183 -70zM60 413q132 118 311 118 q178 0 310 -118l-43 -48q-117 102 -267 102q-151 0 -268 -102z" glyph-name="O" horiz-adv-x="740" unicode="O"/>
<glyph d="M340 495q0 40 25.5 65t65.5 25q38 0 64.5 -26.5t26.5 -63.5q0 -38 -27 -65t-64 -27q-54 0 -80 48q-11 20 -11 44zM264 387q0 14 10.5 24.5t24.5 10.5t24.5 -10.5t10.5 -24.5t-10.5 -24.5t-24.5 -10.5t-24.5 10.5t-10.5 24.5zM222 387q0 -32 22.5 -55t54.5 -23 q28 0 49.5 18.5t26.5 45.5q26 -12 56 -12q55 0 94.5 39.5t39.5 94.5t-39 94t-95 39t-95 -39t-39 -94q0 -11 4 -31q-1 0 -1 0.5t-1 0.5q-32 0 -54.5 -23t-22.5 -55zM60 221q0 103 72 231t176 187q61 42 137 42q97 0 167 -68t73 -165h1v-8l53 -125q2 -6 2 -8q0 -8 -6 -14 t-15 -6h-34v-114q0 -19 -14 -33t-34 -14h-114l45 -43l9 -83h-331l7 59q-94 10 -144 46.5t-50 115.5z" glyph-name="P" horiz-adv-x="800" unicode="P"/>
<glyph d="M60 306q0 2 2 8l41 95h43v42h231q29 0 48 -20t19 -47v-21h42v21q0 34 -20 63q-14 20 -50 33t-66 13h-228q18 79 96 133t165 54q100 0 170 -70t70 -170q0 -95 -64 -164v-91l22 -185h-332l10 82l57 43h-52h-101q-20 0 -34 14t-14 33v114h-34q-9 0 -15 6t-6 14z" glyph-name="Q" horiz-adv-x="683" unicode="Q"/>
<glyph d="M206 411l97 77l97 -27l97 27l97 -77h-388zM61 366v2h679l-127 -212h-425zM60 71v42h680v-42h-42v-37q0 -14 -9.5 -24t-23.5 -10q-13 0 -22.5 10t-9.5 24h-83q0 -14 -9.5 -24t-22.5 -10q-14 0 -23.5 10t-9.5 24v37h-170v-37q0 -14 -9.5 -24t-22.5 -10q-14 0 -23.5 10 t-9.5 24h-83q0 -14 -9.5 -24t-22.5 -10q-14 0 -23.5 10t-9.5 24v37h-42z" glyph-name="R" horiz-adv-x="800" unicode="R"/>
<glyph d="M486 321q0 -17 12.5 -29.5t29.5 -12.5q18 0 30 12.5t12 29.5q0 18 -12 30t-30 12q-17 0 -29.5 -12t-12.5 -30zM357 321q0 -17 12.5 -29.5t30.5 -12.5q17 0 30 12.5t13 29.5q0 18 -12.5 30t-30.5 12t-30.5 -12t-12.5 -30zM230 321q0 -17 13 -29.5t30 -12.5q18 0 30 12.5 t12 29.5q0 18 -12 30t-30 12t-30.5 -12t-12.5 -30zM60 321q0 71 50 120.5t120 49.5h340q70 0 120 -49.5t50 -120.5t-50 -120.5t-120 -49.5h-170l-170 -128v128q-70 0 -120 49.5t-50 120.5z" glyph-name="S" horiz-adv-x="800" unicode="S"/>
<glyph d="M570 402q0 -9 6.5 -15t15.5 -6t15 6t6 15t-6 15t-15 6t-15.5 -6t-6.5 -15zM273 317q0 35 25 60t60 25t60 -25t25 -60t-25 -60t-60 -25t-60 25t-25 60zM230 317q0 -52 37.5 -89.5t90.5 -37.5t90 37t37 90t-37 90.5t-90 37.5q-52 0 -90 -37.5t-38 -90.5zM60 126v339h128 l42 86h255l43 -86h128v-339h-596z" glyph-name="T" horiz-adv-x="715" unicode="T"/>
<glyph d="M528 531q0 -26 19 -45t45 -19q27 0 45 19t18 45t-18.5 45t-44.5 19t-45 -18.5t-19 -45.5zM60 0v135l255 255v77q0 88 62.5 150.5t150.5 62.5h9q84 0 143.5 -60t59.5 -144v-9q0 -88 -62 -150t-150 -62h-128v-43h-85v-85h-85v-85h-85v-42h-85z" glyph-name="U" horiz-adv-x="800" unicode="U"/>
<glyph d="M442 340l298 299v-596zM272 354v269q0 24 17 40.5t41 16.5h28v-383v-255q0 -17 -13 -29.5t-30 -12.5t-29.5 12.5t-12.5 29.5q0 24 43 257q-19 5 -31.5 20t-12.5 35zM60 531q0 48 26 98.5t59 50.5t59 -50.5t26 -98.5q0 -38 -19 -67t-48 -37q6 -59 12.5 -151.5t9.5 -157 t3 -76.5q0 -17 -13 -29.5t-30 -12.5t-29.5 12.5t-12.5 29.5q0 12 3 76t9 157.5t12 151.5q-29 8 -48 37t-19 67z" glyph-name="V" horiz-adv-x="800" unicode="V"/>
<glyph d="M60 423q0 74 49.5 126t120.5 52q66 0 115 -47t55 -116q5 68 54 115.5t116 47.5q71 0 120.5 -52t49.5 -126q0 -69 -42 -119l-297 -298l-295 295q-46 46 -46 122z" glyph-name="W" horiz-adv-x="800" unicode="W"/>
<glyph d="M358 340q0 -18 12 -30.5t30 -12.5t30.5 12.5t12.5 30.5q0 17 -12.5 29.5t-30.5 12.5t-30 -12.5t-12 -29.5zM60 340q0 44 70 77q12 6 40 16q-29 60 -29 98q0 30 17 46.5t47 16.5q42 0 100 -29q27 -13 54 -31q-4 -3 -12.5 -9.5t-12.5 -10.5q-7 -30 -12 -69q34 33 74 63 q41 -31 84 -72q-11 92 -40 154q-23 48 -40 48q-18 0 -42 -53q-9 5 -38 20q35 75 80 75t78 -70q11 -21 16 -40q58 28 98 28q30 0 46.5 -16.5t16.5 -46.5q0 -42 -29 -100q-20 -38 -34 -59q-25 33 -72 80q5 -33 6 -68q42 -48 79 -106q28 8 60.5 26.5t32.5 31.5q0 17 -53 42 q13 22 21 37q75 -35 75 -79q0 -45 -75 -80q-21 -11 -40 -16q29 -58 29 -100q0 -30 -16.5 -46.5t-46.5 -16.5q-39 0 -98 28q-35 17 -62 36q43 33 85 75q-12 -2 -34 -4h-1q-22 -2 -34 -3q-19 -17 -52 -42q-40 30 -74 63q9 -81 36 -140q23 -52 42 -52q17 0 40 47q6 -4 12.5 -7 t14 -6.5t11.5 -5.5q-33 -70 -78 -70q-44 0 -79 74q-6 12 -9 19v1q-3 6 -7 20q-60 -30 -100 -30q-30 0 -47 17t-17 47q0 32 19 77t42 78q27 -36 80 -89q-4 16 -8 69q-52 59 -84 112q-27 -8 -57 -25.5t-30 -29.5q0 -18 47 -40q-5 -9 -20 -38q-70 33 -70 78z" glyph-name="X" horiz-adv-x="800" unicode="X"/>
<glyph d="M145 381q0 61 43.5 105t105.5 44t105.5 -44t43.5 -105q0 -56 -38 -99l-32 28q27 32 27 71q0 44 -31 75t-75 31t-75 -31t-31 -75q0 -49 35 -79l-28 -32q-50 44 -50 111zM108 169q0 17 13 29.5t30 12.5q18 0 30 -12l70 -71v253q0 17 13 30t30 13t29.5 -13t12.5 -30l16 -170 h16q14 0 23 -6t9 -15q0 9 9 15t23 6t23 -6t9 -15q0 8 9 14.5t22 6.5q18 0 31 -13t13 -32l10 -166h-298v8l-130 131q-13 13 -13 30zM60 381q0 97 68.5 165.5t165.5 68.5t165.5 -68.5t68.5 -165.5q0 -78 -47 -140l-34 25q38 50 38 115q0 79 -56 135t-135 56q-80 0 -135.5 -56 t-55.5 -135q0 -65 38 -115l-34 -25q-47 62 -47 140z" glyph-name="Y" horiz-adv-x="608" unicode="Y"/>
<glyph d="M443 528q0 26 18.5 44.5t44.5 18.5t45 -18.5t19 -44.5t-19 -44.5t-45 -18.5t-44.5 18.5t-18.5 44.5zM443 128q0 52 37.5 89.5t89.5 37.5q53 0 90.5 -37.5t37.5 -89.5t-38 -90t-90 -38t-89.5 37.5t-37.5 90.5zM260 320q0 21 16 36l106 99q14 14 34 14q18 0 33 -13l86 -78 h91l-1 -52h-106l-53 45l-90 -87l33 -38v-164h-51v138l-71 56q-27 14 -27 44zM60 128q0 52 37.5 89.5t90.5 37.5q52 0 89.5 -37.5t37.5 -89.5q0 -53 -37.5 -90.5t-89.5 -37.5t-90 38t-38 90z" glyph-name="Z" horiz-adv-x="757" unicode="Z"/>
<glyph d="M315 548v42q30 0 62 -27q17 -15 33 -15q18 0 34 15q32 27 62 27t62 -27q17 -15 34 -15q18 0 34 15q32 27 62 27v-42q-16 0 -34 -16q-32 -27 -62 -27t-62 27q-18 16 -34 16t-34 -16q-32 -27 -62 -27q-29 0 -61 27q-18 16 -34 16zM102 212v214h426v-46h85q52 0 89 -37 t37 -90t-36.5 -89.5t-89.5 -36.5t-90 37q-17 -71 -75 -117.5t-132 -46.5q-88 0 -151 62t-63 150z" glyph-name="bracketleft" horiz-adv-x="799" unicode="["/>
<glyph glyph-name="backslash" unicode="\"/>
<glyph d="M443 169h85v42h-85v-42zM358 296q0 26 18.5 45t44.5 19t45 -19t19 -45h-127zM294 148q0 -9 6 -15.5t15 -6.5t15 6.5t6 15.5t-6 15t-15 6t-15 -6t-6 -15zM103 254h425v255h-425v-255zM103 169h85v42h-85v-42zM60 41v510v43h511v-553h-43v-42h-85v42h-256v-41h-84v41h-43z " glyph-name="bracketright" horiz-adv-x="630" unicode="]"/>
<glyph glyph-name="asciicircum" unicode="^"/>
<glyph glyph-name="underscore" unicode="_"/>
<glyph glyph-name="grave" unicode="`"/>
<glyph d="M253 553q0 -8 1 -13q39 13 84 13q46 0 84 -13q1 5 1 13q0 35 -25 60t-60 25t-60 -25t-25 -60zM61 274l1 3h116l-54 -95q20 -45 58.5 -79.5t87.5 -49.5q14 -7 28 -7q16 99 16 220v23q0 86 -25 131q-10 17 -32 34q-48 38 -48 99q0 53 37.5 90.5t90.5 37.5t90.5 -37.5 t37.5 -90.5q0 -61 -48 -99q-24 -20 -32 -34q-23 -41 -23 -123v-31q0 -121 16 -220q13 0 27 7q49 15 87 49t59 80l-54 95h118q0 -65 -28 -121t-71 -91q-77 -65 -178 -65t-178 65q-69 58 -91 146q-8 40 -8 63z" glyph-name="a" horiz-adv-x="673" unicode="a"/>
<glyph d="M400 127l127 127h-85l128 170l127 -170h-85l128 -127h-148v-127h-43v127h-149zM60 317q0 85 66 143q-21 36 -21 75q0 60 42 102.5t102 42.5t102.5 -42.5t42.5 -102.5q0 -30 -10 -53q-50 40 -134 40v-39q78 0 132.5 -49t55.5 -117v-2q-1 -68 -44 -119.5t-109 -64.5l7 -131 h-81l7 130q-56 9 -96 46q58 24 94 77.5t36 118.5h-46q0 -55 -32.5 -98.5t-83.5 -59.5q-30 47 -30 103z" glyph-name="b" horiz-adv-x="799" unicode="b"/>
<glyph d="M401 126v510v43h126v-43h-106l233 -510h-253zM187 126l170 425v-383zM60 83v1h679v-84h-555z" glyph-name="c" horiz-adv-x="798" unicode="c"/>
<glyph d="M60 476v43h158q33 47 81 73.5t101 26.5t101.5 -26.5t81.5 -73.5h157v-43h-181l-6 10q-26 42 -67.5 66t-85.5 24t-85.5 -24t-67.5 -66l-6 -10h-181zM60 0v432h204q14 42 51 69.5t83 27.5q47 0 85.5 -27.5t52.5 -69.5h204v-85v-347h-62l6 19v328h-57v-328l7 -19h-69l6 19 v328h-57v-328l7 -19h-69l6 19v328v42q0 22 -18.5 38.5t-41.5 16.5q-22 0 -38.5 -16t-16.5 -39v-42h-1v-328l7 -19h-69l6 19v328h-57v-328l7 -19h-69l6 19v328h-57v-328l7 -19h-63z" glyph-name="d" horiz-adv-x="800" unicode="d"/>
<glyph d="M246 151q0 -21 15 -35.5t36 -14.5q22 0 36 14t14 36q0 21 -14.5 35.5t-35.5 14.5q-22 0 -36.5 -14t-14.5 -36zM60 303h36v49h12q-3 15 -3 38q0 61 16 61t16 -61q0 -23 -3 -38h12q0 21 14.5 36t35.5 15t36 -15t15 -36h27l-15 121l24 234q-15 6 -25 23.5t-10 39.5h98 q0 -48 -34 -62l27 -235l-16 -121h24q0 21 14.5 36t35.5 15t36 -15t15 -36h11q-3 15 -3 38q0 61 16 61q7 0 12 -18t5 -43q0 -18 -4 -38h12v-49h37l-37 -64v-239h-50v239h-54v-239h-192v239h-55v-239h-50v239h1z" glyph-name="e" horiz-adv-x="594" unicode="e"/>
<glyph d="M348 85v367q0 25 17 42t42 17t42 -17t17 -42v-367h-118zM273 559q0 19 13.5 33t33.5 14t34 -14t14 -33t-14 -33.5t-34 -14.5q-19 0 -33 14t-14 34zM171 85v367q0 25 17 42t42 17t42 -17t17 -42v-367h-118zM171 0v42h295v-42h-295zM60 466q0 107 76 183t183 76t183 -76 t76 -183h-83q0 73 -51.5 124.5t-124.5 51.5t-124.5 -51.5t-51.5 -124.5h-83z" glyph-name="f" horiz-adv-x="637" unicode="f"/>
<glyph d="M339 524q0 -12 8.5 -20.5t20.5 -8.5t20.5 8.5t8.5 20.5t-8.5 21t-20.5 9t-20.5 -9t-8.5 -21zM293 129h71l-28 85h-43v-85zM183 129h70v85h-42zM130 289h221v123l-88 -113v200zM60 214v43h43v341h149v84h42v-84h149v-341h43v-43h-108l69 -214h-42l-28 86h-84v-42h-40v42 h-84l-28 -86h-42l69 214h-108z" glyph-name="g" horiz-adv-x="545" unicode="g"/>
<glyph d="M542 607q0 -11 7 -18t18 -7t18 7t7 18t-7 18t-18 7t-18 -7t-7 -18zM339 142l53 -99h52l-53 99h-52zM60 142l66 88h233q68 0 116.5 48.5t48.5 116.5h-42q0 -51 -36 -86.5t-87 -35.5h-201l126 166q50 71 129 82q-9 21 -9 45q0 47 33.5 80.5t80.5 33.5q41 0 72.5 -25 t39.5 -64l56 -25l-56 -25q-11 -48 -53 -73q55 -55 55 -135q0 -79 -55.5 -135t-134.5 -56h-3l53 -99h56v-43h-254v43h50l-54 99h-230z" glyph-name="h" horiz-adv-x="746" unicode="h"/>
<glyph d="M611 317v43h43v43h42v-43h43v-43h-43v-42h-42v42h-43zM422 405v85l104 105v-128h127l-106 -106h-82v44h-43zM422 188v85h43v44h82l106 -106h-127v-128zM335 594v43h41v42h44v-42h43v-43h-43v-42h-44v42h-41zM335 317v44h43v42h44v-42h41v-44h-41v-42h-44v42h-43zM335 41 v43h41v42h44v-42h43v-43h-43v-41h-44v41h-41zM145 467h127v128l106 -107v-83h-45v-44h-83zM145 211l105 106h83v-44h45v-83l-106 -107v128h-127zM60 317v43h41v43h43v-43h42v-43h-42v-42h-43v42h-41z" glyph-name="i" horiz-adv-x="798" unicode="i"/>
<glyph d="M485 463h213v42h-213v-42zM485 378h213v42h-213v-42zM485 293h213v42h-213v-42zM146 293h170v42h-170v-42zM146 208h170v42h-170v-42zM145 378h128l-64 127zM60 124l1 466l214 1q52 0 89 -35t37 -89v-259l42 42l1 309q34 31 83 31l214 -1l-1 -466l-214 1q-55 0 -94 -44 h-63q-39 44 -95 44h-214z" glyph-name="j" horiz-adv-x="801" unicode="j"/>
<glyph d="M520 363h28q52 0 99 -6q6 -29 6 -60q0 -52 -17 -100q-22 14 -32 22q-66 54 -84 144zM515 410q0 60 29 116q65 -54 92 -131q-47 5 -89 5q-5 0 -15 -0.5t-16 -0.5q0 2 -0.5 5.5t-0.5 5.5zM413 352q22 4 70 8q26 -134 137 -197h1q-29 -56 -78 -96.5t-110 -56.5q9 57 9 122 q0 111 -29 220zM307 589q21 4 49 4q87 0 158 -45q-36 -65 -36 -136q0 -2 0.5 -7t0.5 -8q-41 -3 -76 -10q-36 114 -96 202zM205 42q44 36 70.5 92t26.5 117q0 35 -9 71q37 12 84 22q28 -102 28 -214q0 -66 -11 -127q-18 -3 -38 -3q-80 0 -151 42zM144 504q52 53 124 76 q63 -84 99 -200q-34 -6 -86 -23q-40 98 -137 147zM73 208q79 61 185 101q7 -27 7 -58q0 -55 -25.5 -105t-66.5 -82q-74 59 -100 144zM60 297q0 97 59 177q90 -39 127 -129q-103 -38 -182 -98q-4 21 -4 50z" glyph-name="k" horiz-adv-x="712" unicode="k"/>
<glyph d="M398 80h43v84h-43v-84zM314 80h40v84h-40v-4v-80zM273 590v42q30 0 62 -27q16 -15 33 -15q18 0 34 15q32 27 62 27t62 -27q17 -15 34 -15q16 0 33 15q32 27 62 27v-42q-15 0 -33 -16q-32 -27 -62 -27t-62 27q-18 16 -34 16t-34 -16q-32 -27 -62 -27t-62 27q-18 16 -33 16 zM228 80h43v84h-43v-84zM145 80h41v84h-41v-84zM60 0v292h49l15 302h43l14 -302h62l11 212h42l11 -212h136l212 127v-127v-292h-595z" glyph-name="l" horiz-adv-x="715" unicode="l"/>
<glyph d="M457 368q0 -20 13.5 -33.5t33.5 -13.5q19 0 32.5 13.5t13.5 33.5t-13 33t-33 13t-33.5 -13.5t-13.5 -32.5zM280 195q52 -47 121 -47t121 47h-242zM272 368q0 -20 13.5 -33.5t32.5 -13.5q20 0 33.5 13.5t13.5 33.5q0 19 -13.5 32.5t-33.5 13.5t-33 -13t-13 -33zM60 345 q0 57 45 91v21q0 31 3 58q60 -4 87 -4q262 0 333 169q1 -5 2.5 -14t12.5 -33.5t27 -45t49 -41t75 -29.5q3 -29 3 -60q0 -4 -0.5 -11.5t-0.5 -10.5q44 -34 44 -90q0 -38 -22 -68t-58 -41q-39 -110 -108 -173t-151 -63t-151 63t-108 173q-36 11 -59 41t-23 68z" glyph-name="m" horiz-adv-x="800" unicode="m"/>
<glyph d="M400 391v85h85v85h170v-85h86v-85h-341zM358 284q0 -9 6 -15t15 -6t15 6t6 15t-6 15t-15 6t-15 -6t-6 -15zM230 348h511v-206q-3 -1 -11 -1q-14 0 -34 16q-32 27 -62 27t-62 -27q-20 -16 -34 -16q-13 0 -33 16q-32 27 -62 27t-62 -27q-20 -16 -34 -16q-9 0 -15 3zM60 98 v42q31 0 62 -26q18 -16 34 -16q15 0 33 16q31 26 62 26t62 -26q18 -16 34 -16t34 16q31 26 62 26t62 -26q18 -16 33 -16q16 0 34 16q31 26 62 26t62 -26q18 -16 34 -16q8 0 11 1v-43q-1 0 -5 -0.5t-6 -0.5q-30 0 -62 27q-18 16 -34 16t-34 -16q-32 -27 -62 -27t-62 27 q-18 16 -33 16q-16 0 -34 -16q-32 -27 -62 -27t-62 27q-18 16 -34 16q-15 0 -33 -16q-32 -27 -62 -27t-62 27q-18 16 -34 16z" glyph-name="n" horiz-adv-x="800" unicode="n"/>
<glyph d="M318 106q0 22 15 37t37 15t37 -15t15 -37t-15 -37t-37 -15t-37 15t-15 37zM229 223q60 53 141 53q79 0 141 -54l-42 -48q-43 38 -99 38t-98 -37zM145 317q96 87 226 87q63 0 122 -23t103 -63l-42 -48q-78 70 -183 70q-104 0 -183 -70zM60 413q132 118 311 118 q178 0 310 -118l-43 -48q-117 102 -267 102q-151 0 -268 -102z" glyph-name="o" horiz-adv-x="740" unicode="o"/>
<glyph d="M340 495q0 40 25.5 65t65.5 25q38 0 64.5 -26.5t26.5 -63.5q0 -38 -27 -65t-64 -27q-54 0 -80 48q-11 20 -11 44zM264 387q0 14 10.5 24.5t24.5 10.5t24.5 -10.5t10.5 -24.5t-10.5 -24.5t-24.5 -10.5t-24.5 10.5t-10.5 24.5zM222 387q0 -32 22.5 -55t54.5 -23 q28 0 49.5 18.5t26.5 45.5q26 -12 56 -12q55 0 94.5 39.5t39.5 94.5t-39 94t-95 39t-95 -39t-39 -94q0 -11 4 -31q-1 0 -1 0.5t-1 0.5q-32 0 -54.5 -23t-22.5 -55zM60 221q0 103 72 231t176 187q61 42 137 42q97 0 167 -68t73 -165h1v-8l53 -125q2 -6 2 -8q0 -8 -6 -14 t-15 -6h-34v-114q0 -19 -14 -33t-34 -14h-114l45 -43l9 -83h-331l7 59q-94 10 -144 46.5t-50 115.5z" glyph-name="p" horiz-adv-x="800" unicode="p"/>
<glyph d="M60 306q0 2 2 8l41 95h43v42h231q29 0 48 -20t19 -47v-21h42v21q0 34 -20 63q-14 20 -50 33t-66 13h-228q18 79 96 133t165 54q100 0 170 -70t70 -170q0 -95 -64 -164v-91l22 -185h-332l10 82l57 43h-52h-101q-20 0 -34 14t-14 33v114h-34q-9 0 -15 6t-6 14z" glyph-name="q" horiz-adv-x="683" unicode="q"/>
<glyph d="M206 411l97 77l97 -27l97 27l97 -77h-388zM61 366v2h679l-127 -212h-425zM60 71v42h680v-42h-42v-37q0 -14 -9.5 -24t-23.5 -10q-13 0 -22.5 10t-9.5 24h-83q0 -14 -9.5 -24t-22.5 -10q-14 0 -23.5 10t-9.5 24v37h-170v-37q0 -14 -9.5 -24t-22.5 -10q-14 0 -23.5 10 t-9.5 24h-83q0 -14 -9.5 -24t-22.5 -10q-14 0 -23.5 10t-9.5 24v37h-42z" glyph-name="r" horiz-adv-x="800" unicode="r"/>
<glyph d="M486 321q0 -17 12.5 -29.5t29.5 -12.5q18 0 30 12.5t12 29.5q0 18 -12 30t-30 12q-17 0 -29.5 -12t-12.5 -30zM357 321q0 -17 12.5 -29.5t30.5 -12.5q17 0 30 12.5t13 29.5q0 18 -12.5 30t-30.5 12t-30.5 -12t-12.5 -30zM230 321q0 -17 13 -29.5t30 -12.5q18 0 30 12.5 t12 29.5q0 18 -12 30t-30 12t-30.5 -12t-12.5 -30zM60 321q0 71 50 120.5t120 49.5h340q70 0 120 -49.5t50 -120.5t-50 -120.5t-120 -49.5h-170l-170 -128v128q-70 0 -120 49.5t-50 120.5z" glyph-name="s" horiz-adv-x="800" unicode="s"/>
<glyph d="M570 402q0 -9 6.5 -15t15.5 -6t15 6t6 15t-6 15t-15 6t-15.5 -6t-6.5 -15zM273 317q0 35 25 60t60 25t60 -25t25 -60t-25 -60t-60 -25t-60 25t-25 60zM230 317q0 -52 37.5 -89.5t90.5 -37.5t90 37t37 90t-37 90.5t-90 37.5q-52 0 -90 -37.5t-38 -90.5zM60 126v339h128 l42 86h255l43 -86h128v-339h-596z" glyph-name="t" horiz-adv-x="715" unicode="t"/>
<glyph d="M528 531q0 -26 19 -45t45 -19q27 0 45 19t18 45t-18.5 45t-44.5 19t-45 -18.5t-19 -45.5zM60 0v135l255 255v77q0 88 62.5 150.5t150.5 62.5h9q84 0 143.5 -60t59.5 -144v-9q0 -88 -62 -150t-150 -62h-128v-43h-85v-85h-85v-85h-85v-42h-85z" glyph-name="u" horiz-adv-x="800" unicode="u"/>
<glyph d="M442 340l298 299v-596zM272 354v269q0 24 17 40.5t41 16.5h28v-383v-255q0 -17 -13 -29.5t-30 -12.5t-29.5 12.5t-12.5 29.5q0 24 43 257q-19 5 -31.5 20t-12.5 35zM60 531q0 48 26 98.5t59 50.5t59 -50.5t26 -98.5q0 -38 -19 -67t-48 -37q6 -59 12.5 -151.5t9.5 -157 t3 -76.5q0 -17 -13 -29.5t-30 -12.5t-29.5 12.5t-12.5 29.5q0 12 3 76t9 157.5t12 151.5q-29 8 -48 37t-19 67z" glyph-name="v" horiz-adv-x="800" unicode="v"/>
<glyph d="M60 423q0 74 49.5 126t120.5 52q66 0 115 -47t55 -116q5 68 54 115.5t116 47.5q71 0 120.5 -52t49.5 -126q0 -69 -42 -119l-297 -298l-295 295q-46 46 -46 122z" glyph-name="w" horiz-adv-x="800" unicode="w"/>
<glyph d="M358 340q0 -18 12 -30.5t30 -12.5t30.5 12.5t12.5 30.5q0 17 -12.5 29.5t-30.5 12.5t-30 -12.5t-12 -29.5zM60 340q0 44 70 77q12 6 40 16q-29 60 -29 98q0 30 17 46.5t47 16.5q42 0 100 -29q27 -13 54 -31q-4 -3 -12.5 -9.5t-12.5 -10.5q-7 -30 -12 -69q34 33 74 63 q41 -31 84 -72q-11 92 -40 154q-23 48 -40 48q-18 0 -42 -53q-9 5 -38 20q35 75 80 75t78 -70q11 -21 16 -40q58 28 98 28q30 0 46.5 -16.5t16.5 -46.5q0 -42 -29 -100q-20 -38 -34 -59q-25 33 -72 80q5 -33 6 -68q42 -48 79 -106q28 8 60.5 26.5t32.5 31.5q0 17 -53 42 q13 22 21 37q75 -35 75 -79q0 -45 -75 -80q-21 -11 -40 -16q29 -58 29 -100q0 -30 -16.5 -46.5t-46.5 -16.5q-39 0 -98 28q-35 17 -62 36q43 33 85 75q-12 -2 -34 -4h-1q-22 -2 -34 -3q-19 -17 -52 -42q-40 30 -74 63q9 -81 36 -140q23 -52 42 -52q17 0 40 47q6 -4 12.5 -7 t14 -6.5t11.5 -5.5q-33 -70 -78 -70q-44 0 -79 74q-6 12 -9 19v1q-3 6 -7 20q-60 -30 -100 -30q-30 0 -47 17t-17 47q0 32 19 77t42 78q27 -36 80 -89q-4 16 -8 69q-52 59 -84 112q-27 -8 -57 -25.5t-30 -29.5q0 -18 47 -40q-5 -9 -20 -38q-70 33 -70 78z" glyph-name="x" horiz-adv-x="800" unicode="x"/>
<glyph d="M145 381q0 61 43.5 105t105.5 44t105.5 -44t43.5 -105q0 -56 -38 -99l-32 28q27 32 27 71q0 44 -31 75t-75 31t-75 -31t-31 -75q0 -49 35 -79l-28 -32q-50 44 -50 111zM108 169q0 17 13 29.5t30 12.5q18 0 30 -12l70 -71v253q0 17 13 30t30 13t29.5 -13t12.5 -30l16 -170 h16q14 0 23 -6t9 -15q0 9 9 15t23 6t23 -6t9 -15q0 8 9 14.5t22 6.5q18 0 31 -13t13 -32l10 -166h-298v8l-130 131q-13 13 -13 30zM60 381q0 97 68.5 165.5t165.5 68.5t165.5 -68.5t68.5 -165.5q0 -78 -47 -140l-34 25q38 50 38 115q0 79 -56 135t-135 56q-80 0 -135.5 -56 t-55.5 -135q0 -65 38 -115l-34 -25q-47 62 -47 140z" glyph-name="y" horiz-adv-x="608" unicode="y"/>
<glyph d="M443 528q0 26 18.5 44.5t44.5 18.5t45 -18.5t19 -44.5t-19 -44.5t-45 -18.5t-44.5 18.5t-18.5 44.5zM443 128q0 52 37.5 89.5t89.5 37.5q53 0 90.5 -37.5t37.5 -89.5t-38 -90t-90 -38t-89.5 37.5t-37.5 90.5zM260 320q0 21 16 36l106 99q14 14 34 14q18 0 33 -13l86 -78 h91l-1 -52h-106l-53 45l-90 -87l33 -38v-164h-51v138l-71 56q-27 14 -27 44zM60 128q0 52 37.5 89.5t90.5 37.5q52 0 89.5 -37.5t37.5 -89.5q0 -53 -37.5 -90.5t-89.5 -37.5t-90 38t-38 90z" glyph-name="z" horiz-adv-x="757" unicode="z"/>
<glyph d="M315 548v42q30 0 62 -27q17 -15 33 -15q18 0 34 15q32 27 62 27t62 -27q17 -15 34 -15q18 0 34 15q32 27 62 27v-42q-16 0 -34 -16q-32 -27 -62 -27t-62 27q-18 16 -34 16t-34 -16q-32 -27 -62 -27q-29 0 -61 27q-18 16 -34 16zM102 212v214h426v-46h85q52 0 89 -37 t37 -90t-36.5 -89.5t-89.5 -36.5t-90 37q-17 -71 -75 -117.5t-132 -46.5q-88 0 -151 62t-63 150z" glyph-name="braceleft" horiz-adv-x="799" unicode="{"/>
<glyph glyph-name="bar" unicode="|"/>
<glyph d="M443 169h85v42h-85v-42zM358 296q0 26 18.5 45t44.5 19t45 -19t19 -45h-127zM294 148q0 -9 6 -15.5t15 -6.5t15 6.5t6 15.5t-6 15t-15 6t-15 -6t-6 -15zM103 254h425v255h-425v-255zM103 169h85v42h-85v-42zM60 41v510v43h511v-553h-43v-42h-85v42h-256v-41h-84v41h-43z " glyph-name="braceright" horiz-adv-x="630" unicode="}"/>
<glyph glyph-name="asciitilde" unicode="~"/>
<glyph glyph-name="uni00A0" unicode=" "/>
<glyph glyph-name="currency" unicode="¤"/>
<glyph glyph-name="section" unicode="§"/>
<glyph glyph-name="copyright" unicode="©"/>
<glyph glyph-name="guillemotleft" unicode="«"/>
<glyph glyph-name="uni00AD" unicode="­"/>
<glyph glyph-name="registered" unicode="®"/>
<glyph glyph-name="degree" unicode="°"/>
<glyph glyph-name="paragraph" unicode="¶"/>
<glyph glyph-name="periodcentered" unicode="·"/>
<glyph glyph-name="guillemotright" unicode="»"/>
</font>
</defs>
</svg>
