<svg width="531" height="531" viewBox="0 0 531 531" fill="none" xmlns="http://www.w3.org/2000/svg">
<path d="M220.631 198.725C212.926 205.171 189.056 209.703 166.647 266.255L133.663 236.594C118.438 244.32 106.641 257.446 100.577 273.406L150.18 317.978C155.926 323.124 163.477 325.78 171.179 325.364C178.88 324.949 186.103 321.496 191.262 315.762L211.816 292.881L203.65 347.035L170.212 384.3C178.603 399.031 191.534 410.653 207.074 417.43L242.476 378.05C247.717 372.221 251.421 365.176 253.252 357.554C260.957 325.219 258.338 268.169 263.324 219.019C243.342 215.293 235.94 210.761 220.631 198.725Z" fill="#778FD2"/>
<path d="M493.532 200.991L436.124 261.572L458.885 161.36L516.293 100.779L493.532 200.991Z" fill="#2A3759"/>
<path d="M311.527 178.783C310.772 178.28 309.463 178.733 307.75 179.942L311.726 183.215C312.383 180.898 312.383 179.287 311.527 178.783Z" fill="#2A3759"/>
<path d="M275.974 209.753C274.914 212.473 275.055 214.757 275.874 215.293C276.693 215.828 279.054 215.293 280.645 213.228L275.974 209.753Z" fill="#2A3759"/>
<path d="M298.895 180.999C298.14 180.495 296.831 180.949 295.118 182.157L299.094 185.431C299.743 183.164 299.69 181.553 298.895 180.999Z" fill="#2A3759"/>
<path d="M181.1 371.906L169.968 384.294C178.359 399.026 191.29 410.648 206.83 417.425L218.463 404.483C203.167 397.393 190.207 386.094 181.1 371.906Z" fill="#2A3759"/>
<path d="M245.155 189.258L263.788 218.214L268.723 209.25L245.155 189.258Z" fill="#2A3759"/>
<path d="M264.241 116.239L266.809 121.778L268.219 118.001L264.241 116.239Z" fill="#2A3759"/>
<path d="M250.896 249.385L211.768 292.895L207.79 319.584L250.896 249.385Z" fill="#2A3759"/>
<path d="M155.82 416.725C152.474 420.31 149.1 423.869 145.698 427.401C142.929 443.767 144.238 481.334 149.525 498.809C163.573 475.443 168.662 460.643 175.765 436.566C168.112 431.045 161.381 424.348 155.82 416.725Z" fill="#2A3759"/>
<path d="M100.379 223.602C97.9615 221.185 95.1918 218.214 91.5156 214.235C63.0077 218.264 31.6373 227.782 18.3428 234.076C38.6202 241.744 60.3408 244.839 81.9529 243.141L83.0608 244.148C87.814 236.501 93.6469 229.581 100.379 223.602Z" fill="#2A3759"/>
<path d="M144.54 246.112L133.673 236.305C118.46 244.046 106.667 257.167 100.588 273.117L111.616 283.038C119.246 268.111 130.583 255.396 144.54 246.112Z" fill="#2A3759"/>
<path d="M286.399 83.4556C286.614 82.2352 286.388 80.9779 285.761 79.9092C285.133 78.8406 284.145 78.0306 282.974 77.6247C283.536 77.1037 283.978 76.4665 284.268 75.7575C284.559 75.0485 284.691 74.2846 284.657 73.5191C284.622 72.7537 284.42 72.005 284.067 71.3253C283.713 70.6455 283.215 70.0511 282.608 69.5833C281.795 68.959 280.816 68.586 279.794 68.5099C280.106 67.8462 280.278 67.1248 280.297 66.3915C280.316 65.6581 280.182 64.9288 279.905 64.2498C279.627 63.5708 279.211 62.9568 278.684 62.4469C278.157 61.9369 277.529 61.5421 276.841 61.2875C275.922 60.9457 274.925 60.8659 273.963 61.0569C274.088 60.0789 273.936 59.0854 273.523 58.19C273.11 57.2947 272.453 56.5338 271.628 55.9946C270.804 55.4551 269.845 55.1575 268.86 55.1355C267.875 55.1135 266.904 55.3679 266.057 55.87C265.922 55.1197 265.627 54.4072 265.191 53.7812C264.756 53.1552 264.192 52.6302 263.535 52.2421C262.879 51.8541 262.147 51.6119 261.389 51.5323C260.631 51.4526 259.864 51.5372 259.142 51.7804C258.176 52.1069 257.325 52.7051 256.69 53.5032C256.21 52.5418 255.46 51.741 254.532 51.1988C253.604 50.6565 252.538 50.3962 251.465 50.4496C250.391 50.503 249.356 50.8678 248.487 51.4995C247.617 52.1312 246.951 53.0024 246.568 54.0068C245.959 53.3659 245.199 52.8884 244.357 52.6183C243.516 52.3481 242.619 52.294 241.751 52.4608C240.883 52.6276 240.071 53.01 239.39 53.5729C238.708 54.1357 238.179 54.8609 237.851 55.6818C237.937 54.4226 237.662 53.165 237.058 52.0567C236.454 50.9485 235.547 50.0358 234.441 49.426C233.336 48.8163 232.08 48.5348 230.821 48.6148C229.561 48.6947 228.35 49.1328 227.331 49.8774C226.773 48.5894 225.835 47.5025 224.643 46.762C223.45 46.0216 222.06 45.663 220.658 45.7342C219.257 45.8054 217.91 46.303 216.799 47.1604C215.687 48.0178 214.864 49.1941 214.44 50.532C213.287 49.8349 211.948 49.5076 210.604 49.5942C209.26 49.6808 207.974 50.1772 206.921 51.0166C205.867 51.8559 205.096 52.9979 204.711 54.2888C204.326 55.5797 204.346 56.9576 204.768 58.2368C203.42 58.3895 202.151 58.9541 201.135 59.8537C200.119 60.7533 199.406 61.9442 199.091 63.2642C198.776 64.5843 198.876 65.9692 199.377 67.2304C199.878 68.4915 200.755 69.5677 201.89 70.3121C200.827 71.1723 200.058 72.341 199.688 73.6569C199.318 74.9729 199.366 76.3712 199.825 77.6589C200.284 78.9466 201.131 80.0601 202.249 80.8459C203.368 81.6316 204.703 82.0508 206.07 82.0456C205.794 83.3589 205.926 84.7251 206.448 85.9613C206.97 87.1974 207.858 88.2444 208.992 88.962C210.126 89.6797 211.452 90.0336 212.793 89.9765C214.134 89.9194 215.425 89.4539 216.494 88.6425C216.917 89.7285 217.63 90.6783 218.553 91.3892C219.477 92.1001 220.578 92.5452 221.736 92.6764C221.523 93.4284 221.48 94.2184 221.609 94.9892C221.739 95.76 222.039 96.4923 222.487 97.1329C222.935 97.7736 223.519 98.3066 224.199 98.6933C224.878 99.08 225.635 99.3107 226.414 99.3687C225.993 100.259 225.83 101.25 225.944 102.228C226.057 103.207 226.442 104.134 227.056 104.904C227.669 105.675 228.486 106.258 229.414 106.588C230.342 106.918 231.344 106.982 232.306 106.771C232.19 107.75 232.352 108.742 232.771 109.634C233.191 110.526 233.853 111.283 234.681 111.818C235.509 112.353 236.47 112.645 237.456 112.661C238.442 112.677 239.412 112.416 240.257 111.908C240.437 112.913 240.904 113.844 241.602 114.589C242.3 115.334 243.198 115.861 244.189 116.106C245.18 116.351 246.22 116.303 247.185 115.97C248.149 115.636 248.997 115.029 249.624 114.224C250.259 115.135 251.082 115.898 252.038 116.463C252.994 117.028 254.059 117.381 255.163 117.498C256.85 114.45 257.992 111.131 258.537 107.691C259.098 104.188 258.443 100.599 256.682 97.5187C249.179 95.0512 252.553 86.2385 257.639 89.6629C260.056 91.3247 260.973 91.2187 261.164 89.6125C261.178 89.1485 261.318 88.6971 261.568 88.306C261.818 87.915 262.169 87.5989 262.585 87.3915C263.032 88.3359 263.749 89.1269 264.645 89.665C265.541 90.2031 266.576 90.4644 267.62 90.416C268.664 90.3675 269.671 90.0116 270.513 89.3928C271.355 88.774 271.996 87.92 272.354 86.9382C272.841 87.4531 273.427 87.8649 274.077 88.1494C274.726 88.434 275.426 88.5854 276.135 88.5948C276.844 88.6042 277.547 88.4713 278.204 88.2041C278.861 87.9369 279.457 87.5407 279.958 87.039C281.204 89.9739 282.149 93.0278 282.778 96.1538C283.921 95.5117 284.784 94.4688 285.202 93.2268C285.62 91.9848 285.563 90.6319 285.042 89.4296C284.697 88.6329 284.162 87.933 283.483 87.3915C284.241 87.0069 284.9 86.4511 285.406 85.7679C285.912 85.0847 286.252 84.293 286.399 83.4556Z" fill="#2A3759"/>
<path d="M396.38 69.0531C396.041 67.0116 395.105 65.1163 393.689 63.6067C392.274 62.0972 390.442 61.041 388.427 60.5718C386.24 60.0635 383.948 60.2719 381.889 61.1662C379.83 62.0604 378.113 63.5932 376.992 65.538C375.871 67.4828 375.405 69.7366 375.663 71.9666C375.921 74.1966 376.889 76.2844 378.425 77.9219C379.96 79.5593 381.982 80.6595 384.191 81.0599C386.4 81.4604 388.679 81.1399 390.691 80.1458C392.704 79.1517 394.344 77.5366 395.368 75.5392C396.393 73.5417 396.747 71.2678 396.38 69.0531Z" fill="#2A3759"/>
<path d="M83.7578 303.825L60.1399 311.426L69.8987 369.039L83.7578 303.825Z" fill="#2A3759"/>
<path d="M411.74 204.214L398.193 216.653C402.946 217.66 407.563 219.231 411.941 221.336C413.796 222.126 415.501 223.234 416.977 224.609C419.042 226.976 407.966 223.602 402.524 222.998H402.474C403.574 223.578 404.576 224.323 405.445 225.213C407.231 227.257 393.568 222.632 392.352 223.501C397.589 225.868 405.697 230.35 407.661 233.838C409.977 238.018 398.093 229.706 390.388 229.454C395.273 231.72 400.611 234.895 402.524 238.421C405.143 243.191 395.676 234.445 384.395 234.09H384.345C395.122 240.636 400.157 246.017 384.849 239.377C382.042 238.122 379.047 237.339 375.986 237.061L345.217 265.198L436.063 261.673L449.408 202.854L411.74 204.214Z" fill="#2A3759"/>
<path d="M493.532 200.991L436.124 261.572L458.885 161.36L516.293 100.779L493.532 200.991Z" stroke="black" stroke-linejoin="round"/>
<path d="M411.74 204.214L398.193 216.653C402.946 217.66 407.563 219.231 411.941 221.336C413.796 222.126 415.501 223.234 416.977 224.609C419.042 226.976 407.966 223.602 402.524 222.998H402.474C403.574 223.578 404.576 224.323 405.445 225.213C407.231 227.257 393.568 222.632 392.352 223.501C397.589 225.868 405.697 230.35 407.661 233.838C409.977 238.018 398.093 229.706 390.388 229.454C395.273 231.72 400.611 234.895 402.524 238.421C405.143 243.191 395.676 234.445 384.395 234.09H384.345C395.122 240.636 400.157 246.017 384.849 239.377C382.042 238.122 379.047 237.339 375.986 237.061L345.217 265.198L436.063 261.673L449.408 202.854L411.74 204.214Z" stroke="black" stroke-linejoin="round"/>
<path d="M286.399 83.4556C286.614 82.2352 286.388 80.9779 285.761 79.9092C285.133 78.8406 284.145 78.0306 282.974 77.6247C283.536 77.1037 283.978 76.4665 284.268 75.7575C284.559 75.0485 284.691 74.2846 284.657 73.5191C284.622 72.7537 284.42 72.005 284.067 71.3253C283.713 70.6455 283.215 70.0511 282.608 69.5833C281.795 68.959 280.816 68.586 279.794 68.5099C280.106 67.8462 280.278 67.1248 280.297 66.3915C280.316 65.6581 280.182 64.9288 279.905 64.2498C279.627 63.5708 279.211 62.9568 278.684 62.4469C278.157 61.9369 277.529 61.5421 276.841 61.2875C275.922 60.9457 274.925 60.8659 273.963 61.0569C274.088 60.0789 273.936 59.0854 273.523 58.19C273.11 57.2947 272.453 56.5338 271.628 55.9946C270.804 55.4551 269.845 55.1575 268.86 55.1355C267.875 55.1135 266.904 55.3679 266.057 55.87C265.922 55.1197 265.627 54.4072 265.191 53.7812C264.756 53.1552 264.192 52.6302 263.535 52.2421C262.879 51.8541 262.147 51.6119 261.389 51.5323C260.631 51.4526 259.864 51.5372 259.142 51.7804C258.176 52.1069 257.325 52.7051 256.69 53.5032C256.21 52.5418 255.46 51.741 254.532 51.1988C253.604 50.6565 252.538 50.3962 251.465 50.4496C250.391 50.503 249.356 50.8678 248.487 51.4995C247.617 52.1312 246.951 53.0024 246.568 54.0068C245.959 53.3659 245.199 52.8884 244.357 52.6183C243.516 52.3481 242.62 52.294 241.751 52.4608C240.883 52.6276 240.071 53.01 239.39 53.5729C238.708 54.1357 238.179 54.8609 237.851 55.6818C237.937 54.4226 237.662 53.165 237.058 52.0567C236.454 50.9485 235.547 50.0358 234.441 49.426C233.336 48.8163 232.08 48.5348 230.821 48.6148C229.561 48.6947 228.35 49.1328 227.331 49.8774C226.773 48.5894 225.835 47.5025 224.643 46.762C223.45 46.0216 222.06 45.663 220.658 45.7342C219.257 45.8054 217.91 46.303 216.799 47.1604C215.687 48.0178 214.864 49.1941 214.44 50.532C213.287 49.8349 211.948 49.5076 210.604 49.5942C209.26 49.6808 207.974 50.1772 206.921 51.0166C205.867 51.8559 205.096 52.9979 204.711 54.2888C204.326 55.5797 204.346 56.9576 204.768 58.2368C203.42 58.3895 202.151 58.9541 201.135 59.8537C200.119 60.7533 199.406 61.9442 199.091 63.2642C198.776 64.5843 198.876 65.9692 199.377 67.2304C199.878 68.4915 200.755 69.5677 201.89 70.3121C200.827 71.1723 200.058 72.341 199.688 73.6569C199.318 74.9729 199.366 76.3712 199.825 77.6589C200.284 78.9466 201.131 80.0601 202.249 80.8459C203.368 81.6316 204.703 82.0508 206.07 82.0456C205.794 83.3589 205.926 84.7251 206.448 85.9613C206.97 87.1974 207.858 88.2444 208.992 88.962C210.126 89.6797 211.452 90.0336 212.793 89.9765C214.134 89.9194 215.425 89.4539 216.494 88.6425C216.917 89.7285 217.63 90.6783 218.553 91.3892C219.477 92.1001 220.578 92.5452 221.736 92.6764C221.523 93.4284 221.48 94.2184 221.609 94.9892C221.739 95.76 222.039 96.4923 222.487 97.133C222.935 97.7736 223.519 98.3066 224.199 98.6933C224.878 99.08 225.635 99.3107 226.414 99.3687C225.993 100.259 225.83 101.25 225.944 102.228C226.057 103.207 226.442 104.134 227.056 104.904C227.669 105.675 228.486 106.258 229.414 106.588C230.342 106.918 231.344 106.982 232.306 106.771C232.19 107.75 232.352 108.742 232.771 109.634C233.191 110.526 233.853 111.283 234.681 111.818C235.509 112.353 236.47 112.645 237.456 112.661C238.442 112.677 239.412 112.416 240.257 111.908C240.437 112.913 240.904 113.844 241.602 114.589C242.3 115.334 243.198 115.861 244.189 116.106C245.18 116.351 246.22 116.303 247.185 115.97C248.149 115.636 248.997 115.029 249.624 114.224C250.259 115.135 251.082 115.898 252.038 116.463C252.994 117.028 254.059 117.381 255.163 117.498C256.85 114.45 257.992 111.131 258.537 107.691C259.098 104.188 258.443 100.599 256.682 97.5187C249.179 95.0512 252.553 86.2385 257.639 89.6629C260.056 91.3247 260.973 91.2187 261.164 89.6125C261.178 89.1485 261.318 88.6971 261.568 88.306C261.818 87.915 262.169 87.5989 262.585 87.3915C263.032 88.3359 263.749 89.1269 264.645 89.665C265.541 90.2031 266.576 90.4644 267.62 90.416C268.664 90.3676 269.671 90.0116 270.513 89.3928C271.355 88.774 271.996 87.92 272.354 86.9382C272.841 87.4531 273.427 87.8649 274.077 88.1494C274.726 88.434 275.426 88.5854 276.135 88.5948C276.844 88.6042 277.547 88.4713 278.204 88.2041C278.861 87.9369 279.457 87.5407 279.958 87.039C281.204 89.9739 282.149 93.0278 282.778 96.1538C283.921 95.5117 284.784 94.4688 285.202 93.2268C285.62 91.9848 285.563 90.6319 285.042 89.4296C284.697 88.6329 284.162 87.933 283.483 87.3915C284.241 87.0069 284.9 86.4511 285.406 85.7679C285.912 85.0847 286.252 84.293 286.399 83.4556Z" stroke="black" stroke-linejoin="round"/>
<path d="M281.816 114.627L432.135 89.3474" stroke="black" stroke-linecap="round" stroke-linejoin="round"/>
<path d="M35.1624 156.022L254.22 119.26" stroke="black" stroke-linecap="round" stroke-linejoin="round"/>
<path d="M266.507 138.295L311.578 178.783" stroke="black" stroke-linecap="round" stroke-linejoin="round"/>
<path d="M311.779 183.215C312.383 180.949 312.386 179.332 311.578 178.783C310.825 178.274 309.457 178.725 307.75 179.942C305.192 181.961 302.879 184.274 300.859 186.833" stroke="black" stroke-linecap="round" stroke-linejoin="round"/>
<path d="M123.437 242.889C106.416 229.343 105.006 228.94 91.5103 214.185C63.0077 218.214 31.6373 227.731 18.3428 234.026C38.6351 241.693 60.3693 244.788 81.9953 243.091L105.11 263.888" stroke="black" stroke-linecap="round" stroke-linejoin="round"/>
<path d="M251.45 138.396L298.938 180.999" stroke="black" stroke-linecap="round" stroke-linejoin="round"/>
<path d="M275.874 215.293L245.155 189.258L263.759 218.206" stroke="black" stroke-linecap="round" stroke-linejoin="round"/>
<path d="M385.503 220.973C387.358 221.376 404.348 227.313 407.913 233.663C410.298 237.891 398.244 229.483 390.438 229.232" stroke="black" stroke-linecap="round" stroke-linejoin="round"/>
<path d="M383.841 226.523C388.575 228.235 399.794 232.974 402.726 238.306C405.376 243.146 395.834 234.278 384.395 233.925" stroke="black" stroke-linecap="round" stroke-linejoin="round"/>
<path d="M382.532 232.868C394.517 239.868 401.122 246.348 384.848 239.314C376.441 235.68 315.142 233.825 315.142 233.825C309.763 233.268 304.625 231.304 300.247 228.129L275.974 209.698" stroke="black" stroke-linecap="round" stroke-linejoin="round"/>
<path d="M295.11 182.157L319.786 204.063C319.786 204.063 381.626 215.645 386.359 216.997C391.093 218.349 402.429 221.222 405.747 225.004C407.512 227.018 397.796 223.546 391.899 223.241" stroke="black" stroke-linecap="round" stroke-linejoin="round"/>
<path d="M299.139 185.431C299.743 183.165 299.746 181.548 298.938 180.999C298.185 180.49 296.817 180.944 295.11 182.157C288.143 187.116 277.787 202.489 275.622 210.912C275.092 212.979 275.187 214.842 275.874 215.293C276.669 215.823 278.946 215.192 280.644 213.279" stroke="black" stroke-linecap="round" stroke-linejoin="round"/>
<path d="M198.927 231.71C211.084 232.221 223.045 228.503 232.767 221.185" stroke="black" stroke-linecap="round" stroke-linejoin="round"/>
<path d="M263.335 218.969L268.723 209.25" stroke="black" stroke-linecap="round" stroke-linejoin="round"/>
<path d="M265.701 133.509C262.378 138.343 256.284 136.228 247.875 128.121" stroke="black" stroke-linecap="round" stroke-linejoin="round"/>
<path d="M211.76 292.95L250.896 249.385L207.79 319.584" stroke="black" stroke-linecap="round" stroke-linejoin="round"/>
<path d="M150.18 317.923C153.022 320.476 156.34 322.444 159.943 323.715C163.546 324.985 167.365 325.533 171.18 325.328C174.995 325.122 178.732 324.166 182.178 322.515C185.624 320.865 188.71 318.551 191.262 315.707L211.749 292.95L203.65 347.019L170.212 384.284C178.603 399.016 191.534 410.638 207.074 417.414L242.476 377.984C247.717 372.155 251.421 365.11 253.252 357.488C260.96 325.153 258.338 268.052 263.324 218.953C243.281 215.227 235.879 210.695 220.62 198.659C210.761 205.865 188.754 211.214 166.639 266.205L133.663 236.544C118.449 244.285 106.657 257.405 100.577 273.356L150.18 317.923Z" stroke="black" stroke-linecap="round" stroke-linejoin="round"/>
<path d="M268.15 117.922C266.817 117.424 265.516 116.846 264.254 116.188L266.812 121.754" stroke="black" stroke-linecap="round" stroke-linejoin="round"/>
<path d="M270.234 155.266C266.523 144.559 263.443 128.187 268.137 117.922C287.204 124.916 285.59 100.196 280.003 87.1318M220.618 198.625C222.761 191.89 224.212 184.956 224.948 177.927C226.231 167.114 229.369 156.603 234.225 146.856C238.969 136.888 249.862 127.697 255.428 117.095C257.096 114.182 258.156 110.962 258.543 107.628C259.104 104.124 258.449 100.535 256.687 97.4552C249.184 94.9877 252.574 86.1538 257.644 89.5994C260.069 91.2506 261.018 91.1605 261.169 89.549C261.307 88.7009 261.477 87.8952 261.675 87.1318" stroke="black" stroke-linecap="round" stroke-linejoin="round"/>
<path d="M181.352 371.906C190.46 386.097 203.423 397.398 218.723 404.488" stroke="black" stroke-linecap="round" stroke-linejoin="round"/>
<path d="M111.556 283.075C120.016 267.702 130.591 255.076 144.49 246.313" stroke="black" stroke-linecap="round" stroke-linejoin="round"/>
<path d="M176.215 393.409C165.576 406.396 156.059 416.59 145.698 427.401C142.929 443.767 144.238 481.334 149.525 498.808C163.573 475.442 168.662 460.587 175.765 436.524L197.318 412.553" stroke="black" stroke-linecap="round" stroke-linejoin="round"/>
<path d="M83.1031 244.098C87.8569 236.465 93.6919 229.561 100.426 223.602" stroke="black" stroke-linecap="round" stroke-linejoin="round"/>
<path d="M402.726 222.796C408.215 223.35 419.383 226.772 417.329 224.408C415.837 223.017 414.116 221.893 412.243 221.084C405.14 217.612 398.344 216.502 390.791 214.437L332.216 200.236L307.774 179.918" stroke="black" stroke-linecap="round" stroke-linejoin="round"/>
<path d="M215.394 229.746L170.223 296.117L126.562 261.522" stroke="black" stroke-linecap="round" stroke-linejoin="round"/>
<path d="M338.871 78.6212C339.211 80.663 338.937 82.7598 338.084 84.6458C337.231 86.5318 335.837 88.122 334.08 89.2149C332.767 90.0343 331.288 90.552 329.751 90.7306C328.213 90.9092 326.656 90.7443 325.19 90.2478C323.724 89.7513 322.387 88.9357 321.274 87.8596C320.162 86.7836 319.302 85.474 318.757 84.0254C318.212 82.5777 317.995 81.0273 318.121 79.4855C318.247 77.9438 318.713 76.4491 319.485 75.1089C320.258 73.7687 321.317 72.6164 322.588 71.7347C323.859 70.8531 325.31 70.264 326.836 70.01C329.574 69.5572 332.379 70.2099 334.636 71.8245C336.893 73.4392 338.416 75.8839 338.871 78.6212Z" stroke="black" stroke-linecap="round" stroke-linejoin="round"/>
<path d="M367.374 73.8876C367.714 75.9294 367.44 78.0262 366.587 79.9122C365.734 81.7981 364.34 83.3884 362.582 84.4813C361.269 85.3007 359.791 85.8183 358.253 85.9969C356.716 86.1755 355.158 86.0107 353.692 85.5142C352.227 85.0177 350.889 84.202 349.777 83.126C348.665 82.0499 347.805 80.7404 347.26 79.2918C346.715 77.8441 346.498 76.2936 346.624 74.7519C346.749 73.2101 347.215 71.7154 347.988 70.3752C348.76 69.0351 349.82 67.8827 351.091 67.0011C352.362 66.1194 353.813 65.5304 355.339 65.2763C358.076 64.8235 360.882 65.4762 363.139 67.0909C365.395 68.7056 366.919 71.1502 367.374 73.8876Z" stroke="black" stroke-linecap="round" stroke-linejoin="round"/>
<path d="M396.38 69.0533C396.72 71.0951 396.446 73.1919 395.593 75.0779C394.74 76.9639 393.346 78.5541 391.589 79.647C389.832 80.7433 387.79 81.2937 385.721 81.2283C383.651 81.163 381.648 80.485 379.964 79.2801C378.281 78.0753 376.992 76.3978 376.263 74.4602C375.533 72.5226 375.395 70.4121 375.866 68.396C376.254 66.7191 377.05 65.1639 378.183 63.8685C379.317 62.573 380.752 61.5773 382.363 60.9698C383.973 60.3623 385.708 60.1618 387.415 60.386C389.121 60.6101 390.746 61.2521 392.145 62.255C393.263 63.0543 394.213 64.0661 394.939 65.2326C395.666 66.3991 396.156 67.6974 396.38 69.0533Z" stroke="black" stroke-linecap="round" stroke-linejoin="round"/>
<path d="M96.6495 32.1912L77.4127 59.2838" stroke="black" stroke-linecap="round" stroke-linejoin="round"/>
<path d="M100.577 55.3559L73.5352 36.1191" stroke="black" stroke-linecap="round" stroke-linejoin="round"/>
<path d="M20.2564 324.217L19.6521 324.419L38.2342 340.886L13.7098 367.827L26.8533 379.561L51.3776 352.569L69.9067 369.039L83.7579 303.825L20.2564 324.217Z" stroke="black" stroke-linecap="round" stroke-linejoin="round"/>
<path d="M344.562 361.381L305.585 349.296L338.368 326.534" stroke="black" stroke-linecap="round" stroke-linejoin="round"/>
<path d="M376.59 356.245L409.121 332.174L370.396 321.347" stroke="black" stroke-linecap="round" stroke-linejoin="round"/>
<path d="M364.403 306.995L350.152 376.388" stroke="black" stroke-linecap="round" stroke-linejoin="round"/>
<path d="M49.1221 241.956L75.2473 403.028C76.1793 408.522 78.1855 413.778 81.1512 418.495C84.1169 423.213 87.9838 427.299 92.5307 430.521C97.0771 433.742 102.213 436.036 107.647 437.272C113.08 438.508 118.703 438.662 124.195 437.724L145.139 434.202" stroke="black" stroke-linecap="round" stroke-linejoin="round"/>
<path d="M456.561 240.199L472.119 336.102C473.056 341.594 472.902 347.218 471.666 352.651C470.43 358.084 468.136 363.22 464.915 367.766C461.692 372.312 457.605 376.177 452.888 379.143C448.171 382.109 442.915 384.116 437.422 385.05L183.803 427.7" stroke="black" stroke-linecap="round" stroke-linejoin="round"/>
<path d="M199.889 73.2832L67.9958 95.4407C62.5029 96.3749 57.2478 98.3822 52.5309 101.348C47.8141 104.314 43.7278 108.18 40.5056 112.726C37.2835 117.271 34.9886 122.407 33.752 127.84C32.5155 133.273 32.3616 138.896 33.2991 144.389L46.2173 224.045" stroke="black" stroke-linecap="round" stroke-linejoin="round"/>
<path d="M274.01 60.829L381.223 42.8167C386.715 41.8785 392.339 42.0318 397.772 43.2681C403.205 44.5043 408.341 46.7991 412.887 50.0214C417.433 53.2437 421.299 57.3302 424.265 62.0474C427.23 66.7647 429.237 72.0201 430.171 77.5134L450.052 200.074" stroke="black" stroke-linecap="round" stroke-linejoin="round"/>
<path d="M155.82 416.725C161.367 424.345 168.1 431.027 175.762 436.516" stroke="black" stroke-linecap="round" stroke-linejoin="round"/>
</svg>
