<svg width="800" height="800" viewBox="0 0 800 800" fill="none" xmlns="http://www.w3.org/2000/svg">
<path fill-rule="evenodd" clip-rule="evenodd" d="M125.497 48.6997L203.943 184.659C205.115 186.694 205.731 189.002 205.73 191.35C205.729 193.699 205.11 196.006 203.937 198.04C202.764 200.074 201.076 201.764 199.044 202.941C197.011 204.118 194.705 204.74 192.357 204.745L35.3821 204.756C33.0316 204.753 30.723 204.132 28.6884 202.955C26.6538 201.778 24.9646 200.087 23.7906 198.05C22.6166 196.014 21.9991 193.704 22 191.354C22.0009 189.003 22.6203 186.694 23.7959 184.659L102.257 48.6997C103.436 46.6623 105.131 44.9708 107.17 43.7949C109.21 42.619 111.523 42 113.877 42C116.231 42 118.544 42.619 120.584 43.7949C122.623 44.9708 124.318 46.6623 125.497 48.6997ZM113.866 170.076C114.518 170.076 115.164 169.948 115.767 169.698C116.37 169.448 116.918 169.082 117.379 168.621C117.841 168.16 118.207 167.612 118.456 167.009C118.706 166.406 118.834 165.76 118.834 165.108C118.834 164.455 118.706 163.809 118.456 163.206C118.207 162.603 117.841 162.056 117.379 161.594C116.918 161.133 116.37 160.767 115.767 160.517C115.164 160.267 114.518 160.139 113.866 160.139C112.548 160.139 111.284 160.662 110.352 161.594C109.42 162.526 108.897 163.79 108.897 165.108C108.897 166.425 109.42 167.689 110.352 168.621C111.284 169.553 112.548 170.076 113.866 170.076Z" fill="#778FD2"/>
<path d="M535.912 168.202C507.594 162.838 480.578 179.494 475.684 205.392C474.021 214.464 475.195 223.825 479.05 232.205L466.82 252.23L489.992 247.51C497.774 254.971 507.567 259.993 518.167 261.957C546.485 267.321 573.501 250.664 578.394 224.77C583.325 198.88 564.305 173.566 535.912 168.202Z" fill="#778FD2"/>
<path d="M179.984 340.836C181.236 340.836 182.436 340.338 183.322 339.453C184.207 338.568 184.704 337.367 184.704 336.115C184.704 334.863 184.207 333.663 183.322 332.778C182.436 331.892 181.236 331.395 179.984 331.395C178.732 331.395 177.531 331.892 176.646 332.778C175.761 333.663 175.264 334.863 175.264 336.115C175.264 337.367 175.761 338.568 176.646 339.453C177.531 340.338 178.732 340.836 179.984 340.836Z" fill="#778FD2"/>
<path d="M222.467 376.881C222.467 377.815 222.19 378.728 221.671 379.504C221.153 380.28 220.415 380.885 219.553 381.242C218.69 381.6 217.741 381.693 216.826 381.511C215.91 381.329 215.069 380.879 214.409 380.219C213.749 379.559 213.299 378.718 213.117 377.802C212.935 376.887 213.028 375.938 213.385 375.075C213.743 374.213 214.348 373.475 215.124 372.957C215.9 372.438 216.813 372.161 217.746 372.161C218.995 372.171 220.19 372.671 221.073 373.555C221.956 374.438 222.457 375.633 222.467 376.881Z" fill="#778FD2"/>
<path d="M266.591 342.552C266.591 343.485 266.314 344.398 265.795 345.174C265.276 345.951 264.539 346.556 263.677 346.913C262.814 347.27 261.865 347.364 260.949 347.181C260.034 346.999 259.193 346.55 258.532 345.89C257.872 345.229 257.423 344.388 257.241 343.473C257.058 342.557 257.152 341.608 257.509 340.745C257.866 339.883 258.471 339.146 259.248 338.627C260.024 338.108 260.937 337.832 261.87 337.832C263.118 337.843 264.312 338.344 265.195 339.227C266.078 340.11 266.579 341.304 266.591 342.552Z" fill="#778FD2"/>
<path d="M315.077 382.885C315.077 383.818 314.801 384.73 314.282 385.505C313.764 386.281 313.028 386.886 312.166 387.243C311.305 387.6 310.357 387.693 309.442 387.512C308.527 387.33 307.687 386.881 307.027 386.222C306.367 385.563 305.918 384.723 305.735 383.808C305.553 382.893 305.646 381.945 306.002 381.083C306.358 380.221 306.962 379.484 307.737 378.966C308.513 378.447 309.424 378.17 310.357 378.169C311.605 378.179 312.799 378.679 313.682 379.561C314.565 380.443 315.066 381.637 315.077 382.885Z" fill="#778FD2"/>
<path d="M356.269 342.552C356.266 343.485 355.989 344.397 355.47 345.173C354.952 345.949 354.216 346.555 353.355 346.915C352.71 347.184 352.012 347.307 351.313 347.275C350.614 347.242 349.931 347.054 349.314 346.725C348.696 346.396 348.159 345.934 347.742 345.373C347.325 344.811 347.038 344.164 346.901 343.477C346.765 342.791 346.782 342.083 346.953 341.404C347.123 340.726 347.442 340.093 347.887 339.553C348.332 339.013 348.891 338.578 349.524 338.281C350.157 337.983 350.849 337.829 351.549 337.832C352.797 337.844 353.99 338.346 354.872 339.228C355.755 340.111 356.256 341.304 356.269 342.552Z" fill="#778FD2"/>
<path d="M407.759 345.27C407.757 346.203 407.479 347.114 406.961 347.89C406.443 348.667 405.707 349.272 404.846 349.632C404.2 349.902 403.503 350.025 402.804 349.992C402.105 349.96 401.422 349.772 400.804 349.443C400.187 349.114 399.65 348.652 399.233 348.09C398.815 347.529 398.528 346.881 398.392 346.195C398.255 345.509 398.273 344.801 398.443 344.122C398.614 343.443 398.933 342.811 399.378 342.271C399.822 341.731 400.381 341.296 401.015 340.998C401.648 340.701 402.339 340.547 403.039 340.549C404.287 340.561 405.481 341.062 406.364 341.945C407.247 342.828 407.748 344.021 407.759 345.27Z" fill="#778FD2"/>
<path d="M460.037 342.552C460.667 342.57 461.295 342.461 461.884 342.232C462.472 342.003 463.008 341.658 463.46 341.218C463.913 340.778 464.272 340.252 464.518 339.671C464.764 339.089 464.89 338.465 464.89 337.834C464.89 337.203 464.764 336.578 464.518 335.996C464.272 335.415 463.913 334.889 463.46 334.449C463.008 334.009 462.472 333.664 461.884 333.435C461.295 333.206 460.667 333.097 460.037 333.115C458.808 333.15 457.642 333.662 456.785 334.543C455.929 335.424 455.45 336.605 455.45 337.834C455.45 339.062 455.929 340.243 456.785 341.124C457.642 342.005 458.808 342.517 460.037 342.552Z" fill="#778FD2"/>
<path d="M439.511 388.678C439.508 389.612 439.23 390.523 438.712 391.299C438.194 392.075 437.458 392.681 436.597 393.041C435.951 393.311 435.254 393.434 434.555 393.401C433.856 393.368 433.173 393.181 432.555 392.852C431.938 392.523 431.401 392.061 430.984 391.499C430.566 390.938 430.279 390.29 430.143 389.604C430.006 388.918 430.024 388.21 430.194 387.531C430.365 386.852 430.684 386.22 431.129 385.68C431.573 385.14 432.133 384.705 432.766 384.407C433.399 384.109 434.09 383.956 434.79 383.958C435.412 383.953 436.028 384.071 436.603 384.306C437.178 384.541 437.701 384.889 438.14 385.328C438.58 385.768 438.927 386.29 439.162 386.866C439.398 387.441 439.516 388.057 439.511 388.678Z" fill="#778FD2"/>
<path d="M108.615 319.884V343.052C111.905 341.694 115.39 340.263 119.057 338.761V326.927C115.164 325.257 111.621 322.868 108.615 319.884Z" fill="#2A3759"/>
<path d="M108.615 370.302V757.122H119.057V363.793C115.767 365.868 111.98 368.299 108.615 370.302Z" fill="#2A3759"/>
<path d="M326.016 290.847L320.298 299L320.441 292.063L326.016 290.847Z" fill="#2A3759"/>
<path d="M470.479 314.147L472.195 313.074C472.571 312.879 487.384 307.729 487.628 307.639C477.913 302.791 469.406 304.936 470.479 314.147Z" fill="#2A3759"/>
<path d="M501.514 335.257L491.728 338.69C498.307 341.408 504.902 341.039 506.679 335.532L501.514 335.257Z" fill="#2A3759"/>
<path d="M294.194 746.466C293.366 738.122 291.541 729.908 288.758 721.999C273.497 726.361 257.32 726.361 242.059 721.999C221.823 727.863 198.722 745.811 186.635 757.111C227.255 757.111 254.146 756.753 285.039 756.682C286.991 756.691 288.896 756.076 290.473 754.926C292.051 753.776 293.22 752.152 293.81 750.29C294.207 749.057 294.338 747.753 294.194 746.466Z" fill="#2A3759"/>
<path d="M520.896 685.392L507.594 678.24C502.301 695.62 496.007 700.769 479.629 711.497C487.854 723.798 485.923 729.878 484.993 733.45C476.336 741.603 471.98 741.569 465.973 757.164H496.086C500.13 757.253 504.115 756.187 507.574 754.09C511.032 751.993 513.821 748.953 515.611 745.326C520.128 735.539 523.893 715.72 528.124 704.063C529.438 700.607 529.427 696.788 528.092 693.341C526.758 689.893 524.195 687.062 520.896 685.392Z" fill="#2A3759"/>
<path d="M530.118 231.775C530.087 232.429 529.799 233.043 529.317 233.485C528.835 233.927 528.197 234.161 527.544 234.136C527.137 234.12 526.741 234.004 526.39 233.797C526.039 233.591 525.745 233.3 525.534 232.952C525.323 232.605 525.202 232.21 525.18 231.803C525.159 231.397 525.239 230.991 525.413 230.624C525.657 230.109 526.072 229.695 526.586 229.451C527.1 229.207 527.682 229.147 528.235 229.283C528.788 229.418 529.277 229.74 529.62 230.194C529.963 230.648 530.139 231.207 530.118 231.775Z" fill="#2A3759"/>
<path d="M108.686 318.239V204.756L119.128 204.745V318.883C112.767 317.738 109.688 317.667 108.686 318.239Z" fill="#2A3759"/>
<path d="M395.959 240.369C398.198 239.727 400.135 238.309 401.423 236.369C402.712 234.429 403.267 232.093 402.99 229.78C402.717 227.467 401.629 225.327 399.921 223.742C398.213 222.158 395.997 221.233 393.67 221.134C395.307 219.658 396.4 217.675 396.776 215.503C397.151 213.331 396.787 211.096 395.74 209.156C394.693 207.217 393.023 205.686 391 204.81C388.977 203.934 386.718 203.764 384.587 204.327C385.277 202.863 385.596 201.251 385.514 199.635C385.433 198.018 384.954 196.446 384.12 195.059C383.286 193.672 382.123 192.512 380.734 191.681C379.345 190.85 377.772 190.375 376.155 190.298C373.993 190.19 371.855 190.797 370.072 192.026C370.327 189.777 369.799 187.51 368.578 185.605C367.356 183.701 365.516 182.275 363.367 181.568C361.218 180.861 358.891 180.916 356.777 181.724C354.664 182.531 352.893 184.043 351.763 186.003C351.33 183.661 350.091 181.544 348.262 180.018C346.433 178.492 344.129 177.653 341.747 177.646C339.365 177.638 337.054 178.461 335.214 179.973C333.374 181.486 332.119 183.593 331.666 185.931C330.549 183.966 328.791 182.444 326.685 181.622C324.58 180.8 322.256 180.726 320.102 181.414C317.95 182.104 316.099 183.51 314.859 185.4C313.62 187.289 313.065 189.547 313.289 191.796C311.518 190.547 309.384 189.916 307.218 190C305.052 190.085 302.974 190.881 301.306 192.264C299.637 193.648 298.471 195.543 297.987 197.656C297.503 199.769 297.728 201.982 298.628 203.954C296.504 203.39 294.252 203.551 292.23 204.411C290.208 205.271 288.53 206.781 287.463 208.702C286.396 210.623 286 212.845 286.338 215.017C286.676 217.188 287.729 219.184 289.33 220.69C287.004 220.773 284.782 221.678 283.061 223.245C281.34 224.812 280.23 226.939 279.93 229.247C279.629 231.555 280.158 233.895 281.421 235.851C282.684 237.806 284.599 239.25 286.827 239.925C284.596 240.583 282.67 242.012 281.394 243.956C280.117 245.901 279.572 248.236 279.855 250.544C280.138 252.853 281.232 254.987 282.94 256.565C284.649 258.144 286.863 259.065 289.187 259.164C287.573 260.657 286.505 262.648 286.154 264.819C285.803 266.99 286.189 269.216 287.251 271.142C288.312 273.068 289.989 274.583 292.012 275.445C294.035 276.308 296.289 276.467 298.413 275.899C297.685 277.447 297.375 279.158 297.514 280.863C297.653 282.568 298.236 284.206 299.206 285.615C300.175 287.024 301.497 288.154 303.04 288.893C304.582 289.632 306.291 289.954 307.997 289.827C303.634 286.323 302.061 278.534 309.213 262.01C321.943 232.619 333.597 253.141 333.454 265.085C333.669 267.231 334.884 267.66 338.103 265.013C344.826 259.435 350.69 271.164 337.888 277.883C335.457 279.174 333.812 282.024 335.886 297.833C336.014 298.963 336.202 300.088 336.458 301.195C337.853 301.908 339.397 302.282 340.963 302.287C342.53 302.293 344.076 301.929 345.476 301.226C346.876 300.522 348.09 299.499 349.021 298.238C349.952 296.978 350.573 295.516 350.833 293.971C351.937 295.947 353.685 297.483 355.786 298.323C357.887 299.163 360.213 299.256 362.374 298.585C364.535 297.915 366.401 296.522 367.657 294.641C368.914 292.759 369.486 290.503 369.278 288.25C371.035 289.512 373.159 290.16 375.322 290.094C377.484 290.028 379.565 289.251 381.242 287.884C382.919 286.516 384.098 284.635 384.598 282.53C385.098 280.425 384.89 278.213 384.007 276.238C386.125 276.809 388.372 276.658 390.394 275.809C392.416 274.96 394.097 273.461 395.172 271.55C396.247 269.638 396.654 267.423 396.329 265.254C396.003 263.085 394.965 261.086 393.376 259.574C395.678 259.464 397.868 258.55 399.565 256.992C401.262 255.434 402.36 253.331 402.667 251.047C402.974 248.764 402.471 246.445 401.245 244.494C400.02 242.543 398.149 241.084 395.959 240.369Z" fill="#2A3759"/>
<path d="M179.984 340.836C181.236 340.836 182.436 340.338 183.322 339.453C184.207 338.568 184.704 337.367 184.704 336.115C184.704 334.863 184.207 333.663 183.322 332.778C182.436 331.892 181.236 331.395 179.984 331.395C178.732 331.395 177.531 331.892 176.646 332.778C175.761 333.663 175.264 334.863 175.264 336.115C175.264 337.367 175.761 338.568 176.646 339.453C177.531 340.338 178.732 340.836 179.984 340.836Z" stroke="black"/>
<path d="M222.467 376.881C222.467 377.815 222.19 378.728 221.671 379.504C221.152 380.28 220.415 380.885 219.553 381.242C218.69 381.6 217.741 381.693 216.825 381.511C215.91 381.329 215.069 380.879 214.409 380.219C213.748 379.559 213.299 378.718 213.117 377.802C212.935 376.887 213.028 375.938 213.385 375.075C213.743 374.213 214.348 373.475 215.124 372.957C215.9 372.438 216.813 372.161 217.746 372.161C218.995 372.171 220.19 372.671 221.073 373.555C221.956 374.438 222.457 375.633 222.467 376.881Z" stroke="black"/>
<path d="M266.591 342.552C266.591 343.485 266.314 344.398 265.795 345.174C265.276 345.951 264.539 346.556 263.677 346.913C262.814 347.27 261.865 347.364 260.949 347.181C260.034 346.999 259.193 346.55 258.532 345.89C257.872 345.229 257.423 344.388 257.241 343.473C257.058 342.557 257.152 341.608 257.509 340.745C257.866 339.883 258.471 339.146 259.248 338.627C260.024 338.108 260.937 337.832 261.87 337.832C263.118 337.843 264.312 338.344 265.195 339.227C266.078 340.11 266.579 341.304 266.591 342.552Z" stroke="black"/>
<path d="M315.077 382.885C315.077 383.818 314.801 384.73 314.282 385.505C313.764 386.281 313.028 386.886 312.166 387.243C311.305 387.6 310.357 387.693 309.442 387.512C308.527 387.33 307.687 386.881 307.027 386.222C306.367 385.563 305.918 384.723 305.735 383.808C305.553 382.893 305.646 381.945 306.002 381.083C306.358 380.221 306.962 379.484 307.737 378.966C308.513 378.447 309.424 378.17 310.357 378.169C311.605 378.179 312.799 378.679 313.682 379.561C314.565 380.443 315.066 381.637 315.077 382.885Z" stroke="black"/>
<path d="M356.269 342.552C356.266 343.485 355.988 344.397 355.47 345.173C354.952 345.949 354.216 346.555 353.355 346.915C352.71 347.184 352.012 347.307 351.313 347.275C350.614 347.242 349.931 347.054 349.314 346.725C348.696 346.396 348.159 345.934 347.742 345.373C347.325 344.811 347.037 344.164 346.901 343.477C346.764 342.791 346.782 342.083 346.952 341.404C347.123 340.726 347.442 340.093 347.887 339.553C348.332 339.013 348.891 338.578 349.524 338.281C350.157 337.983 350.849 337.829 351.548 337.832C352.796 337.844 353.99 338.346 354.872 339.228C355.755 340.111 356.256 341.304 356.269 342.552Z" stroke="black"/>
<path d="M407.759 345.27C407.757 346.203 407.479 347.114 406.961 347.89C406.443 348.667 405.707 349.272 404.846 349.632C404.2 349.902 403.503 350.025 402.804 349.992C402.105 349.96 401.422 349.772 400.804 349.443C400.187 349.114 399.65 348.652 399.233 348.09C398.815 347.529 398.528 346.881 398.392 346.195C398.255 345.509 398.273 344.801 398.443 344.122C398.614 343.443 398.933 342.811 399.378 342.271C399.822 341.731 400.381 341.296 401.015 340.998C401.648 340.701 402.339 340.547 403.039 340.549C404.287 340.561 405.481 341.062 406.364 341.945C407.247 342.828 407.748 344.021 407.759 345.27Z" stroke="black"/>
<path d="M460.037 342.552C460.667 342.57 461.295 342.461 461.884 342.232C462.472 342.003 463.008 341.658 463.46 341.218C463.913 340.778 464.272 340.252 464.518 339.671C464.764 339.089 464.89 338.465 464.89 337.834C464.89 337.203 464.764 336.578 464.518 335.996C464.272 335.415 463.913 334.889 463.46 334.449C463.008 334.009 462.472 333.664 461.884 333.435C461.295 333.206 460.667 333.097 460.037 333.115C458.808 333.15 457.642 333.662 456.785 334.543C455.929 335.424 455.45 336.605 455.45 337.834C455.45 339.062 455.929 340.243 456.785 341.124C457.642 342.005 458.808 342.517 460.037 342.552Z" stroke="black"/>
<path d="M439.51 388.678C439.508 389.612 439.23 390.523 438.712 391.299C438.193 392.075 437.458 392.681 436.597 393.041C435.951 393.311 435.254 393.434 434.555 393.401C433.856 393.368 433.173 393.181 432.555 392.852C431.938 392.523 431.401 392.061 430.984 391.499C430.566 390.938 430.279 390.29 430.143 389.604C430.006 388.918 430.024 388.21 430.194 387.531C430.365 386.852 430.684 386.22 431.129 385.68C431.573 385.14 432.132 384.705 432.766 384.407C433.399 384.109 434.09 383.956 434.79 383.958C435.411 383.953 436.028 384.071 436.603 384.306C437.178 384.541 437.701 384.889 438.14 385.328C438.58 385.768 438.927 386.29 439.162 386.866C439.398 387.441 439.516 388.057 439.51 388.678Z" stroke="black"/>
<path d="M530.118 231.775C530.087 232.429 529.799 233.043 529.317 233.485C528.835 233.927 528.197 234.161 527.544 234.135C527.137 234.12 526.741 234.003 526.39 233.797C526.039 233.59 525.745 233.3 525.534 232.952C525.323 232.604 525.202 232.209 525.18 231.803C525.159 231.397 525.239 230.991 525.413 230.623C525.657 230.109 526.072 229.695 526.586 229.451C527.1 229.207 527.682 229.147 528.235 229.282C528.788 229.418 529.277 229.74 529.62 230.194C529.963 230.648 530.139 231.206 530.118 231.775Z" stroke="black"/>
<path d="M108.615 318.239V204.745" stroke="black" stroke-linecap="round" stroke-linejoin="round"/>
<path d="M108.615 343.053V319.956" stroke="black" stroke-linecap="round" stroke-linejoin="round"/>
<path d="M108.615 757.194V370.516" stroke="black" stroke-linecap="round" stroke-linejoin="round"/>
<path d="M119.128 364.08V757.194" stroke="black" stroke-linecap="round" stroke-linejoin="round"/>
<path d="M119.128 326.964V338.833" stroke="black" stroke-linecap="round" stroke-linejoin="round"/>
<path d="M119.128 204.745V318.883" stroke="black" stroke-linecap="round" stroke-linejoin="round"/>
<path d="M498.868 344.555C516.769 385.175 518.971 430.991 505.048 473.141C491.126 515.291 462.068 550.781 423.494 572.748" stroke="black" stroke-linecap="round" stroke-linejoin="round"/>
<path d="M182.058 323.245C204.447 286.755 239.155 259.48 279.905 246.354M475.289 305.531C456.167 281.445 431.171 262.683 402.704 251.048" stroke="black" stroke-linecap="round" stroke-linejoin="round"/>
<path d="M265.589 582.268C233.01 568.606 205.191 545.626 185.625 516.211C166.059 486.796 155.617 452.257 155.611 416.929C155.611 399.297 158.185 381.756 163.252 364.866" stroke="black" stroke-linecap="round" stroke-linejoin="round"/>
<path d="M364.994 593.64C355.1 595.724 344.984 596.565 334.881 596.143C329.987 596.143 325.067 595.947 320.223 595.559" stroke="black" stroke-linecap="round" stroke-linejoin="round"/>
<path d="M505.233 338.118C491.215 352.136 472.677 372.432 453.528 395.544C448.754 401.33 441.953 405.077 434.511 406.021C427.069 406.965 419.548 405.034 413.481 400.622C396.674 388.396 385.302 379.599 366.854 366.082" stroke="black" stroke-linecap="round" stroke-linejoin="round"/>
<path d="M320.212 299.121L326.016 290.847" stroke="black" stroke-linecap="round" stroke-linejoin="round"/>
<path d="M472.067 307.534C456.315 321.203 442.198 336.65 429.998 353.566C429.998 353.566 394.31 323.682 369.858 308.799C344.607 293.429 338.667 318.811 335.886 297.713C333.804 281.903 335.456 279.042 337.888 277.763C350.686 271.017 344.803 259.28 338.103 264.889C334.116 268.228 333.668 266.771 333.499 263.651C332.837 251.605 321.555 233.537 309.284 261.885C291.969 301.861 326.016 290.847 326.016 290.847" stroke="black" stroke-linecap="round" stroke-linejoin="round"/>
<path d="M320.438 292.014C320.863 298.142 319.862 308.015 313.79 306.581C298.206 302.9 291.536 305.346 282.679 312.227C265.062 325.922 229.257 346.196 229.257 346.196C208.02 333.397 192.643 327.89 172.836 319.379C162.343 330.974 156.248 345.88 155.611 361.505C183.842 373.591 194.661 380.521 216.756 391.325C221.706 393.759 227.188 394.911 232.698 394.673C238.209 394.436 243.571 392.817 248.293 389.966C262.179 381.549 275.252 373.806 289.485 366.296" stroke="black" stroke-linecap="round" stroke-linejoin="round"/>
<path d="M487.639 307.654C479.114 303.389 471.521 304.515 470.501 311.072C469.624 316.718 473.456 323.381 477.1 327.751C482.186 334.147 489.349 338.562 497.347 340.233C499.207 340.753 501.194 340.559 502.919 339.689C504.643 338.819 505.98 337.337 506.667 335.532" stroke="black" stroke-linecap="round" stroke-linejoin="round"/>
<path d="M285.039 336.33C286.587 359.951 292.632 383.059 302.847 404.413C324.68 410.206 342.394 408.847 364.494 402.124C362.756 385.574 364.936 368.847 370.859 353.295" stroke="black" stroke-linecap="round" stroke-linejoin="round"/>
<path d="M491.716 338.69C501.858 334.781 512.282 331.65 522.899 329.325C532.413 327.696 542.089 327.216 551.718 327.894C565.882 328.73 568.145 325.527 553.506 320.528C548.134 318.691 520.682 314.806 514.603 313.948C504.876 312.582 490.512 311.162 480.988 310.873C480.266 310.874 479.544 310.919 478.828 311.008" stroke="black" stroke-linecap="round" stroke-linejoin="round"/>
<path d="M470.479 314.147C470.682 314.019 503.686 301.726 516.82 295.703C532.061 288.701 527.958 294.114 524.043 298.778C521.167 302.204 506.95 311.652 514.602 313.94" stroke="black" stroke-linecap="round" stroke-linejoin="round"/>
<path d="M501.443 335.227C510.1 333.153 527.19 334.952 534.767 335.385C540.918 335.739 549.858 337.756 556.724 338.396C558.297 338.543 560.014 336.251 550.859 332.532C547.422 331.143 541.366 328.632 538.505 327.751" stroke="black" stroke-linecap="round" stroke-linejoin="round"/>
<path d="M501.078 335.385C508.2 335.411 515.295 336.183 522.255 337.688C527.901 338.976 537.365 342.548 543.421 344.197C544.927 344.607 546.997 342.623 538.629 337.402C537.57 336.727 536.497 336.075 535.411 335.445" stroke="black" stroke-linecap="round" stroke-linejoin="round"/>
<path d="M156.243 355.139C144.694 353.427 133.016 352.733 121.345 353.065C111.709 353.803 102.182 355.625 92.9518 358.501C79.3668 362.724 76.3893 360.052 89.4473 351.725C111.497 341.214 134.303 332.37 157.673 325.267C160.989 324.361 164.499 324.461 167.758 325.553" stroke="black" stroke-linecap="round" stroke-linejoin="round"/>
<path d="M125.986 336.115C132.856 332.039 116.629 326.328 113.049 323.694C108.189 320.11 102.829 315.864 119.343 318.973C133.174 321.79 147.176 323.698 161.257 324.687" stroke="black" stroke-linecap="round" stroke-linejoin="round"/>
<path d="M105.682 355.283C102.671 357.142 96.6784 361.516 94.9543 362.811C87.0495 368.657 89.165 370.475 90.6632 369.963C96.6106 367.93 105.754 363.598 111.261 361.881C120.201 359.092 137.362 353.156 145.515 354.014" stroke="black" stroke-linecap="round" stroke-linejoin="round"/>
<path d="M110.76 362.005C109.544 363.221 108.615 364.222 108.042 364.723C101.177 371.732 103.597 373.215 104.967 372.447C110.433 369.372 118.774 363.737 123.991 361.154C130.366 358.144 136.994 355.703 143.799 353.859" stroke="black" stroke-linecap="round" stroke-linejoin="round"/>
<path d="M294.194 746.466C293.366 738.122 291.541 729.908 288.758 721.999C273.497 726.361 257.32 726.361 242.059 721.999C221.823 727.863 198.722 745.811 186.635 757.111C227.251 757.111 254.146 756.753 285.039 756.682C286.334 756.686 287.614 756.415 288.796 755.884C289.98 755.36 291.04 754.59 291.905 753.626C292.77 752.662 293.421 751.525 293.813 750.29C294.209 749.056 294.34 747.753 294.19 746.466H294.194Z" stroke="black" stroke-linecap="round" stroke-linejoin="round"/>
<path d="M313.218 610.073C313.688 630.042 297.762 669.638 288.75 722.081" stroke="black" stroke-linecap="round" stroke-linejoin="round"/>
<path d="M242.059 722.01L265.307 601.913" stroke="black" stroke-linecap="round" stroke-linejoin="round"/>
<path d="M343.821 521.698L315.717 609.66C297.198 612.919 278.124 609.525 261.866 600.076L302.847 404.488" stroke="black" stroke-linecap="round" stroke-linejoin="round"/>
<path d="M520.968 685.463L507.665 678.311C502.373 695.687 495.996 700.836 479.629 711.564C487.854 723.865 485.923 729.945 484.993 733.517C476.336 741.67 471.98 741.565 465.973 757.156H496.086C500.13 757.245 504.115 756.179 507.574 754.082C511.032 751.985 513.821 748.944 515.611 745.318C520.128 735.531 523.893 715.712 528.123 704.054C529.44 700.619 529.437 696.818 528.116 693.385C526.794 689.951 524.248 687.129 520.968 685.463Z" stroke="black" stroke-linecap="round" stroke-linejoin="round"/>
<path d="M479.701 711.568L393.527 618.671" stroke="black" stroke-linecap="round" stroke-linejoin="round"/>
<path d="M431 589.276C443.119 599.248 454.082 610.547 463.684 622.962C476.832 640.989 507.665 678.296 507.665 678.296" stroke="black" stroke-linecap="round" stroke-linejoin="round"/>
<path d="M326.016 453.901L358.915 579.411C361.414 588.936 366.515 597.578 373.648 604.368L390.041 619.974C407.511 614.344 422.457 602.775 432.287 587.274L417.486 562.807L408.117 467.407C404.677 431.873 383.465 407.372 364.494 402.113" stroke="black" stroke-linecap="round" stroke-linejoin="round"/>
<path d="M351.549 303.649C339.495 318.806 329.913 335.774 323.159 353.924C313.647 338.261 304.338 304.989 304.338 304.989" stroke="black" stroke-linecap="round" stroke-linejoin="round"/>
<path d="M35.0959 757.194H603.923" stroke="black" stroke-linecap="round" stroke-linejoin="round"/>
<path d="M535.912 168.202C507.594 162.838 480.578 179.494 475.684 205.392C474.021 214.464 475.195 223.825 479.05 232.205L466.82 252.23L489.992 247.51C497.774 254.971 507.567 259.993 518.167 261.957C546.485 267.321 573.501 250.664 578.394 224.77C583.325 198.88 564.305 173.566 535.912 168.202Z" stroke="black" stroke-linecap="round" stroke-linejoin="round"/>
<path d="M527.615 220.908C527.687 217.69 528.921 215.341 532.908 210.037C541.509 198.598 536.295 190.715 528.974 190.369C527.665 190.309 526.358 190.539 525.148 191.043C523.937 191.546 522.853 192.31 521.972 193.281C521.091 194.252 520.435 195.405 520.051 196.659C519.668 197.912 519.565 199.235 519.752 200.532" stroke="black" stroke-linecap="round" stroke-linejoin="round"/>
<path d="M496.579 567.538H512.028" stroke="black" stroke-linecap="round" stroke-linejoin="round"/>
<path d="M539.416 567.467H554.864" stroke="black" stroke-linecap="round" stroke-linejoin="round"/>
<path d="M525.722 538.358V553.806" stroke="black" stroke-linecap="round" stroke-linejoin="round"/>
<path d="M525.793 581.199V596.643" stroke="black" stroke-linecap="round" stroke-linejoin="round"/>
<path d="M505.09 546.94L516.033 557.811" stroke="black" stroke-linecap="round" stroke-linejoin="round"/>
<path d="M535.482 577.193L546.425 588.061" stroke="black" stroke-linecap="round" stroke-linejoin="round"/>
<path d="M546.353 546.869L535.411 557.812" stroke="black" stroke-linecap="round" stroke-linejoin="round"/>
<path d="M516.104 577.193L505.162 588.132" stroke="black" stroke-linecap="round" stroke-linejoin="round"/>
<path d="M35.3822 204.745C33.0337 204.74 30.7277 204.118 28.6953 202.941C26.6629 201.764 24.9755 200.074 23.802 198.04C22.6286 196.006 22.0103 193.699 22.0093 191.35C22.0082 189.002 22.6243 186.694 23.796 184.659L102.249 48.6997C103.429 46.6623 105.123 44.9708 107.163 43.7949C109.202 42.619 111.515 42 113.87 42C116.224 42 118.537 42.619 120.576 43.7949C122.616 44.9708 124.31 46.6623 125.49 48.6997L203.943 184.659C205.119 186.694 205.738 189.003 205.739 191.354C205.74 193.704 205.122 196.014 203.948 198.05C202.774 200.087 201.085 201.778 199.051 202.955C197.016 204.132 194.707 204.753 192.357 204.756L35.3822 204.745Z" stroke="black" stroke-linecap="round" stroke-linejoin="round"/>
<path d="M225.467 126.152C225.551 127.091 225.45 128.037 225.168 128.936C224.887 129.836 224.431 130.671 223.827 131.394C222.607 132.855 220.856 133.772 218.96 133.942C218.022 134.026 217.075 133.925 216.176 133.643C215.276 133.362 214.441 132.906 213.718 132.302C212.257 131.082 211.34 129.331 211.17 127.435C211 125.54 211.59 123.654 212.81 122.193C214.03 120.732 215.781 119.816 217.677 119.645C219.573 119.475 221.458 120.065 222.919 121.285C224.38 122.506 225.296 124.256 225.467 126.152Z" stroke="black" stroke-linecap="round" stroke-linejoin="round"/>
<path d="M167.291 646.918V675.812" stroke="black" stroke-linecap="round" stroke-linejoin="round"/>
<path d="M181.772 661.365H152.81" stroke="black" stroke-linecap="round" stroke-linejoin="round"/>
<path d="M336.458 301.074C337.839 301.817 339.377 302.218 340.944 302.246C342.511 302.274 344.062 301.928 345.469 301.235C346.875 300.542 348.095 299.524 349.028 298.264C349.961 297.005 350.58 295.541 350.833 293.994C351.937 295.969 353.685 297.506 355.786 298.346C357.887 299.186 360.213 299.278 362.374 298.608C364.536 297.937 366.401 296.545 367.657 294.663C368.914 292.782 369.486 290.525 369.278 288.272C371.035 289.535 373.159 290.183 375.322 290.117C377.485 290.051 379.565 289.274 381.242 287.906C382.919 286.539 384.098 284.657 384.598 282.552C385.098 280.447 384.89 278.236 384.007 276.261C386.231 276.88 388.603 276.696 390.705 275.741C392.806 274.785 394.504 273.119 395.499 271.036C396.394 269.148 396.67 267.027 396.289 264.973C395.908 262.919 394.889 261.038 393.376 259.597C395.951 259.525 398.394 258.441 400.174 256.58C401.955 254.719 402.93 252.231 402.889 249.655C402.852 247.574 402.162 245.557 400.917 243.889C399.673 242.221 397.936 240.986 395.951 240.358C398.02 239.75 399.836 238.488 401.126 236.759C402.416 235.031 403.11 232.931 403.103 230.774C403.07 228.261 402.071 225.857 400.313 224.06C398.556 222.263 396.174 221.211 393.663 221.123C395.147 219.782 396.188 218.02 396.645 216.072C397.102 214.124 396.955 212.083 396.222 210.222C395.494 208.359 394.216 206.761 392.558 205.643C390.899 204.524 388.94 203.936 386.94 203.958C386.141 203.976 385.348 204.096 384.58 204.316C385.503 202.355 385.755 200.145 385.296 198.027C384.836 195.909 383.691 194.002 382.038 192.601C380.385 191.2 378.315 190.383 376.151 190.277C373.986 190.171 371.847 190.781 370.065 192.014C370.315 189.768 369.785 187.504 368.563 185.602C367.341 183.7 365.502 182.277 363.355 181.57C361.208 180.864 358.883 180.918 356.771 181.723C354.659 182.528 352.888 184.035 351.756 185.991C350.16 174.996 333.379 174.74 331.659 185.92C330.825 184.451 329.628 183.221 328.182 182.349C326.736 181.476 325.09 180.989 323.402 180.936C321.714 180.883 320.041 181.264 318.543 182.044C317.045 182.824 315.772 183.976 314.848 185.389C313.609 187.279 313.057 189.536 313.282 191.785C311.51 190.539 309.377 189.91 307.213 189.996C305.048 190.083 302.972 190.878 301.305 192.261C299.638 193.644 298.471 195.537 297.986 197.648C297.501 199.759 297.724 201.971 298.62 203.943C296.494 203.368 294.236 203.521 292.207 204.379C290.178 205.236 288.495 206.748 287.425 208.674C286.355 210.599 285.961 212.828 286.305 215.003C286.649 217.179 287.711 219.177 289.323 220.679C286.99 220.751 284.759 221.651 283.03 223.218C281.3 224.785 280.185 226.916 279.884 229.231C279.582 231.545 280.115 233.891 281.386 235.848C282.657 237.806 284.583 239.247 286.819 239.914C284.579 240.563 282.643 241.989 281.359 243.936C280.074 245.882 279.525 248.223 279.809 250.538C280.093 252.853 281.192 254.991 282.909 256.57C284.626 258.148 286.849 259.064 289.18 259.152C287.562 260.644 286.49 262.636 286.137 264.808C285.785 266.981 286.17 269.209 287.233 271.137C288.295 273.064 289.974 274.58 291.999 275.441C294.024 276.302 296.28 276.46 298.406 275.888C297.662 277.457 297.349 279.196 297.499 280.927C297.649 282.657 298.256 284.316 299.26 285.734C300.263 287.152 301.625 288.277 303.207 288.994C304.789 289.712 306.533 289.995 308.26 289.816" stroke="black" stroke-linecap="round" stroke-linejoin="round"/>
<path d="M417.057 604.939L398.39 582.697" stroke="black" stroke-linecap="round" stroke-linejoin="round"/>
<path d="M295.195 610.017L302.847 582.268" stroke="black" stroke-linecap="round" stroke-linejoin="round"/>
<path d="M351.549 427.013C361.776 439.382 373.148 444.603 385.374 444.46" stroke="black" stroke-linecap="round" stroke-linejoin="round"/>
<path d="M108.897 165.111C108.897 165.764 109.025 166.41 109.275 167.013C109.525 167.616 109.891 168.163 110.352 168.625C110.814 169.086 111.361 169.452 111.964 169.702C112.567 169.952 113.213 170.08 113.866 170.08C114.518 170.08 115.164 169.952 115.767 169.702C116.37 169.452 116.918 169.086 117.379 168.625C117.84 168.163 118.206 167.616 118.456 167.013C118.706 166.41 118.834 165.764 118.834 165.111C118.834 164.459 118.706 163.813 118.456 163.21C118.206 162.607 117.84 162.059 117.379 161.598C116.918 161.136 116.37 160.771 115.767 160.521C115.164 160.271 114.518 160.143 113.866 160.143C113.213 160.143 112.567 160.271 111.964 160.521C111.361 160.771 110.814 161.136 110.352 161.598C109.891 162.059 109.525 162.607 109.275 163.21C109.025 163.813 108.897 164.459 108.897 165.111Z" stroke="black"/>
<path d="M113.794 94.2957V142.425" stroke="black" stroke-linecap="round"/>
</svg>
